<svg xmlns="http://www.w3.org/2000/svg" xmlns:xlink="http://www.w3.org/1999/xlink" viewBox="0 0 140.07 101.05"><defs><style>.cls-1{isolation:isolate;}.cls-2{fill:#b94e48;}.cls-3{fill:url(#linear-gradient);}.cls-36,.cls-4{opacity:0.5;}.cls-10,.cls-15,.cls-17,.cls-22,.cls-28,.cls-30,.cls-37,.cls-38,.cls-39,.cls-4,.cls-44,.cls-46,.cls-49,.cls-50,.cls-52,.cls-53,.cls-6,.cls-9{mix-blend-mode:multiply;}.cls-4{fill:url(#linear-gradient-2);}.cls-5,.cls-6{fill:#78423c;}.cls-17,.cls-19,.cls-21,.cls-30,.cls-37,.cls-39,.cls-49,.cls-50,.cls-53,.cls-6,.cls-9{opacity:0.4;}.cls-10,.cls-7,.cls-8,.cls-9{fill:#0b132b;}.cls-10,.cls-15,.cls-22,.cls-23,.cls-28,.cls-44,.cls-46,.cls-52,.cls-8{opacity:0.3;}.cls-19,.cls-21,.cls-23,.cls-36,.cls-8{mix-blend-mode:screen;}.cls-11{fill:#1e232b;}.cls-12{fill:#111419;}.cls-13{fill:#b6c0ca;}.cls-14{fill:#464a51;}.cls-15{fill:#111919;}.cls-16,.cls-17{fill:#263a3a;}.cls-18,.cls-19{fill:#46676c;}.cls-20{fill:url(#linear-gradient-3);}.cls-21,.cls-22{fill:#8da5b0;}.cls-23{fill:#7ab3b8;}.cls-24{fill:#2d4649;}.cls-25{fill:#ef1a21;}.cls-26{fill:#bf1623;}.cls-27{fill:#386f4b;}.cls-28{fill:url(#linear-gradient-4);}.cls-29{fill:url(#linear-gradient-5);}.cls-30{fill:url(#linear-gradient-6);}.cls-31{fill:url(#linear-gradient-7);}.cls-32{fill:#181b21;}.cls-33{fill:#282c33;}.cls-34{fill:url(#linear-gradient-8);}.cls-35,.cls-36,.cls-37{fill:#14191c;}.cls-38{fill:#de8065;opacity:0.2;}.cls-39{fill:#355150;}.cls-40{fill:#fff;}.cls-41{fill:#d87958;opacity:0.8;}.cls-42{fill:#1c2123;}.cls-43,.cls-44{fill:#74523c;}.cls-45{fill:url(#linear-gradient-9);}.cls-46{fill:url(#linear-gradient-10);}.cls-47{fill:url(#linear-gradient-11);}.cls-48,.cls-53{fill:#ab513c;}.cls-49{fill:url(#linear-gradient-12);}.cls-50{fill:url(#linear-gradient-13);}.cls-51{fill:url(#linear-gradient-14);}.cls-52{fill:url(#linear-gradient-15);}.cls-54{fill:url(#linear-gradient-16);}.cls-55{fill:url(#linear-gradient-17);}</style><linearGradient id="linear-gradient" x1="84.11" y1="59.98" x2="91.79" y2="59.98" gradientUnits="userSpaceOnUse"><stop offset="0.01" stop-color="#71675f"/><stop offset="1" stop-color="#665e54"/></linearGradient><linearGradient id="linear-gradient-2" x1="89.34" y1="24.99" x2="86.74" y2="90.47" xlink:href="#linear-gradient"/><linearGradient id="linear-gradient-3" x1="206.13" y1="30.81" x2="224.58" y2="23.3" gradientTransform="matrix(-1, 0, 0, 1, 342.22, 0)" gradientUnits="userSpaceOnUse"><stop offset="0" stop-color="#455c79"/><stop offset="0.99" stop-color="#668da2"/></linearGradient><linearGradient id="linear-gradient-4" x1="19.7" y1="41.91" x2="26.49" y2="41.91" gradientUnits="userSpaceOnUse"><stop offset="0.01" stop-color="#386f4b"/><stop offset="1" stop-color="#36794f"/></linearGradient><linearGradient id="linear-gradient-5" x1="-1.69" y1="91.17" x2="8.9" y2="63.4" gradientUnits="userSpaceOnUse"><stop offset="0.01" stop-color="#002440"/><stop offset="1" stop-color="#002d4e"/></linearGradient><linearGradient id="linear-gradient-6" x1="-1.5" y1="90.67" x2="8.94" y2="63.3" xlink:href="#linear-gradient-5"/><linearGradient id="linear-gradient-7" x1="17.6" y1="33.09" x2="16.72" y2="31.01" gradientUnits="userSpaceOnUse"><stop offset="0" stop-color="#edbf97"/><stop offset="1" stop-color="#ec9e7e"/></linearGradient><linearGradient id="linear-gradient-8" x1="4.47" y1="26.52" x2="1.86" y2="20.34" gradientTransform="translate(22.64 7.13) rotate(11.74)" xlink:href="#linear-gradient-7"/><linearGradient id="linear-gradient-9" x1="4.21" y1="44.08" x2="19.45" y2="44.08" xlink:href="#linear-gradient-4"/><linearGradient id="linear-gradient-10" x1="7.99" y1="48.88" x2="17.8" y2="48.88" xlink:href="#linear-gradient-4"/><linearGradient id="linear-gradient-11" x1="4.51" y1="87.92" x2="20.69" y2="45.51" xlink:href="#linear-gradient-5"/><linearGradient id="linear-gradient-12" x1="7.91" y1="89.44" x2="23.36" y2="48.93" xlink:href="#linear-gradient-5"/><linearGradient id="linear-gradient-13" x1="39.37" y1="67.65" x2="44.08" y2="67.65" gradientTransform="matrix(0.86, -0.1, 0.12, 0.99, -33.89, -5.7)" xlink:href="#linear-gradient-5"/><linearGradient id="linear-gradient-14" x1="13.59" y1="42.96" x2="31.63" y2="42.96" xlink:href="#linear-gradient-4"/><linearGradient id="linear-gradient-15" x1="13.59" y1="43.22" x2="31.63" y2="43.22" xlink:href="#linear-gradient-4"/><linearGradient id="linear-gradient-16" x1="25.46" y1="39.97" x2="29.59" y2="37" gradientUnits="userSpaceOnUse"><stop offset="0" stop-color="#f1c7a3"/><stop offset="1" stop-color="#f0a98b"/></linearGradient><linearGradient id="linear-gradient-17" x1="31.13" y1="49.32" x2="36.09" y2="45.75" xlink:href="#linear-gradient-16"/></defs><g class="cls-1"><g id="Layer_2" data-name="Layer 2"><g id="Layer_2-2" data-name="Layer 2"><polygon class="cls-2" points="0 95.02 136.23 94.47 140.07 94.47 128.91 99.04 66.92 100.69 6.04 101.05 0 95.02"/><polygon class="cls-3" points="91.8 96.48 84.39 96.62 84.11 23.34 91.38 23.34 91.77 92.34 91.8 96.48"/><polygon class="cls-4" points="91.8 96.48 84.39 96.62 84.11 23.34 84.83 23.34 85.9 91.13 91.77 92.34 91.8 96.48"/><rect class="cls-5" x="80.73" y="93.65" width="15.54" height="3.57"/><polygon class="cls-6" points="96.27 95.39 96.27 97.21 80.73 97.21 80.73 94.46 88.5 95.43 96.27 95.39"/><path class="cls-7" d="M18,44.67c.22,1.15.37,1.91.37,1.91L137,44.84a15.08,15.08,0,0,0,.62-1.44,22.24,22.24,0,0,0,1.15-4.49,19.74,19.74,0,0,0,0-6.14,17,17,0,0,0-3.92-6.6h0a8.65,8.65,0,0,0-1-.8c-3.35-2.26-18-4.94-24.83-5.84l-.23,0L107,18.21C103.2,15.55,94.57,9.47,90.61,6.87,85.46,3.5,75.28-.31,58.1,0A112.36,112.36,0,0,0,40,1.74,55.76,55.76,0,0,0,31.5,3.83s-3,4.35-6.17,9.36a91.43,91.43,0,0,0-5.76,10.33c-.14.3-.26.58-.38.86-1.24,2.86-2,4.74-2.43,6a12.06,12.06,0,0,0-.7,2.79C16,34,17.32,41.17,18,44.67Z"/><path class="cls-8" d="M40,1.74c5.49,3.5,17.7,10.4,32,12.91a271.07,271.07,0,0,0,35,3.56C103.2,15.55,94.57,9.47,90.61,6.87,85.46,3.5,75.28-.31,58.1,0A112.36,112.36,0,0,0,40,1.74Z"/><path class="cls-9" d="M18,44.67c.22,1.15.37,1.91.37,1.91L137,44.84a15.08,15.08,0,0,0,.62-1.44c-2,.15-7.95-.19-7.95-.19s.11-12.51-14-12.51-13,13.49-13,13.49-49.48-.11-49.92-.43S51.42,28.63,37,30.26c-12.71,1.44-12.7,14-12.7,14Z"/><path class="cls-10" d="M18.36,46.58l28.07-.41L123.72,45l13.3-.2a20.39,20.39,0,0,0,1.77-5.93c-4.32-1.43-12.84-3.83-27.39-6.36-2.56-.45-30.1-5.77-46-7.94S26,19.93,26,19.93l-6.83,4.45c-2.71,6.24-3,7.78-3.13,8.82S18.36,46.58,18.36,46.58Z"/><path class="cls-9" d="M40.47,32.66s12.15,4.24,6,13.51L123.72,45v0c-9-.82-40.29-3.64-60.92-8.49C48.68,33.2,40.47,32.66,40.47,32.66Z"/><path class="cls-9" d="M39.77,15.64l.31.09c-1,3.39-2.42,8.69-2.19,9.37.18.53,2.62,2.32,5,4.06,1.75,1.29,3.57,2.63,4.83,3.7,2.89,2.47,5.26,8.36,5.59,9.22,1.06.1,10.21,1,15.16,1,.29-6.67-1.22-21.43-1.42-22l.15-.06.15-.06a165.17,165.17,0,0,1,1.45,22.09c5.4,0,31,.3,33.08.32,1.63-6.71,2.26-20.25,2.16-20.79l.32-.08c.13.51-.54,14.42-2.19,21.08l0,.12H102c-.28,0-28.19-.32-33.38-.32s-15.35-1-15.45-1l-.11,0,0-.09c0-.07-2.54-6.63-5.54-9.18-1.25-1.07-3.06-2.4-4.81-3.69-3-2.23-4.89-3.62-5.09-4.22C37.25,24.2,39.51,16.51,39.77,15.64Z"/><path class="cls-7" d="M95.92,22.05h5.41l.11-.64.17-1.1a2.52,2.52,0,0,0-.19-.26A6.33,6.33,0,0,0,97,17.53l-.59,2.52Z"/><polygon class="cls-7" points="101.12 22.1 104.51 22.1 104.36 22 101.45 19.93 101.42 20.05 101.23 21.37 101.12 22.05 101.12 22.1"/><path class="cls-9" d="M101.12,22.05v.05h3.39l-.15-.1c-.8-.14-1.84-.35-2.92-.59l-.21,0a43.49,43.49,0,0,1-4.86-1.32l-.45,2Z"/><path class="cls-8" d="M109,19.53c2.24,1.56,9.36,4.65,16.74,5.73,3.75.55,6.85.8,9.1.91a8.65,8.65,0,0,0-1-.8C130.49,23.11,115.8,20.43,109,19.53Z"/><path class="cls-10" d="M26.68,24.72a2.52,2.52,0,1,0,2.52-2.51A2.51,2.51,0,0,0,26.68,24.72Z"/><path class="cls-7" d="M110.42,29.07l-4.16-.44a1.91,1.91,0,0,1,1.31-1,10.9,10.9,0,0,1,2.85.44Z"/><path class="cls-11" d="M128.48,45s.22-12.84-12.37-12.84S104,45.28,104,45.28Z"/><path class="cls-11" d="M51,46.15s.22-13.49-11.71-13.6-13.14,10-13,14Z"/><path class="cls-12" d="M105.3,43.72a10.77,10.77,0,0,0,10.78,10.72A10.72,10.72,0,1,0,105.3,43.72Z"/><path class="cls-13" d="M108.8,43.72a7.62,7.62,0,0,0,.1,1.18,7.2,7.2,0,0,0,1.59,3.46,7.3,7.3,0,0,0,5.08,2.58l.51,0a7.21,7.21,0,0,0,7-5.4,6.93,6.93,0,0,0,.24-1.84,7.23,7.23,0,0,0-2.15-5.14A7.36,7.36,0,0,0,118.67,37a7.36,7.36,0,0,0-5.45.11,6.77,6.77,0,0,0-1.72,1A7.21,7.21,0,0,0,108.8,43.72Z"/><path class="cls-14" d="M113.38,38.13c.52,1.28,2.06,4.45,2.9,4.36s2.35-3.15,2.68-4.41a4.31,4.31,0,0,0-2.76-.95A4.91,4.91,0,0,0,113.38,38.13Z"/><path class="cls-14" d="M118.17,43c0,.65,2.42,1.32,4.16,2,.74-.9,0-4.07-1.31-5.38C120,40.74,118.17,42.23,118.17,43Z"/><path class="cls-14" d="M109.66,44.74c1.93-.13,4-.42,4.16-1.35s-1.34-3.07-2.25-4.3A5.45,5.45,0,0,0,109.66,44.74Z"/><path class="cls-14" d="M118.28,50.13a6.28,6.28,0,0,0,3.34-2.86c-1.33-1.11-4.28-2.79-4.64-2.16S117.25,48.23,118.28,50.13Z"/><path class="cls-14" d="M110.57,47.85A5.91,5.91,0,0,0,115,50.36c.38-1.78.83-4.77.08-5.27S112.09,46.47,110.57,47.85Z"/><path class="cls-14" d="M116.93,43.1a.27.27,0,0,0,.19.33.27.27,0,0,0,.14-.52A.28.28,0,0,0,116.93,43.1Z"/><path class="cls-14" d="M115.09,42.69a.26.26,0,0,0,.19.33.27.27,0,0,0,.33-.19.27.27,0,0,0-.19-.32A.26.26,0,0,0,115.09,42.69Z"/><path class="cls-14" d="M114.67,44.16a.28.28,0,0,0,.2.33.26.26,0,0,0,.32-.19A.27.27,0,0,0,115,44,.28.28,0,0,0,114.67,44.16Z"/><path class="cls-14" d="M116.32,44.69a.26.26,0,0,0,.19.33.27.27,0,1,0,.14-.52A.28.28,0,0,0,116.32,44.69Z"/><path class="cls-15" d="M105.3,43.72a10.62,10.62,0,0,0,3.46,7.86c.53-.94,1.12-2,1.74-3.22,1.94-3.81,8-10,12-13.28a10.79,10.79,0,0,0-17.15,8.64Z"/><path class="cls-13" d="M31.59,44a5.94,5.94,0,0,0,.1,1.13,6.68,6.68,0,0,0,1.59,3.33A7.4,7.4,0,0,0,38.36,51l.51,0a7.43,7.43,0,0,0,2.92-.59,7.21,7.21,0,0,0,3.51-3.11,6.56,6.56,0,0,0,.61-1.5A6.41,6.41,0,0,0,46.15,44,6.79,6.79,0,0,0,44,39.07a7.25,7.25,0,0,0-2.53-1.57,7.66,7.66,0,0,0-2.59-.45,7.57,7.57,0,0,0-2.87.56,7.33,7.33,0,0,0-1.72,1A6.86,6.86,0,0,0,31.59,44Z"/><path class="cls-16" d="M33.69,8.07a13.83,13.83,0,0,0,5.38,7.81,14.08,14.08,0,0,0,1.57,1,16.12,16.12,0,0,0,2.13,1c4.36,1.65,13.61,2.75,22.32,3.47l1.21.1,2.36.18c5.47.41,10.4.66,13.3.82,8,.44,24.3.22,24.3.22S90.17,9.49,82.51,6.22C78.92,4.69,72.28,3.81,65.36,3.49l-2-.08c-2.71-.08-5.42-.08-8,0A64.81,64.81,0,0,0,44.74,4.48c-.63.14-1.23.27-1.8.41l-1.51.37h0C35.53,6.79,33.69,8.07,33.69,8.07Z"/><path class="cls-17" d="M33.69,8.07a13.83,13.83,0,0,0,5.38,7.81,14.08,14.08,0,0,0,1.57,1,16.12,16.12,0,0,0,2.13,1c4.36,1.65,13.61,2.75,22.32,3.47-1.87-2.24-4.3-5.19-6.31-7.74-3.3-4.19-3.72-7.07-3.41-10.17A64.81,64.81,0,0,0,44.74,4.48c-.63.14-1.23.27-1.8.41l-1.51.37h0C35.53,6.79,33.69,8.07,33.69,8.07Z"/><path class="cls-18" d="M35.22,8.78a13.38,13.38,0,0,0,6.6,7.82h0a15.33,15.33,0,0,0,3.58,1.32,141.18,141.18,0,0,0,16.16,2.34h0c6.26.62,12.33,1,15.69,1.08,6.57.17,26.6.49,26.6.49s-7.08-5.66-14.73-10.5c-1.71-1.08-3.44-2.12-5.13-3C78.1,5.07,63.79,3.15,49.9,5c-1.72.23-3.43.52-5.12.88a57.64,57.64,0,0,0-8.22,2.34C36.11,8.42,35.66,8.6,35.22,8.78Z"/><path class="cls-19" d="M36.56,8.26a69,69,0,0,0,5.26,8.34h0a15.33,15.33,0,0,0,3.58,1.32,141.18,141.18,0,0,0,16.16,2.34c-5-4.89-11.89-11.41-16.78-14.34A57.64,57.64,0,0,0,36.56,8.26Z"/><path class="cls-16" d="M39.07,15.88a14.08,14.08,0,0,0,1.57,1l2.3-12-1.51.37h0Z"/><path class="cls-20" d="M124.76,25.8a11.8,11.8,0,0,0,5.58,5.44,12.29,12.29,0,0,0,7.44.71l.22-.05a9,9,0,0,0-2.21-3.36A8.16,8.16,0,0,0,133.52,27a11.44,11.44,0,0,0-2-.66A26.6,26.6,0,0,0,124.76,25.8Z"/><path class="cls-21" d="M129.9,29a3,3,0,1,0,5.89-.42A8.16,8.16,0,0,0,133.52,27a11.44,11.44,0,0,0-2-.66A2.94,2.94,0,0,0,129.9,29Z"/><path class="cls-22" d="M124.76,25.8a11.8,11.8,0,0,0,5.58,5.44,12.29,12.29,0,0,0,7.44.71C132.12,30.71,125.41,26.9,124.76,25.8Z"/><path class="cls-23" d="M107.79,32s-19.21-6.36-37.1-9.14-42-2.77-42-2.77,24,2.94,40.89,5.38S107.79,32,107.79,32Z"/><path class="cls-19" d="M49.9,5c3.59,4,9.74,9.94,15,10.59,6.07.74,17.27-2.52,24.18-4.3-1.71-1.08-3.44-2.12-5.13-3C78.1,5.07,63.79,3.15,49.9,5Z"/><path class="cls-16" d="M63.34,3.41c.75,4.36,2.49,15.12,3,18l2.36.18c-.39-3.2-2.51-14.52-3.3-18.12Z"/><path class="cls-24" d="M76.38,26.78l-5.26-1v.77a4.3,4.3,0,0,0,3,1.3C76.05,28,76.38,26.78,76.38,26.78Z"/><path class="cls-24" d="M46.11,22.65l-.11.77a9.38,9.38,0,0,1-3.08.48c-1.38-.1-2.12-2.12-2.12-2.12Z"/><path class="cls-25" d="M16.76,30.41l7-3.19,3.39-9.9L27,17.07c-.37-.86-1.55-3.61-1.64-3.89h0a91.43,91.43,0,0,0-5.76,10.33c-.14.3-.26.58-.38.86l-.34.79C17.81,27.6,17.16,29.24,16.76,30.41Z"/><path class="cls-26" d="M16.76,30.41l7-3.19,3.39-9.9L27,17.07c-1,1.85-2.93,5.4-3.61,5.91a46.27,46.27,0,0,1-4.55,2.19C17.81,27.6,17.16,29.24,16.76,30.41Z"/><path class="cls-27" d="M26.49,40.69l-6.17,3.43s-.33-1-.62-1.86c-.13-.39-.25-.77-.34-1a4.16,4.16,0,0,1-.14-1.65c.83-.14,5.08-.89,5.9-1.23,0,0,.33.71.69,1.35A3.57,3.57,0,0,0,26.49,40.69Z"/><path class="cls-28" d="M26.49,40.69l-6.17,3.43s-.33-1-.62-1.86a41.18,41.18,0,0,0,6.11-2.55A3.57,3.57,0,0,0,26.49,40.69Z"/><path class="cls-29" d="M9.07,69.62S7.7,71.75,6.61,77.3,4.75,96.09,4.75,96.09l-.35.23-.61.39S.78,87.25.37,81.35a13.77,13.77,0,0,1,3.49-9.87,110,110,0,0,1,0-11.7c.06-1.74.13-3.31.2-4.39,0-.64.09-1.1.13-1.33,0,0,.09.69.27,1.54A12.8,12.8,0,0,0,5,57.76l0,.07a27.94,27.94,0,0,0,2.74,4.05Z"/><path class="cls-30" d="M9.07,69.62S7.7,71.75,6.61,77.3,4.75,96.09,4.75,96.09l-.35.23L4,93.42a90.24,90.24,0,0,1,.14-12.89c.61-4.67,2.74-11.45,2.74-12.07s-1.16-5.08-1.16-5.08a13.77,13.77,0,0,1-1.91-3.6c.06-1.74.13-3.31.2-4.39,0-.64.09-1.1.13-1.33,0,0,.09.69.27,1.54A12.8,12.8,0,0,0,5,57.76l0,.07a27.94,27.94,0,0,0,2.74,4.05Z"/><path class="cls-31" d="M16.88,30l-.54,1.48a8,8,0,0,1,1.44,1.85Z"/><path class="cls-32" d="M52,91.5a4.79,4.79,0,0,1,.45.25,3,3,0,0,1,1.37,2.63l0,.05a3.09,3.09,0,0,1-2.29,3h0a6.94,6.94,0,0,1-2.29.35l-9.73,0-9.27,0a5.65,5.65,0,0,1-3.38-.9,3.13,3.13,0,0,1-.79-.84,3,3,0,0,1-.46-1.68v-.08a2.92,2.92,0,0,1,.91-2.13,5.56,5.56,0,0,1,3.81-1.16l18.44,0h.56A6.33,6.33,0,0,1,52,91.5Z"/><polygon class="cls-33" points="29.56 97.5 31.06 97.42 33.31 94.39 31.92 94.38 29.56 97.5"/><path class="cls-33" d="M28.73,94.4l-1.88,2.54a3.13,3.13,0,0,1-.79-.84l1.29-1.7Z"/><polygon class="cls-33" points="43.47 97.39 44.96 97.31 47.22 94.28 45.83 94.27 43.47 97.39"/><polygon class="cls-33" points="47.62 97.42 49.11 97.34 51.36 94.31 49.98 94.3 47.62 97.42"/><path class="cls-33" d="M53.81,94.43a3.09,3.09,0,0,1-2.29,3Z"/><polygon class="cls-33" points="33.34 94.07 34.82 94.04 34.2 91.53 32.52 91.64 33.34 94.07"/><polygon class="cls-33" points="34.19 97.33 36.59 94.33 37.74 94.31 36.01 97.25 34.19 97.33"/><polygon class="cls-33" points="38.91 97.35 41.32 94.35 42.47 94.32 40.74 97.27 38.91 97.35"/><polygon class="cls-33" points="38.7 94.14 39.99 94.18 38.73 91.62 36.83 91.47 38.7 94.14"/><polygon class="cls-33" points="29.38 94.36 30.59 94.25 29.16 91.63 27.95 91.74 29.38 94.36"/><path class="cls-33" d="M26.51,92.21l.88,1.62-1.2.11-.38-.7A2.82,2.82,0,0,1,26.51,92.21Z"/><polygon class="cls-33" points="43.73 94.15 44.93 94.07 43.51 91.43 41.74 91.41 43.73 94.15"/><polygon class="cls-33" points="47.94 94.25 49.14 94.16 47.72 91.52 45.95 91.5 47.94 94.25"/><path class="cls-33" d="M52,91.5a4.79,4.79,0,0,1,.45.25l1.29,2.4-1.2.08-2-2.74Z"/><path class="cls-15" d="M53.79,94.38l0,.05c0,1.88-1.4,3.36-4.58,3.37l-9.73,0c4.28-1.21,5.73-2.24,7.62-4.51A13.48,13.48,0,0,0,48.76,91h.56C52.5,91,53.81,92.51,53.79,94.38Z"/><path class="cls-34" d="M25,30.17a6.33,6.33,0,0,1-1.86,3.43c-.86.95-1.83,1.67-2.93,1.47a2.13,2.13,0,0,1-.46-.13,3.92,3.92,0,0,1-1.06-.65,6.77,6.77,0,0,1-1.54-2.11,3.26,3.26,0,0,1-.34-1.53,3,3,0,0,1,.06-.63,2.32,2.32,0,0,1-1.78-1.41c-.18-.79.63-2.14,1.21-2.08a1,1,0,0,1,.44.26h0a.72.72,0,0,1,.16.25c.17.43.35,1.29.37,1.2s.67-1.2,1.13-1.92a5.33,5.33,0,0,1,3.36-1.72h.46a8.15,8.15,0,0,1,2.69.62,2.24,2.24,0,0,1,.39.33,3.3,3.3,0,0,1,.25,1L25.5,27S25.26,28.73,25,30.17Z"/><path class="cls-35" d="M16.31,26.53a1.1,1.1,0,0,1,.45.25A.85.85,0,0,0,16.31,26.53Z"/><path class="cls-35" d="M26.48,25a.43.43,0,0,1,0,.07.6.6,0,0,1-.56.28,2.14,2.14,0,0,1-.21,1,.7.7,0,0,0-.09.17,2.76,2.76,0,0,0-.47-1.11.69.69,0,0,0-.22-.17h0c-.23-.09-.54-.2-.91-.31l-.23-.06a7.89,7.89,0,0,0-1.44-.25h-.5a4.23,4.23,0,0,0-.68.12l-.13,0a5,5,0,0,0-.95.36l-.22.11a4.79,4.79,0,0,0-.94.62,1.07,1.07,0,0,0-.16.14,2,2,0,0,0-.28.33c-.46.72-1.11,1.85-1.13,1.92s-.2-.77-.37-1.2a.72.72,0,0,0-.16-.25h0a.75.75,0,0,0-.44-.26l.74-1.5a.89.89,0,0,1,.08-.17,1.14,1.14,0,0,1,.1-.19l.16-.3a8.55,8.55,0,0,1,.54-.83l.2-.25a4.17,4.17,0,0,1,.9-.85,2.82,2.82,0,0,1,.36-.24,3.62,3.62,0,0,1,1-.39,4.67,4.67,0,0,1,.52-.08,5.82,5.82,0,0,1,.83,0,3.14,3.14,0,0,1,1.42.37,1.66,1.66,0,0,1,.45.36h0a1.25,1.25,0,0,1,1,.54,1.4,1.4,0,0,1-.05-.23h0a.71.71,0,0,1,0-.36c0-.07.1-.09.23,0a3,3,0,0,1,.7,1.43c0-.15,0-.82.43-.36a1.2,1.2,0,0,1,.2,1.2C26.76,24.17,26.66,24.67,26.48,25Z"/><path class="cls-35" d="M18.82,27.17c-.35,0,1.12-.42,2-.22s1.09.53,1.09.53.08-.37.18-.3.09.64-.33.63S19.87,27.22,18.82,27.17Z"/><path class="cls-35" d="M23.42,27.73c-.09.21.15.48.57.74a2,2,0,0,0,1.22.22c.12-.06.19,0-.5-.44S23.64,27.19,23.42,27.73Z"/><path class="cls-36" d="M22.29,24.61H22a3.12,3.12,0,0,0,0-1.33,1.76,1.76,0,0,0-1-1.09l-.67-.38a4.67,4.67,0,0,1,.52-.08,3.35,3.35,0,0,1,1,.87,2.17,2.17,0,0,1,.38,1.26A4.79,4.79,0,0,1,22.29,24.61Z"/><path class="cls-36" d="M24,24.92l-.23-.06a7.75,7.75,0,0,0,0-1.67,2.44,2.44,0,0,0-.54-1.11,1.66,1.66,0,0,1,.45.36h0A7.42,7.42,0,0,1,24,23.88,3.29,3.29,0,0,1,24,24.92Z"/><path class="cls-36" d="M25.11,25.41a.69.69,0,0,0-.22-.17h0a4.64,4.64,0,0,0,.18-1,2.29,2.29,0,0,0-.42-1.46h0a.71.71,0,0,1,0-.36c.15.23.35.55.38.61a6.8,6.8,0,0,1,.17,1.64A4.33,4.33,0,0,1,25.11,25.41Z"/><path class="cls-36" d="M21.11,24.73l-.13,0A1.38,1.38,0,0,0,20.8,24a6.15,6.15,0,0,0-1.42-1.46L19,22.44a2.82,2.82,0,0,1,.36-.24,3.86,3.86,0,0,1,1.34,1.16,2.58,2.58,0,0,1,.38.92Z"/><path class="cls-36" d="M20,25.13l-.22.11a2,2,0,0,0-.54-.84,8.25,8.25,0,0,0-1.34-.86l.2-.25a3.89,3.89,0,0,1,1.41,1A4.34,4.34,0,0,1,20,25.13Z"/><path class="cls-36" d="M18.87,25.86a1.07,1.07,0,0,0-.16.14,2.17,2.17,0,0,0-.69-.64,8.93,8.93,0,0,0-.89-.5,1.14,1.14,0,0,1,.1-.19,3.75,3.75,0,0,1,1.12.62A3.19,3.19,0,0,1,18.87,25.86Z"/><path class="cls-37" d="M26.48,25a.43.43,0,0,1,0,.07.6.6,0,0,1-.56.28,2.14,2.14,0,0,1-.21,1,.7.7,0,0,0-.09.17,2.76,2.76,0,0,0-.47-1.11.69.69,0,0,0-.22-.17h0c-.23-.09-.54-.2-.91-.31l-.23-.06a7.89,7.89,0,0,0-1.44-.25h-.5a4.23,4.23,0,0,0-.68.12l-.13,0a5,5,0,0,0-.95.36l-.22.11a4.79,4.79,0,0,0-.94.62,1.07,1.07,0,0,0-.16.14,2,2,0,0,0-.28.33c-.46.72-1.11,1.85-1.13,1.92s-.2-.77-.37-1.2a.72.72,0,0,0-.16-.25h0a.75.75,0,0,0-.44-.26l.74-1.5a.89.89,0,0,1,.08-.17,1.14,1.14,0,0,1,.1-.19l.16-.3a3,3,0,0,0,.8.63c.54.37.75.17.75.17a7.4,7.4,0,0,1,1.9-.78,5.22,5.22,0,0,1,3,.22,6.78,6.78,0,0,0,1.75.52A5.67,5.67,0,0,0,26.48,25Z"/><path class="cls-38" d="M20.22,35.07a2.13,2.13,0,0,1-.46-.13,3.92,3.92,0,0,1-1.06-.65,6.77,6.77,0,0,1-1.54-2.11,3.26,3.26,0,0,1-.34-1.53,3,3,0,0,1,.06-.63,2.32,2.32,0,0,1-1.78-1.41c-.18-.79.63-2.14,1.21-2.08a1,1,0,0,1,.44.26h0a.72.72,0,0,1,.16.25c.17.43.35,1.29.37,1.2s.67-1.2,1.13-1.92a5.33,5.33,0,0,1,3.36-1.72h.46A6.87,6.87,0,0,0,19.5,26a5.76,5.76,0,0,0-1.69,2.85,7.43,7.43,0,0,0-.3,3.16,4.69,4.69,0,0,0,1.55,2.38Z"/><path class="cls-38" d="M16.18,27.15a2.19,2.19,0,0,1,.35,2s-.48,0-.62-.25.43-.44.43-.44Z"/><path class="cls-39" d="M19.41,24.84A3.79,3.79,0,0,0,18.33,26a5.44,5.44,0,0,0-.36.84l-1.08.12s-.37-.37-.63-.32l.54-1.09A15.65,15.65,0,0,1,19.41,24.84Z"/><path class="cls-40" d="M24.9,30.2a1.41,1.41,0,0,1-1.07,0,1.7,1.7,0,0,1-.95-.62,3.38,3.38,0,0,1,.71-.49.92.92,0,0,1,.71,0,.87.87,0,0,1,.51.56A1.76,1.76,0,0,1,24.9,30.2Z"/><path class="cls-40" d="M21.29,28.94a1.78,1.78,0,0,1-1.21.13,3.19,3.19,0,0,1-1.3-.54s.48-.84,1.24-.8h.15a1.27,1.27,0,0,1,.86.61A3.05,3.05,0,0,1,21.29,28.94Z"/><path class="cls-41" d="M23.12,28.12A2.52,2.52,0,0,0,22.26,30,3.09,3.09,0,0,0,23,31.71s-.15.15-.75.13-.92-.11-.87,0a2.4,2.4,0,0,0,1.31.16,1.43,1.43,0,0,0,.66-.2,3.33,3.33,0,0,1-.76-1.5,1.67,1.67,0,0,1,.26-1.5C23.15,28.33,23.36,28,23.12,28.12Z"/><path class="cls-40" d="M19.63,32.22a7.24,7.24,0,0,0,2.66.89,2.44,2.44,0,0,1-1.79.3A1.2,1.2,0,0,1,19.63,32.22Z"/><path class="cls-42" d="M21,28.45a.68.68,0,0,1-1.33-.28.71.71,0,0,1,.33-.44h.15a1.27,1.27,0,0,1,.86.61S21,28.42,21,28.45Z"/><path class="cls-42" d="M24.81,29.58a.67.67,0,0,1-.79.52.68.68,0,0,1-.53-.8.87.87,0,0,1,.1-.24.92.92,0,0,1,.71,0A.87.87,0,0,1,24.81,29.58Z"/><path class="cls-43" d="M21.29,28.94a1.71,1.71,0,0,0-1.13-1.07,1.39,1.39,0,0,0-1.37.68s.34-1.28,1.39-1.06S21.29,28.94,21.29,28.94Z"/><path class="cls-43" d="M22.88,29.55s.8-.78,1.42-.53.58,1.2.58,1.2.4-1.16-.49-1.43S22.88,29.55,22.88,29.55Z"/><path class="cls-44" d="M18.78,28.53s.38-1,1.27-.88a1.62,1.62,0,0,1,1.24,1.29,1.83,1.83,0,0,0-1.2-.92A1.4,1.4,0,0,0,18.78,28.53Z"/><path class="cls-44" d="M22.88,29.55s.74-.56,1.33-.34a1.32,1.32,0,0,1,.67,1s.22-.95-.5-1.31S22.88,29.55,22.88,29.55Z"/><path class="cls-45" d="M17.8,48.7a.6.6,0,0,1-.09.15c-1.71,2.6-4.79,6.58-4.79,6.58s-.83,0-3.57-.14A9.92,9.92,0,0,1,8,55.13a13.54,13.54,0,0,1-3.78-1.34c.41-4.26,3.49-13.1,5.21-15.91A11.27,11.27,0,0,1,15.18,33l.55-.28.89,1.1a13.09,13.09,0,0,1,2.47,4.11C19.83,40.17,19.44,46,17.8,48.7Z"/><path class="cls-27" d="M16.34,31.23a8.59,8.59,0,0,1,2,2.81,9.12,9.12,0,0,1,.55,3.63S17,34.17,15.45,33Z"/><path class="cls-46" d="M17.8,48.7a.6.6,0,0,1-.09.15c-1.71,2.6-4.79,6.58-4.79,6.58s-.83,0-3.57-.14A9.92,9.92,0,0,1,8,55.13a10.7,10.7,0,0,1,1.63-1.62A39.68,39.68,0,0,0,14.35,48s.07-3.49-.13-5.69a41.39,41.39,0,0,0,1.85,3.91C16.36,46.67,17.63,47.61,17.8,48.7Z"/><path class="cls-47" d="M19.29,38.9a13.89,13.89,0,0,0-.6-2.12,14.16,14.16,0,0,0-2.83-4.59,15,15,0,0,0-3.15,1.57c-1.24.89-3.84,3.09-6,9.26a54.06,54.06,0,0,0-2.6,11h0C4,56.18,5.31,60.44,7,62.08l3.29,13.51s-1.92,4-.14,10.35a44.44,44.44,0,0,0,5.08,11.32h0l.88-.54s-1.51-23.52-1.65-29.14c-.12-5.17-.83-11.67-.94-12.69.7-.93,3.61-4.82,4.51-6.44A14.52,14.52,0,0,0,19.29,38.9ZM9.21,54.81a14.67,14.67,0,0,1-2.4-.2C6,54.4,5.33,54.2,4.89,54a24.64,24.64,0,0,1,.35-3.62c.41-2.81,3-10.56,4.59-13.09a12.22,12.22,0,0,1,6-4.38,17.48,17.48,0,0,1,1.61,2.77,11.64,11.64,0,0,1,.93,5A13.15,13.15,0,0,1,15.52,48l-1.23,1.7A36.59,36.59,0,0,1,9.21,54.81Z"/><path class="cls-48" d="M8.63,97.39a6.34,6.34,0,0,1-1.38.28,5.09,5.09,0,0,1-3.56-.89,2.45,2.45,0,0,1,.9-1.1,1.56,1.56,0,0,1,1-.21C6.85,95.61,8.63,97.39,8.63,97.39Z"/><path class="cls-49" d="M18,48.44c-.9,1.62-3.81,5.51-4.51,6.44.11,1,.82,7.52.94,12.69.14,5.62,1.65,29.14,1.65,29.14l-.88.54-.63-4s-1.17-15.08-1.3-20.77-1-16.26-.34-17.63S16,49.53,16,49.53L15.52,48a13.15,13.15,0,0,0,2.88-7.35,11.64,11.64,0,0,0-.93-5c.35.28.78.65,1.22,1.06a13.89,13.89,0,0,1,.6,2.12A14.52,14.52,0,0,1,18,48.44Z"/><path class="cls-50" d="M11.89,55.64c0,.2-.93,3-1.65,3.42s-2.4-1.58-2.47-3.57a21.47,21.47,0,0,0,2.15.18A16.61,16.61,0,0,0,11.89,55.64Z"/><path class="cls-51" d="M31.63,49.67c-1.92.69-8.57,1.3-10.28.89s-4-1.37-5.76-4.8C14,42.63,13,37.28,14,35.74a.87.87,0,0,1,.33-.33c1.34-.77,2.74.94,4,2.81,1.58,2.26,2.33,7.27,2.33,7.27,2.88,1.78,10.63,2,10.63,2L31.53,49Z"/><path class="cls-52" d="M31.63,49.67c-1.92.69-8.57,1.3-10.28.89s-4-1.37-5.76-4.8C14,42.63,13,37.28,14,35.74a28.88,28.88,0,0,0,2.59,9c1.65,3.09,3.08,3.77,4.32,4.32,1.06.48,7.64.49,10.66,0Z"/><path class="cls-48" d="M19.7,97.7a7,7,0,0,1-1.28.23,5.27,5.27,0,0,1-3.24-.67c-.08-.05.19-.48.63-.82A1.82,1.82,0,0,1,17.06,96,5.09,5.09,0,0,1,19.7,97.7Z"/><path class="cls-53" d="M8.63,97.39a6.34,6.34,0,0,1-1.38.28,22.41,22.41,0,0,0-2.66-2,1.56,1.56,0,0,1,1-.21C6.85,95.61,8.63,97.39,8.63,97.39Z"/><path class="cls-53" d="M19.7,97.7a7,7,0,0,1-1.28.23,6.81,6.81,0,0,0-2.61-1.49A1.82,1.82,0,0,1,17.06,96,5.09,5.09,0,0,1,19.7,97.7Z"/><path class="cls-14" d="M37.22,38.42a.52.52,0,1,1-.51-.51A.51.51,0,0,1,37.22,38.42Z"/><path class="cls-14" d="M43.05,39.56a.52.52,0,1,1-.51-.52A.51.51,0,0,1,43.05,39.56Z"/><path class="cls-14" d="M45.38,44.36a.52.52,0,1,1-.51-.52A.51.51,0,0,1,45.38,44.36Z"/><path class="cls-14" d="M42.64,49.19a.52.52,0,1,1-.51-.51A.51.51,0,0,1,42.64,49.19Z"/><path class="cls-14" d="M34.14,47a.52.52,0,1,1-.52-.52A.51.51,0,0,1,34.14,47Z"/><path class="cls-14" d="M33.52,41.92a.52.52,0,1,1-.51-.51A.51.51,0,0,1,33.52,41.92Z"/><path class="cls-14" d="M37.91,49.53a.52.52,0,1,1-.52-.51A.52.52,0,0,1,37.91,49.53Z"/><path class="cls-54" d="M30.06,38.84c0,.23-1.85.61-1.85.61a13.66,13.66,0,0,1-1.86,1.34s-.36-.4-.66-.81a3.49,3.49,0,0,1-.26-.35,6.88,6.88,0,0,1-.55-1.17,9.76,9.76,0,0,0,1.3-.48c.17-.17,1.31-1.92,1.75-1.92s1.61,1.44,1.89,1.88.14.62,0,.66h-.3C29.85,38.65,30.08,38.73,30.06,38.84Z"/><path class="cls-55" d="M31.29,47.48s.55-.28.76-.35.78-1.88,1.09-1.68,0,1.37,0,1.37,1.37-1.26,1.65-1-.89,1.37-.89,1.37,1.69-1.48,1.88-1.1-1.3,1.34-1.3,1.34,1.47-.86,1.61-.48S35,48.16,34.34,48.44c0,0,1.68-.66,1.72-.35s-1.07,1-2.16,1.24-2.27.34-2.27.34a3.4,3.4,0,0,1-.23-.93Z"/><path class="cls-38" d="M30.06,38.84c0,.23-1.85.61-1.85.61a13.66,13.66,0,0,1-1.86,1.34s-.36-.4-.66-.81c.6-.31,2.1-.9,2.1-.9C28,39.18,29.51,38.8,30.06,38.84Z"/><path class="cls-38" d="M28.45,38.46c.24,0,.68,0,.68,0s-.34-.65-.68-.65-.48.69-.48.69Z"/></g></g></g></svg>