<svg xmlns="http://www.w3.org/2000/svg" xmlns:xlink="http://www.w3.org/1999/xlink" viewBox="0 0 189.4 98.41"><defs><style>.cls-1{isolation:isolate;}.cls-2{fill:url(#linear-gradient);}.cls-117,.cls-119,.cls-125,.cls-15,.cls-23,.cls-25,.cls-27,.cls-3,.cls-61,.cls-71,.cls-91{opacity:0.4;}.cls-105,.cls-110,.cls-117,.cls-119,.cls-12,.cls-121,.cls-125,.cls-127,.cls-15,.cls-16,.cls-21,.cls-23,.cls-28,.cls-3,.cls-37,.cls-38,.cls-39,.cls-40,.cls-48,.cls-51,.cls-53,.cls-56,.cls-58,.cls-6,.cls-61,.cls-65,.cls-7,.cls-71,.cls-81,.cls-9,.cls-91,.cls-92,.cls-96,.cls-97,.cls-98{mix-blend-mode:multiply;}.cls-3{fill:url(#linear-gradient-2);}.cls-4{fill:#393939;}.cls-5{fill:url(#linear-gradient-3);}.cls-116,.cls-12,.cls-121,.cls-14,.cls-16,.cls-21,.cls-28,.cls-29,.cls-37,.cls-38,.cls-39,.cls-53,.cls-56,.cls-58,.cls-6,.cls-7,.cls-83,.cls-87,.cls-9,.cls-96,.cls-97,.cls-98{opacity:0.3;}.cls-6{fill:url(#linear-gradient-4);}.cls-7{fill:url(#linear-gradient-5);}.cls-8{fill:url(#linear-gradient-6);}.cls-9{fill:url(#linear-gradient-7);}.cls-10{fill:#776b62;}.cls-11{fill:#776a61;}.cls-12{fill:url(#linear-gradient-8);}.cls-13,.cls-14,.cls-15,.cls-16{fill:#0b132b;}.cls-116,.cls-14,.cls-25,.cls-27,.cls-29,.cls-83,.cls-84,.cls-85,.cls-86,.cls-87{mix-blend-mode:screen;}.cls-17{fill:#1e232b;}.cls-18{fill:#111419;}.cls-19{fill:#b6c0ca;}.cls-20{fill:#464a51;}.cls-21{fill:#111919;}.cls-22,.cls-23{fill:#263a3a;}.cls-24,.cls-25{fill:#46676c;}.cls-26{fill:url(#linear-gradient-9);}.cls-27,.cls-28{fill:#8da5b0;}.cls-29{fill:#7ab3b8;}.cls-30{fill:#2d4649;}.cls-31{fill:#ef1a21;}.cls-32{fill:#bf1623;}.cls-33{fill:url(#linear-gradient-10);}.cls-34{fill:url(#linear-gradient-11);}.cls-35{fill:url(#linear-gradient-12);}.cls-36{fill:url(#linear-gradient-13);}.cls-37{fill:#e78565;}.cls-38{fill:url(#linear-gradient-14);}.cls-39{fill:url(#linear-gradient-15);}.cls-40{opacity:0.2;}.cls-41{fill:#e67f55;}.cls-42{fill:#61727c;}.cls-43{fill:#c3c3c3;}.cls-44{fill:#323333;}.cls-45{fill:url(#linear-gradient-16);}.cls-46{opacity:0.32;}.cls-47{fill:#8d7b06;}.cls-48{fill:#222b2a;opacity:0.24;}.cls-49{fill:url(#linear-gradient-17);}.cls-50{fill:#3f342c;}.cls-51{fill:#503f33;opacity:0.25;}.cls-52{fill:url(#linear-gradient-18);}.cls-53{fill:url(#linear-gradient-19);}.cls-54,.cls-56{fill:#592a11;}.cls-55{fill:#ab9281;}.cls-57{fill:url(#linear-gradient-20);}.cls-58{fill:#dd7553;}.cls-59{fill:url(#linear-gradient-21);}.cls-60{fill:url(#linear-gradient-22);}.cls-61{fill:url(#linear-gradient-23);}.cls-62{fill:#48210d;}.cls-63{fill:url(#linear-gradient-24);}.cls-64{fill:url(#linear-gradient-25);}.cls-105,.cls-110,.cls-127,.cls-65,.cls-81,.cls-84,.cls-85,.cls-86,.cls-92{opacity:0.5;}.cls-66{fill:url(#linear-gradient-26);}.cls-67{fill:url(#linear-gradient-27);}.cls-68{fill:url(#linear-gradient-28);}.cls-69{fill:url(#linear-gradient-29);}.cls-70{fill:url(#linear-gradient-30);}.cls-72{fill:url(#linear-gradient-31);}.cls-73{fill:url(#linear-gradient-32);}.cls-74{fill:url(#linear-gradient-33);}.cls-75{fill:url(#linear-gradient-34);}.cls-76{fill:url(#linear-gradient-35);}.cls-77{fill:url(#linear-gradient-36);}.cls-78{fill:url(#linear-gradient-37);}.cls-79{fill:url(#linear-gradient-38);}.cls-80{fill:url(#linear-gradient-39);}.cls-81{fill:url(#linear-gradient-40);}.cls-82{fill:#9d0012;}.cls-83{fill:#c93238;}.cls-84{fill:url(#linear-gradient-41);}.cls-85{fill:url(#linear-gradient-42);}.cls-86{fill:url(#linear-gradient-43);}.cls-87{fill:url(#linear-gradient-44);}.cls-88{fill:#fff;}.cls-89{fill:#52280d;}.cls-90{fill:#8a4511;}.cls-91{fill:#8c8580;}.cls-92{fill:#b80e1b;}.cls-93{fill:url(#linear-gradient-45);}.cls-94{fill:url(#linear-gradient-46);}.cls-95{opacity:0.7;fill:url(#linear-gradient-47);}.cls-96{fill:url(#linear-gradient-48);}.cls-97{fill:url(#linear-gradient-49);}.cls-99{fill:url(#linear-gradient-50);}.cls-100{fill:url(#linear-gradient-51);}.cls-101{fill:url(#linear-gradient-52);}.cls-102{fill:#071e2b;}.cls-103{fill:url(#linear-gradient-53);}.cls-104{fill:url(#linear-gradient-54);}.cls-105{fill:url(#linear-gradient-55);}.cls-106{fill:url(#linear-gradient-56);}.cls-107{fill:url(#linear-gradient-57);}.cls-108{fill:url(#linear-gradient-58);}.cls-109,.cls-110{fill:#2c3235;}.cls-111{fill:url(#linear-gradient-59);}.cls-112,.cls-121{fill:#948579;}.cls-113{fill:#232323;}.cls-114,.cls-116{fill:#505050;}.cls-115{fill:#2a2a2a;}.cls-117{fill:url(#linear-gradient-60);}.cls-118,.cls-119{fill:#6a777c;}.cls-120,.cls-127{fill:#83756a;}.cls-122{fill:url(#linear-gradient-61);}.cls-123{fill:url(#linear-gradient-62);}.cls-124{fill:url(#linear-gradient-63);}.cls-125{fill:url(#linear-gradient-64);}.cls-126{fill:#70645c;}</style><linearGradient id="linear-gradient" x1="23.93" y1="55.81" x2="182.89" y2="55.81" gradientUnits="userSpaceOnUse"><stop offset="0.01" stop-color="#504133"/><stop offset="1" stop-color="#493233"/></linearGradient><linearGradient id="linear-gradient-2" x1="40.57" y1="55.84" x2="164.27" y2="55.84" xlink:href="#linear-gradient"/><linearGradient id="linear-gradient-3" x1="56.49" y1="78.2" x2="153.03" y2="78.2" xlink:href="#linear-gradient"/><linearGradient id="linear-gradient-4" x1="56.49" y1="67.39" x2="96.32" y2="67.39" xlink:href="#linear-gradient"/><linearGradient id="linear-gradient-5" x1="87.6" y1="74.55" x2="121.83" y2="74.55" xlink:href="#linear-gradient"/><linearGradient id="linear-gradient-6" x1="60.25" y1="90.16" x2="133.77" y2="63.96" xlink:href="#linear-gradient"/><linearGradient id="linear-gradient-7" x1="116.31" y1="67.04" x2="147.97" y2="67.04" xlink:href="#linear-gradient"/><linearGradient id="linear-gradient-8" x1="146.15" y1="62.32" x2="173.62" y2="62.32" xlink:href="#linear-gradient"/><linearGradient id="linear-gradient-9" x1="38.71" y1="32.81" x2="58.35" y2="24.82" gradientUnits="userSpaceOnUse"><stop offset="0" stop-color="#455c79"/><stop offset="0.99" stop-color="#668da2"/></linearGradient><linearGradient id="linear-gradient-10" x1="156.43" y1="22.65" x2="160.1" y2="29.79" gradientUnits="userSpaceOnUse"><stop offset="0" stop-color="#f1c194"/><stop offset="1" stop-color="#f29d7a"/></linearGradient><linearGradient id="linear-gradient-11" x1="157.65" y1="22.03" x2="161.32" y2="29.16" xlink:href="#linear-gradient-10"/><linearGradient id="linear-gradient-12" x1="157.92" y1="17.39" x2="165.37" y2="29.49" gradientUnits="userSpaceOnUse"><stop offset="0" stop-color="#734022"/><stop offset="1" stop-color="#613828"/></linearGradient><linearGradient id="linear-gradient-13" x1="156.34" y1="23.85" x2="156.62" y2="24.38" gradientUnits="userSpaceOnUse"><stop offset="0" stop-color="#6b4634"/><stop offset="1" stop-color="#613828"/></linearGradient><linearGradient id="linear-gradient-14" x1="155.68" y1="19.6" x2="157.26" y2="22.16" xlink:href="#linear-gradient-12"/><linearGradient id="linear-gradient-15" x1="159.52" y1="20.97" x2="164.94" y2="29.77" xlink:href="#linear-gradient-12"/><linearGradient id="linear-gradient-16" x1="134.91" y1="8.62" x2="136.55" y2="11.81" gradientTransform="matrix(1, -0.06, 0.06, 1, 1.04, 32.2)" xlink:href="#linear-gradient-10"/><linearGradient id="linear-gradient-17" x1="143.41" y1="68.42" x2="172.29" y2="79.46" gradientUnits="userSpaceOnUse"><stop offset="0.01" stop-color="#002440"/><stop offset="1" stop-color="#002d4e"/></linearGradient><linearGradient id="linear-gradient-18" x1="5.37" y1="87.23" x2="5.53" y2="62.41" xlink:href="#linear-gradient-17"/><linearGradient id="linear-gradient-19" x1="5.66" y1="87.23" x2="5.81" y2="62.41" xlink:href="#linear-gradient-17"/><linearGradient id="linear-gradient-20" x1="36.71" y1="43.74" x2="16.91" y2="41.04" gradientUnits="userSpaceOnUse"><stop offset="0" stop-color="#edc4a0"/><stop offset="1" stop-color="#eda687"/></linearGradient><linearGradient id="linear-gradient-21" x1="-20.15" y1="24.8" x2="-15.56" y2="20.25" gradientTransform="matrix(-1, 0, 0, 1, 1.58, 0)" gradientUnits="userSpaceOnUse"><stop offset="0" stop-color="#f1c7a3"/><stop offset="1" stop-color="#f0a98b"/></linearGradient><linearGradient id="linear-gradient-22" x1="-16.3" y1="15.46" x2="-15.5" y2="26.19" gradientTransform="matrix(-1, 0, 0, 1, 1.58, 0)" gradientUnits="userSpaceOnUse"><stop offset="0" stop-color="#48210d"/><stop offset="1" stop-color="#4c2112"/></linearGradient><linearGradient id="linear-gradient-23" x1="-15.94" y1="17.46" x2="-15.11" y2="28.48" xlink:href="#linear-gradient-22"/><linearGradient id="linear-gradient-24" x1="-13" y1="28.7" x2="-11.96" y2="26.1" gradientTransform="matrix(-1, 0, 0, 1, 1.58, 0)" xlink:href="#linear-gradient-20"/><linearGradient id="linear-gradient-25" x1="6.79" y1="33.17" x2="15.99" y2="47.67" gradientUnits="userSpaceOnUse"><stop offset="0" stop-color="#b80e1b"/><stop offset="0.99" stop-color="#a3000f"/></linearGradient><linearGradient id="linear-gradient-26" x1="-14.2" y1="31.29" x2="-8.97" y2="31.29" gradientTransform="matrix(-1, 0, 0, 1, 1.58, 0)" xlink:href="#linear-gradient-25"/><linearGradient id="linear-gradient-27" x1="-15.16" y1="34.48" x2="-10.33" y2="34.48" gradientTransform="matrix(-1, 0, 0, 1, 1.58, 0)" xlink:href="#linear-gradient-25"/><linearGradient id="linear-gradient-28" x1="-12.48" y1="43.23" x2="-10.55" y2="43.23" gradientTransform="matrix(-1, 0, 0, 1, 1.58, 0)" xlink:href="#linear-gradient-25"/><linearGradient id="linear-gradient-29" x1="-10.14" y1="40.85" x2="-6.91" y2="40.85" gradientTransform="matrix(-1, 0, 0, 1, 1.58, 0)" xlink:href="#linear-gradient-25"/><linearGradient id="linear-gradient-30" x1="-10.17" y1="37.18" x2="-2.37" y2="37.18" gradientTransform="matrix(-1, 0, 0, 1, 1.58, 0)" xlink:href="#linear-gradient-25"/><linearGradient id="linear-gradient-31" x1="13.56" y1="33" x2="18.85" y2="33" xlink:href="#linear-gradient-25"/><linearGradient id="linear-gradient-32" x1="10.57" y1="33.49" x2="17.91" y2="33.49" xlink:href="#linear-gradient-25"/><linearGradient id="linear-gradient-33" x1="-9.3" y1="28.69" x2="-7.85" y2="28.69" gradientTransform="matrix(-1, 0, 0, 1, 1.58, 0)" xlink:href="#linear-gradient-25"/><linearGradient id="linear-gradient-34" x1="-9.37" y1="32.33" x2="-6.1" y2="32.33" gradientTransform="matrix(-1, 0, 0, 1, 1.58, 0)" xlink:href="#linear-gradient-25"/><linearGradient id="linear-gradient-35" x1="-12.02" y1="35.68" x2="-4.88" y2="35.68" gradientTransform="matrix(-1, 0, 0, 1, 1.58, 0)" xlink:href="#linear-gradient-25"/><linearGradient id="linear-gradient-36" x1="-13.38" y1="39.23" x2="-3.16" y2="39.23" gradientTransform="matrix(-1, 0, 0, 1, 1.58, 0)" xlink:href="#linear-gradient-25"/><linearGradient id="linear-gradient-37" x1="-13.06" y1="41.47" x2="-2.58" y2="41.47" gradientTransform="matrix(-1, 0, 0, 1, 1.58, 0)" xlink:href="#linear-gradient-25"/><linearGradient id="linear-gradient-38" x1="4.03" y1="45.01" x2="14.73" y2="45.01" xlink:href="#linear-gradient-25"/><linearGradient id="linear-gradient-39" x1="7.41" y1="47.56" x2="14.76" y2="47.56" xlink:href="#linear-gradient-25"/><linearGradient id="linear-gradient-40" x1="13.89" y1="38.23" x2="17.84" y2="38.23" xlink:href="#linear-gradient-25"/><linearGradient id="linear-gradient-41" x1="-9.25" y1="30.52" x2="-6.34" y2="30.52" gradientTransform="matrix(-1, 0, 0, 1, 1.58, 0)" xlink:href="#linear-gradient-25"/><linearGradient id="linear-gradient-42" x1="-11.86" y1="26.75" x2="-9.23" y2="26.75" gradientTransform="matrix(-1, 0, 0, 1, 1.58, 0)" xlink:href="#linear-gradient-25"/><linearGradient id="linear-gradient-43" x1="11.98" y1="33.53" x2="18.71" y2="33.53" xlink:href="#linear-gradient-25"/><linearGradient id="linear-gradient-44" x1="8.14" y1="48.08" x2="14.75" y2="48.08" xlink:href="#linear-gradient-25"/><linearGradient id="linear-gradient-45" x1="10.33" y1="48.69" x2="7.05" y2="88.02" xlink:href="#linear-gradient-17"/><linearGradient id="linear-gradient-46" x1="3.61" y1="36.43" x2="14.85" y2="36.43" xlink:href="#linear-gradient-17"/><linearGradient id="linear-gradient-47" x1="14.16" y1="46.6" x2="14.16" y2="41.16" gradientUnits="userSpaceOnUse"><stop offset="0" stop-color="#07364e"/><stop offset="1" stop-color="#002d4e"/></linearGradient><linearGradient id="linear-gradient-48" x1="13.59" y1="40.3" x2="13.61" y2="37.47" xlink:href="#linear-gradient-17"/><linearGradient id="linear-gradient-49" x1="8.46" y1="52.87" x2="8.48" y2="50" xlink:href="#linear-gradient-17"/><linearGradient id="linear-gradient-50" x1="9.29" y1="89.72" x2="9.53" y2="53.14" xlink:href="#linear-gradient-17"/><linearGradient id="linear-gradient-51" x1="10.34" y1="90.6" x2="10.57" y2="53.58" xlink:href="#linear-gradient-17"/><linearGradient id="linear-gradient-52" x1="12.11" y1="92.83" x2="12.35" y2="56.35" xlink:href="#linear-gradient-17"/><linearGradient id="linear-gradient-53" x1="13.06" y1="50.13" x2="12.95" y2="51.44" xlink:href="#linear-gradient-17"/><linearGradient id="linear-gradient-54" x1="5.84" y1="48.17" x2="5.71" y2="49.66" xlink:href="#linear-gradient-17"/><linearGradient id="linear-gradient-55" x1="16.39" y1="40.38" x2="19.01" y2="40.38" xlink:href="#linear-gradient-25"/><linearGradient id="linear-gradient-56" x1="13.49" y1="23.1" x2="15.3" y2="21.3" gradientTransform="matrix(1, 0, 0, 1, 0, 0)" xlink:href="#linear-gradient-21"/><linearGradient id="linear-gradient-57" x1="160.92" y1="35.45" x2="160.1" y2="45.25" xlink:href="#linear-gradient-17"/><linearGradient id="linear-gradient-58" x1="162.3" y1="48.38" x2="161.78" y2="54.59" xlink:href="#linear-gradient-17"/><linearGradient id="linear-gradient-59" x1="26.43" y1="48.43" x2="44.42" y2="48.43" xlink:href="#linear-gradient"/><linearGradient id="linear-gradient-60" x1="26.43" y1="50.78" x2="44.42" y2="50.78" xlink:href="#linear-gradient"/><linearGradient id="linear-gradient-61" x1="28.85" y1="60.97" x2="30.87" y2="60.97" xlink:href="#linear-gradient"/><linearGradient id="linear-gradient-62" x1="36.37" y1="78.07" x2="38.28" y2="78.07" xlink:href="#linear-gradient"/><linearGradient id="linear-gradient-63" x1="180.74" y1="55.41" x2="180.9" y2="71.46" xlink:href="#linear-gradient"/><linearGradient id="linear-gradient-64" x1="181.17" y1="56.34" x2="181.27" y2="67.2" xlink:href="#linear-gradient"/></defs><g class="cls-1"><g id="Layer_2" data-name="Layer 2"><g id="Layer_2-2" data-name="Layer 2"><polygon class="cls-2" points="182.89 58.12 23.93 58.12 27.58 53.99 40.57 53.95 164.27 53.56 179.55 53.51 182.89 58.12"/><path class="cls-3" d="M164.27,53.56l-7.58,4.56H49.53c-2.34-1.1-6.22-2.92-9-4.17Z"/><polygon class="cls-4" points="78.24 78.44 82.69 72.57 90.78 74.95 78.24 78.44"/><polygon class="cls-5" points="153.03 91.62 146.36 91.62 107.45 80.07 87.6 74.18 73.46 69.98 56.48 64.94 85.23 64.79 96.32 68.12 99.38 69.04 121.83 75.78 121.84 75.78 150.81 84.48 153.03 91.62"/><path class="cls-6" d="M96.32,68.12,73.46,70l-17-5,28.74-.15Z"/><polygon class="cls-7" points="121.83 75.78 107.45 80.07 87.6 74.18 99.38 69.04 121.83 75.78"/><polygon class="cls-8" points="147.97 65.09 146.73 65.85 135.79 69.14 60.93 91.62 56.8 91.62 60.14 83.68 116.31 67.47 125.09 64.94 147.97 65.09"/><polygon class="cls-9" points="147.97 65.09 146.73 65.85 135.79 69.14 116.31 67.47 125.09 64.94 147.97 65.09"/><rect class="cls-10" x="56.8" y="91.46" width="96.5" height="3.34"/><rect class="cls-11" x="23.93" y="58.12" width="158.96" height="8.42"/><path class="cls-12" d="M173.62,66.53H146.15c.76-2.61,1.7-5.84,2.47-8.41h23.75Z"/><path class="cls-13" d="M164.47,47.57c-.24,1.23-.39,2-.39,2L37.71,47.75a13.85,13.85,0,0,1-.65-1.53,22.88,22.88,0,0,1-1.23-4.78,20.84,20.84,0,0,1,0-6.55,17.87,17.87,0,0,1,4.18-7h0A9,9,0,0,1,41.1,27c3.57-2.4,19.21-5.26,26.44-6.22l.25,0,1.93-1.37c4-2.83,13.2-9.31,17.42-12.07C92.62,3.73,103.46-.33,121.76,0a120.23,120.23,0,0,1,19.31,1.83,60.65,60.65,0,0,1,9,2.22s3.23,4.64,6.57,10a99.11,99.11,0,0,1,6.14,11c.14.31.27.62.39.91,1.33,3.05,2.12,5.05,2.59,6.42a12.11,12.11,0,0,1,.74,3C166.61,36.23,165.19,43.84,164.47,47.57Z"/><path class="cls-14" d="M141.07,1.85C135.22,5.57,122.22,12.93,107,15.6a288.21,288.21,0,0,1-37.24,3.79c4-2.83,13.2-9.31,17.42-12.07C92.62,3.73,103.46-.33,121.76,0A120.23,120.23,0,0,1,141.07,1.85Z"/><path class="cls-15" d="M164.47,47.57c-.24,1.23-.39,2-.39,2L37.71,47.75a13.85,13.85,0,0,1-.65-1.53c2.15.16,8.46-.2,8.46-.2s-.11-13.33,14.93-13.33S74.32,47.06,74.32,47.06s52.69-.12,53.16-.46,1.39-16.11,16.78-14.37c13.53,1.53,13.52,15,13.52,15Z"/><path class="cls-16" d="M164.08,49.61l-29.89-.44L51.88,48l-14.17-.21a21.6,21.6,0,0,1-1.88-6.31c4.6-1.53,13.67-4.09,29.16-6.78,2.73-.47,32.06-6.14,49-8.46s42-5,42-5L163.19,26c2.9,6.65,3.22,8.29,3.33,9.4S164.08,49.61,164.08,49.61Z"/><path class="cls-15" d="M140.53,34.78s-12.94,4.52-6.34,14.39L51.88,48v0c9.61-.87,42.91-3.88,64.87-9C131.79,35.36,140.53,34.78,140.53,34.78Z"/><path class="cls-15" d="M141.28,16.65l-.33.1c1.07,3.61,2.57,9.25,2.33,10-.19.56-2.79,2.47-5.3,4.32-1.87,1.38-3.8,2.8-5.14,3.94-3.09,2.63-5.6,8.91-6,9.82-1.13.11-10.87,1-16.14,1-.32-7.1,1.3-22.82,1.51-23.39l-.16-.07-.17-.06c-.29.74-1.84,16.56-1.53,23.52-5.75,0-33,.32-35.24.35C73.42,39,72.75,24.62,72.86,24L72.52,24c-.14.55.57,15.35,2.33,22.45l0,.13H75c.3,0,30-.35,35.55-.35s16.35-1,16.45-1h.11l0-.1c0-.07,2.7-7.06,5.9-9.78,1.33-1.14,3.25-2.55,5.12-3.93,3.22-2.37,5.21-3.86,5.42-4.49C144,25.77,141.56,17.58,141.28,16.65Z"/><path class="cls-13" d="M81.49,23.48H75.72l-.11-.68-.19-1.17s.07-.11.2-.28a6.74,6.74,0,0,1,4.76-2.68L81,21.35Z"/><polygon class="cls-13" points="75.95 23.54 72.34 23.54 72.49 23.43 75.6 21.22 75.62 21.35 75.83 22.75 75.94 23.48 75.95 23.54"/><path class="cls-15" d="M75.94,23.48v.06H72.34l.15-.11c.86-.15,2-.37,3.12-.63l.22-.05A43.57,43.57,0,0,0,81,21.35l.49,2.13Z"/><path class="cls-14" d="M67.54,20.79c-2.38,1.66-10,5-17.82,6.11-4,.58-7.29.85-9.69,1A9,9,0,0,1,41.1,27C44.67,24.61,60.31,21.75,67.54,20.79Z"/><path class="cls-16" d="M155.22,26.32a2.68,2.68,0,1,1-2.68-2.66A2.67,2.67,0,0,1,155.22,26.32Z"/><path class="cls-13" d="M66,31l4.43-.47a2,2,0,0,0-1.4-1,11.59,11.59,0,0,0-3,.46Z"/><path class="cls-17" d="M46.81,47.87S46.57,34.2,60,34.2s12.94,14,12.94,14Z"/><path class="cls-17" d="M129.34,49.14s-.23-14.36,12.47-14.48,14,10.66,13.87,15Z"/><path class="cls-18" d="M71.49,46.56a11.31,11.31,0,0,1-3.68,8.37,11.39,11.39,0,1,1,3.68-8.37Z"/><path class="cls-19" d="M67.76,46.56a7.28,7.28,0,0,1-.1,1.25A7.56,7.56,0,0,1,66,51.5a7.74,7.74,0,0,1-5.4,2.75l-.55,0a7.78,7.78,0,0,1-6.84-4.08,7.52,7.52,0,0,1-.65-1.67,7.42,7.42,0,0,1-.26-2A7.72,7.72,0,0,1,60,38.86a7.73,7.73,0,0,1,3.05.62,7.61,7.61,0,0,1,1.84,1.1A7.69,7.69,0,0,1,67.76,46.56Z"/><path class="cls-20" d="M62.89,40.61c-.55,1.36-2.2,4.73-3.09,4.64s-2.51-3.36-2.86-4.7a4.63,4.63,0,0,1,3-1A5.17,5.17,0,0,1,62.89,40.61Z"/><path class="cls-20" d="M57.79,45.74c0,.69-2.58,1.4-4.43,2.14-.79-1,0-4.34,1.4-5.73C55.89,43.39,57.79,45,57.79,45.74Z"/><path class="cls-20" d="M66.85,47.65c-2-.15-4.26-.45-4.43-1.45s1.43-3.26,2.39-4.58A5.81,5.81,0,0,1,66.85,47.65Z"/><path class="cls-20" d="M57.67,53.38a6.54,6.54,0,0,1-3.55-3c1.41-1.18,4.55-3,4.94-2.3S58.76,51.36,57.67,53.38Z"/><path class="cls-20" d="M65.88,51a6.25,6.25,0,0,1-4.73,2.68c-.41-1.9-.9-5.08-.09-5.61S64.27,49.49,65.88,51Z"/><path class="cls-20" d="M59.11,45.9a.29.29,0,1,1-.36-.2A.3.3,0,0,1,59.11,45.9Z"/><path class="cls-20" d="M61.07,45.46a.28.28,0,0,1-.2.35.29.29,0,0,1-.35-.2.29.29,0,0,1,.2-.35A.29.29,0,0,1,61.07,45.46Z"/><path class="cls-20" d="M61.51,47a.29.29,0,0,1-.2.35.29.29,0,0,1-.15-.55A.29.29,0,0,1,61.51,47Z"/><path class="cls-20" d="M59.76,47.59a.28.28,0,0,1-.2.35.29.29,0,0,1-.35-.2.29.29,0,0,1,.2-.35A.29.29,0,0,1,59.76,47.59Z"/><path class="cls-21" d="M71.49,46.56a11.31,11.31,0,0,1-3.68,8.37c-.57-1-1.2-2.16-1.85-3.43-2.07-4-8.57-10.62-12.73-14.15a11.5,11.5,0,0,1,18.26,9.21Z"/><path class="cls-18" d="M153.72,46.87A10.77,10.77,0,0,1,150,54.93a11.76,11.76,0,0,1-7.8,2.92,11.23,11.23,0,0,1-11.48-11,10.82,10.82,0,0,1,4.7-8.86,11.79,11.79,0,0,1,6.78-2.12A11.24,11.24,0,0,1,153.72,46.87Z"/><path class="cls-19" d="M150,46.87a6.78,6.78,0,0,1-.11,1.2,7.13,7.13,0,0,1-1.69,3.55,7.88,7.88,0,0,1-5.4,2.65l-.55,0a7.87,7.87,0,0,1-3.12-.63,7.64,7.64,0,0,1-3.72-3.3,7.2,7.2,0,0,1-.66-1.6,7,7,0,0,1-.25-1.89,7.24,7.24,0,0,1,2.29-5.27,7.79,7.79,0,0,1,2.7-1.66,8.18,8.18,0,0,1,5.81.11,7.74,7.74,0,0,1,1.83,1.06A7.3,7.3,0,0,1,150,46.87Z"/><path class="cls-20" d="M145.11,41.14c-.55,1.31-2.19,4.56-3.08,4.46s-2.51-3.22-2.86-4.51a4.69,4.69,0,0,1,2.94-1A5.29,5.29,0,0,1,145.11,41.14Z"/><path class="cls-20" d="M140,46.08c0,.66-2.57,1.35-4.43,2.06-.78-.92,0-4.18,1.4-5.52C138.12,43.82,140,45.34,140,46.08Z"/><path class="cls-20" d="M149.08,47.92c-2.05-.15-4.26-.44-4.43-1.4s1.42-3.13,2.39-4.4A5.48,5.48,0,0,1,149.08,47.92Z"/><path class="cls-20" d="M139.9,53.43a6.6,6.6,0,0,1-3.56-2.92c1.41-1.14,4.55-2.87,4.94-2.22S141,51.48,139.9,53.43Z"/><path class="cls-20" d="M148.11,51.1a6.34,6.34,0,0,1-4.74,2.57c-.4-1.82-.89-4.89-.09-5.4S146.49,49.69,148.11,51.1Z"/><path class="cls-20" d="M141.33,46.23a.28.28,0,0,1-.2.34.29.29,0,0,1-.35-.19A.28.28,0,0,1,141,46,.29.29,0,0,1,141.33,46.23Z"/><path class="cls-20" d="M143.3,45.81a.28.28,0,0,1-.2.34.3.3,0,0,1-.36-.19.28.28,0,0,1,.21-.34A.29.29,0,0,1,143.3,45.81Z"/><path class="cls-20" d="M143.74,47.32a.27.27,0,0,1-.21.33.28.28,0,0,1-.35-.19.27.27,0,0,1,.21-.33A.29.29,0,0,1,143.74,47.32Z"/><path class="cls-20" d="M142,47.86a.28.28,0,0,1-.21.34.3.3,0,0,1-.35-.19.28.28,0,0,1,.2-.34A.3.3,0,0,1,142,47.86Z"/><path class="cls-21" d="M153.72,46.87A10.77,10.77,0,0,1,150,54.93c-.57-1-1.2-2.09-1.85-3.31-2.07-3.9-8.58-10.22-12.73-13.61a11.79,11.79,0,0,1,6.78-2.12A11.24,11.24,0,0,1,153.72,46.87Z"/><path class="cls-22" d="M147.76,8.59A14.75,14.75,0,0,1,142,16.91,16.08,16.08,0,0,1,140.35,18,16.41,16.41,0,0,1,138.08,19c-4.64,1.75-14.49,2.92-23.77,3.69l-1.28.11-2.52.19c-5.82.43-11.07.71-14.16.88-8.51.46-25.88.23-25.88.23s17.14-14,25.3-17.5C99.59,5,106.65,4.05,114,3.71l2.16-.08c2.88-.09,5.77-.08,8.48,0A68.53,68.53,0,0,1,136,4.77c.68.14,1.32.29,1.92.44s1.11.26,1.62.4h0C145.79,7.23,147.76,8.59,147.76,8.59Z"/><path class="cls-23" d="M147.76,8.59A14.75,14.75,0,0,1,142,16.91,16.08,16.08,0,0,1,140.35,18,16.41,16.41,0,0,1,138.08,19c-4.64,1.75-14.49,2.92-23.77,3.69,2-2.38,4.58-5.52,6.72-8.24,3.53-4.46,4-7.53,3.63-10.83A68.53,68.53,0,0,1,136,4.77c.68.14,1.32.29,1.92.44s1.11.26,1.62.4h0C145.79,7.23,147.76,8.59,147.76,8.59Z"/><path class="cls-24" d="M146.13,9.35a14.24,14.24,0,0,1-7,8.33h0a16.34,16.34,0,0,1-3.81,1.4,147,147,0,0,1-17.2,2.49h0c-6.66.66-13.13,1.07-16.71,1.16-7,.17-28.33.52-28.33.52s7.55-6,15.7-11.18c1.82-1.15,3.66-2.26,5.46-3.25,6.27-3.43,21.51-5.47,36.3-3.45q2.74.36,5.45.93a60.56,60.56,0,0,1,8.76,2.5C145.18,9,145.66,9.16,146.13,9.35Z"/><path class="cls-25" d="M144.7,8.8a74.33,74.33,0,0,1-5.6,8.88h0a16.34,16.34,0,0,1-3.81,1.4,147,147,0,0,1-17.2,2.49c5.29-5.21,12.66-12.15,17.86-15.27A60.56,60.56,0,0,1,144.7,8.8Z"/><path class="cls-22" d="M142,16.91A16.08,16.08,0,0,1,140.35,18L137.9,5.21l1.62.4h0Z"/><path class="cls-26" d="M50.77,27.48a12.58,12.58,0,0,1-5.94,5.79A13.12,13.12,0,0,1,36.9,34L36.67,34A9.68,9.68,0,0,1,39,30.39a8.52,8.52,0,0,1,2.41-1.64,12.66,12.66,0,0,1,2.13-.7A28.71,28.71,0,0,1,50.77,27.48Z"/><path class="cls-27" d="M45.29,30.84a3.15,3.15,0,0,1-6.29,0,3.4,3.4,0,0,1,0-.45,8.52,8.52,0,0,1,2.41-1.64,12.66,12.66,0,0,1,2.13-.7A3.13,3.13,0,0,1,45.29,30.84Z"/><path class="cls-28" d="M50.77,27.48a12.58,12.58,0,0,1-5.94,5.79A13.12,13.12,0,0,1,36.9,34C42.94,32.7,50.08,28.65,50.77,27.48Z"/><path class="cls-29" d="M68.84,34s20.46-6.77,39.52-9.73,44.76-2.95,44.76-2.95-25.53,3.13-43.54,5.73S68.84,34,68.84,34Z"/><path class="cls-25" d="M130.49,5.37c-3.82,4.25-10.37,10.59-16,11.27-6.47.79-18.4-2.67-25.75-4.57,1.82-1.15,3.66-2.26,5.46-3.25C100.46,5.39,115.7,3.35,130.49,5.37Z"/><path class="cls-22" d="M116.18,3.63c-.8,4.65-2.66,16.1-3.15,19.19l-2.52.19c.42-3.41,2.68-15.46,3.51-19.3Z"/><path class="cls-30" d="M102.3,28.52l5.59-1v.81a4.57,4.57,0,0,1-3.15,1.39C102.64,29.8,102.3,28.52,102.3,28.52Z"/><path class="cls-30" d="M134.53,24.12l.11.82a9.9,9.9,0,0,0,3.28.51c1.47-.1,2.26-2.26,2.26-2.26Z"/><path class="cls-31" d="M165.78,32.38,158.36,29l-3.61-10.54s0-.1.12-.26c.39-.92,1.65-3.85,1.75-4.14h0a99.11,99.11,0,0,1,6.14,11c.14.31.27.62.39.91l.37.85C164.67,29.39,165.35,31.14,165.78,32.38Z"/><path class="cls-32" d="M165.78,32.38,158.36,29l-3.61-10.54s0-.1.12-.26c1,2,3.12,5.74,3.84,6.29a48.91,48.91,0,0,0,4.85,2.34C164.67,29.39,165.35,31.14,165.78,32.38Z"/><path class="cls-33" d="M163.92,30.16l-.14.29c-.3.62-.71,1.52-.71,1.52a7.64,7.64,0,0,0-1.37,0c-.95.08-2,.22-2,.22L159.43,31a1.64,1.64,0,0,1-1.72.4,1.12,1.12,0,0,1-.33-.19c-.61-.52-1.21-1.91-1.45-4a9.09,9.09,0,0,1,.69-4.82c0-.09.08-.19.11-.28s0-.07.05-.1c.37.17.71.25.67.48a4.13,4.13,0,0,0,.66,3c.29-.41.64-.66.94-.51s.44.48.55,1.2a1.81,1.81,0,0,1-1.12,2.1,5.26,5.26,0,0,0,.55,1.17c.37.6.54.52,2.5.17A2.49,2.49,0,0,1,163.92,30.16Z"/><path class="cls-34" d="M162.32,27.36l.2-.61s-3-4.55-3.35-4.67-1.88-1.07-2.39-.1c.37.17.71.25.67.48a4.13,4.13,0,0,0,.66,3c.51-.74,1.23-.94,1.49.69a1.81,1.81,0,0,1-1.12,2.1,5.26,5.26,0,0,0,.55,1.17c.37.6.54.52,2.5.17a2.49,2.49,0,0,1,2.39.57,2.42,2.42,0,0,1,.15-.28Z"/><path class="cls-35" d="M167.21,24.2a4.85,4.85,0,0,1-.42,1.84,35,35,0,0,1-2.72,4.33,1.52,1.52,0,0,0-.15-.21,2.49,2.49,0,0,0-2.39-.57c-2,.35-2.13.43-2.5-.17a5.26,5.26,0,0,1-.55-1.17,1.81,1.81,0,0,0,1.12-2.1c-.26-1.63-1-1.43-1.49-.69a4.13,4.13,0,0,1-.67-2.95.07.07,0,0,1,0-.05c0-.12-.07-.2-.21-.28h0l-.46-.2a1.28,1.28,0,0,1-.92-1.33,2.21,2.21,0,0,1,.4-1.34l.09-.09.16-.12a.43.43,0,0,1,.14-.06s-.09-1,1.41-1.05h.08a3.72,3.72,0,0,1,1.46.24,4.15,4.15,0,0,1,.76.37l.13.1.2.15a1.33,1.33,0,0,1,0-.43.7.7,0,0,1,.06-.3c.07-.13.2-.2.44-.13l.2.08a2.77,2.77,0,0,1,1,1.19,1.19,1.19,0,0,1,.06-.14,1.26,1.26,0,0,1,.62-.7.61.61,0,0,1,.38,0l.15.06a2.25,2.25,0,0,1,.94.91c.06.11.09.18.09.18a.26.26,0,0,1,.11,0,.66.66,0,0,1,.32,0,1.27,1.27,0,0,1,.23.08,2.75,2.75,0,0,1,1.09,1.2.59.59,0,0,0,0,.08l.09.18A6.49,6.49,0,0,1,167.21,24.2Z"/><path class="cls-36" d="M157.24,24.33c.16,0-1-.94-1.23-.22v.39A3,3,0,0,1,157.24,24.33Z"/><path class="cls-37" d="M158.7,25.49a3,3,0,0,0-.74,1.77.57.57,0,0,0,.61-.37c.13-.43,0-.48,0-.48Z"/><path class="cls-38" d="M156.26,19.31a5.88,5.88,0,0,0,1,2.87l-.46-.2a1.28,1.28,0,0,1-.92-1.33A2.21,2.21,0,0,1,156.26,19.31Z"/><path class="cls-39" d="M167.21,24.2a4.85,4.85,0,0,1-.42,1.84,35,35,0,0,1-2.72,4.33,1.52,1.52,0,0,0-.15-.21,2.49,2.49,0,0,0-2.39-.57c-2,.35-2.13.43-2.5-.17a5.26,5.26,0,0,1-.55-1.17,1.81,1.81,0,0,0,1.12-2.1c-.26-1.63-1-1.43-1.49-.69a4.13,4.13,0,0,1-.67-2.95l.52.83c.73,1.17,2.2.69,4.91,1C165.05,24.55,166.21,24.61,167.21,24.2Z"/><g class="cls-40"><path class="cls-41" d="M158.11,25.46c-.78-.52-1-2.61-.87-2.7s-.3-.23-.62-.4c0-.09.08-.19.11-.28s0-.07.05-.1c.37.17.71.25.67.48A4.13,4.13,0,0,0,158.11,25.46Z"/><path class="cls-41" d="M163.92,30.16l-.14.29A5.68,5.68,0,0,0,161.7,32c-.95.08-2,.22-2,.22L159.43,31a1.64,1.64,0,0,1-1.72.4,1.12,1.12,0,0,1-.33-.19,1.42,1.42,0,0,0,1-.32c.63-.51,0-2.92,0-2.92,1.21-.75,1-2.36.72-3,.23.12.44.48.55,1.2a1.81,1.81,0,0,1-1.12,2.1,5.26,5.26,0,0,0,.55,1.17c.37.6.54.52,2.5.17A2.49,2.49,0,0,1,163.92,30.16Z"/></g><path class="cls-42" d="M141.44,56.47a.52.52,0,0,1-.52.53h0a.53.53,0,0,1-.52-.53v-17a.53.53,0,0,1,.52-.53h0a.52.52,0,0,1,.52.53Z"/><path class="cls-42" d="M144.49,56.47A.5.5,0,0,1,144,57h0a.5.5,0,0,1-.47-.53v-17a.5.5,0,0,1,.47-.53h0a.5.5,0,0,1,.47.53Z"/><rect class="cls-43" x="140.09" y="47" width="4.6" height="1.59"/><polygon class="cls-43" points="139.46 42.55 138.19 38.58 139.06 38.19 141.36 42.63 139.46 42.55"/><polygon class="cls-43" points="145.41 42.55 147.08 38.26 146.13 37.71 143.43 42.63 145.41 42.55"/><polygon class="cls-43" points="139.54 53.19 138.03 56.92 139.06 57.16 141.28 53.35 139.54 53.19"/><path class="cls-43" d="M143.27,53.27c.16.24,2.38,4,2.38,4l1.27-.24-1.51-3.57Z"/><rect class="cls-43" x="139.46" y="42.55" width="5.95" height="2.06"/><rect class="cls-43" x="139.46" y="51.44" width="5.95" height="2.06"/><polygon class="cls-44" points="138.82 46.28 140.41 46.13 140.57 50.25 138.9 50.25 138.82 46.28"/><path class="cls-43" d="M138.9,51.37a.87.87,0,0,1-.87.87h0a.87.87,0,0,1-.87-.87V44.62a.87.87,0,0,1,.88-.88h0a.87.87,0,0,1,.87.88Z"/><path class="cls-45" d="M139.25,35.78a1.12,1.12,0,0,1-.09.49h0a.16.16,0,0,1-.07.07,10.74,10.74,0,0,0-.92.65l-.35.28a1.52,1.52,0,0,1-1.1-.81c-.47-.78-1.57-2.37-1.43-2.58h0c.08-.11.39.18.65.46h0c.17.19.33.38.38.45a0,0,0,0,0,0,0c-.09-.15-1-1.79-.82-2h.07c.2,0,.63.54.9.88l0,0a3,3,0,0,0,.22.28.15.15,0,0,1,0-.06h0c-.21-.36-1-1.67-.74-1.75,0,0,0,0,.06,0h0a10.08,10.08,0,0,1,1.45,1.92.17.17,0,0,0,0-.05h0c-.14-.32-.78-1.82-.59-1.92h0c.4-.08,1.53,2,1.53,2s0-.79.18-1a.12.12,0,0,1,.12,0C139,33.25,139.25,35.78,139.25,35.78Z"/><g class="cls-46"><path class="cls-41" d="M138.17,37l-.35.28a1.52,1.52,0,0,1-1.1-.81c-.47-.78-1.57-2.37-1.43-2.58a13.2,13.2,0,0,0,1.7,2.35A2.76,2.76,0,0,0,138.17,37Z"/><path class="cls-41" d="M136,34.35c.17.19.33.38.38.45A4.69,4.69,0,0,1,136,34.35Z"/><path class="cls-41" d="M136.74,35.15a2.66,2.66,0,0,1-.4-.34c-.09-.15-1-1.79-.82-2h.07A13.44,13.44,0,0,0,136.74,35.15Z"/><path class="cls-41" d="M137.24,34.52a5.47,5.47,0,0,1-.55-.56h0c-.21-.36-1-1.67-.74-1.75,0,0,0,0,.06,0h0A10.43,10.43,0,0,0,137.24,34.52Z"/><path class="cls-41" d="M138,35c-.07-.11-.32-.49-.6-1h0c-.14-.32-.78-1.82-.59-1.92h0A30.21,30.21,0,0,0,138,35Z"/><path class="cls-41" d="M139.25,35.78a1.12,1.12,0,0,1-.09.49h0l0,0c0-.45-.4-2.46-.53-3.08a.12.12,0,0,1,.12,0C139,33.25,139.25,35.78,139.25,35.78Z"/></g><path class="cls-47" d="M171.19,45.7a7.54,7.54,0,0,1-.31,1C170.12,48.8,167,51,167,51a2,2,0,0,0-.07.87c.08.36.55,1.85.69,2.29l0,.13a4.4,4.4,0,0,1-.84.52h0c-.1.06-.21.1-.32.16a19.34,19.34,0,0,1-7.45.9,15.22,15.22,0,0,1-4.6-.73A3.65,3.65,0,0,1,154,55a52.2,52.2,0,0,0,.82-6.87,60.72,60.72,0,0,0-.57-6.63,22.49,22.49,0,0,1-9.6,3s-.48.09-2.42-1.52a35.9,35.9,0,0,1-4.6-5.44,1.8,1.8,0,0,1,.25-.39,10.49,10.49,0,0,1,1.24-1.13s1.6,1,2.9,2.09A29.63,29.63,0,0,0,146,40.48s5.54-4.49,7.29-6.21a5.56,5.56,0,0,1,.77-.64,6.36,6.36,0,0,1,1.88-.89,11.41,11.41,0,0,1,1.8-.32l.26-.36.56-.75a34.27,34.27,0,0,1,5.17-.27l.93,1.2,0,0c.6.16,1.36.38,2,.62a3.92,3.92,0,0,1,1.26.68l0,.05c1.47,1.62,2.81,5.18,3.15,7.7A10.86,10.86,0,0,1,171.19,45.7Z"/><path class="cls-48" d="M161.5,35.85c0,.22.42,9.2.18,12.47a19.62,19.62,0,0,0,.66-6.08A31.86,31.86,0,0,0,161.5,35.85Z"/><path class="cls-48" d="M168.19,41.33c.21.67.9,3.63-.7,5.63a18.06,18.06,0,0,0,.51-3.12C168.06,42.45,168.19,41.33,168.19,41.33Z"/><path class="cls-48" d="M155.05,45.93c.08,2.59.13,6.93-.6,9.23A3.65,3.65,0,0,1,154,55a52,52,0,0,0,.82-6.87,60,60,0,0,0-.58-6.63,22.26,22.26,0,0,1-9.59,3s-.48.09-2.42-1.52a35.9,35.9,0,0,1-4.6-5.44,1.55,1.55,0,0,1,.26-.39c1.08,1.44,4.74,5.82,6.81,6.4,0,0,7.21-.85,10.62-4.39C155.28,39.08,155,43,155.05,45.93Z"/><path class="cls-48" d="M171.19,45.7a7.54,7.54,0,0,1-.31,1C170.12,48.8,167,51,167,51a2,2,0,0,0-.06.88c.08.36.55,1.85.69,2.29-.33.28-.61.5-.8.65h0l-.29.23a.21.21,0,0,1,0-.07,9.37,9.37,0,0,1-.19-5.43,24.33,24.33,0,0,0,1.88-8.23,9.32,9.32,0,0,1-.7,6.86,3.74,3.74,0,0,0-.22,1.64A13.44,13.44,0,0,0,171.19,45.7Z"/><path class="cls-48" d="M172.12,42.56c0-.53-.05-.85-.05-.85A4.91,4.91,0,0,1,172.12,42.56Z"/><path class="cls-48" d="M164.7,32.24a39.91,39.91,0,0,1-6.66-.18l.55-.74a33.37,33.37,0,0,1,5.18-.28Z"/><path class="cls-49" d="M170.09,88.75h0c-.47,3.06-1,5.64-1,5.71s-.43,0-.77,0l-.49-.08s-2.91-12.89-3.93-17-3-15-3-15l-3,13.66s1.35,1.51,1,6.45c-.36,5.18-3.73,14.19-3.73,14.19H154a125.59,125.59,0,0,1-1.54-24.12,158.82,158.82,0,0,1,1.37-16.89c.08-.56.14-.93.17-1.09a72.57,72.57,0,0,0,7.38.44c4.26.06,6.34-1.47,6.34-1.47a7.31,7.31,0,0,1-.14,5.75l.58,15.34s2.05,1.16,2.58,5.61A38.5,38.5,0,0,1,170.09,88.75Z"/><path class="cls-48" d="M170.09,88.75c0-1.56,0-3.5-.06-5.56a19.89,19.89,0,0,0-2.23-8.53C167.8,74.51,167,59,167,59a8.42,8.42,0,0,0-.49-4c-4,2.22-10.73,1.06-12.68.65.08-.56.14-.93.17-1.09a72.57,72.57,0,0,0,7.38.44c4.26.06,6.34-1.47,6.34-1.47a7.31,7.31,0,0,1-.14,5.75l.58,15.34s2.05,1.16,2.58,5.61A38.5,38.5,0,0,1,170.09,88.75Z"/><path class="cls-48" d="M164.36,75.09c-.75-2.84-3-12.16-3.43-13.76a12.84,12.84,0,0,0,4.25-1.15,35.62,35.62,0,0,1-8.3.35s.78.85,3.07.85c.3,0,.58,0,.85,0l-4.15,14.87a30.51,30.51,0,0,1,.88,7.31c-.05,3.48-2.49,11.49-3,13.13h.6s3.37-9,3.73-14.19c.34-4.94-1-6.45-1-6.45l3-13.66s2,10.9,3,15,3.93,17,3.93,17l.49.08C168.25,91.31,165.15,78.09,164.36,75.09Z"/><path class="cls-50" d="M155.07,97.84a1.47,1.47,0,0,1-1,.51l-.36,0a11.29,11.29,0,0,1-5-1s.13-.13.34-.3a4.08,4.08,0,0,1,2.41-1,5.19,5.19,0,0,1,2.33.56l.13.07h1.17A1.3,1.3,0,0,1,155.07,97.84Z"/><path class="cls-51" d="M155.07,97.84a1.47,1.47,0,0,1-1,.51l-.36,0a11.29,11.29,0,0,1-5-1s.13-.13.34-.3a16.66,16.66,0,0,0,4.72.8C154.4,97.87,154.83,97.85,155.07,97.84Z"/><path class="cls-51" d="M155.07,97.84a1.47,1.47,0,0,1-1,.51l-.36,0a3.41,3.41,0,0,0,.1-.54,6.82,6.82,0,0,0,0-1.27l.13.07h1.17A1.3,1.3,0,0,1,155.07,97.84Z"/><path class="cls-50" d="M169.15,95.57a.67.67,0,0,1-.29.45,3.7,3.7,0,0,1-.92.12A10.75,10.75,0,0,1,163.18,95a4,4,0,0,1,.39-.21,5.26,5.26,0,0,1,4.19-.45l0,0,1.26.09A2.49,2.49,0,0,1,169.15,95.57Z"/><path class="cls-51" d="M169.15,95.57a.67.67,0,0,1-.29.45s-2.08.63-5.68-1a4,4,0,0,1,.39-.21C164.74,95.17,167.5,95.92,169.15,95.57Z"/><path class="cls-51" d="M169.15,95.57a.67.67,0,0,1-.29.45,3.7,3.7,0,0,1-.92.12,4.79,4.79,0,0,0-.18-1.78l0,0,1.26.09A2.49,2.49,0,0,1,169.15,95.57Z"/><path class="cls-52" d="M7.5,81.46c.06.29.13.57.2.85-.35.46-1.76,2.3-2.77,3.91a26.53,26.53,0,0,0-2.17,5.19l-.44-.69-.57-.9s.16-6.56.69-10.8a19.65,19.65,0,0,1,3.07-7.83s0-1.75-.26-4.55c-.16-1.71-.38-5.35-.53-7.93-.1-1.63-.16-2.83-.16-2.86a7.15,7.15,0,0,0,1.64,2L9.06,72.73S6.15,75.59,7.5,81.46Z"/><path class="cls-53" d="M7.5,81.46c.06.29.13.57.2.85-.35.46-1.76,2.3-2.77,3.91a26.53,26.53,0,0,0-2.17,5.19l-.44-.69c.15-.92.37-2.08.65-3.17a34.68,34.68,0,0,1,2.38-5.72s.06-2.28.32-4.45a51.81,51.81,0,0,1,1.48-6.24L5.67,61.35s-.55-1.5-1-2.64c-.1-1.63-.16-2.83-.16-2.86a7.15,7.15,0,0,0,1.64,2L9.06,72.73S6.15,75.59,7.5,81.46Z"/><path class="cls-54" d="M0,92.24a11.35,11.35,0,0,0,1.7,1.07,7.76,7.76,0,0,0,1.52.6,4.91,4.91,0,0,0,2.37.21s.07,0,.07-.05-1.41-1.18-1.93-1.8A8.52,8.52,0,0,1,2.82,91a5,5,0,0,0-.79-1,3.56,3.56,0,0,0-.28-.27L.45,91.58Z"/><path class="cls-55" d="M0,92.24a10.32,10.32,0,0,0,3.22,1.67,4.91,4.91,0,0,0,2.37.21A9,9,0,0,1,2.05,92.9a6,6,0,0,1-1.6-1.32Z"/><path class="cls-56" d="M0,92.24a11.35,11.35,0,0,0,1.7,1.07c0-.29,0-.6,0-.92,0-.93.34-2,.34-2.45a3.56,3.56,0,0,0-.28-.27L.45,91.58Z"/><path class="cls-57" d="M33.71,44.55c0,.1,0,.22-.25.28h0c-.32.07-.59-.24-.65-.31l.1.18h0c.06.13.09.27-.06.27l-.19,0a3.94,3.94,0,0,1-.6-.18H31.5a6.27,6.27,0,0,1-1.85-.8l-.42.27a22.21,22.21,0,0,1-4.88.26,24.33,24.33,0,0,1-7.25-2.06s.13-.76.31-1.42c.05-.19.11-.38.17-.54A5.84,5.84,0,0,1,19,38.85s3.28,1.64,5.14,2.33a41.32,41.32,0,0,0,4.7,1.27,4.27,4.27,0,0,1,1.75-1c.8-.1,2,1.22,2.65,1.91a1.33,1.33,0,0,1,.45.89.41.41,0,0,1,0,.17A.48.48,0,0,1,33.71,44.55Z"/><path class="cls-58" d="M31.56,44.78H31.5a6.27,6.27,0,0,1-1.85-.8l-.42.27a22.21,22.21,0,0,1-4.88.26,24.33,24.33,0,0,1-7.25-2.06s.13-.76.31-1.42a13.84,13.84,0,0,0,6,2.48,34.69,34.69,0,0,0,5.84.31l.44-.28A12.5,12.5,0,0,0,31.56,44.78Z"/><path class="cls-58" d="M32.63,45a3.94,3.94,0,0,1-.6-.18h-.1a5.73,5.73,0,0,1-1.09-1.29l.3.25A7.39,7.39,0,0,0,32.63,45Z"/><path class="cls-58" d="M32.78,44.53l.1.18,0,0A6.19,6.19,0,0,1,32,43.61a11,11,0,0,0,1.43,1.23C33.11,44.91,32.84,44.6,32.78,44.53Z"/><path class="cls-58" d="M33.71,44.55c-.29-.28-1.29-1.26-1.4-1.42a14.3,14.3,0,0,1,1.39,1.11.41.41,0,0,1,0,.17A.48.48,0,0,1,33.71,44.55Z"/><path class="cls-59" d="M16,23.3a5.82,5.82,0,0,0,.64.53,5.9,5.9,0,0,0,1.35.76,8.07,8.07,0,0,0,2.33.51l.57,0a1.34,1.34,0,0,0,.95-.35,4.94,4.94,0,0,1-1-2A10.51,10.51,0,0,1,20.7,20c0-.17,0-.31.06-.41a5.13,5.13,0,0,0-3.48,1.45A5.79,5.79,0,0,0,16,23.3Z"/><path class="cls-58" d="M16,23.3a5.82,5.82,0,0,0,.64.53,8.8,8.8,0,0,0,.41-1.5,5.25,5.25,0,0,1,1.42-1.63A3.72,3.72,0,0,1,20.7,20c0-.17,0-.31.06-.41a5.13,5.13,0,0,0-3.48,1.45A5.79,5.79,0,0,0,16,23.3Z"/><path class="cls-60" d="M13,25.12a3.33,3.33,0,0,1,1.22-.61s0,.26.17,1.23A9.46,9.46,0,0,0,15,27.47h0a5.54,5.54,0,0,0,.64.54,2.52,2.52,0,0,0,3,0,3.16,3.16,0,0,0,.56-.54l.14-.19a5.53,5.53,0,0,0,.73-1.35,3.93,3.93,0,0,0,.23-.83A8.07,8.07,0,0,1,18,24.59a7,7,0,0,1-2-1.29.32.32,0,0,1,0-.09,6.61,6.61,0,0,1,1.3-2.15,5.13,5.13,0,0,1,3.48-1.45,1.93,1.93,0,0,0,1.73-.16,5.41,5.41,0,0,0,1.24-.94c.43-.45.66-.93.34-1.21-.54-.48-1.56.41-1.66.55.06-.15.57-1.39.24-1.62S21.2,17,21.2,17s-.41-2.07-4.26-2.41c-2.66-.24-4.31.74-5.17,2.49a7.84,7.84,0,0,0-.71,2.8A7.6,7.6,0,0,0,13,25.12Z"/><path class="cls-61" d="M13,25.12a3.33,3.33,0,0,1,1.22-.61s0,.26.17,1.23A9.46,9.46,0,0,0,15,27.47h0a5.54,5.54,0,0,0,.64.54,2.52,2.52,0,0,0,3,0,5.63,5.63,0,0,1-1.68-.41,2.66,2.66,0,0,1-1.84-2.66A3.68,3.68,0,0,1,16,23.21a6.61,6.61,0,0,1,1.3-2.15,5.13,5.13,0,0,1,3.48-1.45,1.93,1.93,0,0,0,1.73-.16,5.41,5.41,0,0,0,1.24-.94,3.09,3.09,0,0,1-2.4.62A5.87,5.87,0,0,0,17.82,19a2.82,2.82,0,0,0-1,.69s-.82-1-.73-1.58-.09-.53-.09-.53a8,8,0,0,1-.85,2C14.79,20,12,18.88,11.77,17a7.84,7.84,0,0,0-.71,2.8A7.6,7.6,0,0,0,13,25.12Z"/><path class="cls-62" d="M20.16,21c.19-.09.11-.62-.67-.63-.57,0-1,.42-1,.53s.44-.09.8,0S20,21.11,20.16,21Z"/><path class="cls-63" d="M12.18,26a2.32,2.32,0,0,1,.7.26,3.28,3.28,0,0,1,1,.85,10.63,10.63,0,0,1,.82,1.11l.1-.25.18-.45h0a9.46,9.46,0,0,1-.59-1.73c-.14-1-.17-1.23-.17-1.23a3.33,3.33,0,0,0-1.22.61A4.31,4.31,0,0,0,12.18,26Z"/><path class="cls-64" d="M19,38.85l-.16.22-.11.14,0,0c-.22.29-.5.69-.76,1l0,.05a.36.36,0,0,1-.07.1l0,.06a2.94,2.94,0,0,0-.32.64,8.3,8.3,0,0,0-.38,1.31,3.25,3.25,0,0,1-.71-.59A11.91,11.91,0,0,1,15,40.1a.08.08,0,0,1,0,0,.78.78,0,0,0-.05.18,9.27,9.27,0,0,0-.27,1c0,.07,0,.13,0,.2v0s0,0,0,0a1.94,1.94,0,0,0,.07,1.29s0,.34.05.82c0,.08,0,.17,0,.27,0,.57,0,1.3,0,2v.27s0,.1,0,.15a4,4,0,0,1-.18,1.37q-.36.54-.63.9a5,5,0,0,1-.89,1l-.14,0a5.61,5.61,0,0,1-.58.09,9.71,9.71,0,0,1-1.93,0,9,9,0,0,1-1.28-.19l-.52-.13-.46-.15h0l-.25-.09h0L7.41,49h0a9,9,0,0,1-1-.52,5.27,5.27,0,0,1-2.29-2.22.43.43,0,0,1,0,0c0-.05,0-.11,0-.19s0-.1,0-.16a19.57,19.57,0,0,1,.11-4.28l0-.22,0-.19a22.19,22.19,0,0,1,.55-2.77c0-.06,0-.13,0-.2s0-.11,0-.16c.18-.62.39-1.26.63-1.89.32-.8.63-1.57,1-2.3a1.12,1.12,0,0,1,0-.13l.08-.18c.38-.89.77-1.71,1.13-2.47l.09-.18.15-.29A26,26,0,0,1,9.43,28h0a1.63,1.63,0,0,1,.11-.17,7.34,7.34,0,0,1,.91-1.09l.11-.1.15-.13.1-.08a2.3,2.3,0,0,1,.94-.52c.3-.06.41.07.41.07a2.64,2.64,0,0,1,1.28.66l.17.17a.23.23,0,0,1,.07.07l.06.07.12.14a10.63,10.63,0,0,1,.82,1.11,9.66,9.66,0,0,1,.49.87,11,11,0,0,1,.52,1.21l.08.21c.15.4.33.9.51,1.43s.31,1,.46,1.47.4,1.64.73,2.74c.11.35.23.71.36,1.06.05.14.1.28.16.42a5,5,0,0,0,.55.73Z"/><g class="cls-65"><path class="cls-66" d="M10.56,31.67a8.47,8.47,0,0,0,.38,1.86,4.77,4.77,0,0,0,2.24-.69c.46-.44,2-1.8,2.6-2.38a1.8,1.8,0,0,0-.08-.21c-.17-.46-.35-.86-.52-1.21C14.38,29.82,12.39,31.86,10.56,31.67Z"/><path class="cls-67" d="M11.91,35.81s1.16,1.28,1.21,1.25a9.78,9.78,0,0,0,2.2-2c.69-.78,1.15-1.33,1.43-1.69-.15-.5-.31-1-.46-1.47a14.06,14.06,0,0,1-2.1,2.43A5.7,5.7,0,0,1,11.91,35.81Z"/><path class="cls-68" d="M12.33,49.73a5.61,5.61,0,0,0,.58-.09l.14,0a5,5,0,0,0,.89-1h0c-.07-.54-.14-1.27-.16-1.73,0-.82-.1-2.46,0-4.39s.19-3.38.28-4.1a9.82,9.82,0,0,1-.63-.89c-.11-.18-.22-.33-.31-.45a3.88,3.88,0,0,0-.29-.34.28.28,0,0,1,0,.06c0,.15-.1.64-.27,2.12-.22,1.93-.38,4.39-.41,6.41C12.11,46.94,12.27,49,12.33,49.73Z"/><path class="cls-69" d="M9.12,49.58a9,9,0,0,0,1.28.19c-.05-.3-.11-.72-.13-1,0-.5-.12-2.81-.06-4.38A32.5,32.5,0,0,1,10.94,39c.37-1.77.66-3.13.78-3.89,0,0-.25-.47-.72-1.42a4.41,4.41,0,0,1-.47-1.77,22.56,22.56,0,0,0-1,3.95c0,.76-.92,5.65-1.05,9.38A10,10,0,0,0,9.12,49.58Z"/><path class="cls-70" d="M4.08,46.26a5.21,5.21,0,0,0,2.29,2.21,16.49,16.49,0,0,0,0-2.08c-.06-1.24-.1-3.1,0-4.24a24.08,24.08,0,0,1,.72-4.23c.45-1.86,1.65-5.08,2.44-7.32a20.49,20.49,0,0,1,2.21-4.72,3.08,3.08,0,0,0-1.3.83c-1.33,1.23-3.16,4.77-5,9.44A21.9,21.9,0,0,0,4.08,46.26Z"/></g><g class="cls-71"><path class="cls-72" d="M18.85,39.07l-.11.14a15.46,15.46,0,0,1-3.95-6.34,17.85,17.85,0,0,1-1.23-6,.08.08,0,0,1,0-.08l.08.06,0,0a0,0,0,0,0,0,0v0A17.79,17.79,0,0,0,15,32.8,15,15,0,0,0,18.85,39.07Z"/><path class="cls-73" d="M17.91,40.34a.36.36,0,0,1-.07.1l0,.06a13.23,13.23,0,0,1-3.38-4.11,26.2,26.2,0,0,1-2.66-8.45,2.91,2.91,0,0,1-1.19-1.33l.15-.13a2.7,2.7,0,0,0,1.17,1.31.16.16,0,0,1,.06.08,25.45,25.45,0,0,0,2.64,8.43A12.88,12.88,0,0,0,17.91,40.34Z"/><path class="cls-74" d="M10.81,29.58c-.23-.27-.9-1-1.38-1.61l.12-.16c.38.46.93,1.1,1.33,1.56A1.72,1.72,0,0,0,10.81,29.58Z"/><path class="cls-75" d="M7.77,30.89a21.14,21.14,0,0,0,3,2.54,2.59,2.59,0,0,0,.14.29s0,0,0,.05h0a20.78,20.78,0,0,1-3.27-2.7Z"/><path class="cls-76" d="M6.55,33.54a15.44,15.44,0,0,0,3,2.25,27,27,0,0,0,3.85,1.77,1.64,1.64,0,0,0,.16.26A26.57,26.57,0,0,1,9.5,36a15.22,15.22,0,0,1-3-2.23Z"/><path class="cls-77" d="M4.74,38.4a14.79,14.79,0,0,1,5,.41,44.29,44.29,0,0,1,5.13,1.51.78.78,0,0,1,.05-.18,42.21,42.21,0,0,0-5.14-1.52,15.24,15.24,0,0,0-5-.42A1.17,1.17,0,0,1,4.74,38.4Z"/><path class="cls-78" d="M4.16,41.35c1,.11,3.27.32,5.22.4l1.65,0a19.09,19.09,0,0,0,3.57-.25c0-.06,0-.13,0-.2a23.88,23.88,0,0,1-5.25.22c-1.94-.07-4.21-.28-5.2-.38Z"/><path class="cls-79" d="M14.73,44a7.53,7.53,0,0,1-4.6,2.13,25.12,25.12,0,0,1-3.46.22c-1.08,0-2-.06-2.6-.11,0-.05,0-.11,0-.19a28.82,28.82,0,0,0,6.07-.11,7.13,7.13,0,0,0,4.61-2.21C14.72,43.78,14.72,43.87,14.73,44Z"/><path class="cls-80" d="M14.76,45.93v.27a8.73,8.73,0,0,1-2,1.53A9.83,9.83,0,0,1,7.87,49.2h0L7.41,49a9.45,9.45,0,0,0,5.25-1.44A8.6,8.6,0,0,0,14.76,45.93Z"/></g><path class="cls-81" d="M17.84,37.16a22,22,0,0,1-2,1.9c-1.11.92-1.66,1.31-1.66,1.31l-.32-1.71a14.33,14.33,0,0,0,2.54-1.47,5.15,5.15,0,0,0,1.05-1.09C17.59,36.45,17.71,36.81,17.84,37.16Z"/><path class="cls-58" d="M12.18,26a2.32,2.32,0,0,1,.7.26l1.36,0c.12,0,.23,1.22.55,1.73l.18-.45h0a9.46,9.46,0,0,1-.59-1.73c-.14-1-.17-1.23-.17-1.23a3.33,3.33,0,0,0-1.22.61A4.31,4.31,0,0,0,12.18,26Z"/><path class="cls-58" d="M20.28,25.1l.57,0a1.34,1.34,0,0,0,.95-.35,2.71,2.71,0,0,0-1,0C20.25,24.86,20.28,25.1,20.28,25.1Z"/><path class="cls-82" d="M14.79,28.32a5.49,5.49,0,0,0-1-2.13,2.51,2.51,0,0,0-1.26-.82s-.46.36-.51.54l.19,0a3.17,3.17,0,0,1,1.09.59A21,21,0,0,1,14.79,28.32Z"/><path class="cls-83" d="M4,45.85a42.1,42.1,0,0,0,6.39-.16,8.91,8.91,0,0,0,4.44-2.6l-.18-.21a1.93,1.93,0,0,1-.07-1.29,19.88,19.88,0,0,1-5.27.47,18.61,18.61,0,0,1-5.19-.48A20.35,20.35,0,0,0,4,45.85Z"/><path class="cls-83" d="M4.84,38a17,17,0,0,1,4.29.29c2.12.48,5.83,1.81,5.83,1.81l0,0s-.89-1.52-1.42-2.19c0,0-4.55-1.24-7.15-4.07-.31.73-.62,1.5-.94,2.3Q5.11,37.1,4.84,38Z"/><path class="cls-84" d="M7.92,30.6a7.63,7.63,0,0,0,2.79,2.46s-.16-1.23-.18-2a3.11,3.11,0,0,1,.22-1.31s.19,0,0-.11A14.59,14.59,0,0,1,9.43,28,26,26,0,0,0,7.92,30.6Z"/><path class="cls-85" d="M10.82,26.4A2.25,2.25,0,0,0,12,27.63a4.35,4.35,0,0,1,1.47-1A2.63,2.63,0,0,0,12.18,26a.45.45,0,0,0-.42-.07A2.3,2.3,0,0,0,10.82,26.4Z"/><path class="cls-86" d="M18.71,39.26c-.22.29-.5.69-.76,1a11.63,11.63,0,0,1-2.12-2.18,27.94,27.94,0,0,1-3.38-7.74A18,18,0,0,1,12,27.73,4.06,4.06,0,0,1,13,27c.47-.22.65-.17.65-.17a12.44,12.44,0,0,0,.92,5.45C15.42,34.67,16.41,37.35,18.71,39.26Z"/><path class="cls-87" d="M14.75,46.35a4,4,0,0,1-.18,1.37q-.36.54-.63.9a5,5,0,0,1-.89,1l-.14,0a5.61,5.61,0,0,1-.58.09,9.71,9.71,0,0,1-1.93,0,9,9,0,0,1-1.28-.19,7.65,7.65,0,0,1-1-.28,14.1,14.1,0,0,0,4.72-1.46A9.48,9.48,0,0,0,14.75,46.35Z"/><path class="cls-54" d="M11.09,94.89a12.44,12.44,0,0,0,1.94.47,7.8,7.8,0,0,0,1.61.08,4.94,4.94,0,0,0,2.29-.55s.06,0,.05-.07-1.69-.67-2.38-1.08a8.38,8.38,0,0,1-1.27-1,5.09,5.09,0,0,0-1.06-.69c-.2-.11-.34-.17-.34-.17l-.62,2.2Z"/><path class="cls-55" d="M11.09,94.89a10.19,10.19,0,0,0,3.55.55,4.94,4.94,0,0,0,2.29-.55,8.91,8.91,0,0,1-3.71,0,5.42,5.42,0,0,1-1.91-.73Z"/><path class="cls-56" d="M11.09,94.89a12.44,12.44,0,0,0,1.94.47c-.1-.27-.2-.57-.31-.86-.3-.87-.3-2-.45-2.41-.2-.11-.34-.17-.34-.17l-.62,2.2Z"/><path class="cls-88" d="M18.12,25.68a3.15,3.15,0,0,0,1.2,1.6,5.53,5.53,0,0,0,.73-1.35A4.11,4.11,0,0,1,18.12,25.68Z"/><path class="cls-88" d="M18.42,22.24a1.12,1.12,0,0,0,.69.44l.22,0c.23,0,.23,0,.23,0a1.15,1.15,0,0,0,.37-.94c0-.13-.17-.17-.37-.13a1.35,1.35,0,0,0-.54.19A6.05,6.05,0,0,0,18.42,22.24Z"/><path class="cls-89" d="M19.33,22.71c.23,0,.23,0,.23,0a1.15,1.15,0,0,0,.37-.94c0-.13-.17-.17-.37-.13a.64.64,0,0,0-.4.5A.62.62,0,0,0,19.33,22.71Z"/><path class="cls-90" d="M20,21.7c-.05-.12-.39-.25-.79-.15s-.92.76-.92.76a1,1,0,0,0,.2,0,3.84,3.84,0,0,1,.77-.53.77.77,0,0,1,.68.1S20,21.79,20,21.7Z"/><path class="cls-91" d="M19.94,21.89a.82.82,0,0,0-.79.08,1.79,1.79,0,0,1-.7.34,1.78,1.78,0,0,1,.71-.62A.66.66,0,0,1,19.94,21.89Z"/><path class="cls-92" d="M17.48,41.14a8.3,8.3,0,0,0-.38,1.31A8.66,8.66,0,0,1,15,40.1a.08.08,0,0,1,0,0,.78.78,0,0,0-.05.18,9.27,9.27,0,0,0-.27,1c0,.07,0,.13,0,.2v0s0,0,0,0a1.94,1.94,0,0,0,.07,1.29s0,.34.05.82c0,.08,0,.17,0,.27,0,.57,0,1.3,0,2v.27s0,.1,0,.15a4,4,0,0,1-.18,1.37q-.36.54-.63.9a5,5,0,0,1-.89,1l-.14,0a5.61,5.61,0,0,1-.58.09,9.71,9.71,0,0,1-1.93,0,9,9,0,0,1-1.28-.19l-.52-.13c.08-.89.2-2,.35-2.87.32-1.8.79-3,1.59-6.2a40.46,40.46,0,0,0,1-4.6l-.32-1.27a8.72,8.72,0,0,1-.42-4.5L11,31.28a55,55,0,0,0,3.33,6.46A18.56,18.56,0,0,0,17.41,41Z"/><path class="cls-93" d="M15,40.14v.65l-.08,4.9,0,1.57s0,1.05-.12,2.68c0,.37,0,.77-.05,1.19-.17,4.24-.41,10.88-.36,14.13.08,5-1.11,27.55-1.11,27.55l-1.43-.23A48.5,48.5,0,0,1,7.7,82.31c-.07-.28-.14-.56-.2-.85-1.35-5.87,1.11-8.81,1.11-8.81L5.83,57.72a9,9,0,0,1-1.27-1.87,8.57,8.57,0,0,1-.8-2.26,21.77,21.77,0,0,1,.06-5.46c.1-.87.19-1.54.23-1.8a1.13,1.13,0,0,1,0-.12,3,3,0,0,0,.21.33,9.22,9.22,0,0,0,2.85,2.1l0,0c1,.52,1.85.88,1.95.92h0L10,45.1s.55-1,1.27-2.47a17.35,17.35,0,0,0,.92-3.2c.31-1.42.53-2.71.53-2.71l.57.89s.27.35.64.93c0,.06.09.13.14.2C14.6,39.53,15,40.14,15,40.14Z"/><path class="cls-94" d="M4.16,46.52a18.28,18.28,0,0,1,.32-6.9A45.43,45.43,0,0,1,9.12,28.46c1.11-1.67,3.26-2.79,4.49-1.67,0,0,1,1.21,1.24,1.63,0,0-.79-1.16-1-1.53A3.08,3.08,0,0,0,12.54,26c-.31-.09-1.13-.13-2.7,1.2s-2.8,4.41-4,7.17A34.9,34.9,0,0,0,3.8,41.62,11.7,11.7,0,0,0,4,46.88Z"/><path class="cls-95" d="M15,40.14l-.09,5.55-1.5-.56s.12-.67.28-2c.13-1.09.26-3.71.32-4.61,0,.06.09.13.14.2C14.6,39.53,15,40.14,15,40.14Z"/><path class="cls-96" d="M15,40.14v.65l-1.5-1.36a6,6,0,0,0-1.22,0c.31-1.42.53-2.71.53-2.71l.57.89s.27.35.64.93c0,.06.09.13.14.2C14.6,39.53,15,40.14,15,40.14Z"/><path class="cls-97" d="M11.55,51.08c-.27.53-1.27,2.38-2.92,2.27s-3.22-4.13-3.22-4.13a6,6,0,0,0,3,1.39A21.09,21.09,0,0,0,11.55,51.08Z"/><g class="cls-98"><path class="cls-99" d="M9.56,55.39a.11.11,0,0,1-.1-.1c-.09-1.69-.09-2-.08-2.06a.1.1,0,0,1,.11-.09.1.1,0,0,1,.09.12c0,.1,0,.78.09,2a.12.12,0,0,1-.1.11Z"/><path class="cls-100" d="M11.12,87a.11.11,0,0,1-.11-.08c-.28-1.51-.5-2.83-.65-3.92a.11.11,0,0,1,.09-.11.1.1,0,0,1,.12.09c.14,1.08.36,2.39.64,3.9a.09.09,0,0,1-.08.12Zm-.85-7.86h0a.1.1,0,0,1-.1-.11,38.05,38.05,0,0,1,.33-4,.1.1,0,0,1,.12-.08.12.12,0,0,1,.09.11A37.15,37.15,0,0,0,10.37,79,.1.1,0,0,1,10.27,79.1Zm.23-7.89a.11.11,0,0,1-.11-.1c0-.53-.07-1.15-.11-1.87,0-.55-.07-1.26-.12-2.08a.1.1,0,0,1,.09-.11.1.1,0,0,1,.11.1c.05.82.09,1.53.12,2.08,0,.71.08,1.34.12,1.87a.1.1,0,0,1-.1.11ZM10,63.3a.1.1,0,0,1-.1-.1c-.08-1.32-.16-2.68-.24-4a.1.1,0,0,1,.1-.11.1.1,0,0,1,.11.09c.07,1.28.15,2.64.23,4a.09.09,0,0,1-.09.11Z"/><path class="cls-101" d="M12.34,92.84a.11.11,0,0,1-.1-.08s-.18-.79-.44-2a.1.1,0,1,1,.2,0c.26,1.2.44,2,.44,2a.1.1,0,0,1-.08.12Z"/></g><path class="cls-102" d="M14.73,49.94c0,.37,0,.77-.05,1.19a19.5,19.5,0,0,1-5.57-.37,10.28,10.28,0,0,1-5.29-2.63c.1-.87.19-1.54.23-1.8l.23.21a21.31,21.31,0,0,0,2.85,2.1l0,0a9.1,9.1,0,0,0,1.95.92h0A22.22,22.22,0,0,0,14.73,49.94Z"/><polygon class="cls-103" points="12.74 49.74 12.78 51.57 13.29 51.53 13.25 49.74 12.74 49.74"/><polygon class="cls-104" points="5.87 47.72 5.27 49.5 5.63 49.82 6.3 48.03 5.87 47.72"/><path class="cls-105" d="M19,38.85l-.16.22-.11.14,0,0c-.22.29-.5.69-.76,1l0,.05a.36.36,0,0,1-.07.1l0,.06a2.94,2.94,0,0,0-.32.64,8.3,8.3,0,0,0-.38,1.31,3.25,3.25,0,0,1-.71-.59c.19-.57.45-1.29.63-1.73a6.08,6.08,0,0,1,1.53-1.82Z"/><path class="cls-106" d="M15.07,23.68a1.77,1.77,0,0,1-.17.2c-.2.22-.85.09-1.57-1.11a1.4,1.4,0,0,1,.33-2,.77.77,0,0,1,.52-.11c.66.12.9,1.66,1,2A1.15,1.15,0,0,1,15.07,23.68Z"/><path class="cls-58" d="M13.93,21.37a3,3,0,0,1,.81,1.77.34.34,0,0,1-.53.22c-.42-.24.15-.89.15-.89Z"/><path class="cls-58" d="M15.07,23.68a6.24,6.24,0,0,0-.21-1.26,2.77,2.77,0,0,0-1.2-1.63.77.77,0,0,1,.52-.11c.66.12.9,1.66,1,2A1.15,1.15,0,0,1,15.07,23.68Z"/><path class="cls-107" d="M168,33.63c-.2,1.19-.59,3.28-1.11,5.27-.79,3-3.81,7.62-3.81,7.62l-2.46-.16c-2-3.59-5.08-9.78-6.56-12.73a6.36,6.36,0,0,1,1.88-.89c.57,1.09,1.41,2.75,2.14,4.57a64,64,0,0,0,3.49,7h1a46.91,46.91,0,0,0,2.7-5.48,29.9,29.9,0,0,0,1.4-5.92,3.92,3.92,0,0,1,1.26.68Z"/><path class="cls-108" d="M160.66,46.36,160,55.1a9.41,9.41,0,0,0,3.6-.16l-.45-8.42Z"/><path class="cls-42" d="M58.79,54.81a.52.52,0,0,1-.52.53h0a.52.52,0,0,1-.52-.53v-17a.53.53,0,0,1,.52-.54h0a.53.53,0,0,1,.52.54Z"/><path class="cls-42" d="M61.84,54.81a.5.5,0,0,1-.47.53h0a.5.5,0,0,1-.47-.53v-17a.51.51,0,0,1,.47-.54h0a.51.51,0,0,1,.47.54Z"/><rect class="cls-43" x="57.44" y="45.33" width="4.6" height="1.59"/><polygon class="cls-43" points="56.8 40.89 55.53 36.92 56.41 36.52 58.71 40.97 56.8 40.89"/><polygon class="cls-43" points="62.76 40.89 64.42 36.6 63.47 36.04 60.77 40.97 62.76 40.89"/><polygon class="cls-43" points="56.88 51.53 55.37 55.26 56.41 55.5 58.63 51.68 56.88 51.53"/><path class="cls-43" d="M60.61,51.61c.16.23,2.39,4,2.39,4l1.27-.23-1.51-3.58Z"/><rect class="cls-43" x="56.8" y="40.89" width="5.95" height="2.06"/><rect class="cls-43" x="56.8" y="49.78" width="5.95" height="2.07"/><polygon class="cls-44" points="56.17 44.62 57.76 44.46 57.91 48.59 56.25 48.59 56.17 44.62"/><path class="cls-43" d="M56.25,49.7a.87.87,0,0,1-.88.87h0a.87.87,0,0,1-.87-.87V43a.87.87,0,0,1,.87-.87h0a.88.88,0,0,1,.88.87Z"/><polygon class="cls-4" points="128.58 70.98 134.3 79.55 117.31 74.63 128.58 70.98"/><path class="cls-109" d="M46.27,94.53a2.39,2.39,0,1,1-4.77,0,2.16,2.16,0,0,1,.18-.88,2.38,2.38,0,0,1,4.59.88Z"/><path class="cls-110" d="M46.27,94.53a2.38,2.38,0,0,1-.3,1.16,10.06,10.06,0,0,0-4.29-2,2.38,2.38,0,0,1,4.59.88Z"/><path class="cls-111" d="M44.42,52.88l-18-.16a4.23,4.23,0,0,1,.76-3.14l0,0C28.38,48.43,33.94,44,33.94,44l8.89.32.81,4.38Z"/><polygon class="cls-112" points="45.85 90.19 37.18 90.26 24.73 90.35 26.47 52.72 41.83 52.85 44.42 52.88 45.85 90.19"/><path class="cls-109" d="M30,94.64a2.33,2.33,0,0,1-.29,1.14,2.38,2.38,0,0,1-4.47-1.14,2.38,2.38,0,0,1,4.76,0Z"/><path class="cls-113" d="M34.89,41.44h2.22s1.62-6,3-11c1-3.55,1.83-6.62,1.9-6.73l-1.78-.09-2.53,8.48Z"/><polygon class="cls-4" points="40.25 23.63 38.92 24.67 34.27 40.81 34.95 41.37 40.25 23.63"/><path class="cls-114" d="M39.92,31s2.26.5,1.9,2-3.2,11.47-3.2,11.47H37.38s2.31-7,3-9.34.65-3-.68-3.17Z"/><polygon class="cls-115" points="42.35 43.66 37.82 43.57 37.38 44.46 42.09 44.55 42.35 43.66"/><path class="cls-116" d="M37.69,32.05l2.41-1.66c1-3.55,1.83-6.62,1.9-6.73l-1.78-.09Z"/><path class="cls-117" d="M44.42,52.88l-18-.16a4.23,4.23,0,0,1,.76-3.14,103.59,103.59,0,0,0,12.21-.2,24.79,24.79,0,0,0,4.2-.7Z"/><path class="cls-110" d="M30,94.64a2.33,2.33,0,0,1-.29,1.14,9.62,9.62,0,0,0-4.29-2.07,2.39,2.39,0,0,1,4.58.93Z"/><path class="cls-118" d="M28.17,92.48c-.05.72-.22,1.45-.66,1.37s-.59-.85-.62-1.53a8.84,8.84,0,0,1,0-1.13l1.27,0A11.25,11.25,0,0,1,28.17,92.48Z"/><path class="cls-119" d="M28.17,92.48c-.44-.07-.89-.13-1.28-.16a8.84,8.84,0,0,1,0-1.13l1.27,0A11.25,11.25,0,0,1,28.17,92.48Z"/><path class="cls-118" d="M44.73,91.14s0,.6-.07,1.24S44.37,94,43.94,94s-.6-1.12-.61-2c0-.51,0-.91,0-.91Z"/><path class="cls-119" d="M44.73,91.14s0,.6-.07,1.24A10.8,10.8,0,0,0,43.33,92c0-.51,0-.91,0-.91Z"/><polygon class="cls-120" points="25.84 90.25 25.79 91.31 29.07 91.2 28.8 90.09 25.84 90.25"/><polygon class="cls-120" points="42.25 90.09 42.25 91.14 45.79 91.25 45.85 90.19 42.25 90.09"/><polygon class="cls-120" points="28.85 58.43 28.85 63.52 37.59 63.83 37.59 58.59 28.85 58.43"/><path class="cls-120" d="M36.48,75.74c0,.48-.11,4.56-.11,4.56l6.93,0,0-4.61Z"/><path class="cls-121" d="M45.85,90.19l-8.67.07c.85-4.82,2.07-12,2.47-15.15.54-4.31,1.88-15,2.18-22.26l2.59,0Z"/><polygon class="cls-122" points="30.76 58.38 30.86 63.57 28.85 63.52 28.85 58.43 30.76 58.38"/><polygon class="cls-123" points="38.28 75.74 38.17 80.4 36.37 80.3 36.48 75.74 38.28 75.74"/><polygon class="cls-112" points="189.4 96.07 173.84 96.07 174.15 63.67 187.49 63.67 189.4 96.07"/><polygon class="cls-124" points="187.49 63.67 174.15 63.67 175.42 58.27 186.7 58.27 187.49 63.67"/><polygon class="cls-125" points="185.91 61.93 176.54 61.93 177.34 58.27 184.99 58.27 185.91 61.93"/><path class="cls-121" d="M181.51,96.07h-7.67l.31-32.39h2.68c0,.14,0,.24,0,.31C176.85,64.52,180.29,87.82,181.51,96.07Z"/><polygon class="cls-126" points="187.81 97.66 176.06 97.66 175.42 95.91 188.44 95.91 187.81 97.66"/><rect class="cls-127" x="175.74" y="64.79" width="10.64" height="2.07"/></g></g></g></svg>