<svg xmlns="http://www.w3.org/2000/svg" xmlns:xlink="http://www.w3.org/1999/xlink" viewBox="0 0 143.9 64.67"><defs><style>.cls-1{isolation:isolate;}.cls-2{fill:url(#linear-gradient);}.cls-105,.cls-120,.cls-122,.cls-13,.cls-14,.cls-18,.cls-19,.cls-3,.cls-30,.cls-34,.cls-36,.cls-63,.cls-67,.cls-68,.cls-69,.cls-72,.cls-87,.cls-89,.cls-99{opacity:0.4;}.cls-10,.cls-101,.cls-103,.cls-105,.cls-109,.cls-11,.cls-113,.cls-114,.cls-116,.cls-117,.cls-118,.cls-12,.cls-120,.cls-122,.cls-123,.cls-13,.cls-14,.cls-16,.cls-18,.cls-19,.cls-24,.cls-28,.cls-29,.cls-3,.cls-34,.cls-36,.cls-44,.cls-45,.cls-48,.cls-5,.cls-53,.cls-61,.cls-66,.cls-67,.cls-71,.cls-72,.cls-78,.cls-8,.cls-82,.cls-83,.cls-84,.cls-85,.cls-87,.cls-89,.cls-97,.cls-98,.cls-99{mix-blend-mode:multiply;}.cls-3{fill:url(#linear-gradient-2);}.cls-4{fill:url(#linear-gradient-3);}.cls-10,.cls-103,.cls-11,.cls-113,.cls-114,.cls-116,.cls-117,.cls-118,.cls-12,.cls-16,.cls-28,.cls-29,.cls-48,.cls-49,.cls-5,.cls-61,.cls-71,.cls-78,.cls-8,.cls-82,.cls-83,.cls-84,.cls-97,.cls-98{opacity:0.3;}.cls-5{fill:url(#linear-gradient-4);}.cls-6{fill:url(#linear-gradient-5);}.cls-7{fill:url(#linear-gradient-6);}.cls-8{fill:url(#linear-gradient-7);}.cls-9{fill:url(#linear-gradient-8);}.cls-10{fill:url(#linear-gradient-9);}.cls-11{fill:url(#linear-gradient-10);}.cls-12{fill:url(#linear-gradient-11);}.cls-13{fill:url(#linear-gradient-12);}.cls-14{fill:url(#linear-gradient-13);}.cls-15,.cls-99{fill:#ed6519;}.cls-16{fill:url(#linear-gradient-14);}.cls-17{fill:url(#linear-gradient-15);}.cls-18{fill:url(#linear-gradient-16);}.cls-19{fill:url(#linear-gradient-17);}.cls-20{fill:url(#linear-gradient-18);}.cls-21{fill:url(#linear-gradient-19);}.cls-22{fill:url(#linear-gradient-20);}.cls-23{fill:#5e3116;}.cls-101,.cls-103,.cls-24,.cls-27{fill:#de7553;}.cls-24{opacity:0.25;}.cls-25{fill:url(#linear-gradient-21);}.cls-26{fill:url(#linear-gradient-22);}.cls-28{fill:url(#linear-gradient-23);}.cls-29{fill:url(#linear-gradient-24);}.cls-30,.cls-49,.cls-63,.cls-68{mix-blend-mode:screen;}.cls-30{fill:url(#linear-gradient-25);}.cls-31{fill:#fff;}.cls-32{fill:#362119;}.cls-33{fill:#7b4e35;}.cls-34{fill:#909090;}.cls-35{fill:url(#linear-gradient-26);}.cls-37{fill:url(#linear-gradient-27);}.cls-38{fill:url(#linear-gradient-28);}.cls-39{fill:url(#linear-gradient-29);}.cls-40{fill:url(#linear-gradient-30);}.cls-41{fill:url(#linear-gradient-31);}.cls-42{fill:#b94e48;}.cls-43,.cls-44{fill:#111419;}.cls-109,.cls-44,.cls-73{opacity:0.5;}.cls-45{fill:#1b1d1c;}.cls-45,.cls-53,.cls-66{opacity:0.6;}.cls-46,.cls-57{fill:#889eab;}.cls-101,.cls-46,.cls-85{opacity:0.2;}.cls-47{fill:#0b132b;}.cls-123,.cls-48{fill:#6ca5a6;}.cls-49{fill:#7ab3b8;}.cls-50,.cls-71{fill:#111919;}.cls-51,.cls-63,.cls-72{fill:#46676c;}.cls-52{fill:#263a3a;}.cls-54,.cls-66{fill:#9a4730;}.cls-55{fill:#181a18;}.cls-56{fill:#1e232b;}.cls-58{fill:#ef1a21;}.cls-59{fill:url(#linear-gradient-32);}.cls-60{fill:url(#linear-gradient-33);}.cls-61,.cls-68{fill:#8da5b0;}.cls-62{fill:url(#linear-gradient-34);}.cls-64{fill:#2d4649;}.cls-65{fill:#bf1623;}.cls-67{fill:#a52a07;}.cls-70,.cls-73{fill:#091d23;}.cls-74{fill:url(#linear-gradient-35);}.cls-75{opacity:0.32;}.cls-76{fill:#e67f55;}.cls-77{fill:url(#linear-gradient-36);}.cls-78{fill:url(#linear-gradient-37);}.cls-79{fill:url(#linear-gradient-38);}.cls-80{fill:url(#linear-gradient-39);}.cls-81{fill:#301d12;}.cls-82{fill:#e78565;}.cls-83{fill:url(#linear-gradient-40);}.cls-84{fill:url(#linear-gradient-41);}.cls-86{fill:url(#linear-gradient-42);}.cls-87{fill:url(#linear-gradient-43);}.cls-88{fill:url(#linear-gradient-44);}.cls-89{fill:url(#linear-gradient-45);}.cls-90{fill:url(#linear-gradient-46);}.cls-91{fill:url(#linear-gradient-47);}.cls-92{fill:url(#linear-gradient-48);}.cls-93{fill:url(#linear-gradient-49);}.cls-94{fill:#206145;}.cls-95{fill:url(#linear-gradient-50);}.cls-96{fill:url(#linear-gradient-51);}.cls-97{fill:url(#linear-gradient-52);}.cls-98{fill:url(#linear-gradient-53);}.cls-100{fill:url(#linear-gradient-54);}.cls-102{fill:url(#linear-gradient-55);}.cls-104,.cls-105{fill:#6b3813;}.cls-106{fill:#462f1b;}.cls-107{fill:url(#linear-gradient-56);}.cls-108{fill:url(#linear-gradient-57);}.cls-109{fill:#afacaa;}.cls-110{fill:url(#linear-gradient-58);}.cls-111{fill:url(#linear-gradient-59);}.cls-112{fill:#ec8c1b;}.cls-113{fill:url(#linear-gradient-60);}.cls-114{fill:url(#linear-gradient-61);}.cls-115{fill:url(#linear-gradient-62);}.cls-116{fill:url(#linear-gradient-63);}.cls-117{fill:url(#linear-gradient-64);}.cls-118{fill:url(#linear-gradient-65);}.cls-119{fill:url(#linear-gradient-66);}.cls-120{fill:url(#linear-gradient-67);}.cls-121{fill:url(#linear-gradient-68);}.cls-122{fill:url(#linear-gradient-69);}.cls-123{opacity:0.7;}.cls-124{fill:#fb0a14;}.cls-125{fill:#1c1b1a;}.cls-126{fill:#282725;}.cls-127{fill:url(#linear-gradient-70);}.cls-128{fill:url(#linear-gradient-71);}.cls-129{fill:url(#linear-gradient-72);}.cls-130{fill:url(#linear-gradient-73);}.cls-131{fill:url(#linear-gradient-74);}.cls-132{fill:#679090;}.cls-133{fill:url(#linear-gradient-75);}</style><linearGradient id="linear-gradient" x1="127.41" y1="56.7" x2="127.45" y2="54.65" gradientUnits="userSpaceOnUse"><stop offset="0" stop-color="#293232"/><stop offset="0.98" stop-color="#202329"/></linearGradient><linearGradient id="linear-gradient-2" x1="128.04" y1="56.7" x2="128.07" y2="54.66" xlink:href="#linear-gradient"/><linearGradient id="linear-gradient-3" x1="122.12" y1="41.46" x2="129.4" y2="51.6" gradientUnits="userSpaceOnUse"><stop offset="0" stop-color="#104230"/><stop offset="1" stop-color="#103437"/></linearGradient><linearGradient id="linear-gradient-4" x1="124.81" y1="51.84" x2="124.88" y2="47.68" gradientUnits="userSpaceOnUse"><stop offset="0" stop-color="#1e614c"/><stop offset="0.98" stop-color="#104d30"/></linearGradient><linearGradient id="linear-gradient-5" x1="137.75" y1="31.16" x2="134.24" y2="41.45" gradientUnits="userSpaceOnUse"><stop offset="0.02" stop-color="#104d30"/><stop offset="1" stop-color="#103f3e"/></linearGradient><linearGradient id="linear-gradient-6" x1="134.55" y1="55.42" x2="132.29" y2="41.64" xlink:href="#linear-gradient-3"/><linearGradient id="linear-gradient-7" x1="132.76" y1="42.03" x2="132.79" y2="40.17" xlink:href="#linear-gradient-4"/><linearGradient id="linear-gradient-8" x1="131.61" y1="19.03" x2="123.06" y2="44.03" xlink:href="#linear-gradient-5"/><linearGradient id="linear-gradient-9" x1="122.18" y1="37.92" x2="122.26" y2="33.05" xlink:href="#linear-gradient-4"/><linearGradient id="linear-gradient-10" x1="129.73" y1="40.76" x2="129.83" y2="35.03" xlink:href="#linear-gradient-4"/><linearGradient id="linear-gradient-11" x1="133.77" y1="54.5" x2="133.88" y2="47.8" xlink:href="#linear-gradient-4"/><linearGradient id="linear-gradient-12" x1="126.4" y1="30.45" x2="126.41" y2="29.78" xlink:href="#linear-gradient"/><linearGradient id="linear-gradient-13" x1="131.54" y1="31.13" x2="131.55" y2="30.38" xlink:href="#linear-gradient"/><linearGradient id="linear-gradient-14" x1="131.45" y1="26.81" x2="131.48" y2="25.2" xlink:href="#linear-gradient-4"/><linearGradient id="linear-gradient-15" x1="129.83" y1="58.05" x2="129.86" y2="56.35" xlink:href="#linear-gradient"/><linearGradient id="linear-gradient-16" x1="130.8" y1="57.95" x2="130.83" y2="56.31" xlink:href="#linear-gradient"/><linearGradient id="linear-gradient-17" x1="133.82" y1="26.4" x2="129.33" y2="39.55" xlink:href="#linear-gradient-5"/><linearGradient id="linear-gradient-18" x1="129.29" y1="24.7" x2="128.95" y2="26.35" xlink:href="#linear-gradient-5"/><linearGradient id="linear-gradient-19" x1="154.35" y1="58.6" x2="162.27" y2="58.6" gradientTransform="translate(6.08 -91.55) rotate(21.69)" gradientUnits="userSpaceOnUse"><stop offset="0" stop-color="#f2c8a4"/><stop offset="1" stop-color="#f1aa8c"/></linearGradient><linearGradient id="linear-gradient-20" x1="157.81" y1="55.65" x2="157.91" y2="52.38" gradientTransform="translate(6.08 -91.55) rotate(21.69)" gradientUnits="userSpaceOnUse"><stop offset="0" stop-color="#5e3116"/><stop offset="1" stop-color="#53260f"/></linearGradient><linearGradient id="linear-gradient-21" x1="157.72" y1="59.26" x2="157.33" y2="62.54" gradientTransform="translate(6.08 -91.55) rotate(21.69)" gradientUnits="userSpaceOnUse"><stop offset="0" stop-color="#633117"/><stop offset="0.99" stop-color="#7c3413"/></linearGradient><linearGradient id="linear-gradient-22" x1="158.27" y1="63.95" x2="158.91" y2="62.72" xlink:href="#linear-gradient-19"/><linearGradient id="linear-gradient-23" x1="160.17" y1="56.19" x2="160.25" y2="53.44" xlink:href="#linear-gradient-20"/><linearGradient id="linear-gradient-24" x1="159.68" y1="61.11" x2="159.73" y2="59.53" xlink:href="#linear-gradient-20"/><linearGradient id="linear-gradient-25" x1="156.44" y1="52.38" x2="156.48" y2="51.13" xlink:href="#linear-gradient-20"/><linearGradient id="linear-gradient-26" x1="132.56" y1="23.64" x2="132.04" y2="26.2" xlink:href="#linear-gradient-5"/><linearGradient id="linear-gradient-27" x1="138.62" y1="42.49" x2="133.99" y2="56.02" xlink:href="#linear-gradient-5"/><linearGradient id="linear-gradient-28" x1="135.19" y1="41.58" x2="131.08" y2="53.6" xlink:href="#linear-gradient-5"/><linearGradient id="linear-gradient-29" x1="132.01" y1="40.27" x2="127.46" y2="53.59" xlink:href="#linear-gradient-5"/><linearGradient id="linear-gradient-30" x1="133.72" y1="40.88" x2="129.29" y2="53.82" xlink:href="#linear-gradient-5"/><linearGradient id="linear-gradient-31" x1="135.06" y1="41.31" x2="130.51" y2="54.64" xlink:href="#linear-gradient-5"/><linearGradient id="linear-gradient-32" x1="46.68" y1="22.57" x2="56.76" y2="22.57" gradientUnits="userSpaceOnUse"><stop offset="0.01" stop-color="#7ab3b8"/><stop offset="0.99" stop-color="#68a8ad"/></linearGradient><linearGradient id="linear-gradient-33" x1="73.61" y1="37.47" x2="89.64" y2="37.47" gradientUnits="userSpaceOnUse"><stop offset="0" stop-color="#455c79"/><stop offset="0.99" stop-color="#668da2"/></linearGradient><linearGradient id="linear-gradient-34" x1="116.16" y1="34.89" x2="121.04" y2="34.89" xlink:href="#linear-gradient-33"/><linearGradient id="linear-gradient-35" x1="172.47" y1="76.86" x2="173.93" y2="79.7" gradientTransform="matrix(-0.71, -0.75, -0.74, 0.69, 284.92, 119.34)" gradientUnits="userSpaceOnUse"><stop offset="0" stop-color="#f1c194"/><stop offset="1" stop-color="#f29d7a"/></linearGradient><linearGradient id="linear-gradient-36" x1="80.4" y1="51.86" x2="79.28" y2="57.46" xlink:href="#linear-gradient-5"/><linearGradient id="linear-gradient-37" x1="79.81" y1="59.75" x2="79.88" y2="55.57" xlink:href="#linear-gradient-4"/><linearGradient id="linear-gradient-38" x1="121.29" y1="25.71" x2="124.34" y2="31.64" gradientTransform="matrix(-1, 0, 0, 1, 209.92, 0)" xlink:href="#linear-gradient-35"/><linearGradient id="linear-gradient-39" x1="122.31" y1="25.19" x2="125.36" y2="31.12" gradientTransform="matrix(-1, 0, 0, 1, 209.92, 0)" xlink:href="#linear-gradient-35"/><linearGradient id="linear-gradient-40" x1="120.67" y1="23.17" x2="121.98" y2="25.3" gradientTransform="matrix(-1, 0, 0, 1, 209.92, 0)" gradientUnits="userSpaceOnUse"><stop offset="0" stop-color="#734022"/><stop offset="1" stop-color="#613828"/></linearGradient><linearGradient id="linear-gradient-41" x1="123.86" y1="24.31" x2="128.37" y2="31.63" xlink:href="#linear-gradient-40"/><linearGradient id="linear-gradient-42" x1="22.13" y1="56.58" x2="22.15" y2="55.43" xlink:href="#linear-gradient"/><linearGradient id="linear-gradient-43" x1="22.13" y1="56.6" x2="22.14" y2="56.19" xlink:href="#linear-gradient"/><linearGradient id="linear-gradient-44" x1="39.71" y1="57.56" x2="39.73" y2="56.38" xlink:href="#linear-gradient"/><linearGradient id="linear-gradient-45" x1="39.71" y1="57.58" x2="39.72" y2="57.17" xlink:href="#linear-gradient"/><linearGradient id="linear-gradient-46" x1="52.6" y1="31.74" x2="52.66" y2="29.49" gradientUnits="userSpaceOnUse"><stop offset="0" stop-color="#f1c7a3"/><stop offset="1" stop-color="#f0a98b"/></linearGradient><linearGradient id="linear-gradient-47" x1="46.65" y1="27.53" x2="46.75" y2="70.07" gradientUnits="userSpaceOnUse"><stop offset="0.01" stop-color="#10534c"/><stop offset="0.98" stop-color="#104430"/></linearGradient><linearGradient id="linear-gradient-48" x1="32.22" y1="23.42" x2="32.3" y2="57.06" xlink:href="#linear-gradient-47"/><linearGradient id="linear-gradient-49" x1="45.09" y1="16.16" x2="39.72" y2="20.85" gradientUnits="userSpaceOnUse"><stop offset="0.01" stop-color="#0e3a41"/><stop offset="0.98" stop-color="#104430"/></linearGradient><linearGradient id="linear-gradient-50" x1="45.87" y1="8.34" x2="42.32" y2="11.44" xlink:href="#linear-gradient-49"/><linearGradient id="linear-gradient-51" x1="51.71" y1="11.64" x2="47.05" y2="15.72" xlink:href="#linear-gradient-49"/><linearGradient id="linear-gradient-52" x1="30.91" y1="54.81" x2="31.12" y2="41.85" xlink:href="#linear-gradient-4"/><linearGradient id="linear-gradient-53" x1="21.81" y1="54.21" x2="21.92" y2="47.97" xlink:href="#linear-gradient-4"/><linearGradient id="linear-gradient-54" x1="-419.15" y1="-107.68" x2="-415.94" y2="-107.68" gradientTransform="matrix(-0.89, -0.46, -0.46, 0.89, -373.11, -87.56)" xlink:href="#linear-gradient-19"/><linearGradient id="linear-gradient-55" x1="-421.5" y1="-108.53" x2="-416.26" y2="-115.61" gradientTransform="matrix(-0.89, -0.46, -0.46, 0.89, -373.11, -87.56)" xlink:href="#linear-gradient-19"/><linearGradient id="linear-gradient-56" x1="-418.56" y1="-112.9" x2="-416.38" y2="-112.9" gradientTransform="matrix(-0.89, -0.46, -0.46, 0.89, -373.11, -87.56)" gradientUnits="userSpaceOnUse"><stop offset="0.01" stop-color="#714d33"/><stop offset="1" stop-color="#352113"/></linearGradient><linearGradient id="linear-gradient-57" x1="-422.02" y1="-112.87" x2="-420.15" y2="-112.87" xlink:href="#linear-gradient-56"/><linearGradient id="linear-gradient-58" x1="86.44" y1="46.87" x2="84.45" y2="56.75" xlink:href="#linear-gradient-5"/><linearGradient id="linear-gradient-59" x1="91.53" y1="31.02" x2="84.25" y2="52.32" xlink:href="#linear-gradient-5"/><linearGradient id="linear-gradient-60" x1="75.36" y1="46.79" x2="75.44" y2="42.03" xlink:href="#linear-gradient-4"/><linearGradient id="linear-gradient-61" x1="93.66" y1="47.92" x2="93.73" y2="43.27" xlink:href="#linear-gradient-4"/><linearGradient id="linear-gradient-62" x1="84.9" y1="31.55" x2="84.64" y2="32.83" xlink:href="#linear-gradient-5"/><linearGradient id="linear-gradient-63" x1="83.96" y1="33.19" x2="83.98" y2="32.32" xlink:href="#linear-gradient-4"/><linearGradient id="linear-gradient-64" x1="84.21" y1="59.78" x2="84.32" y2="53.27" xlink:href="#linear-gradient-4"/><linearGradient id="linear-gradient-65" x1="82.55" y1="42.02" x2="82.6" y2="38.9" xlink:href="#linear-gradient-4"/><linearGradient id="linear-gradient-66" x1="81.11" y1="61.66" x2="81.14" y2="59.66" xlink:href="#linear-gradient"/><linearGradient id="linear-gradient-67" x1="81.11" y1="61.64" x2="81.15" y2="59.64" xlink:href="#linear-gradient"/><linearGradient id="linear-gradient-68" x1="86.32" y1="62.43" x2="86.34" y2="60.98" xlink:href="#linear-gradient"/><linearGradient id="linear-gradient-69" x1="84.44" y1="62.2" x2="84.46" y2="60.84" xlink:href="#linear-gradient"/><linearGradient id="linear-gradient-70" x1="51.98" y1="32.14" x2="52.04" y2="30" xlink:href="#linear-gradient-46"/><linearGradient id="linear-gradient-71" x1="53.58" y1="15.09" x2="53.64" y2="12.74" gradientTransform="matrix(0.99, 0.12, -0.12, 0.99, 1.02, 10.73)" xlink:href="#linear-gradient-46"/><linearGradient id="linear-gradient-72" x1="54.59" y1="9.41" x2="54.65" y2="7.17" gradientTransform="matrix(0.99, 0.16, -0.16, 0.99, 0.75, 13.81)" xlink:href="#linear-gradient-46"/><linearGradient id="linear-gradient-73" x1="53.94" y1="31.96" x2="53.99" y2="29.76" xlink:href="#linear-gradient-46"/><linearGradient id="linear-gradient-74" x1="51.82" y1="32.54" x2="48.47" y2="29.56" xlink:href="#linear-gradient-46"/><linearGradient id="linear-gradient-75" x1="119.27" y1="40.54" x2="122.46" y2="40.54" gradientTransform="matrix(1, 0, 0, 1, 0, 0)" xlink:href="#linear-gradient-19"/></defs><g class="cls-1"><g id="Layer_2" data-name="Layer 2"><g id="Layer_2-2" data-name="Layer 2"><path class="cls-2" d="M129,55.19a1.87,1.87,0,0,1-1.19,1.43,2.77,2.77,0,0,1-.68.13,1.39,1.39,0,0,1-1.17-.49c-.37-.37.92-1.51,1.36-2.07a.73.73,0,0,0,.13-.2,1.63,1.63,0,0,0,.06-1.49l1.26.48Z"/><path class="cls-3" d="M129,55.19a1.87,1.87,0,0,1-1.19,1.43,2.77,2.77,0,0,1-.68.13c.12-.58.26-1.21.26-1.21a3.64,3.64,0,0,0-.07-1.35.73.73,0,0,0,.13-.2,1.63,1.63,0,0,0,.06-1.49l1.26.48Z"/><path class="cls-4" d="M128.75,53.22c0,.13-1.26-.72-1.26-.72s-4.95-2.86-7.28-4.29-3.88-2.93-2.86-5,6.86-3.93,8.05-4l3.22.47a4.51,4.51,0,0,0-.53,1.08,7.88,7.88,0,0,0-.13,2.67c.06.76.16,1.6.25,2.52l-3,.12c1.41.75,2.87,3.09,3.23,3.76.05.5.09,1.18.14,1.83S128.69,52.8,128.75,53.22Z"/><path class="cls-5" d="M128.59,51.59l-.08.43a18.82,18.82,0,0,0-3.64-4.83,7.5,7.5,0,0,0-3.11-1.91L121.17,44s1.43.12,3.16.3a7,7,0,0,0,3.63-1c.06.76.16,1.6.25,2.52l-3,.12c1.41.75,2.87,3.09,3.23,3.76C128.5,50.26,128.54,50.94,128.59,51.59Z"/><path class="cls-6" d="M137.1,32.93c.06.78.59,7.46.53,8.42a9,9,0,0,0-5.84-2.57A15.15,15.15,0,0,0,135,36.16,21.88,21.88,0,0,0,137.1,32.93Z"/><path class="cls-7" d="M137.7,46.59a1.83,1.83,0,0,1-.6.54c-1.61.9-3.94-1-3.94-1-.12,2.92-2.63,8.41-2.63,8.41l-.55,0-1.06.08s-.16-1-.35-2.3c.06-.76-.59-5.76-.65-6.41a32.1,32.1,0,0,1-.25-4.36,6.21,6.21,0,0,1,.18-1.13,2.34,2.34,0,0,1,.41-.8,4.47,4.47,0,0,1,4.9-1.23c2.09.84,4.26,2.11,4.47,2.87.08.26.15.54.22.82C138.23,43.77,138.43,45.58,137.7,46.59Z"/><path class="cls-8" d="M137.85,42.17l-.64-.35c-1.9-1-4.89-1.79-6.38-1.43a25.08,25.08,0,0,0-3.16,1.25,6.21,6.21,0,0,1,.18-1.13,2.34,2.34,0,0,1,.41-.8,4.47,4.47,0,0,1,4.9-1.23c2.09.84,4.26,2.11,4.47,2.87C137.71,41.61,137.78,41.89,137.85,42.17Z"/><path class="cls-9" d="M135.25,36c-2.75,2.8-6.21,5.37-12.83,4.77l-.28-.8-.26-.75a9.53,9.53,0,0,0,3.57-1l.07,0a.31.31,0,0,1,0-.07l0-.11a28.56,28.56,0,0,1-1.14-6.86s-4.36,2.63-5.19,3.4l-1-.87-1.38-1.27s4.83-5.13,6.56-6.75a7.14,7.14,0,0,1,2.54-1.73,6.32,6.32,0,0,1,1.21-.29c.29-.05.61-.09,1-.12a10.49,10.49,0,0,1,7.27,2.34c.16.13.33.26.48.4h0A4.5,4.5,0,0,1,137,27.88a5.37,5.37,0,0,1,.34,1.05,7.09,7.09,0,0,1,.14,1h0A8.09,8.09,0,0,1,135.25,36Z"/><path class="cls-10" d="M126.24,37.71a1.74,1.74,0,0,1-.74.4,29.07,29.07,0,0,1-1.17-7s-4.36,2.63-5.19,3.4l-1-.87a34.14,34.14,0,0,0,4.59-2.82A8.48,8.48,0,0,0,125.11,28a14,14,0,0,0,0,5.79C125.82,36.27,126.24,37.71,126.24,37.71Z"/><path class="cls-11" d="M135.25,36c-2.75,2.8-6.21,5.37-12.83,4.77l-.28-.8a15.06,15.06,0,0,0,6.37-.63,11.66,11.66,0,0,0,8.11-10.21s.44.1.87.85h0A8.09,8.09,0,0,1,135.25,36Z"/><path class="cls-12" d="M137.7,46.59a1.83,1.83,0,0,1-.6.54c-1.61.9-3.94-1-3.94-1-.12,2.92-2.63,8.41-2.63,8.41l-.55,0a26.64,26.64,0,0,0,2-6.42,20.2,20.2,0,0,0,.23-7.46A7.32,7.32,0,0,1,133.58,44a4.6,4.6,0,0,0,2.08,1.79C136.28,46,137.07,46.3,137.7,46.59Z"/><polygon class="cls-13" points="125.05 29.05 124.97 29.97 127.67 30.49 127.87 29.13 125.05 29.05"/><polygon class="cls-14" points="130.3 29.57 130.14 30.69 132.44 31.16 132.96 30.09 130.3 29.57"/><path class="cls-15" d="M135.36,25.85a8.6,8.6,0,0,0-2.2,3.44,14.78,14.78,0,0,0-7.64-1.19,19.49,19.49,0,0,0,.39-4.18,6.32,6.32,0,0,1,1.21-.29c.29-.05.61-.09,1-.12A10.49,10.49,0,0,1,135.36,25.85Z"/><path class="cls-16" d="M135.85,26.26l-1,.65a34.76,34.76,0,0,1-4.53-.36,4.17,4.17,0,0,1-3.24-2.92c.29-.05.61-.09,1-.12a10.59,10.59,0,0,1,7.75,2.74Z"/><path class="cls-17" d="M131.67,57.75a6.54,6.54,0,0,1-1.13.25,11.15,11.15,0,0,1-2.21,0,1.32,1.32,0,0,1-.42-.78,9.21,9.21,0,0,1,1-2.56l1-.07.65,0a13.69,13.69,0,0,0,1,1.85C132,57.27,131.67,57.75,131.67,57.75Z"/><path class="cls-18" d="M131.67,57.75a6.54,6.54,0,0,1-1.13.25,8.73,8.73,0,0,0-.66-3.36l.65,0a13.69,13.69,0,0,0,1,1.85C132,57.27,131.67,57.75,131.67,57.75Z"/><path class="cls-19" d="M137.35,28.93a.11.11,0,0,1-.13-.07c-.33-.93-.78-1.43-1.35-1.46-1.17-.08-2.51,1.76-2.6,1.94a13.47,13.47,0,0,1-4.88,7.15l-.13.14h0a15.36,15.36,0,0,1-2.66,1.6h-.1l.07,0a.31.31,0,0,1,0-.07l0-.11a15,15,0,0,0,2.69-1.64,29.77,29.77,0,0,1,2-10.06l.05-.09a.12.12,0,0,1,.15-.07.13.13,0,0,1,.07.16.89.89,0,0,0,0,.1,29.17,29.17,0,0,0-2,9.77,14.14,14.14,0,0,0,3.27-3.69A11.16,11.16,0,0,0,133,29.27a4.84,4.84,0,0,1,2.51-2.09,1.39,1.39,0,0,1,1.46.7A5.37,5.37,0,0,1,137.35,28.93Z"/><path class="cls-20" d="M129.94,26.28l-2,.45.62-2.21a2.75,2.75,0,0,0,.75.24,1,1,0,0,0,0,.89Z"/><path class="cls-21" d="M134.54,23.49a.77.77,0,0,1-1.24-.09l-.22.18a13.35,13.35,0,0,1-1.82,1.29,2.65,2.65,0,0,1-3.07-.76c-1-1.16-.38-2.77-.25-3.43s.54-2.05.78-2.9a2,2,0,0,1,.16-.42h0l0,0h0a1.75,1.75,0,0,1,1.52-.65c.67.16,1.11,1.11,1.11,1.11s1.2-.49,1.68-.11a2.43,2.43,0,0,1,.85,2.13,15.72,15.72,0,0,1-.37,2.47l.18.07.12-.14a1.54,1.54,0,0,1,.95-.59l0-.06a.69.69,0,0,1,.39.38C135.57,22.4,135.11,23,134.54,23.49Z"/><path class="cls-22" d="M135,21.56l0,.06a1.54,1.54,0,0,0-.95.59l-.12.14-.18-.07a15.72,15.72,0,0,0,.37-2.47,2.42,2.42,0,0,0-.78-2.06.23.23,0,0,0-.07-.07c-.48-.38-1.68.11-1.68.11s-.44-.95-1.11-1.11c-.82-.2-1.55.68-1.55.68h0a2.52,2.52,0,0,1,.3-2,3.47,3.47,0,0,1,.26-.37,1.34,1.34,0,0,1,1.68-.53,3.91,3.91,0,0,1,1.58-1.06c.88-.24,1.52.26,1.4.88,0,0,.46.12.5.43a2.36,2.36,0,0,1-.17.85l.06-.07c.08-.09.25-.23.42-.08l0,0c.24.3.07.72,0,1,0,0,.25-.3.66.34a4.85,4.85,0,0,1,.38,2.86A6.42,6.42,0,0,1,135,21.56Z"/><path class="cls-23" d="M128.7,18.4c-.09-.07.38-.48.88-.49s.9.34.82.61-.12.2-.48.05A4.42,4.42,0,0,0,128.7,18.4Z"/><path class="cls-23" d="M132,19.22c-.23-.12.12-.63.66-.5a1.34,1.34,0,0,1,.92,1.06,2.34,2.34,0,0,0-.63-.33C132.5,19.31,132.17,19.32,132,19.22Z"/><path class="cls-24" d="M135.38,21.94a6,6,0,0,0-1.79,1.73.8.8,0,0,1-.29-.27l-.22.18v0a2.75,2.75,0,0,1,0-.75,12.24,12.24,0,0,0,.56-1.94c.22-1.09.18-2.36-.44-2.84s-1.73,0-1.73,0,0-.4-.79-.92a1.32,1.32,0,0,0-1.72.19,1.75,1.75,0,0,1,1.52-.65c.67.16,1.11,1.11,1.11,1.11s1.2-.49,1.68-.11a2.43,2.43,0,0,1,.85,2.13,15.72,15.72,0,0,1-.37,2.47l.18.07.12-.14a1.54,1.54,0,0,1,.95-.59l0-.06A.69.69,0,0,1,135.38,21.94Z"/><path class="cls-25" d="M133.37,23.24a5.33,5.33,0,0,1-1.2,1.15,3.18,3.18,0,0,1-1.86.68,3.91,3.91,0,0,1-1.14-.23l-.13-.06a2.25,2.25,0,0,1-1.47-2,9.28,9.28,0,0,1,.4-2.33,6.82,6.82,0,0,0,1.95,1.33,6.9,6.9,0,0,0,2.94.61l.18,0c.58-.06.66-.13.66-.13l.18.07A3.44,3.44,0,0,1,133.37,23.24Z"/><path class="cls-26" d="M132.33,25.74l-.22.14a3.11,3.11,0,0,1-1.43.42,1.6,1.6,0,0,1-1.59-.72,2.11,2.11,0,0,1,0-.52c0-.08,0-.16,0-.22a2.93,2.93,0,0,0,3-.45,5.33,5.33,0,0,0,1.2-1.15s0,0,0,0S132.33,25.74,132.33,25.74Z"/><path class="cls-24" d="M132.33,25.74l-.22.14-.05-.48s-.13.12-1.18.16a3.34,3.34,0,0,1-1.75-.5c0-.08,0-.16,0-.22a2.93,2.93,0,0,0,3-.45,5.33,5.33,0,0,0,1.2-1.15s0,0,0,0S132.33,25.74,132.33,25.74Z"/><path class="cls-27" d="M134.82,22.16a2.62,2.62,0,0,0-1,.61l-.14.26a.33.33,0,0,0,.4.14c.3-.07.07-.43.07-.43Z"/><path class="cls-28" d="M135,21.56l0,.06a1.54,1.54,0,0,0-.95.59l-.12.14-.18-.07a15.72,15.72,0,0,0,.37-2.47,2.42,2.42,0,0,0-.78-2.06,3.22,3.22,0,0,0,1.41-1.41,1.53,1.53,0,0,0,.21-.95l0,0c.24.3.07.72,0,1,0,0,.25-.3.66.34a4.85,4.85,0,0,1,.38,2.86A6.42,6.42,0,0,1,135,21.56Z"/><path class="cls-29" d="M133.37,23.24a5.33,5.33,0,0,1-1.2,1.15,3.18,3.18,0,0,1-1.86.68A5.14,5.14,0,0,0,133,22.41c.58-.06.66-.13.66-.13l.18.07A3.44,3.44,0,0,1,133.37,23.24Z"/><path class="cls-30" d="M134.49,15.47l-.15.25s.09-.87-.13-1.14a.34.34,0,0,0-.48-.09s0-.71-.9-.74-1.9,1.2-1.9,1.2,0-.29-.5-.33a2,2,0,0,0-1,.35,1.34,1.34,0,0,1,1.68-.53,3.91,3.91,0,0,1,1.58-1.06c.88-.24,1.52.26,1.4.88,0,0,.46.12.5.43a2.36,2.36,0,0,1-.17.85Z"/><path class="cls-31" d="M132.89,21a2.32,2.32,0,0,1-1-.05,1.26,1.26,0,0,1-.63-.4l0,0v0c.08-.09.59-.65,1.11-.47l.12,0A.75.75,0,0,1,132.89,21Z"/><path class="cls-31" d="M130,20.12a2.17,2.17,0,0,1-.84-.09,1.2,1.2,0,0,1-.64-.46h0a.14.14,0,0,1,0-.15.77.77,0,0,1,.93-.22l.14.06A.78.78,0,0,1,130,20.12Z"/><path class="cls-27" d="M130.33,19.1c-.09.1.07.23,0,.41a4.32,4.32,0,0,1-.33.95c-.17.34-.43.87-.52,1s-.11.25.15.4a.81.81,0,0,0,.81,0c.19-.14.23-.19.11-.21s-.24.12-.44.14a.61.61,0,0,1-.51-.22c0-.08.22-.32.55-1.14s.34-.87.33-1A1,1,0,0,0,130.33,19.1Z"/><path class="cls-31" d="M129.12,22s.08.18.9.47a4.62,4.62,0,0,0,1.42.3s-.91.79-1.71.53S129.12,22,129.12,22Z"/><path class="cls-32" d="M129.12,20a1.2,1.2,0,0,1-.64-.46.81.81,0,0,1,0-.16.77.77,0,0,1,.93-.22l.14.06a.55.55,0,0,1,0,.31A.61.61,0,0,1,129.12,20Z"/><path class="cls-32" d="M131.93,21a1.26,1.26,0,0,1-.63-.4.09.09,0,0,1,0-.05c.08-.09.59-.65,1.11-.47a.6.6,0,0,1-.47.92Z"/><path class="cls-33" d="M131.28,20.52s.64-.67,1.15-.38a.92.92,0,0,1,.46.86s.39-.77-.3-1.08S131.28,20.52,131.28,20.52Z"/><path class="cls-33" d="M130,20.12a.83.83,0,0,0-.49-.89.77.77,0,0,0-1,.19.84.84,0,0,1,1.09-.45C130.33,19.27,130,20.12,130,20.12Z"/><path class="cls-34" d="M128.47,19.42a.63.63,0,0,1,.88-.08,1.15,1.15,0,0,1,.61.78s.09-.78-.39-1S128.47,19.42,128.47,19.42Z"/><path class="cls-34" d="M131.29,20.5a1.15,1.15,0,0,1,1-.26,1.13,1.13,0,0,1,.59.76s.19-.82-.49-1A1.16,1.16,0,0,0,131.29,20.5Z"/><path class="cls-31" d="M129.54,19.89a.15.15,0,0,1-.19.08.14.14,0,1,1,.11-.26A.15.15,0,0,1,129.54,19.89Z"/><path class="cls-31" d="M132.46,20.8a.15.15,0,0,1-.27-.11.15.15,0,0,1,.19-.08A.15.15,0,0,1,132.46,20.8Z"/><path class="cls-35" d="M130.89,26.31l1.73.93a7.91,7.91,0,0,0,.69-1.79l.21-.93-.36-.8s-.3.71-.6,1.31S130.89,26.31,130.89,26.31Z"/><g class="cls-36"><path class="cls-37" d="M138.06,44.58a1.54,1.54,0,0,1-.31-.06.06.06,0,0,1-.05-.08.06.06,0,0,1,.08,0,1,1,0,0,0,.3.06.05.05,0,0,1,.08,0,.07.07,0,0,1,0,.09A.21.21,0,0,1,138.06,44.58Z"/><path class="cls-38" d="M137,44.26h0a6.38,6.38,0,0,1-.71-.33.06.06,0,0,1,.06-.1c.24.12.47.23.69.32,0,0,0,0,0,.08S137.05,44.26,137,44.26Zm-1.38-.7h0q-.33-.19-.66-.42a.06.06,0,0,1,0-.08.05.05,0,0,1,.08,0,6.42,6.42,0,0,0,.65.41.07.07,0,0,1,0,.09A.09.09,0,0,1,135.65,43.56Zm-1.29-.87h0c-.21-.15-.41-.31-.61-.48a.06.06,0,1,1,.07-.09l.61.48a.05.05,0,0,1,0,.08S134.38,42.69,134.36,42.69Zm-1.19-1h0c-.19-.17-.38-.36-.56-.54a.07.07,0,0,1,0-.09.06.06,0,0,1,.09,0c.18.18.36.36.55.53a.06.06,0,0,1,0,.09Z"/><path class="cls-39" d="M132,40.67a.07.07,0,0,1-.06,0,3.09,3.09,0,0,0-.11-.34.05.05,0,0,1,0-.07.06.06,0,0,1,.07,0l.24.27a.06.06,0,0,1,0,.09.08.08,0,0,1-.08,0l0,0v.06a.06.06,0,0,1,0,.08Z"/><path class="cls-40" d="M130.83,53.61h0a.06.06,0,0,1,0-.07c.06-.21.12-.45.19-.7,0,0,0-.06.07,0s.05,0,0,.08c-.06.25-.13.49-.18.7A.06.06,0,0,1,130.83,53.61Zm.37-1.42h0a.06.06,0,0,1,0-.07c.06-.23.11-.46.17-.71a.06.06,0,0,1,.07,0s.06,0,.05.07c-.06.24-.12.48-.17.71A.05.05,0,0,1,131.2,52.19Zm.34-1.42h0a.06.06,0,0,1,0-.07l.15-.71a.06.06,0,0,1,.12,0c-.05.25-.1.48-.16.72C131.59,50.76,131.56,50.77,131.54,50.77Zm.3-1.42h0s0,0,0-.07c0-.23.09-.47.13-.71a.06.06,0,0,1,.07-.05s.05,0,.05.07c0,.24-.09.48-.14.72A.05.05,0,0,1,131.84,49.35Zm.25-1.44h0a.08.08,0,0,1-.05-.07c0-.24.07-.48.1-.72,0,0,0-.06.07,0a.05.05,0,0,1,.05.07c0,.24-.06.48-.1.72A.06.06,0,0,1,132.09,47.91Zm.19-1.45h0a.06.06,0,0,1-.06-.06c0-.16,0-.31,0-.47a2.28,2.28,0,0,0,0-.26s0-.06.07-.05a.06.06,0,0,1,.05.06,2.11,2.11,0,0,1,0,.26c0,.16,0,.31,0,.47A.06.06,0,0,1,132.28,46.46Zm.1-1.45h0a.06.06,0,0,1-.06-.06c0-.22,0-.45,0-.66v-.07a.06.06,0,0,1,.12,0v.07c0,.21,0,.44,0,.66A.06.06,0,0,1,132.38,45Zm0-1.46s-.05,0-.06-.06c0-.24,0-.49,0-.72a.08.08,0,0,1,0-.07.07.07,0,0,1,.07.06c0,.24,0,.48,0,.73a.05.05,0,0,1-.05.06Zm-.12-1.45a.06.06,0,0,1-.06-.05q-.06-.37-.12-.72a.06.06,0,0,1,0-.07s.07,0,.07.05c0,.23.09.47.13.72a.07.07,0,0,1-.06.07Z"/><path class="cls-41" d="M130.53,54.65h0a.07.07,0,0,1,0-.08s0-.12.1-.34a.06.06,0,0,1,.11,0l-.1.35A.07.07,0,0,1,130.53,54.65Z"/></g><path class="cls-42" d="M137.74,60s-15,4.1-46,4.62-68.23-2-68.23-2L0,56.53l17.31-2.82c9.49-1.54,59.39,1.41,76.31,1.79s50.28,2.69,50.28,2.69Z"/><path class="cls-43" d="M9,44.63a11.07,11.07,0,0,0,.42,3A10.91,10.91,0,0,0,19.9,55.53c4.82,0,9.16-1.23,10.5-6.34a15.35,15.35,0,0,0,.4-4.56,11.08,11.08,0,0,0-10.9-10.9A10.9,10.9,0,0,0,9,44.63Z"/><path class="cls-44" d="M9,44.63a11.07,11.07,0,0,0,.42,3c5.82,1.54,14.22,1.1,14.22,1.1,2.23-1.25,5.08-.52,6.76.44a15.35,15.35,0,0,0,.4-4.56,11.08,11.08,0,0,0-10.9-10.9A10.9,10.9,0,0,0,9,44.63Z"/><path class="cls-43" d="M54.06,48.82a10.75,10.75,0,0,0,.75,4A10.9,10.9,0,0,0,65,59.72c4.84,0,9.43-1.28,10.84-6.47a14.62,14.62,0,0,0,.42-4.5A11.33,11.33,0,0,0,65,37.92,10.9,10.9,0,0,0,54.06,48.82Z"/><path class="cls-44" d="M54.06,48.82a10.75,10.75,0,0,0,.75,4c4,2.29,11.64,2.35,14.14,1.17a10.6,10.6,0,0,1,6.85-.72,14.62,14.62,0,0,0,.42-4.5A11.33,11.33,0,0,0,65,37.92,10.9,10.9,0,0,0,54.06,48.82Z"/><path class="cls-43" d="M100,50.55a6.27,6.27,0,0,0,.59,2.23c.78,1.66,2.57,3.66,6.68,3.75,3.78.1,6.17-2.29,7.6-4.63a15.12,15.12,0,0,0,1.79-4.34Z"/><path class="cls-45" d="M100,50.55a6.27,6.27,0,0,0,.59,2.23c4.42-1.12,10.6-1.12,14.28-.88a15.12,15.12,0,0,0,1.79-4.34Z"/><path class="cls-43" d="M43.63,45.86a10.74,10.74,0,0,0,.63,3.08,7.44,7.44,0,0,0,7.19,5.21c4.06.13,6.63-3.18,8.16-6.42a24.94,24.94,0,0,0,1.93-6Z"/><path class="cls-46" d="M57.27,45.76c0,3.23-2.35,5.85-5.25,5.85S46.77,49,46.77,45.76s2.35-5.85,5.25-5.85S57.27,42.53,57.27,45.76Z"/><path class="cls-47" d="M4.86,31.4c0,.61,0,1.25,0,1.89L5,34.53c.24,4,.8,7.81.8,7.81l1.09.13.85.11L26.79,44.9c8.41,1,18.08,2.24,26.54,3.31,5,.64,9.6,1.24,13.25,1.73,2.3.31,4.23.57,5.65.79l.55.08a21.13,21.13,0,0,1,2.12.38,19.82,19.82,0,0,0,4.23.31,223.57,223.57,0,0,0,24.24-1.21c6.16-.89,16.8-3.46,16.8-3.46s.19-1.1.41-2.69a74.18,74.18,0,0,0,.85-8.41,5.87,5.87,0,0,0-.23-2.24,12.22,12.22,0,0,0-3-2.51L117,30.14a107.92,107.92,0,0,0-14.42-8.06,20.46,20.46,0,0,0-2-.77s-14.37-13.6-25.14-16S45,1.69,35.27,3A53.12,53.12,0,0,0,24.8,5.28a22.26,22.26,0,0,0-10.69,7.31A81,81,0,0,0,9,20,46.25,46.25,0,0,0,6.69,24.1a24,24,0,0,0-1,2.43,13,13,0,0,0-.82,3.88C4.87,30.73,4.86,31.06,4.86,31.4Z"/><path class="cls-48" d="M4.58,34.53c.24,4,.8,7.81.8,7.81l1.93.24L26.4,44.9c8.4,1,18.07,2.24,26.53,3.31,5,.64,9.6,1.24,13.25,1.73l-3.86-3.49S54.88,45.29,43,43.24C32.24,41.4,10.54,36.76,4.58,34.53Z"/><path class="cls-48" d="M78,46.57c.28,2.22.55,3.8.77,4.93A223.7,223.7,0,0,0,103,50.29c6.15-.89,16.8-3.46,16.8-3.46s.18-1.1.41-2.69a79.07,79.07,0,0,0,.85-8.41,5.82,5.82,0,0,0-.24-2.24,12.09,12.09,0,0,0-3-2.51l-1.22-.84a5.48,5.48,0,0,1-1.83,2.58c-1.16.77-21,3.08-27.71,2.7s-8.72-1.16-8.72-1.16A46.11,46.11,0,0,0,78,46.57Z"/><path class="cls-49" d="M72.07,39.52A135.62,135.62,0,0,0,48,27.34c-12.57-4.62-34.42-7-41.64-1,0,0,7.78-2.22,26.37.86S72.07,39.52,72.07,39.52Z"/><path class="cls-48" d="M6.86,42.47l.85.11L26.79,44.9c8.41,1,18.08,2.24,26.54,3.31,5,.64,9.6,1.24,13.25,1.73,2.3.31,4.23.57,5.65.79l.55.08h0a16.36,16.36,0,0,0-1-7.89C70.22,39,66,37,61.69,37.21s-9.49,2.7-9.24,10.13L28,44s-1.48-6.74-4.36-9.56-10.13-3.59-13,.39a23.37,23.37,0,0,0-3.72,7.63Z"/><path class="cls-48" d="M4.47,31.4c0,.61,0,1.25,0,1.89.19,4.37.87,9.05.87,9.05s67,8.08,69.12,8.85,22.32,0,28.48-.9,16.8-3.46,16.8-3.46.18-1.1.41-2.69c-11.08,3.11-35.32,4.65-43.76,3.2C66.68,45.68,39.24,40.42,29,35.67,20.57,31.79,12.17,24.2,8.56,20A41.69,41.69,0,0,0,6.3,24.1c-.39.83-.73,1.64-1,2.43a13,13,0,0,0-.81,3.88C4.47,30.73,4.47,31.06,4.47,31.4Z"/><path class="cls-48" d="M4.47,31.4c0,.61,0,1.25,0,1.89C7.66,31.6,14.65,29,27.31,29.65c18.47.89,57.58,18,57.58,18s.26-.85-1.28-2.1c0,0-44.29-24.11-77.29-19.15l-1,.18a13,13,0,0,0-.81,3.88C4.47,30.73,4.47,31.06,4.47,31.4Z"/><path class="cls-50" d="M52.93,48.21c8.18,1,15.23,2,18.91,2.52.08-2.49-.15-11.81-9.52-12.49C52.7,37.54,52.82,46.49,52.93,48.21Z"/><path class="cls-50" d="M7.3,42.47a.87.87,0,0,0,0,.11L26.4,44.9c-.1-2-.94-11.09-8.58-11.66C9.23,32.59,7.3,42.47,7.3,42.47Z"/><path class="cls-49" d="M24.4,5.28c8.83,4.93,26.19,14.28,35.23,16.8,10.37,2.89,34.75.78,42.56,0a21.44,21.44,0,0,0-2-.77S85.79,7.71,75,5.28c-1.18-.27-2.47-.52-3.84-.75C60.29,2.66,44.24,1.86,35.42,2.9L34.87,3A53.28,53.28,0,0,0,24.4,5.28Z"/><path class="cls-49" d="M35.42,2.9C39.88,3.84,49.73,5.79,54,5.66,58,5.54,66,5,71.18,4.53,60.29,2.66,44.24,1.86,35.42,2.9Z"/><path class="cls-51" d="M54.75,7.84s3.47,5.52,5.78,9.36L61,18c2.09,3.47,4.51,7.38,4.51,7.38s3.43-.3,7.85-.66c3.17-.25,6.83-.53,10.1-.75,6.66-.43,15.78-1.15,15.78-1.15l-1-.79L79.38,7.59c-3-.22-6.31-.29-9.45-.29C61.91,7.31,54.75,7.84,54.75,7.84Z"/><path class="cls-52" d="M13.46,20.92s13.72.52,21.8,1.54l.41.05,1.6.21c8.82,1.11,24.92,3.08,24.92,3.08S53.73,9.89,49.62,8.1c-2.21-1-6-1.53-9.92-1.73-.54,0-1.08-.06-1.62-.07a60.55,60.55,0,0,0-7.95.26C24.23,7.2,21.41,9,20.38,10S14.48,18.23,13.46,20.92Z"/><path class="cls-51" d="M15.25,20s2.31,0,5.73.16c2.27.09,5,.24,8,.45,2.6.2,5.3.46,7.87.8C46.55,22.72,61,25.29,61,25.29s-3.85-5.77-6.84-10.22l-2.27-3.38C48.47,6.56,40.65,7.2,33.34,7.2c-4.62,0-8,1-10.52,2.6a11.63,11.63,0,0,0-3.08,2.92l-.22.3C18.57,14.35,17.69,15.75,17,17,15.93,18.71,15.25,20,15.25,20Z"/><g class="cls-53"><path class="cls-54" d="M37.06,46.23c0-4.24-.13-23.67-.13-23.87a.12.12,0,0,0-.13-.11h0a.12.12,0,0,0-.13.11c0,.2.13,19.46.13,23.7C36.8,46.14,37.06,46.31,37.06,46.23Z"/></g><polygon class="cls-55" points="56.37 22.21 60.63 23.87 61.45 25.73 56.37 25.54 56.37 22.21"/><path class="cls-56" d="M53.73,49.65a16.57,16.57,0,0,0,.4,2.44c1.71,6.91,7.22,7.44,9,7.44s8.46.51,8.08-9.36a13.52,13.52,0,0,0-1.83-6.74,10,10,0,0,0-8.56-4.55C58.73,38.88,52.77,39.77,53.73,49.65Z"/><path class="cls-57" d="M56.42,49.15a11.43,11.43,0,0,0,.84,3,9.19,9.19,0,0,0,.67,1.33,7.14,7.14,0,0,0,1.86,2.2l.11.08a4.82,4.82,0,0,0,1.66.68,5.73,5.73,0,0,0,2.44,0,4.55,4.55,0,0,0,2-.93,4.75,4.75,0,0,0,1.58-2.82A8.62,8.62,0,0,0,67.71,51c0-.23,0-.46,0-.67a14.81,14.81,0,0,0-.38-2.57,10.91,10.91,0,0,0-.68-1.93A7.34,7.34,0,0,0,65,43.49a5.26,5.26,0,0,0-1.58-1,4.27,4.27,0,0,0-2.25-.29H61.1a6.56,6.56,0,0,0-2.06.65,4.81,4.81,0,0,0-2.22,2.4A7.62,7.62,0,0,0,56.42,49.15Z"/><path class="cls-56" d="M7.83,45.27a11.12,11.12,0,0,0,.35,2.41c1.15,4.63,4.9,7.93,9.18,7.73,5-.23,8.8-5.16,8.53-11a11.9,11.9,0,0,0-1-4.32c-1.59-3.6-4.86-6-8.52-5.83C11.37,34.51,7.55,39.43,7.83,45.27Z"/><path class="cls-57" d="M11.16,45.13v.06a8.68,8.68,0,0,0,.58,2.74A7.54,7.54,0,0,0,13,50.06a6,6,0,0,0,1.66,1.42,4.71,4.71,0,0,0,2.43.65h.15a4.56,4.56,0,0,0,1.56-.36,5.11,5.11,0,0,0,1.84-1.31,6.87,6.87,0,0,0,1.15-1.7,8.25,8.25,0,0,0,.8-3.12,9.11,9.11,0,0,0,0-1,9.4,9.4,0,0,0-.47-2.48,7.84,7.84,0,0,0-1.19-2.28,6.14,6.14,0,0,0-2-1.71,4.65,4.65,0,0,0-2.1-.54h-.28a4.69,4.69,0,0,0-2.31.75A6.32,6.32,0,0,0,12,40.86a7.63,7.63,0,0,0-.41,1A8.86,8.86,0,0,0,11.16,45.13Z"/><path class="cls-58" d="M4.47,31.4l5.14-1,.26-2.24L10,27.08l-3.69-3a21.61,21.61,0,0,0-1.48,4,11.22,11.22,0,0,0-.34,2.32C4.47,30.73,4.47,31.06,4.47,31.4Z"/><path class="cls-59" d="M46.68,21.31A30.83,30.83,0,0,0,48.32,25l8,.51V22.21s.33-.06.19-.15h.2A17.52,17.52,0,0,0,52,19.64c-1.46-.29-3.75.82-4.8,1.37A3.62,3.62,0,0,0,46.68,21.31Z"/><path class="cls-48" d="M46.68,21.31A30.83,30.83,0,0,0,48.32,25l8,.51V24.45c-2.3-.26-4.64-.46-6-1.09A21.9,21.9,0,0,1,47,21C46.67,21.19,46.68,21.31,46.68,21.31Z"/><path class="cls-49" d="M47.21,21S49,20.92,51,20.92A17.57,17.57,0,0,1,57,22.06a18.38,18.38,0,0,0-4.91-2.42C50.6,19.35,48.26,20.46,47.21,21Z"/><path class="cls-60" d="M73.61,33.36a21.42,21.42,0,0,0,7.82,7.31,8.77,8.77,0,0,0,2,.7,6.54,6.54,0,0,0,1.91.21h0a6.88,6.88,0,0,0,4.34-1.39s-.85-.86-2.15-1.95a21.33,21.33,0,0,0-2.94-2.07,12,12,0,0,0-1.84-.89,39.33,39.33,0,0,0-8.65-1.88Z"/><path class="cls-61" d="M73.61,33.36a21.42,21.42,0,0,0,7.82,7.31c5.13,2.7,8.21-.38,8.21-.38a13.73,13.73,0,0,1-7.06-1.16,56.06,56.06,0,0,1-8.52-5.72Z"/><path class="cls-62" d="M116.4,36.92c.23,1,.58,1.78.81,1.83a2,2,0,0,0,.42,0h.23l.16,0h0a.65.65,0,0,0,.2,0,1.06,1.06,0,0,0,.19-.06l.2-.08.19-.1a3.12,3.12,0,0,0,.54-.38l.18-.15.14-.14,0,0,.14-.15c.11-.12.22-.25.32-.38l.12-.16,0-.06.13-.18h0a7.44,7.44,0,0,0,.59-1.07,5.82,5.82,0,0,0-.24-2.24l0-.07a3.53,3.53,0,0,0-.57-.63c-.1-.08-.2-.18-.32-.27h0c-.51-.43-1.2-.95-2-1.53-.33.48-.68,1-1,1.56-.09.14-.17.29-.26.44A6,6,0,0,0,116.4,36.92Z"/><path class="cls-61" d="M117.63,38.79h.23l.16,0h0a.65.65,0,0,0,.2,0,1.06,1.06,0,0,0,.19-.06l.2-.08.19-.1a3.12,3.12,0,0,0,.54-.38l.18-.15.14-.14,0,0,.14-.15c.11-.12.22-.25.32-.38l.12-.16,0-.06.13-.18h0a7.44,7.44,0,0,0,.59-1.07,5.82,5.82,0,0,0-.24-2.24l0-.07a3.53,3.53,0,0,0-.57-.63,17.19,17.19,0,0,1-1.8,4.94A8,8,0,0,1,117.63,38.79Z"/><path class="cls-63" d="M22.82,9.8c2.65,1.63,8.88,4.58,18.47,7.15,7.07,1.9,10.91.06,12.91-1.88l-2.27-3.38C48.47,6.56,40.65,7.2,33.34,7.2,28.72,7.2,25.31,8.17,22.82,9.8Z"/><path class="cls-52" d="M37.27,22.72c-.07-4.95,1.61-13,2.43-16.35-.54,0-1.08-.06-1.62-.07-.18,1.2-.55,3.48-1.28,7.06a57.49,57.49,0,0,0-1.13,9.15Z"/><path class="cls-63" d="M17,17c1.33,1.16,2.7,2.25,4,3.23,2.27.09,5,.24,8,.45-3-2.29-6-5-9.41-7.62C18.57,14.35,17.69,15.75,17,17Z"/><path class="cls-64" d="M43.6,29.39l-1,.51-5.13-.38,1.41-1.29A13.84,13.84,0,0,1,43.6,29.39Z"/><path class="cls-64" d="M21.28,27.08l-1,.51-5.13-.38,1.41-1.28A13.67,13.67,0,0,1,21.28,27.08Z"/><path class="cls-65" d="M4.47,31.4l5.14-1,.26-2.24A21.32,21.32,0,0,1,7,28.88l-2.19-.79a11.22,11.22,0,0,0-.34,2.32C4.47,30.73,4.47,31.06,4.47,31.4Z"/><path class="cls-66" d="M52.3,46.34l0-.13c1-8,9.76-20.28,9.85-20.4L62,25.66C61.87,25.78,53.17,38,52.08,46L28.3,42.87C28,42,24.92,35,21.48,32.74a28.1,28.1,0,0,0-5.74-2.59c-1.42-.5-2.54-.9-2.82-1.34-.63-1-.59-5.1.65-7.83l-.23-.11c-1.3,2.85-1.31,7-.63,8.07.32.52,1.42.91,2.95,1.45A27.33,27.33,0,0,1,21.34,33c3.51,2.26,6.71,10,6.75,10.07l0,.07h.07Z"/><path class="cls-52" d="M99.26,22.85s-8.72.64-14.88,1.41-18.85,1.15-18.85,1.15,11.41-2.56,17.69-3.08a82.88,82.88,0,0,1,12.83.13Z"/><path class="cls-47" d="M90.92,38.49l1.33,1.18L93.79,41l1.45,1.26c.4.35.7.6.81.68.51.39,14.62-1.54,15.65-1.92a3.18,3.18,0,0,0,1.06-1.17c.38-.61.78-1.37,1.12-2.07l.54-1.17.36-.85s-4,.13-11.42,1C96.53,37.65,90.92,38.49,90.92,38.49Z"/><path class="cls-67" d="M92.25,39.67,93.79,41c2.58-.35,7.22-1,12.14-1.65a50.28,50.28,0,0,0,7.95-1.57l.54-1.17c-1.88.28-8.86,1.35-14.14,2.23A55.72,55.72,0,0,1,92.25,39.67Z"/><path class="cls-67" d="M95.24,42.3c.4.35.7.6.81.68.51.39,14.62-1.54,15.65-1.92a3.18,3.18,0,0,0,1.06-1.17Z"/><path class="cls-68" d="M81.94,39a2.82,2.82,0,0,0,1.45,2.46,2.71,2.71,0,0,0,1.37.26c.19,0,.37-.15.54-.15h0a2.32,2.32,0,0,0,2-1.36A2.57,2.57,0,0,0,87.59,39a2.26,2.26,0,0,0-.1-.69,22.26,22.26,0,0,0-2.94-2.09A2.82,2.82,0,0,0,82,38.81C82,38.88,81.94,39,81.94,39Z"/><path class="cls-68" d="M116.4,37.12a3,3,0,0,0,2,1h0A3,3,0,0,0,120.45,37V36.9a8,8,0,0,0,.59-1.12,5.94,5.94,0,0,0-.24-2.26.3.3,0,0,0,0-.08,2.7,2.7,0,0,0-.89-.92h0a2.8,2.8,0,0,0-3,0c-.09.14-.17.39-.26.54A6.34,6.34,0,0,0,116.4,37.12Z"/><g class="cls-69"><path class="cls-70" d="M61.16,42.17c.13,1.33.52,4.62,1,4.66s1-3.2,1.22-4.45A5.54,5.54,0,0,0,61.16,42.17Z"/><path class="cls-70" d="M56.82,44.87c1.12,1,3.69,3.12,4,2.74s-1.49-3.67-2.13-4.77A4,4,0,0,0,56.82,44.87Z"/><path class="cls-70" d="M63.21,48.13c.36.49,2.42-1.62,3.41-2.69a6.3,6.3,0,0,0-1.52-1.95C64.4,44.84,62.84,47.61,63.21,48.13Z"/><path class="cls-70" d="M64.18,49.46c0,.66,2.48.8,3.5.83a17.45,17.45,0,0,0-.3-2.57C66.37,48,64.18,48.76,64.18,49.46Z"/><path class="cls-70" d="M66.16,55.53A4.17,4.17,0,0,0,67.57,53c-1.06-.94-3.22-2.78-3.52-2.36S65.42,54.22,66.16,55.53Z"/><path class="cls-70" d="M61.56,56.47a7.13,7.13,0,0,0,2.44,0c-.15-1.41-.63-4.95-1.1-5S61.83,54.83,61.56,56.47Z"/><path class="cls-70" d="M57.93,53.77a6.22,6.22,0,0,0,1.54,1.91c.7-1.48,2.05-4.42,1.89-4.75S58.77,52.92,57.93,53.77Z"/><path class="cls-70" d="M56.42,49.15a13.52,13.52,0,0,0,.7,3c1-.6,3.3-2.08,3.21-2.69S57.59,49,56.42,49.15Z"/></g><g class="cls-69"><path class="cls-70" d="M17,42.68c0,.15.24.27.24.37h0c0,.19,0,.33.1.38s0,0,.07,0c.21-.09.38-.54.58-1.15h0A33.94,33.94,0,0,0,18.91,38a5.54,5.54,0,0,0-2-.42A27.21,27.21,0,0,0,17,42.68Z"/><path class="cls-70" d="M12,40.29c1,.93,3.86,3.41,4.33,3.09a.2.2,0,0,0,.06-.16h0a1.15,1.15,0,0,0-.09-.46A29.56,29.56,0,0,0,14,38.33,5.13,5.13,0,0,0,12,40.29Z"/><path class="cls-70" d="M18,44.29s0,0,0,.05c.42.41,2.89-1.55,4.1-2.56a6.62,6.62,0,0,0-1-2A35.09,35.09,0,0,0,18.51,43h0C18.12,43.61,17.88,44.08,18,44.29Z"/><path class="cls-70" d="M19.41,46.45h0c.74.77,1.87,1.76,2.49,2.3a9.51,9.51,0,0,0,.65-3.12c-.72-.14-3.62-.66-3.83-.23h0C18.65,45.57,19,46,19.41,46.45Z"/><path class="cls-70" d="M18.84,51.77a5.3,5.3,0,0,0,1.76-1.13,32.29,32.29,0,0,0-1.84-3.49,2.5,2.5,0,0,0-.82-.91.18.18,0,0,0-.19,0C17.19,46.59,18.27,50.05,18.84,51.77Z"/><path class="cls-70" d="M14.62,51.57a5.29,5.29,0,0,0,2.43.56c.17-1.43.58-5.35.06-5.62S15.2,50,14.62,51.57Z"/><path class="cls-70" d="M11.74,48.19a6.71,6.71,0,0,0,1,1.87c1-1,3.36-3.43,3-4S13,47.28,11.74,48.19Z"/><path class="cls-70" d="M11.15,45.13s0,0,0,.06c1.23.26,3.79.57,4,0s-2.42-2.6-3.65-3.4A10.61,10.61,0,0,0,11.15,45.13Z"/></g><path class="cls-71" d="M53.73,49.65a16.57,16.57,0,0,0,.4,2.44c1.75-1.65,3.9-3.67,5.24-4.88,2.17-1.94,6.81-3.44,10-3.78a10,10,0,0,0-8.56-4.55C58.73,38.88,52.77,39.77,53.73,49.65Z"/><path class="cls-71" d="M7.83,45.27a11.12,11.12,0,0,0,.35,2.41,50.22,50.22,0,0,1,7.07-5.59,20.17,20.17,0,0,1,9.63-2c-1.59-3.6-4.86-6-8.52-5.83C11.37,34.51,7.55,39.43,7.83,45.27Z"/><path class="cls-72" d="M61,18c2.09,3.47,4.51,7.38,4.51,7.38s3.43-.3,7.85-.66a44.94,44.94,0,0,1,11-2.67,60.05,60.05,0,0,1,13.85,0L79.38,7.59c-3-.22-6.31-.29-9.45-.29C68.07,10.08,64.2,15.38,61,18Z"/><path class="cls-49" d="M74.45,33.41c-1.39-.56-8.06-4.75-10.45-7.48l1.71-.09s1.71,1.45,3.84,3.5A54.72,54.72,0,0,0,74.45,33.41Z"/><path class="cls-73" d="M61.43,49.28c0,.92.49,1.66,1.08,1.65s1.05-.75,1-1.68-.49-1.66-1.08-1.65S61.42,48.36,61.43,49.28Z"/><path class="cls-73" d="M16.38,44.92c0,.81.44,1.46.95,1.46s.92-.67.92-1.48-.44-1.47-.95-1.46S16.37,44.11,16.38,44.92Z"/><path class="cls-47" d="M123.34,42.41c-.54-1.21-1.39-2.73-1.39-2.73a3.56,3.56,0,0,1-2.43,2.58c-2.24.91-7.23,2.08-16.91,2.72-10.44.69-15.44.28-17.5-.39l-.63,8.5c4,1.1,12.31,1.17,18,1s18.74-2.85,18.74-2.85a8.26,8.26,0,0,0,.69-1.63,35.74,35.74,0,0,0,1.09-3.85A7.82,7.82,0,0,0,123.34,42.41Zm-8.76,9.39c-4,.8-13.24,1.51-13.24,1.51l-1.14-2.89s1.76-.28,6.78-.91,8.3-1.12,8.3-1.12Z"/><path class="cls-48" d="M88.93,49.27c.22,1,2.17,3.14,2.4,3.3s7.47.54,7.47.54a4.2,4.2,0,0,0-2.57-3.23C94,49.12,88.93,49.27,88.93,49.27Z"/><path class="cls-48" d="M123.05,45.72A35.74,35.74,0,0,1,122,49.57a5.31,5.31,0,0,1-2.81.4,4,4,0,0,1,.82-1.9A12.65,12.65,0,0,1,123.05,45.72Z"/><path class="cls-47" d="M85.11,44.59l-.38-.88a71.65,71.65,0,0,0,15.42.67c9.55-.47,15.71-1.79,18.27-2.7a9,9,0,0,0,3.53-2l.71,1.32s-1.89,2.79-11.3,3.9A142.22,142.22,0,0,1,90.81,46,13.31,13.31,0,0,1,85.11,44.59Z"/><path class="cls-74" d="M101.73,42.81a1,1,0,0,0-.24.38h0a.14.14,0,0,0,0,.09,9.12,9.12,0,0,1,.22,1c0,.23.06.4.06.4a1.38,1.38,0,0,0,1.23.16c.8-.22,2.53-.56,2.56-.78h0c0-.12-.37-.13-.72-.1h0c-.23,0-.46,0-.53,0h0c.16,0,1.8-.52,1.76-.76a.05.05,0,0,0,0,0,2.71,2.71,0,0,0-1.15,0h0l-.32,0h.07c.37-.1,1.69-.48,1.59-.68l0,0h0a8.81,8.81,0,0,0-2.16.34l0,0h0c.29-.12,1.65-.7,1.58-.88v0c-.22-.31-2.29.36-2.29.36s.51-.5.48-.74a.1.1,0,0,0-.06-.09C103.44,41.3,101.73,42.81,101.73,42.81Z"/><g class="cls-75"><path class="cls-76" d="M101.71,44.29c0,.23.06.4.06.4a1.38,1.38,0,0,0,1.23.16c.8-.22,2.53-.56,2.56-.78a12.48,12.48,0,0,1-2.59.46A2.61,2.61,0,0,1,101.71,44.29Z"/><path class="cls-76" d="M104.83,44c-.23,0-.46,0-.53,0A3.61,3.61,0,0,0,104.83,44Z"/><path class="cls-76" d="M103.8,44a1.91,1.91,0,0,0,.48,0c.16,0,1.8-.52,1.76-.76a.05.05,0,0,0,0,0A11.64,11.64,0,0,1,103.8,44Z"/><path class="cls-76" d="M103.86,43.25a4.21,4.21,0,0,0,.72,0h0c.37-.1,1.69-.48,1.59-.68l0,0h0A8.82,8.82,0,0,1,103.86,43.25Z"/><path class="cls-76" d="M103,43.1l1-.26h0c.29-.12,1.65-.7,1.58-.88v0A23.6,23.6,0,0,1,103,43.1Z"/><path class="cls-76" d="M101.73,42.81a1,1,0,0,0-.24.38h0l0,.05c.28-.3,1.79-1.36,2.26-1.69a.1.1,0,0,0-.06-.09C103.44,41.3,101.73,42.81,101.73,42.81Z"/></g><path class="cls-77" d="M82.63,52.5l-.54,7.34-.42.06a1.33,1.33,0,0,1-.49-.06,9.15,9.15,0,0,1-1.06-.36,16.26,16.26,0,0,1-1.19-2.74c-.52-1.4-1-3.11-1.34-4.31l-.33-1.3s.77.42,2.32,1.13A4.57,4.57,0,0,0,82.63,52.5Z"/><path class="cls-78" d="M82.63,52.5l-.54,7.34-.42.06a1.33,1.33,0,0,1-.49-.06c-.4-2-1-5.17-1.12-5.49a15.23,15.23,0,0,0-2.47-1.92l-.33-1.3s.77.42,2.32,1.13A4.57,4.57,0,0,0,82.63,52.5Z"/><path class="cls-79" d="M82.4,32l.11.24c.25.51.6,1.26.6,1.26a6,6,0,0,1,1.13,0c.79.07,1.67.18,1.67.18l.22-1a1.37,1.37,0,0,0,1.43.33.77.77,0,0,0,.27-.16A5.57,5.57,0,0,0,89,29.48a7.58,7.58,0,0,0-.58-4l-.09-.23,0-.08c-.31.13-.59.2-.56.39a3.46,3.46,0,0,1-.54,2.5c-.24-.34-.54-.55-.78-.43s-.37.4-.46,1a1.5,1.5,0,0,0,.92,1.74,4.45,4.45,0,0,1-.45,1c-.31.5-.45.42-2.08.14A2,2,0,0,0,82.4,32Z"/><path class="cls-80" d="M83.72,29.62l-.16-.5s2.52-3.78,2.78-3.88,1.56-.89,2-.08c-.31.13-.59.2-.56.39a3.46,3.46,0,0,1-.54,2.5c-.43-.62-1-.79-1.24.57a1.5,1.5,0,0,0,.92,1.74,4.45,4.45,0,0,1-.45,1c-.31.5-.45.43-2.08.14a2,2,0,0,0-2,.47,1.47,1.47,0,0,0-.13-.23Z"/><path class="cls-81" d="M79.66,27A4,4,0,0,0,80,28.53a30.45,30.45,0,0,0,2.26,3.59A1.11,1.11,0,0,1,82.4,32a2,2,0,0,1,2-.47c1.63.28,1.77.36,2.08-.14a4.45,4.45,0,0,0,.45-1A1.5,1.5,0,0,1,86,28.62c.21-1.36.81-1.19,1.24-.57a3.44,3.44,0,0,0,.55-2.46v0c0-.1.06-.17.17-.23h0l.38-.16a1.06,1.06,0,0,0,.76-1.11,1.78,1.78,0,0,0-.33-1.11l-.07-.08-.13-.1a.45.45,0,0,0-.12-.05s.07-.8-1.18-.87H87.2A3.35,3.35,0,0,0,86,22a3.23,3.23,0,0,0-.62.31l-.12.08-.16.13a1.31,1.31,0,0,0,0-.37.45.45,0,0,0-.06-.24c-.06-.1-.16-.16-.36-.11l-.16.07a2.25,2.25,0,0,0-.82,1,.82.82,0,0,0,0-.11,1.07,1.07,0,0,0-.52-.58.47.47,0,0,0-.31,0l-.12,0a2,2,0,0,0-.79.75l-.07.15-.1,0a.54.54,0,0,0-.26,0l-.2.07a2.3,2.3,0,0,0-.9,1l0,.07s0,.09-.08.14A5.48,5.48,0,0,0,79.66,27Z"/><path class="cls-81" d="M88,27.11c-.13,0,.8-.79,1-.19v.33A2.54,2.54,0,0,0,88,27.11Z"/><path class="cls-82" d="M86.74,28.07a2.55,2.55,0,0,1,.61,1.47.46.46,0,0,1-.5-.31c-.11-.35,0-.39,0-.39Z"/><path class="cls-83" d="M88.76,22.94A4.91,4.91,0,0,1,88,25.32l.38-.16a1.06,1.06,0,0,0,.76-1.11A1.78,1.78,0,0,0,88.76,22.94Z"/><path class="cls-84" d="M79.66,27A4,4,0,0,0,80,28.53a30.45,30.45,0,0,0,2.26,3.59A1.11,1.11,0,0,1,82.4,32a2,2,0,0,1,2-.47c1.63.28,1.77.36,2.08-.14a4.45,4.45,0,0,0,.45-1A1.5,1.5,0,0,1,86,28.62c.21-1.36.81-1.19,1.24-.57a3.44,3.44,0,0,0,.55-2.46c-.09.14-.23.36-.43.7-.6,1-1.83.57-4.08.81C81.46,27.29,80.5,27.34,79.66,27Z"/><g class="cls-85"><path class="cls-76" d="M87.23,28.05c.64-.43.78-2.17.72-2.25s.25-.19.51-.33l-.09-.23,0-.08c-.31.13-.59.2-.56.39A3.46,3.46,0,0,1,87.23,28.05Z"/><path class="cls-76" d="M82.4,32l.11.24a4.71,4.71,0,0,1,1.73,1.3c.79.07,1.67.18,1.67.18l.22-1a1.37,1.37,0,0,0,1.43.33.77.77,0,0,0,.27-.16,1.23,1.23,0,0,1-.79-.26c-.52-.43,0-2.43,0-2.43a2.1,2.1,0,0,1-.59-2.51c-.2.1-.37.4-.46,1a1.5,1.5,0,0,0,.92,1.74,4.45,4.45,0,0,1-.45,1c-.31.5-.45.42-2.08.14A2,2,0,0,0,82.4,32Z"/></g><path class="cls-86" d="M24.7,56.47a7.33,7.33,0,0,1-2.59.11,18.4,18.4,0,0,1-2.54-.35,1.89,1.89,0,0,1,.1-.51,8,8,0,0,1,.73-1.52l1.43,0c.61.55,2,1.57,2.57,2Z"/><path class="cls-87" d="M24.7,56.47a7.33,7.33,0,0,1-2.59.11,18.4,18.4,0,0,1-2.54-.35,1.89,1.89,0,0,1,.1-.51,18.52,18.52,0,0,0,4.73.53Z"/><path class="cls-88" d="M42.24,57.63a21.55,21.55,0,0,1-2.81-.21A11,11,0,0,1,37.2,57a1.82,1.82,0,0,1,0-.33,3,3,0,0,1,.93-1.59l1.09.22,2.58,2Z"/><path class="cls-89" d="M42.24,57.63a21.55,21.55,0,0,1-2.81-.21A11,11,0,0,1,37.2,57a1.82,1.82,0,0,1,0-.33c1.11.22,3.18.49,4.6.61Z"/><path class="cls-15" d="M50.09,10.67c-.18.43-.44,1-.73,1.68a32.12,32.12,0,0,1-2,4s-2.9-1.59-3.86-3.82a15.8,15.8,0,0,0,.87-2.47c.34-1.25.5-2.13.52-2.25l.38.07c.32.06.64.14,1,.23A6.72,6.72,0,0,1,50.09,10.67Z"/><path class="cls-90" d="M51.43,29.57A6.34,6.34,0,0,0,52,31.22l.22.24,1.67-.7-.61-1.45Z"/><path class="cls-15" d="M53.29,29.37l-1,.12-.81.08a16.38,16.38,0,0,1-2.87-4.65,33.68,33.68,0,0,1-1.47-5.53L47,18.91l.07-.12c.42-.6.73-1.14,1.05-1.67l.34-.62c.55-1.06,1.31-2.75,1.81-3.84l.39-.89a6,6,0,0,1,.22.79c.06.35.08.63.1.82.08.92.36,7.32.68,9.11S53.29,29.37,53.29,29.37Z"/><path class="cls-91" d="M50.67,11.77c-.35.8-1.88,4.23-2.54,5.35l-.09.15c-.29.48-.58,1-1,1.52a16.59,16.59,0,0,1-2.69,2.91l0,0A12.75,12.75,0,0,1,43.63,19c-.36-2.62-.9-5.87-1.06-6.86l0-.08h0l0,0a23.91,23.91,0,0,0,1.13-3.8,4.63,4.63,0,0,0,.09-.49c.33,0,.67.06,1,.11,0,.12-.18,1-.52,2.25a15.8,15.8,0,0,1-.87,2.47l.09.19a10.2,10.2,0,0,0,3.77,3.63,47.51,47.51,0,0,0,2.76-5.73A4.67,4.67,0,0,1,50.67,11.77Z"/><path class="cls-92" d="M44.19,39l-4.94,16.5-.47-.15-.64-.2s-1.59-6.25-1-9.83a11,11,0,0,1,2.62-5.68c-.55-1.24-4.77-8-4.77-8-.76,1.39-5.21,9.19-7.24,12.65l-4.47,7.64c-.88,1.49-1.49,2.54-1.49,2.54l-.66-.06-.74-.06s.4-6.8,2-10.78a12.26,12.26,0,0,1,1.08-2,13.62,13.62,0,0,1,4-4,62,62,0,0,1,2.87-13.25,16.18,16.18,0,0,1,2-4.2c.24-.29.35-.33.35-.33a5.44,5.44,0,0,0,1.26.41,3.31,3.31,0,0,0,1.65-.05,9.72,9.72,0,0,0,3.06-2.43,28.48,28.48,0,0,0,2.27,6.65,5.78,5.78,0,0,1-1,.58.9.9,0,0,1-.34.09s.09.36.27,1c.28.89.75,2.3,1.39,3.81C42.52,32.92,44.19,39,44.19,39Z"/><path class="cls-93" d="M42.83,14.8A24.44,24.44,0,0,0,46,18.2l-5.17,5L37.9,20Z"/><path class="cls-15" d="M48.36,28.82a11.65,11.65,0,0,1-.62,1,1.35,1.35,0,0,1-.37.42s-4.18-2.79-5.73-4.77a8.72,8.72,0,0,1-.75-1.19,28.48,28.48,0,0,1-2.27-6.65,9.72,9.72,0,0,1-3.06,2.43,4.43,4.43,0,0,1-2.91-.36c.06-.16.22-.62.48-1.29a32.72,32.72,0,0,1,3.22-6.55c1.75-2.59,4.19-4.31,7.49-4.15a4.63,4.63,0,0,1-.09.49A23.91,23.91,0,0,1,42.62,12c0-.06.65,4.36,1,7a12.75,12.75,0,0,0,.73,2.73A27.58,27.58,0,0,0,48.36,28.82Z"/><path class="cls-94" d="M39.5,25s.09.36.27,1c-1.22-.37-4-1.64-7.47-5.88.24-.29.35-.33.35-.33a5.44,5.44,0,0,0,1.26.41c1.1,1.39,3.82,4,5.93,4.75A.9.9,0,0,1,39.5,25Z"/><path class="cls-95" d="M44.34,10.08a15.8,15.8,0,0,1-.87,2.47l.09.19L43,13l-.35-.9h0l0,0a23.91,23.91,0,0,0,1.13-3.8,4.63,4.63,0,0,0,.09-.49c.33,0,.67.06,1,.11C44.84,8,44.68,8.83,44.34,10.08Z"/><path class="cls-96" d="M50.67,11.77c-.35.8-1.88,4.23-2.54,5.35l-.09.15-.61-.09-.1-.81a47.51,47.51,0,0,0,2.76-5.73A4.67,4.67,0,0,1,50.67,11.77Z"/><path class="cls-97" d="M40.92,40.07a16.17,16.17,0,0,0-2.3,5.09c-.45,2.1,0,7.9.16,10.15l-.64-.2s-1.59-6.25-1-9.83a11,11,0,0,1,2.62-5.68c-.55-1.24-4.77-8-4.77-8-.76,1.39-5.21,9.19-7.24,12.65l-6,10.18-.66-.06c.9-1.89,4.21-9.14,6.62-13.07,2.78-4.53,7.16-13,7.16-13s3.74,6.92,5.09,9.31S40.92,40.07,40.92,40.07Z"/><path class="cls-98" d="M22.79,49.22c.13,1,.29,1.86.46,2.63-.88,1.49-1.49,2.54-1.49,2.54l-.66-.06-.74-.06s.4-6.8,2-10.78a12.26,12.26,0,0,1,1.08-2A22.86,22.86,0,0,0,22.79,49.22Z"/><path class="cls-99" d="M47.74,29.83a1.35,1.35,0,0,1-.37.42s-4.18-2.79-5.73-4.77a8.72,8.72,0,0,1-.75-1.19,28.48,28.48,0,0,1-2.27-6.65,9.72,9.72,0,0,1-3.06,2.43,4.43,4.43,0,0,1-2.91-.36c.06-.16.22-.62.48-1.29a5.88,5.88,0,0,0,2-.22,14.42,14.42,0,0,0,2.68-1.14,18.73,18.73,0,0,1,.18-3,7.71,7.71,0,0,1,1.73-3.7,28.39,28.39,0,0,0-.18,5.79,18.36,18.36,0,0,0,2.93,9A26.73,26.73,0,0,0,47.74,29.83Z"/><path class="cls-99" d="M52.24,29.49l-.81.08a16.38,16.38,0,0,1-2.87-4.65,33.68,33.68,0,0,1-1.47-5.53L47,18.91l.07-.12c.42-.6.73-1.14,1.05-1.67l.34-.62c0,.74,0,1.88,0,1.88s.78,4.53,1.31,6.26A36.73,36.73,0,0,0,52.24,29.49Z"/><path class="cls-99" d="M50.09,10.67c-.18.43-.44,1-.73,1.68a8.76,8.76,0,0,1-2.89-1.1c-.95-.68-1.14-2.19-1.23-3.32.32.06.64.14,1,.23A6.72,6.72,0,0,1,50.09,10.67Z"/><path class="cls-99" d="M50.89,12.56l-.3.09a.88.88,0,0,1-.31,0l.39-.89A6,6,0,0,1,50.89,12.56Z"/><path class="cls-100" d="M46.26,8.31c-.09.52-.27,1.17-.38,1.58h0q0,.13-.06.24h0a1.52,1.52,0,0,0,.73,1.29l.19.11a.87.87,0,0,0,1.07-.06l.27-.35.22-.31A3,3,0,0,1,46.48,9,4.92,4.92,0,0,1,46.26,8.31Z"/><path class="cls-101" d="M46.26,8.31c-.09.52-.27,1.17-.38,1.58h0a4.64,4.64,0,0,0,2.24,1.24l.22-.31A3,3,0,0,1,46.48,9,4.92,4.92,0,0,1,46.26,8.31Z"/><path class="cls-102" d="M45.29,5.74a1.86,1.86,0,0,0,.87,1.16,3.56,3.56,0,0,0,.1,1.41,4.92,4.92,0,0,0,.22.69,3,3,0,0,0,1.86,1.82A4.48,4.48,0,0,0,49.6,11c1.56,0,2.67-1.5,3-2s1-1.28,1.54-2.19a2.77,2.77,0,0,0,.22-.46s0-.07,0-.11a2.49,2.49,0,0,0-.09-1.63c-.17-.25-.83-.34-1.81-.69a8,8,0,0,1-2.25-1.38l-.13-.1a2.06,2.06,0,0,0-.5-.13A2.76,2.76,0,0,0,48,3a3.63,3.63,0,0,0-.6.56,4.25,4.25,0,0,0-.42.62,2.31,2.31,0,0,0-.25.67,9.69,9.69,0,0,1,0-1c-.14-.24-.41-.31-.75-.12A2,2,0,0,0,45.29,5.74Z"/><path class="cls-103" d="M49.9,6.44A1,1,0,0,0,49.83,5c-.89-.67-1.8.48-1.8.48a1.27,1.27,0,0,1,1.55-.21A.77.77,0,0,1,49.9,6.44Z"/><path class="cls-103" d="M53,8s.82-1-.1-1.43-1.6.7-1.6.7.71-.66,1.33-.45C53.58,7.1,53,8,53,8Z"/><path class="cls-104" d="M46.78,2.82a7.62,7.62,0,0,0-.1,1,9.69,9.69,0,0,0,0,1A2.31,2.31,0,0,1,47,4.19a3.23,3.23,0,0,1,.42-.62A3.63,3.63,0,0,1,48,3a2.76,2.76,0,0,1,1.66-.67,1.27,1.27,0,0,1,.38.08l.12.05.13.1A8,8,0,0,0,52.51,4c.4.14.74.24,1,.33s.69.21.79.36a2.49,2.49,0,0,1,.09,1.63l0,.23a4.43,4.43,0,0,0,.92-1.77,3.2,3.2,0,0,0-.26-2A4.9,4.9,0,0,0,50.55,0h0A4.65,4.65,0,0,0,46.78,2.82Z"/><path class="cls-104" d="M53.87,6.86c0-.31.05-.78-.39-.93s-1.33-.22-1.41-.06,0,.4.41.42a2.68,2.68,0,0,1,1.18.21A.6.6,0,0,1,53.87,6.86Z"/><path class="cls-104" d="M50.66,5c-.18.29-.54,0-.91-.49s-.61-.73-.9-.66l-.2,0a.64.64,0,0,1,.72-.28C49.9,3.74,50.85,4.74,50.66,5Z"/><path class="cls-105" d="M46.78,2.82a7.62,7.62,0,0,0-.1,1,9.69,9.69,0,0,0,0,1A2.31,2.31,0,0,1,47,4.19a3.23,3.23,0,0,1,.42-.62A3.63,3.63,0,0,1,48,3a2.76,2.76,0,0,1,1.66-.67,1.27,1.27,0,0,1,.38.08,2,2,0,0,0,0-.83A1.88,1.88,0,0,1,50.51,0,4.65,4.65,0,0,0,46.78,2.82Z"/><path class="cls-105" d="M53.53,4.28c.41.12.69.21.79.36a2.49,2.49,0,0,1,.09,1.63l0,.23a4.43,4.43,0,0,0,.92-1.77c-.24.29-.57.44-.62.29A.84.84,0,0,0,54,4.28,1.29,1.29,0,0,0,53.53,4.28Z"/><path class="cls-101" d="M45.29,5.74a1.86,1.86,0,0,0,.87,1.16,3.56,3.56,0,0,0,.1,1.41,4.92,4.92,0,0,0,.22.69,3,3,0,0,0,1.86,1.82,3.45,3.45,0,0,0,.46.12,3.86,3.86,0,0,1-2-3,5.4,5.4,0,0,1,1-4.05,2.21,2.21,0,0,1,2.75-.56,17.74,17.74,0,0,0,3.36,1.47c.62.22.51,1.14.46,1.62,0,0,0-.07,0-.11a2.49,2.49,0,0,0-.09-1.63c-.17-.25-.83-.34-1.81-.69a8,8,0,0,1-2.25-1.38l-.13-.1a2.06,2.06,0,0,0-.5-.13A2.76,2.76,0,0,0,48,3a3.63,3.63,0,0,0-.6.56,4.25,4.25,0,0,0-.42.62,2.31,2.31,0,0,0-.25.67,9.69,9.69,0,0,1,0-1c-.14-.24-.41-.31-.75-.12A2,2,0,0,0,45.29,5.74Z"/><path class="cls-101" d="M46.13,4.19A2.71,2.71,0,0,1,46.27,6s-.43-.08-.55-.25.39-.44.39-.44Z"/><path class="cls-31" d="M50.56,9.56a6.16,6.16,0,0,1-2.33-1.1,2.13,2.13,0,0,0,.85,1.72C49.62,10.5,50.56,9.56,50.56,9.56Z"/><path class="cls-31" d="M48,5.44a1.9,1.9,0,0,0,.42.5h0a1.9,1.9,0,0,0,.56.34,1.87,1.87,0,0,0,.89.16c.14,0,.21-.8-.32-1.15h0a1.34,1.34,0,0,0-1-.14A1,1,0,0,0,48,5.44Z"/><path class="cls-31" d="M51.34,7.23s0,.07.35.3l.36.22.06,0h0c.68.38.93.18.93.18a.71.71,0,0,0-.13-1l-.07,0a1.85,1.85,0,0,0-1.29.16Z"/><path class="cls-27" d="M51.59,6.36a2.35,2.35,0,0,0-.72,1.15,4.39,4.39,0,0,0-.13,1.16,1.62,1.62,0,0,1-.52.18.74.74,0,0,1-.71-.46c-.09-.18.08-.19.14-.1a.88.88,0,0,0,.4.4.83.83,0,0,0,.58-.1,2.25,2.25,0,0,1,.16-1.32A1.75,1.75,0,0,1,51.59,6.36Z"/><path class="cls-106" d="M51.55,7.12a.68.68,0,0,0,.14.41l.36.22.06,0h0a.64.64,0,0,0,.68-.33A.65.65,0,0,0,52.84,7,1.85,1.85,0,0,0,51.55,7.12Z"/><path class="cls-106" d="M48.44,5.33a.66.66,0,0,0,0,.61h0a1.9,1.9,0,0,0,.56.34.64.64,0,0,0,.61-.34.66.66,0,0,0,0-.65h0a1.34,1.34,0,0,0-1-.14A.65.65,0,0,0,48.44,5.33Z"/><path class="cls-107" d="M49.9,6.44c-.07.06.36-.76-.32-1.07A1.7,1.7,0,0,0,48,5.44s.15-.5,1.17-.5A.88.88,0,0,1,49.9,6.44Z"/><path class="cls-108" d="M51.34,7.23A2.2,2.2,0,0,1,52.56,7,.59.59,0,0,1,53,8s.71-.68-.07-1.18S51.34,7.23,51.34,7.23Z"/><path class="cls-31" d="M52.53,7.5a.17.17,0,0,0,.08.23.16.16,0,0,0,.23-.07.17.17,0,0,0-.07-.23A.18.18,0,0,0,52.53,7.5Z"/><path class="cls-31" d="M49.33,6a.17.17,0,0,0,.07.23.18.18,0,0,0,.23-.07A.16.16,0,0,0,49.56,6,.16.16,0,0,0,49.33,6Z"/><path class="cls-109" d="M53,8s.21-.63-.32-.79a3.4,3.4,0,0,0-1.38.06A1.54,1.54,0,0,1,52.73,7C53.53,7.21,53,8,53,8Z"/><path class="cls-109" d="M49.9,6.44a.79.79,0,0,0-.5-1,1.67,1.67,0,0,0-1.37,0,1.4,1.4,0,0,1,1.26-.35C50,5.27,50.28,5.85,49.9,6.44Z"/><path class="cls-110" d="M96.11,52.14c-.14,1-.77,1.55-3.16,3.35l-6.86,5.12L85.27,60l-.73-.57A8.49,8.49,0,0,1,86,55.54a5.8,5.8,0,0,1,3.22-2.8,13.72,13.72,0,0,1-3.88-.3s-4,.66-6.14-.06c-3.7-1.23-3.17-5-3.34-6.08a7.16,7.16,0,0,0,.86.51,12.08,12.08,0,0,0,4.56,1.28A14.75,14.75,0,0,0,87,47.31l.14-.46,0,0a39.18,39.18,0,0,1,6.56,2.51C94.8,50,96.29,50.89,96.11,52.14Z"/><path class="cls-111" d="M102.14,45c-1.14.71-6.69,2.5-9.13,1.25s-4.3-4.71-4.3-4.71l-1.59,5.32-.14.46a11.71,11.71,0,0,1-1.75.61,12.27,12.27,0,0,1-4,.41A10.69,10.69,0,0,1,76.79,47a6.36,6.36,0,0,1-1-.65,12.64,12.64,0,0,1-.3-2.51,2.26,2.26,0,0,1-1.75.73,1.72,1.72,0,0,1-.94-.49C71.35,42.6,74.1,37.47,76,35.14a7,7,0,0,1,4-2.56c.46-.11.91-.18,1.32-.24,1.14-.18,3.11.47,4.54.89a10.65,10.65,0,0,1,3.87,1.91l.36.3c2,1.67,3.29,5.55,4.54,6.62s6.92,1,6.92,1l.52,1.64Z"/><path class="cls-112" d="M89.72,35.14c-.62.27-1.23.56-1.23.56A38.71,38.71,0,0,0,84.36,34a13,13,0,0,0-4.46-.88l.09-.57c.46-.11.91-.18,1.32-.24,1.14-.18,3.11.47,4.54.89A10.65,10.65,0,0,1,89.72,35.14Z"/><path class="cls-113" d="M76.54,45c.1.79.18,1.42.25,1.91a6.36,6.36,0,0,1-1-.65,12.64,12.64,0,0,1-.3-2.51,2.26,2.26,0,0,1-1.75.73c.2-1.08.91-5.14,3.36-7.47C77.14,37.05,76.24,42.48,76.54,45Z"/><path class="cls-114" d="M102.14,45c-1.14.71-6.69,2.5-9.13,1.25s-4.3-4.71-4.3-4.71l-1.59,5.32-.14.46a11.71,11.71,0,0,1-1.75.61c.57-1.05,1.24-3,2.11-5a27.79,27.79,0,0,0,1.55-4.66s1.85,4.71,3.88,6.09,4.59,1.07,6.56.77c1.24-.18,2.19-.35,2.73-.44Z"/><path class="cls-115" d="M87.34,33.83a10.66,10.66,0,0,0-1.25-.58,13.77,13.77,0,0,0-4.24-1l.18-.66a5.43,5.43,0,0,1,1.17-.22,5.09,5.09,0,0,1,3.07.7Z"/><path class="cls-116" d="M86.09,33.25a13.77,13.77,0,0,0-4.24-1l.18-.66a5.43,5.43,0,0,1,1.17-.22,8.81,8.81,0,0,1,1.87.7A3,3,0,0,1,86.09,33.25Z"/><path class="cls-117" d="M93,51.31a54,54,0,0,0-5.07,4.06A13.66,13.66,0,0,0,85.27,60l-.73-.57A8.49,8.49,0,0,1,86,55.54a5.8,5.8,0,0,1,3.22-2.8,13.72,13.72,0,0,1-3.88-.3s-4,.66-6.14-.06c-3.7-1.23-3.17-5-3.34-6.08a7.16,7.16,0,0,0,.86.51c.19,1.28.39,2.53,1.4,3.31,1.26,1,4.78,1.19,7,.59a23,23,0,0,0,4.24.78A16.34,16.34,0,0,0,93,51.31Z"/><path class="cls-118" d="M78.21,35.56c-.42,1.61-.71,3.46-1.07,5.19l9.54,1.43a48.87,48.87,0,0,0,1.38-5s-2.86-.67-5-1Z"/><path class="cls-119" d="M82.69,61.43a2.77,2.77,0,0,1-1,.28,3.33,3.33,0,0,1-1.59-.24,6.87,6.87,0,0,1-.55-2.83,1.67,1.67,0,0,1,.16-.59,1,1,0,0,1,1.43-.32c.63.44,1.07,2.63,1.47,3.46Z"/><path class="cls-120" d="M82.69,61.43a2.77,2.77,0,0,1-1,.28l-.53-1.16a4.2,4.2,0,0,0-1.61-1.91,1.67,1.67,0,0,1,.16-.59,1,1,0,0,1,1.43-.32c.63.44,1.07,2.63,1.47,3.46Z"/><path class="cls-121" d="M89.19,62.35a6.48,6.48,0,0,1-2.8.06c-.36,0-.68-.09-1-.16a4.59,4.59,0,0,1-2-.74,3.89,3.89,0,0,1,1.08-2.09l.81.51Z"/><path class="cls-122" d="M85.42,62.25a4.59,4.59,0,0,1-2-.74,3.89,3.89,0,0,1,1.08-2.09l.81.51A11.58,11.58,0,0,0,85.42,62.25Z"/><path class="cls-123" d="M60.67,33.89a6.56,6.56,0,0,0-3-2.51s-2.15.06-2.86.12-3.7.18-7.4,3.46c0,0,4.83-4.05,7.87-4.53a5.75,5.75,0,0,0-2.68-2A6.18,6.18,0,0,1,55.9,30a5.54,5.54,0,0,1,3.16-1.19,6.35,6.35,0,0,1,3.1.47s-.95-.53-4.29.84,0,.24,0,.24.78.06,1.79,1.37A4.07,4.07,0,0,1,60.67,33.89Z"/><path class="cls-124" d="M54.11,30.49a2,2,0,1,1,2,2.05A2.05,2.05,0,0,1,54.11,30.49Z"/><path class="cls-125" d="M54.29,30.55a1.79,1.79,0,1,1,1.79,1.79A1.79,1.79,0,0,1,54.29,30.55Z"/><path class="cls-126" d="M49.41,30.57c-.54.25.12,1.06,1.69,1s4.14-.21,4.89-.35.88-1.27-.37-1.2S50.47,30.08,49.41,30.57Z"/><path class="cls-127" d="M51.63,29.81c-.29.05.14,2.13.7,2.08S51.91,29.76,51.63,29.81Z"/><path class="cls-128" d="M52.23,29.59c-.26,0-.12.84.13,1.49s.28,1,.64.87S52.7,29.55,52.23,29.59Z"/><path class="cls-129" d="M53,29.58c-.31,0-.33.55-.06,1.39s.69,1.07.79.87S53.38,29.64,53,29.58Z"/><path class="cls-130" d="M53.5,29.59c-.28.2.14,2,.81,2.12S54,29.26,53.5,29.59Z"/><path class="cls-131" d="M50.53,29.71a19.72,19.72,0,0,0-2.17-.89s-.42.47-.69.83a1.43,1.43,0,0,0-.3.6,12.46,12.46,0,0,0,1.79,1.65.51.51,0,0,0,.53-.22.42.42,0,0,0,.42,0,.66.66,0,0,0,.22-.3s.44.1.58-.06,0-.45,0-.45a.52.52,0,0,0,.54-.16C51.59,30.44,51.1,30,50.53,29.71Z"/><polygon class="cls-132" points="100.93 52.78 114.74 51.13 115.38 48.11 100.11 50.02 100.93 52.78"/><path class="cls-133" d="M122.46,40.66a18.46,18.46,0,0,1-2.69,1.39c-.44.15-.55.05-.48-.13a1.83,1.83,0,0,1,.68-.68,6,6,0,0,0,1.39-1.56s-.87-.23-.77-.62c0,0,0-.06.09-.08a4,4,0,0,1,1.36.2Z"/><path class="cls-24" d="M121.53,39.66a5.25,5.25,0,0,1-1.18,1.53,6.17,6.17,0,0,1-1.06.73,1.83,1.83,0,0,1,.68-.68,6,6,0,0,0,1.39-1.56s-.87-.23-.77-.62c0,0,0-.06.09-.08A3.44,3.44,0,0,0,121.53,39.66Z"/></g></g></g></svg>