<svg xmlns="http://www.w3.org/2000/svg" width="62" height="48" viewBox="0 0 62 48">
    <g fill="none" fill-rule="nonzero">
        <path fill="#FFE55D" stroke="#000" stroke-width="2.5" d="M37.303 22.796a6.535 6.535 0 0 1-6.28 7.78 16.171 16.171 0 0 1-13.08 6.645C9 37.221 1.75 29.971 1.75 21.028c0-8.853 7.104-16.047 15.922-16.191 1.405-3.003 9.149-4.085 11.767-2.07a10.816 10.816 0 0 1 2.687-.339c5.987 0 10.841 4.854 10.841 10.842a10.84 10.84 0 0 1-5.664 9.526z"/>
        <path fill="#FFD2C0" d="M24 16.553l.526 1.965a4.65 4.65 0 0 0 5.695 3.288l-2.618.701-11.516 3.086a2.863 2.863 0 1 0 1.482 5.531l-3.081.825a2.863 2.863 0 0 0 1.482 5.531l3.497-.937a2.863 2.863 0 1 0 1.482 5.531l6.62-1.774a2.863 2.863 0 0 0 1.482 5.531l21.447-5.747c.893-.239 1.7-.726 2.329-1.405l2.028-2.19c.312-.338.713-.58 1.157-.699l4.197-1.124-4.94-18.44-3.491.936a2.437 2.437 0 0 1-2.383-.66l-.941-.973a10.378 10.378 0 0 0-10.147-2.81L24 16.553z"/>
        <path fill="#EAA28F" d="M59.42 32.032l-4.177 1.119a2.436 2.436 0 0 0-1.158.698l-2.027 2.191a4.901 4.901 0 0 1-2.33 1.405l-21.446 5.747a2.86 2.86 0 0 1-2.65-.632 2.863 2.863 0 0 0 3.449 3.696l21.447-5.747c.894-.239 1.701-.726 2.33-1.405l2.027-2.19c.312-.338.714-.58 1.158-.699l4.196-1.124-.82-3.06z"/>
        <path fill="#000" stroke="#000" stroke-width=".75" d="M61.238 34.47a1 1 0 0 0-1.224-.706l-4.196 1.124a3.43 3.43 0 0 0-1.633.985l-2.028 2.19c-.5.542-1.142.929-1.854 1.12l-21.447 5.746c-.481.129-.983.063-1.414-.186a1.851 1.851 0 0 1-.869-1.132 1.852 1.852 0 0 1 .186-1.414c.25-.431.651-.74 1.132-.868l8.009-2.146a1 1 0 0 0-.517-1.93l-8.009 2.145-.004.001-6.616 1.773a1.85 1.85 0 0 1-1.414-.186 1.851 1.851 0 0 1-.869-1.132 1.851 1.851 0 0 1 .187-1.414c.249-.431.65-.74 1.131-.869l14.63-3.92a1 1 0 0 0-.518-1.93l-14.629 3.92-.004.001-3.493.936c-.481.129-.983.063-1.415-.186a1.852 1.852 0 0 1-.868-1.132 1.852 1.852 0 0 1 .186-1.414c.249-.431.651-.74 1.132-.868l3.076-.825h.004v-.001l15.046-4.031a1 1 0 0 0-.517-1.93l-15.044 4.03h-.002a1.866 1.866 0 0 1-2.282-1.317 1.866 1.866 0 0 1 1.318-2.283l14.02-3.757h.001l9.014-2.415a1 1 0 0 0-.517-1.93l-8.9 2.384h-.001l-.003.001h-.003c-.94.251-1.921.121-2.764-.365a3.627 3.627 0 0 1-1.701-2.217l-.268-1 13.343-3.575a9.383 9.383 0 0 1 9.17 2.539l.94.973a3.438 3.438 0 0 0 3.36.93l3.49-.935a1 1 0 0 0-.516-1.93l-3.491.935a1.438 1.438 0 0 1-1.406-.39l-.941-.972a11.383 11.383 0 0 0-11.124-3.08L23.804 15.65a1 1 0 0 0-.706 1.224l.527 1.965a5.607 5.607 0 0 0 2.236 3.18l-9.97 2.672a3.867 3.867 0 0 0-2.73 4.73c.175.654.509 1.224.95 1.68a3.833 3.833 0 0 0-2.163 1.745 3.837 3.837 0 0 0-.386 2.931c.267.997.906 1.83 1.8 2.345a3.837 3.837 0 0 0 2.93.386l.228-.06a3.842 3.842 0 0 0 .021 1.923c.267.996.906 1.83 1.8 2.345a3.837 3.837 0 0 0 2.93.386l3.351-.898a3.84 3.84 0 0 0 .021 1.924c.267.997.906 1.83 1.8 2.345a3.84 3.84 0 0 0 2.93.386l21.448-5.747a5.896 5.896 0 0 0 2.803-1.691l2.028-2.19c.185-.2.42-.342.683-.413l4.197-1.124a1 1 0 0 0 .706-1.224z"/>
    </g>
</svg>
