<svg xmlns="http://www.w3.org/2000/svg" width="48" height="49" viewBox="0 0 48 49">
    <g fill="none" fill-rule="nonzero">
        <path fill="#40FFDC" d="M17.485 17.777c2.347 3.08-2.506 8.13-6.263 3.405-4.481-5.637-9.354-5.402-9.941-.587-.584 4.784 6.983 4.68 8.78 8.278 1.631 3.268-5.23 5.767-3.692 12.505 1.957 8.572 12.76 7.515 15.343 2.466 5.78-11.297 11.742-3.757 13.934-1.409 4.63 4.962 16.04-1.147 7.515-9.041-4.227-3.914-3.493-7.88-.223-10.157 5.311-3.699.497-9.805-3.26-7.926-1 .5-1.82 2.113-3.758 2.642-1.69.46-3.626-.54-3.875-2.094-.626-3.914 5.226-6.833 4.697-10.235-.783-5.03-8.141-5.891-8.69-.725-.597 5.639-2.962 8.005-6.72 6.126-2.818-1.41-5.119-.703-5.96 1.703-.823 2.348 1.174 3.816 2.113 5.049z"/>
        <path fill="#0FDEB8" d="M42.938 23.237c5.311-3.7.497-9.805-3.26-7.926-1 .5-1.82 2.113-3.758 2.642-.334.09-.676.11-1.014.094-.667 1.231-1.477 2.5-3.252 3.683C29.07 23.452 25 22.12 25 17.424c0-4.696-4.854-5.166-6.028-2.113-.383.996-.51 1.853-1.53 2.413.014.017.03.035.043.053 2.347 3.08-2.506 8.13-6.263 3.405-.857-1.078-1.727-1.937-2.58-2.595-3.31.848-4.705 3.926-3.829 6.61 2.035 1.014 4.354 1.888 5.247 3.676 1.632 3.268-5.23 5.767-3.691 12.505.451 1.978 1.377 3.437 2.56 4.459 5.502 2.945 9.815-4.128 12.313-9.625 2.349-5.167 9.233-4.233 11.82-.313 2.584 3.914 7.853 3.173 8.142-1.018.059-.854.354-1.772.8-2.719-2.876-3.496-1.993-6.887.934-8.925z"/>
        <path fill="#000" stroke="#000" stroke-width=".75" d="M43.762 32.748c-1.84-1.703-2.75-3.484-2.635-5.15.097-1.394.898-2.653 2.317-3.64 3.297-2.297 3.133-5.358 1.991-7.28-1.364-2.298-4.007-3.224-6.147-2.154-.495.247-.9.644-1.33 1.065-.624.611-1.27 1.243-2.266 1.515a2.563 2.563 0 0 1-2.004-.32c-.432-.278-.706-.657-.772-1.065-.263-1.643.969-3.175 2.273-4.798 1.347-1.677 2.74-3.41 2.425-5.433C37.1 2.19 34.194.476 31.717.537c-2.486.06-4.266 1.736-4.535 4.269-.318 3.002-1.174 5.027-2.408 5.703-.793.434-1.817.343-3.045-.271-1.754-.877-3.398-1.05-4.753-.5-1.133.459-1.974 1.392-2.43 2.698-.837 2.391.667 4.076 1.662 5.191.218.244.423.474.581.681.86 1.129.345 2.604-.65 3.378-1.543 1.202-3.194.244-4.225-1.052-2.747-3.455-5.883-5.095-8.388-4.387-1.71.482-2.844 2.028-3.114 4.24-.413 3.384 2.431 4.745 4.94 5.945 1.622.776 3.3 1.579 3.925 2.833.461.923-.12 1.8-1.275 3.399-1.45 2.007-3.435 4.756-2.486 8.909.899 3.937 3.645 6.474 7.534 6.96.436.054.872.08 1.306.08 3.492 0 6.786-1.72 8.142-4.37 1.748-3.417 3.62-5.282 5.565-5.542 2.667-.357 5.195 2.417 6.553 3.907.141.155.272.298.391.426 1.676 1.795 4.35 2.49 6.982 1.814 2.522-.648 4.426-2.386 4.969-4.535.78-3.084-1.308-5.816-3.196-7.565zm1.492 7.134c-.386 1.525-1.805 2.776-3.703 3.264-1.573.404-3.781.272-5.259-1.311a47.803 47.803 0 0 1-.377-.411c-1.575-1.728-4.504-4.944-8.085-4.465-2.55.341-4.87 2.523-6.897 6.484-1.18 2.306-4.475 3.744-7.665 3.345-3.113-.388-5.314-2.432-6.039-5.606-.771-3.378.806-5.562 2.198-7.489 1.17-1.62 2.38-3.296 1.423-5.214-.896-1.794-2.85-2.728-4.74-3.632-2.612-1.25-4.2-2.12-3.953-4.147.105-.866.486-2.377 1.847-2.762.222-.062.457-.093.704-.093 1.69 0 3.89 1.444 5.83 3.883 2.22 2.793 4.956 2.689 6.68 1.346a4.636 4.636 0 0 0 1.674-2.638 3.857 3.857 0 0 0-.704-3.193c-.2-.261-.427-.516-.668-.786-1.093-1.225-1.776-2.126-1.316-3.44.29-.827.772-1.383 1.432-1.65.862-.35 2.036-.192 3.307.443 1.774.887 3.346.968 4.675.241 1.806-.988 2.92-3.363 3.312-7.06.175-1.65 1.233-2.658 2.83-2.697 1.73-.043 3.758 1.158 4.117 3.464.196 1.256-.9 2.619-2.058 4.062-1.418 1.764-3.024 3.764-2.638 6.177.145.907.697 1.712 1.555 2.265a4.312 4.312 0 0 0 3.419.538c1.438-.392 2.322-1.26 3.034-1.956.327-.32.637-.624.885-.748 1.11-.555 2.838-.226 3.85 1.48.794 1.335.82 3.334-1.485 4.939-1.844 1.284-2.933 3.046-3.066 4.961-.107 1.545.36 3.937 3.194 6.562 2.208 2.044 3.137 4.065 2.687 5.844z"/>
    </g>
</svg>
