<svg xmlns="http://www.w3.org/2000/svg" width="62" height="62" viewBox="0 0 62 62">
    <g fill="none" fill-rule="evenodd">
        <g fill="#FFB954">
            <path d="M33.892 31.033l2.291 6.772h2.68l2.298-6.772zM53.25 31.093h-7.461l2.27 6.712h2.912zM52.035 38.956h-3.259l-7.449 8.052a8.89 8.89 0 0 0 2.051 13.718c.337.038.678.059 1.024.059h7.492a8.89 8.89 0 0 0 6.526-14.928l-6.385-6.901z"/>
            <path d="M35.672 54.841a8.891 8.891 0 0 1 1.84-9.044l4.372-4.725-2.013-2.177h-3.022l-7.45 8.052a8.89 8.89 0 0 0 2.216 13.812c.224.017.45.026.678.026h7.493c.771 0 1.525-.1 2.248-.29a8.891 8.891 0 0 1-6.362-5.654z"/>
        </g>
        <path fill="#C7D7DD" d="M15.923 31.153H9.626v26.604c0 1.133.599 2.126 1.497 2.681a3.148 3.148 0 0 0 1.712-2.802c0 1.195.665 2.234 1.645 2.767l2.94.035a3.147 3.147 0 0 0 1.711-2.802V31.153h-3.208z"/>
        <path fill="#FFD2C0" fill-rule="nonzero" d="M15.65 2.876a4.844 4.844 0 0 0-4.843 4.843v.969c0 1.175.419 2.253 1.115 3.091a4.843 4.843 0 0 0 5.756-4.756v-.969a4.823 4.823 0 0 0-1.115-3.091 4.837 4.837 0 0 0-.913-.087z"/>
        <path fill="#038CFF" d="M19.131 31.033V11.866l-9.404.04L6.54 31.034z"/>
        <path fill="#038CFF" d="M12.345 11.866h3.702a8.65 8.65 0 0 1 8.189 5.864l2.241 6.588 4.38 5.206a2.789 2.789 0 0 1-4.105 3.767L22.462 29l-3.33-5.037"/>
        <path fill="#038CFF" d="M12.928 12.432a8.65 8.65 0 0 0-8.65 8.65v14.72c0 .714.282 1.362.74 1.84a2.664 2.664 0 0 0 1.52-2.406l.484-9.263 6.02-13.541h-.114z"/>
        <path fill="#000" fill-rule="nonzero" d="M59.31 45.035l-6.96-7.522 2.067-6.092a1.21 1.21 0 0 0-1.147-1.6H43.034c-.365 0-.707.166-.936.447a1.209 1.209 0 0 0-.937-.446h-8.727a4.003 4.003 0 0 0-.65-1.078l-4.234-5.031-2.168-6.373a9.858 9.858 0 0 0-7.801-6.565 6.022 6.022 0 0 0 1.308-3.752v-.969A6.061 6.061 0 0 0 12.835 0a6.061 6.061 0 0 0-6.054 6.054v.969c0 1.434.502 2.752 1.337 3.79C3.51 11.638 0 15.673 0 20.516v14.72a3.878 3.878 0 0 0 3.874 3.874c.514 0 1.005-.1 1.454-.283v3.208a1.211 1.211 0 0 0 2.422 0v-9.791h10.17v25.393a1.94 1.94 0 0 1-1.937 1.937 1.94 1.94 0 0 1-1.937-1.937V38.505a1.21 1.21 0 0 0-2.422 0v19.132a1.94 1.94 0 0 1-1.937 1.937 1.94 1.94 0 0 1-1.937-1.937v-6.019a1.211 1.211 0 0 0-2.422 0v6.019a4.364 4.364 0 0 0 4.359 4.359 4.346 4.346 0 0 0 3.148-1.349 4.346 4.346 0 0 0 3.148 1.349 4.364 4.364 0 0 0 4.36-4.36V27.992l1.109 1.677c.044.068.096.13.153.188l4.291 4.291a4.01 4.01 0 0 0 2.998 1.168 4.01 4.01 0 0 0 1.989-.63l.956 2.827-6.96 7.523a10.068 10.068 0 0 0-2.092 10.276 10.125 10.125 0 0 0 9.506 6.685h7.493c.779 0 1.556-.09 2.312-.268.745.175 1.517.268 2.304.268h7.493c4.248 0 8.068-2.687 9.505-6.685a10.068 10.068 0 0 0-2.09-10.276zm-7.73-12.791l-1.477 4.35h-3.909l-1.473-4.35h6.86zm-9.483-.201l1.85 5.468-1.853 2.004-1.853-2.003 1.856-5.469zm-4.102 4.551h-3.91l-1.425-4.213a1.217 1.217 0 0 0-.048-.118.411.411 0 0 1 .005-.02h6.855l-1.477 4.351zM9.203 6.054a3.637 3.637 0 0 1 3.632-3.632 3.637 3.637 0 0 1 3.633 3.632v.969a3.637 3.637 0 0 1-3.633 3.632 3.637 3.637 0 0 1-3.632-3.632v-.969zM28.79 32.895a1.565 1.565 0 0 1-1.183-.46l-4.204-4.205-3.062-4.63v-2.272a1.21 1.21 0 1 0-2.422 0v8.494H7.75v-8.494a1.21 1.21 0 1 0-2.422 0v4.617l-.002.028v9.263c0 .801-.651 1.453-1.452 1.453-.8 0-1.452-.652-1.452-1.453v-14.72c0-4.102 3.337-7.439 7.439-7.439h6.186a7.436 7.436 0 0 1 7.043 5.043l2.241 6.588c.049.142.123.274.22.39l4.38 5.205a1.574 1.574 0 0 1 0 2.033 1.56 1.56 0 0 1-1.14.56zm3.502 26.679a7.698 7.698 0 0 1-7.227-5.082 7.653 7.653 0 0 1 1.59-7.812l7.09-7.664h4.587l2.111 2.282-3.457 3.737a10.067 10.067 0 0 0-2.091 10.276 10.07 10.07 0 0 0 2.954 4.263h-5.557zm26.828-5.082a7.698 7.698 0 0 1-7.227 5.082h-7.492a7.698 7.698 0 0 1-7.227-5.082 7.654 7.654 0 0 1 1.59-7.812l7.09-7.664h4.587l7.09 7.664a7.654 7.654 0 0 1 1.59 7.812z"/>
        <path fill="#000" d="M51.898 45.94c.49-.454.52-1.22.067-1.711l-.03-.033a1.21 1.21 0 1 0-1.779 1.644l.03.032a1.207 1.207 0 0 0 1.712.068zM55.402 47.944a1.212 1.212 0 0 0-1.777 1.645l.351.38c.721.78.947 1.885.587 2.885a2.843 2.843 0 0 1-2.669 1.877 1.21 1.21 0 0 0 0 2.421 5.27 5.27 0 0 0 4.948-3.479 5.24 5.24 0 0 0-1.088-5.349l-.352-.38zM6.539 48.089c.318 0 .63-.13.856-.355.225-.226.355-.537.355-.856 0-.318-.13-.63-.355-.856a1.22 1.22 0 0 0-.856-.355c-.319 0-.631.13-.857.355a1.22 1.22 0 0 0-.354.856c0 .319.13.631.354.856.226.225.538.355.857.355z"/>
    </g>
</svg>
