<svg xmlns="http://www.w3.org/2000/svg" width="64" height="41" viewBox="0 0 64 41">
    <g fill="none" fill-rule="nonzero">
        <path fill="#8EA9C1" stroke="#000" stroke-width="2" d="M32.08 1.018c-7.932 1.52-14.584 3.177-19.997 4.984C7.12 7.41 3.741 13.955 2.148 25.784l29.851-2.42h.162l29.851 2.42c-1.593-11.83-4.973-18.374-9.98-19.796-5.368-1.793-12.02-3.45-19.952-4.97z"/>
        <g transform="translate(1 9.46)">
            <g fill="#038CFF" stroke="#000" stroke-width="2">
                <path d="M16.208 15.121c0-2.699.74-5.347 2.137-7.657C12.941 3.924 5.69 5.434 2.15 10.84-1.39 16.243.12 23.494 5.524 27.034a11.697 11.697 0 0 0 14.81-1.643 14.82 14.82 0 0 1-4.126-10.27zM50.238 5.55a11.611 11.611 0 0 0-6.391 1.914 14.818 14.818 0 0 1-1.989 17.927c4.5 4.631 11.903 4.738 16.535.238 4.631-4.5 4.737-11.903.238-16.534a11.69 11.69 0 0 0-8.393-3.545z"/>
            </g>
            <g fill="#000">
                <path d="M6.637 23.523c-.286 0-.56-.115-.76-.32a8.508 8.508 0 0 1 .121-12.031 8.508 8.508 0 0 1 12.032.12 1.063 1.063 0 0 1-1.518 1.49 6.381 6.381 0 1 0-9.116 8.933 1.063 1.063 0 0 1-.76 1.808zM55.555 23.523a1.064 1.064 0 0 1-.76-1.808 6.381 6.381 0 1 0-9.115-8.933 1.063 1.063 0 0 1-1.518-1.489 8.508 8.508 0 0 1 12.031-.121 8.508 8.508 0 0 1 .122 12.032c-.2.203-.474.319-.76.319z"/>
            </g>
            <circle cx="31.095" cy="15.124" r="14.888" fill="#8CBAFA" stroke="#000" stroke-width="2"/>
            <g fill="#000">
                <path d="M11.954 18.312a1.06 1.06 0 0 1-.752-.312l-3.19-3.19a1.063 1.063 0 0 1 1.503-1.504l3.19 3.19a1.064 1.064 0 0 1-.751 1.816zM54.492 18.312h-4.254a1.064 1.064 0 0 1 0-2.127h4.254a1.064 1.064 0 0 1 0 2.127zM34.286 12.994a1.064 1.064 0 0 1-.752-1.815l2.127-2.127a1.063 1.063 0 0 1 1.504 1.504l-2.127 2.127c-.199.199-.469.311-.752.311z"/>
            </g>
            <circle cx="31.095" cy="15.124" r="4.254" fill="#FFF"/>
            <path fill="#000" d="M31.096 20.439a5.318 5.318 0 1 1 5.317-5.318 5.324 5.324 0 0 1-5.317 5.318zm0-8.508a3.19 3.19 0 1 0 0 6.38 3.19 3.19 0 0 0 0-6.38z"/>
            <path fill="#000" d="M42.794 15.121c0-6.46-5.238-11.698-11.698-11.698S19.398 8.661 19.398 15.121a11.7 11.7 0 0 0 3.426 8.273 1.064 1.064 0 0 0 1.53-1.477l-.026-.027a9.57 9.57 0 0 1 0-13.535 9.57 9.57 0 0 1 13.536 0 9.57 9.57 0 0 1 0 13.535 1.063 1.063 0 1 0 1.503 1.504 11.627 11.627 0 0 0 3.427-8.273z"/>
        </g>
    </g>
</svg>
