<svg xmlns="http://www.w3.org/2000/svg" width="57" height="56" viewBox="0 0 57 56">
    <g fill="none" fill-rule="evenodd">
        <path fill="#000" fill-rule="nonzero" d="M48.766 40.383c.514-1.673.78-3.38.78-5.095 0-1.896-.305-3.77-.905-5.57l-2.471-7.414c-.833-2.498-2.832-4.367-5.348-5.001a40.696 40.696 0 0 0-3.34-.676v-2.661h1.097c1.21 0 2.194-.984 2.194-2.193V7.386A4.391 4.391 0 0 0 36.386 3h-8.772a4.391 4.391 0 0 0-4.387 4.386v4.387c0 1.209.984 2.193 2.194 2.193h1.096v2.661c-1.276.206-2.43.447-3.339.676-2.516.634-4.515 2.503-5.348 5l-2.471 7.415c-.6 1.8-.904 3.674-.904 5.57 0 1.715.265 3.422.78 5.095a3.81 3.81 0 0 0-2.973 3.707c0 1.75.334 6.015 1.11 7.946l.481 1.206a3.786 3.786 0 0 0 3.534 2.394h29.387c1.45 0 2.754-.806 3.405-2.105 1.101-2.206 1.56-6.82 1.56-8.8v-.64a3.81 3.81 0 0 0-2.973-3.708zM35.29 16.345A32.404 32.404 0 0 0 32 16.16c-1.147 0-2.237.08-3.29.186v-2.38h6.58v2.38z"/>
        <path fill="#8CBAFA" stroke="#000" d="M47 16.575c1.698-.549 2.785-1.062 3.264-1.54.478-.479.915-1.49 1.311-3.035.56 1.538 1.083 2.55 1.568 3.035.485.484 1.487.998 3.007 1.54-1.548.572-2.55 1.086-3.007 1.542-.456.457-.979 1.467-1.568 3.033-.38-1.527-.817-2.538-1.311-3.033-.495-.494-1.583-1.008-3.264-1.542zM2.315 10.489c2.857.994 4.762 1.965 5.735 2.938.958.959 1.794 2.694 2.53 5.22 1.057-2.6 2.016-4.334 2.902-5.22.904-.904 2.68-1.872 5.345-2.928-2.614-1.01-4.39-1.982-5.345-2.937-.934-.934-1.898-2.668-2.913-5.217C9.81 4.898 8.98 6.632 8.05 7.562c-.945.945-2.849 1.911-5.735 2.927z"/>
        <path fill="#CA710D" fill-rule="nonzero" d="M25.42 7.386c0-1.209.984-2.193 2.194-2.193h8.772c1.21 0 2.193.984 2.193 2.193v4.387H25.421V7.386z"/>
        <path fill="#010101" fill-rule="nonzero" d="M36.66 5.249v3.234c0 .605-.49 1.096-1.096 1.096H25.42v2.194h13.158V7.386c0-1.111-.844-1.997-1.919-2.137z" opacity=".1"/>
        <path fill="#CA710D" fill-rule="nonzero" d="M17.44 30.412l2.472-7.415c.593-1.785 2.015-3.118 3.802-3.568 1.953-.491 4.98-1.077 8.286-1.077 3.307 0 6.333.586 8.286 1.077 1.787.45 3.209 1.783 3.802 3.568l2.472 7.415c.526 1.576.792 3.217.792 4.876 0 1.812-.35 3.617-1.01 5.378-.766.354-1.42.93-1.817 1.722l-1.009 2.016a35.763 35.763 0 0 0-1.19-.372l1.439-2.832a13.233 13.233 0 0 0 .715-10.095l-2.472-7.412c-.35-1.056-1.214-1.874-2.257-2.137-1.835-.461-4.671-1.01-7.751-1.01-3.078 0-5.916.549-7.753 1.01-1.041.263-1.904 1.08-2.255 2.132l-2.472 7.417a13.233 13.233 0 0 0-.679 4.183c0 2.041.482 4.087 1.4 5.924l1.433 2.82c-.456.136-.872.265-1.19.372l-1.009-2.017c-.397-.79-1.051-1.367-1.817-1.721-.661-1.76-1.01-3.566-1.01-5.378 0-1.659.266-3.3.792-4.876z"/>
        <path fill="#EFA44F" fill-rule="nonzero" d="M23.842 43.46l-1.643-3.234a11.116 11.116 0 0 1-1.165-4.938c0-1.187.19-2.36.568-3.489l2.471-7.418c.114-.344.392-.619.71-.698 1.717-.43 4.362-.945 7.217-.945 2.857 0 5.5.514 7.216.945.317.08.597.354.71.701l2.472 7.415c.377 1.129.568 2.302.568 3.489 0 1.703-.403 3.409-1.159 4.926l-1.649 3.246c-2.193-.513-5.04-.983-8.158-.983-3.117 0-5.965.47-8.158.983z"/>
        <path fill="#FFF" fill-rule="nonzero" d="M24.895 40.98c-.553-1.69-.845-3.578-.845-5.46 0-1.313.138-2.61.411-3.859l1.792-8.203c.01-.044.035-.074.048-.116-.56.112-1.072.229-1.519.34-.316.08-.595.355-.708.699l-2.472 7.418a10.992 10.992 0 0 0-.568 3.489c0 1.703.403 3.41 1.165 4.938l1.643 3.234a39.774 39.774 0 0 1 1.756-.369l-.703-2.111z" opacity=".2"/>
        <path fill="#010101" fill-rule="nonzero" d="M42.398 31.799l-2.471-7.415c-.114-.347-.394-.62-.712-.701-.445-.112-.959-.229-1.517-.341.013.043.039.074.049.12l1.792 8.2c.273 1.247.411 2.545.411 3.857 0 1.883-.292 3.77-.84 5.448l-.707 2.124c.621.116 1.209.24 1.755.369l1.649-3.246a11.113 11.113 0 0 0 1.159-4.926c0-1.187-.19-2.36-.568-3.49z" opacity=".1"/>
        <path fill="#CA710D" fill-rule="nonzero" d="M49.545 44.73c0 2.155-.505 6.173-1.328 7.82-.276.55-.829.892-1.443.892H17.387a1.607 1.607 0 0 1-1.5-1.014l-.481-1.207c-.58-1.449-.951-5.191-.951-7.13a1.616 1.616 0 0 1 3.058-.722l1.444 2.888c.255.51.863.74 1.388.528.053-.022 5.36-2.115 11.655-2.115 6.275 0 11.602 2.093 11.655 2.115a1.103 1.103 0 0 0 1.388-.528l1.444-2.887c.276-.55.829-.893 1.443-.893.891 0 1.615.723 1.615 1.613v.64z"/>
        <path fill="#010101" fill-rule="nonzero" d="M48.174 42.526v.012c0 2.154-.505 6.172-1.327 7.818-.277.55-.83.893-1.444.893H16.016c-.232 0-.448-.064-.65-.154.013.039.026.091.04.126l.482 1.207a1.607 1.607 0 0 0 1.499 1.015h29.387c.614 0 1.167-.343 1.443-.894.823-1.646 1.328-5.664 1.328-7.818v-.64c0-.804-.6-1.443-1.37-1.565z" opacity=".1"/>
        <path fill="#000" fill-rule="nonzero" d="M42.623 48.015c-.032.01-3.279 1.041-10.623 1.041-7.344 0-10.59-1.031-10.623-1.04a1.096 1.096 0 0 0-.69 2.08c.142.047 3.55 1.153 11.313 1.153 7.764 0 11.171-1.106 11.313-1.153a1.098 1.098 0 0 0-.69-2.08z"/>
    </g>
</svg>
