<svg xmlns="http://www.w3.org/2000/svg" width="54" height="50" viewBox="0 0 54 50">
    <g fill="none" fill-rule="evenodd">
        <g fill="#8CBAFA">
            <path d="M42.916 41.351c-.662 5.063-5.975 8.172-10.89 6.796-1.463-.41-3.196-.647-5.052-.647-1.826 0-3.53.229-4.977.625-5.24 1.437-10.953-2.143-10.953-7.895a7.954 7.954 0 0 1 2.658-5.943s3.414-2.97 5.924-8.732a7.974 7.974 0 0 1 14.728-.001c2.01 4.61 4.595 7.433 5.549 8.378 2.177 1.691 3.404 4.413 3.013 7.42zM11.471 20.417c1.811 3.506 1.173 7.437-1.426 8.78-2.598 1.342-6.174-.412-7.986-3.918C.25 21.774.887 17.843 3.485 16.5c2.599-1.343 6.174.41 7.986 3.917zM36.29 1.14c2.758.326 4.678 4.08 4.19 8.2-.453 3.825-3.1 7.367-5.989 6.994-2.758-.325-4.676-4.08-4.189-8.2.444-3.75 3.056-7.372 5.989-6.994zM23.667 8.113c.251 2.113-.124 4.229-1.027 5.807-.78 1.363-2.007 2.418-3.555 2.418-2.627 0-5.137-3.15-5.594-7.018-.25-2.111.124-4.229 1.027-5.807.771-1.347 1.99-2.416 3.554-2.416 2.628 0 5.139 3.147 5.595 7.016zM50.462 16.504c2.599 1.343 3.237 5.274 1.426 8.78-1.812 3.505-5.387 5.26-7.986 3.917s-3.237-5.274-1.426-8.78c1.812-3.506 5.387-5.26 7.986-3.917z"/>
        </g>
        <g fill="#020202">
            <path d="M31.219 29.57a1.055 1.055 0 1 0-.001-2.11 1.055 1.055 0 0 0 0 2.11z"/>
            <path fill-rule="nonzero" d="M18.682 25.141c-2.373 5.443-5.615 8.323-5.646 8.35l-.011.01a9.043 9.043 0 0 0-3.01 6.73c0 3.134 1.494 5.86 4.083 7.587a10.007 10.007 0 0 0 8.204 1.325c1.403-.385 3.028-.588 4.698-.588 1.698 0 3.347.21 4.768.607a9.942 9.942 0 0 0 8.165-1.283c2.62-1.731 4.138-4.483 4.138-7.649a8.973 8.973 0 0 0-3.442-7.09c-.989-.988-3.387-3.662-5.278-8a9.004 9.004 0 0 0-8.335-5.555 9.004 9.004 0 0 0-8.334 5.556zm14.725.817l.007.017c2.065 4.74 4.725 7.668 5.773 8.706.03.03.062.058.095.084a6.879 6.879 0 0 1 2.68 5.465c0 2.454-1.175 4.556-3.192 5.889a7.835 7.835 0 0 1-6.434 1.012c-1.603-.448-3.448-.685-5.336-.685-1.856 0-3.673.229-5.256.663a7.898 7.898 0 0 1-6.476-1.045c-1.988-1.326-3.143-3.4-3.143-5.834 0-1.963.84-3.84 2.302-5.153.225-.197 3.648-3.262 6.192-9.101l.007-.016a6.9 6.9 0 0 1 6.39-4.265 6.9 6.9 0 0 1 6.39 4.263z"/>
            <path d="M32.324 32.811c1.605 2.465 3.127 4.106 3.891 4.865a1.055 1.055 0 0 0 1.486-1.497c-.705-.7-2.11-2.218-3.61-4.519a1.055 1.055 0 1 0-1.767 1.151z"/>
            <path fill-rule="nonzero" d="M17.581.072C16.003.259 14.6 1.295 13.63 2.99c-1.013 1.77-1.435 4.122-1.16 6.454.875 7.409 7.772 10.835 11.113 5 1.013-1.772 1.436-4.125 1.159-6.455-.535-4.536-3.664-8.337-7.16-7.917zm4.17 13.324c-2.43 4.246-6.612.666-7.186-4.2-.224-1.892.102-3.773.895-5.159.577-1.008 1.478-1.885 2.639-1.885 2.076 0 4.158 2.786 4.547 6.085.225 1.892-.101 3.772-.895 5.159zM8.264 15.693c-1.816-.89-3.676-.937-5.237-.13-1.56.807-2.599 2.35-2.923 4.347-.305 1.88.066 3.958 1.045 5.854.98 1.895 2.46 3.4 4.17 4.239 1.697.832 3.577.988 5.237.13 1.561-.806 2.6-2.35 2.923-4.346.306-1.88-.065-3.959-1.044-5.854-.98-1.895-2.46-3.401-4.17-4.24zm3.133 9.756c-.214 1.32-.857 2.318-1.81 2.81-.952.493-2.138.44-3.339-.15-1.307-.64-2.452-1.818-3.225-3.314-.773-1.496-1.07-3.11-.837-4.547.215-1.32.857-2.318 1.81-2.81 1.053-.545 2.273-.374 3.34.149 1.306.641 2.451 1.818 3.224 3.314.773 1.497 1.07 3.112.837 4.548zM35.925.063c-3.198 0-6.117 3.49-6.644 7.947-.562 4.756 1.837 9.402 5.63 9.402 3.196 0 6.115-3.491 6.643-7.948.562-4.747-1.83-9.401-5.63-9.401zm3.535 9.153c-.406 3.418-2.67 6.35-4.807 6.072l-.012-.002c-.959-.112-1.869-.881-2.495-2.109-.698-1.365-.978-3.158-.77-4.92.39-3.298 2.473-6.085 4.549-6.085.097 0 .181.005.257.014 1.125.125 1.995 1.108 2.508 2.112.697 1.365.978 3.157.77 4.918zM40.52 25.791c.676 4.157 4.426 6.048 8.16 4.216 3.538-1.735 5.848-6.203 5.216-10.093-.667-4.108-4.38-6.071-8.16-4.217-3.536 1.735-5.847 6.204-5.215 10.094zm6.145-8.2c2.482-1.217 4.705-.071 5.149 2.66.481 2.965-1.35 6.532-4.062 7.862-1.201.59-2.387.643-3.34.15-.952-.491-1.595-1.49-1.81-2.81-.481-2.97 1.355-6.533 4.063-7.862z"/>
        </g>
    </g>
</svg>
