<svg height="495pt" viewBox="-1 0 495 495.99657" width="495pt" xmlns="http://www.w3.org/2000/svg"><path d="m406.152344 415.996094h32v56h-32zm0 0" fill="#8fcfec"/><path d="m406.152344 383.996094h28.121094c12.730468 0 24.9375-5.054688 33.945312-14.054688l3.878906-3.878906c9-9.011719 14.054688-21.21875 14.054688-33.945312v-120.242188c0-12.726562-5.054688-24.933594-14.054688-33.941406l-3.878906-3.882813c-9.007812-9-21.214844-14.054687-33.945312-14.054687h-28.121094v32h22.058594c6.367187 0 12.472656 2.527344 16.96875 7.03125l1.941406 1.945312c4.503906 4.496094 7.03125 10.601563 7.03125 16.96875v108.121094c0 6.367188-2.527344 12.46875-7.03125 16.964844l-1.941406 1.945312c-4.496094 4.496094-10.601563 7.023438-16.96875 7.023438h-22.058594zm0 0" fill="#0071bc"/><path d="m456.097656 366.050781c9-9 14.054688-21.207031 14.054688-33.933593v-120.242188c0-12.726562-5.054688-24.933594-14.054688-33.941406l-3.878906-3.882813c-9.007812-9-21.214844-14.054687-33.945312-14.054687h-12.121094v32h22.058594c6.367187 0 12.472656 2.527344 16.96875 7.03125l1.941406 1.945312c4.503906 4.496094 7.03125 10.601563 7.03125 16.96875v108.121094c0 6.367188-2.527344 12.46875-7.03125 16.964844l-1.941406 1.945312c-4.496094 4.496094-10.601563 7.023438-16.96875 7.023438h-22.058594v32h12.121094c12.730468 0 24.9375-5.054688 33.945312-14.054688zm0 0" fill="#29abe2"/><path d="m262.152344 439.996094h144v48h-144zm0 0" fill="#2e3192"/><path d="m262.152344 439.996094h120v48h-120zm0 0" fill="#0071bc"/><path d="m214.152344 39.996094v331.710937c0 18.113281 7.195312 35.480469 20 48.289063 1.339844 1.335937 2.722656 2.609375 4.152344 3.824218l-.152344.175782h-56v-384zm0 0" fill="#00bbe3"/><path d="m282.441406 439.996094h123.710938v-288l-192-144v363.710937c0 18.113281 7.195312 35.480469 20 48.289063 12.808594 12.808594 30.179687 20 48.289062 20zm0 0" fill="#00bbe3"/><path d="m214.152344 37.996094v333.710937c0 18.113281 7.195312 35.480469 20 48.289063 12.808594 12.808594 30.179687 20 48.289062 20h83.710938v-288zm0 0" fill="#8fcfec"/><path d="m406.152344 495.996094h-144c-4.414063 0-8-3.574219-8-8v-48h16v40h128v-40h16v48c0 4.425781-3.582032 8-8 8zm0 0"/><path d="m428.210938 359.996094h-22.058594v-16h22.058594c4.269531 0 8.289062-1.664063 11.320312-4.6875l1.933594-1.9375c2.984375-2.972656 4.6875-7.101563 4.6875-11.308594v-108.128906c0-4.210938-1.703125-8.335938-4.6875-11.3125l-1.933594-1.9375c-3.03125-3.023438-7.050781-4.6875-11.320312-4.6875h-22.058594v-16h22.058594c8.542968 0 16.574218 3.328125 22.632812 9.375l1.933594 1.9375c5.960937 5.953125 9.375 14.191406 9.375 22.625v108.128906c0 8.429688-3.414063 16.671875-9.375 22.621094l-1.933594 1.9375c-6.050781 6.046875-14.089844 9.375-22.632812 9.375zm0 0"/><path d="m434.273438 391.996094h-28.121094v-16h28.121094c10.6875 0 20.738281-4.167969 28.28125-11.71875l3.886718-3.878906c7.554688-7.5625 11.710938-17.601563 11.710938-28.28125v-120.242188c0-10.679688-4.15625-20.726562-11.71875-28.285156l-3.871094-3.867188c-7.558594-7.558594-17.601562-11.726562-28.289062-11.726562h-28.121094v-16h28.121094c14.96875 0 29.023437 5.832031 39.601562 16.410156l3.871094 3.863281c10.585937 10.589844 16.40625 24.65625 16.40625 39.605469v120.234375c0 14.953125-5.820313 29.015625-16.398438 39.597656l-3.886718 3.882813c-10.570313 10.574218-24.632813 16.40625-39.59375 16.40625zm0 0"/><path d="m438.152344 479.996094h-32c-4.414063 0-8-3.574219-8-8v-56c0-4.421875 3.585937-8 8-8h32c4.417968 0 8 3.578125 8 8v56c0 4.425781-3.582032 8-8 8zm-24-16h16v-40h-16zm0 0"/><path d="m238.152344 431.996094h-56c-4.414063 0-8-3.574219-8-8v-384c0-4.421875 3.585937-8 8-8h32v16h-24v368h48zm0 0"/><path d="m406.152344 367.996094h-48c-53.015625 0-96-42.984375-96-96s42.984375-96 96-96h48zm0 0" fill="#2e3192"/><path d="m358.152344 175.996094c-53.015625 0-96 42.984375-96 96s42.984375 96 96 96h24v-192zm0 0" fill="#0071bc"/><path d="m102.152344 167.996094c-12.453125 0-24.167969-4.847656-32.964844-13.65625l-1.378906-1.375c-11.566406-11.558594-31.742188-11.558594-43.308594 0l-12.691406 12.6875-11.308594-11.3125 12.6875-12.6875c8.796875-8.808594 20.511719-13.65625 32.964844-13.65625 12.457031 0 24.171875 4.847656 32.96875 13.65625l1.378906 1.375c11.566406 11.5625 31.742188 11.5625 43.308594 0l12.691406-12.6875 11.308594 11.3125-12.6875 12.6875c-8.796875 8.808594-20.511719 13.65625-32.96875 13.65625zm0 0"/><path d="m102.152344 247.996094c-12.453125 0-24.167969-4.847656-32.964844-13.65625l-1.378906-1.375c-11.566406-11.558594-31.742188-11.558594-43.308594 0l-12.691406 12.6875-11.308594-11.3125 12.6875-12.6875c8.796875-8.808594 20.511719-13.65625 32.964844-13.65625 12.457031 0 24.171875 4.847656 32.96875 13.65625l1.378906 1.375c11.566406 11.5625 31.742188 11.5625 43.308594 0l12.691406-12.6875 11.308594 11.3125-12.6875 12.6875c-8.796875 8.808594-20.511719 13.65625-32.96875 13.65625zm0 0"/><path d="m102.152344 327.996094c-12.453125 0-24.167969-4.847656-32.964844-13.65625l-1.378906-1.375c-11.566406-11.558594-31.742188-11.558594-43.308594 0l-12.691406 12.6875-11.308594-11.3125 12.6875-12.6875c8.796875-8.808594 20.511719-13.65625 32.964844-13.65625 12.457031 0 24.171875 4.847656 32.96875 13.65625l1.378906 1.375c11.566406 11.5625 31.742188 11.5625 43.308594 0l12.691406-12.6875 11.308594 11.3125-12.6875 12.6875c-8.796875 8.808594-20.511719 13.65625-32.96875 13.65625zm0 0"/><path d="m406.152344 375.996094h-48c-57.34375 0-104-46.65625-104-104s46.65625-104 104-104h48v16h-48c-48.519532 0-88 39.480468-88 88 0 48.519531 39.480468 88 88 88h48zm0 0"/><path d="m406.152344 447.996094h-123.710938c-20.375 0-39.535156-7.933594-53.941406-22.34375-14.410156-14.40625-22.347656-33.558594-22.347656-53.9375v-363.71875c0-3.03125 1.714844-5.800782 4.425781-7.160156 2.703125-1.335938 5.9375-1.0625 8.375.761718l192 144c2.015625 1.503906 3.199219 3.878906 3.199219 6.398438v288c0 4.425781-3.582032 8-8 8zm-184-424v347.71875c0 16.105468 6.273437 31.234375 17.65625 42.625 11.386718 11.382812 26.53125 17.65625 42.632812 17.65625h115.710938v-276zm0 0"/></svg>