<svg xmlns="http://www.w3.org/2000/svg" xmlns:xlink="http://www.w3.org/1999/xlink" width="318" height="499" viewBox="0 0 318 499">
    <defs>
        <path id="a" d="M269 481c0-7.18-5.82-13-13-13s-13 5.82-13 13h-9c0-7.18-5.82-13-13-13s-13 5.82-13 13h-9c0-7.18-5.82-13-13-13s-13 5.82-13 13h-8c0-7.18-5.82-13-13-13s-13 5.82-13 13h-9c0-7.18-5.82-13-13-13s-13 5.82-13 13h-9c0-7.18-5.82-13-13-13s-13 5.82-13 13h-9c0-7.18-5.82-13-13-13s-13 5.82-13 13H22.741c.17-1.142.259-2.31.259-3.5 0-12.812-10.252-23.229-23-23.495V20.995c.166.003.333.005.5.005 12.134 0 22.12-9.197 23.369-21h10.169c.51 6.712 6.119 12 12.962 12S59.451 6.712 59.962 0h9.076c.51 6.712 6.119 12 12.962 12S94.451 6.712 94.962 0h9.076c.51 6.712 6.119 12 12.962 12s12.451-5.288 12.962-12h9.076c.51 6.712 6.119 12 12.962 12s12.451-5.288 12.962-12h8.076c.51 6.712 6.119 12 12.962 12s12.451-5.288 12.962-12h9.076c.51 6.712 6.119 12 12.962 12s12.451-5.288 12.962-12h9.076c.51 6.712 6.119 12 12.962 12s12.451-5.288 12.962-12h10.17c1.16 10.982 9.886 19.707 20.868 20.869v433.39c-11.319 1.69-20 11.452-20 23.241 0 1.19.088 2.358.259 3.5H269z"/>
        <filter id="b" width="109.7%" height="106%" x="-4.8%" y="-2.6%" filterUnits="objectBoundingBox">
            <feOffset dy="2" in="SourceAlpha" result="shadowOffsetOuter1"/>
            <feGaussianBlur in="shadowOffsetOuter1" result="shadowBlurOuter1" stdDeviation="4.5"/>
            <feColorMatrix in="shadowBlurOuter1" values="0 0 0 0 0 0 0 0 0 0 0 0 0 0 0 0 0 0 0.176602129 0"/>
        </filter>
    </defs>
    <g fill="none" fill-rule="evenodd" transform="translate(9 7)">
        <use fill="#000" filter="url(#b)" xlink:href="#a"/>
        <use fill="#038CFF" xlink:href="#a"/>
    </g>
</svg>
