<svg xmlns="http://www.w3.org/2000/svg" width="50" height="50" viewBox="0 0 50 50">
    <g fill="none" fill-rule="nonzero">
        <path fill="#FFC532" d="M49.045 31.13l-3.393-7.351a4.84 4.84 0 0 0-4.393-2.811H22.834c-1.711 0-3.353.68-4.562 1.89l-6.175 6.174H7.258a6.452 6.452 0 0 0-6.452 6.452v5.645c0 .891.722 1.613 1.613 1.613H47.581c.89 0 1.613-.722 1.613-1.613v-9.323c0-.233-.051-.464-.149-.676z"/>
        <path fill="#FFC729" d="M28.226 29.839h3.226v12.903h-3.226z"/>
        <g fill="#038CFF">
            <path d="M25 .806a2.42 2.42 0 0 1 2.42 2.42v.136c0 .439-.12.869-.346 1.244L25 8.065l-2.074-3.458a2.417 2.417 0 0 1-.345-1.244v-.137A2.42 2.42 0 0 1 25 .806zM4.637 19.035a2.42 2.42 0 0 1 3.305.885l.068.118c.22.38.331.812.323 1.25l-.067 4.032-3.525-1.957a2.417 2.417 0 0 1-.92-.905l-.07-.119a2.42 2.42 0 0 1 .886-3.304zM45.363 10.97a2.42 2.42 0 0 1 .885 3.305l-.068.118c-.22.38-.537.693-.92.905l-3.526 1.958-.068-4.031a2.417 2.417 0 0 1 .323-1.25l.069-.12a2.42 2.42 0 0 1 3.305-.885z"/>
        </g>
        <g fill="#8C95A4" transform="translate(4.839 36.29)">
            <circle cx="6.452" cy="6.452" r="6.452"/>
            <circle cx="33.871" cy="6.452" r="6.452"/>
        </g>
        <g fill="#798699">
            <path d="M38.71 46.774a6.45 6.45 0 0 1-6.335-5.242 6.497 6.497 0 0 0-.117 1.21 6.452 6.452 0 0 0 12.903 0c0-.414-.042-.818-.117-1.21a6.45 6.45 0 0 1-6.334 5.242zM11.29 46.774a6.45 6.45 0 0 1-6.334-5.242 6.497 6.497 0 0 0-.117 1.21 6.452 6.452 0 0 0 12.903 0c0-.414-.043-.818-.117-1.21a6.45 6.45 0 0 1-6.335 5.242z"/>
        </g>
        <g fill="#ECECEC" transform="translate(8.871 40.323)">
            <circle cx="2.419" cy="2.419" r="2.419"/>
            <circle cx="29.839" cy="2.419" r="2.419"/>
        </g>
        <path fill="#39C3FC" d="M42.723 25.13a1.618 1.618 0 0 0-1.464-.936H22.833c-.85 0-1.68.344-2.28.944l-4.701 4.7h29.044l-2.173-4.707z"/>
        <path fill="#000" d="M25 .045a3.23 3.23 0 0 0-3.226 3.226v.136c0 .586.16 1.16.46 1.66L25 9.677l2.766-4.61c.3-.5.46-1.074.46-1.66v-.136A3.23 3.23 0 0 0 25 .045zm1.613 3.362c0 .293-.08.58-.23.83L25 6.542l-1.383-2.306c-.15-.25-.23-.536-.23-.829v-.136c0-.89.723-1.613 1.613-1.613s1.613.723 1.613 1.613v.136zM4.044 17.626a3.23 3.23 0 0 0-1.181 4.406l.068.118a3.22 3.22 0 0 0 1.228 1.208l4.7 2.61.091-5.375c.01-.585-.139-1.161-.432-1.668l-.068-.118a3.23 3.23 0 0 0-4.406-1.181zM7.12 19.73c.147.254.22.541.216.834l-.045 2.687-2.35-1.305a1.611 1.611 0 0 1-.614-.603l-.068-.118a1.615 1.615 0 0 1 .59-2.203 1.615 1.615 0 0 1 2.203.59l.068.118zM45.956 9.561a3.23 3.23 0 0 0-4.406 1.181l-.068.118a3.22 3.22 0 0 0-.432 1.667l.09 5.376 4.7-2.609a3.227 3.227 0 0 0 1.229-1.208l.068-.118a3.23 3.23 0 0 0-1.18-4.407zm-.284 3.718a1.616 1.616 0 0 1-.614.604l-2.35 1.305-.045-2.689c-.005-.291.07-.579.216-.832l.068-.118a1.615 1.615 0 0 1 2.203-.59 1.615 1.615 0 0 1 .59 2.202l-.068.118zM46.385 23.441a5.661 5.661 0 0 0-5.126-3.28H22.833a7.207 7.207 0 0 0-5.131 2.126l-5.94 5.939H7.259C3.256 28.226 0 31.482 0 35.484v5.645a2.422 2.422 0 0 0 2.42 2.42h1.66C4.482 47.171 7.56 50 11.29 50s6.808-2.828 7.21-6.452h13C31.901 47.172 34.98 50 38.71 50s6.808-2.828 7.21-6.452h1.66A2.422 2.422 0 0 0 50 41.13v-9.323c0-.349-.077-.699-.222-1.014l-3.393-7.35zM11.29 48.387a5.652 5.652 0 0 1-5.645-5.645 5.652 5.652 0 0 1 5.645-5.645 5.652 5.652 0 0 1 5.645 5.645 5.652 5.652 0 0 1-5.645 5.645zm27.42 0a5.652 5.652 0 0 1-5.645-5.645 5.652 5.652 0 0 1 5.645-5.645 5.652 5.652 0 0 1 5.645 5.645 5.652 5.652 0 0 1-5.645 5.645zm8.87-6.452h-1.66c-.402-3.623-3.48-6.451-7.21-6.451s-6.808 2.828-7.21 6.451h-1.661v-9.677h-1.613v9.677H18.5c-.403-3.623-3.48-6.451-7.21-6.451s-6.809 2.828-7.211 6.451H2.42a.807.807 0 0 1-.807-.806v-5.645a5.652 5.652 0 0 1 5.645-5.645h5.173l6.41-6.412a5.607 5.607 0 0 1 3.992-1.653H41.26c1.567 0 3.004.92 3.66 2.343l3.394 7.35a.8.8 0 0 1 .074.339v1.259h-1.613v1.612h1.613v1.613h-1.613v1.613h1.613v3.226a.807.807 0 0 1-.806.806z"/>
        <path fill="#000" d="M3.226 35.484h1.613a2.422 2.422 0 0 1 2.42-2.42v-1.612a4.037 4.037 0 0 0-4.033 4.032zM21.774 32.258H25v1.613h-3.226zM11.29 39.516a3.23 3.23 0 0 0-3.225 3.226 3.23 3.23 0 0 0 3.225 3.226 3.23 3.23 0 0 0 3.226-3.226 3.23 3.23 0 0 0-3.226-3.226zm0 4.839c-.89 0-1.613-.724-1.613-1.613 0-.89.724-1.613 1.613-1.613.89 0 1.613.723 1.613 1.613s-.723 1.613-1.613 1.613zM38.71 39.516a3.23 3.23 0 0 0-3.226 3.226 3.23 3.23 0 0 0 3.226 3.226 3.23 3.23 0 0 0 3.225-3.226 3.23 3.23 0 0 0-3.225-3.226zm0 4.839c-.89 0-1.613-.724-1.613-1.613 0-.89.723-1.613 1.613-1.613s1.613.723 1.613 1.613-.724 1.613-1.613 1.613zM41.259 23.387h-3.356V25h3.356c.314 0 .6.184.731.469l1.645 3.563H17.798l3.325-3.324a2.435 2.435 0 0 1 1.71-.708H36.29v-1.613H22.833c-1.061 0-2.1.43-2.85 1.18l-6.078 6.078h32.252l-2.702-5.851a2.425 2.425 0 0 0-2.196-1.407zM5.645 9.677h1.613v1.613H5.645zM15.323 4.032h1.613v1.613h-1.613zM12.097 20.968h1.613v1.613h-1.613zM24.194 13.71h1.613v1.613h-1.613zM34.677 10.484h1.613v1.613h-1.613zM37.903 0h1.613v1.613h-1.613zM48.387 5.645H50v1.613h-1.613z"/>
    </g>
</svg>
