<svg xmlns="http://www.w3.org/2000/svg" width="51" height="47" viewBox="0 0 51 47">
    <g fill="none" fill-rule="nonzero">
        <g transform="translate(1 1)">
            <ellipse cx="15.227" cy="30.646" fill="#1566C0" rx="15.174" ry="15.294"/>
            <ellipse cx="15.227" cy="30.646" fill="#2296F3" rx="11.802" ry="11.895"/>
            <path fill="#FDD834" d="M43.046 11.104v2.549h-2.529v-2.55c0-4.732-4.426-5.7-8.43-5.896v-.05c4.215 0 10.96 0 10.96 5.947z"/>
            <path fill="#FFC532" d="M40.517 11.104v2.549H19.442v-2.55a4.805 4.805 0 0 1 1.686-5.947 10.023 10.023 0 0 0 2.453-2.582c.521-.742.838-1.61.919-2.515 0 0 3.372 5.097 7.587 5.097v.051c4.004.196 8.43 1.164 8.43 5.897z"/>
            <path fill="#00838F" d="M18.599 11.104h24.447c.931 0 1.686.76 1.686 1.7v5.947h-27.82v-5.948c0-.938.756-1.7 1.687-1.7z"/>
            <path fill="#00BCD4" d="M18.599 11.104h21.918c.931 0 1.686.76 1.686 1.7v5.947h-25.29v-5.948c0-.938.755-1.7 1.686-1.7z"/>
            <path fill="#0377BC" d="M48.93 20.85l-.151 1.3-2.184 18.691-.244 2.099a3.388 3.388 0 0 1-3.347 3H18.65a3.375 3.375 0 0 1-3.347-3l-.245-2.099-2.183-18.692-.152-1.3a3.417 3.417 0 0 1 .828-2.656 3.362 3.362 0 0 1 2.519-1.142h29.505a3.363 3.363 0 0 1 2.524 1.14 3.42 3.42 0 0 1 .831 2.658z"/>
            <path fill="#02A9F4" d="M46.394 20.85l-.155 1.3-2.24 18.691-.25 2.099a3.443 3.443 0 0 1-3.432 3H18.801a3.43 3.43 0 0 1-3.432-3l-.25-2.099-2.24-18.692-.155-1.3a3.45 3.45 0 0 1 .868-2.677 3.393 3.393 0 0 1 2.564-1.12h26.798a3.395 3.395 0 0 1 2.568 1.118 3.45 3.45 0 0 1 .872 2.68z"/>
            <path fill="#00838F" d="M48.779 22.15L46.595 40.84H15.058L12.875 22.15z"/>
            <path fill="#00BCD4" d="M46.418 22.15L44.184 40.84H15.058L12.875 22.15z"/>
        </g>
        <g fill="#000">
            <path d="M46.662 16.786h-.003V13.43a2.515 2.515 0 0 0-1.749-2.378c-.536-5.994-7.828-6.012-11.825-6.012-3.731 0-6.897-4.615-6.93-4.662a.856.856 0 0 0-.944-.332.843.843 0 0 0-.609.787c-.003.089-.092 2.178-3.054 4.375a5.535 5.535 0 0 0-2.344 5.736 2.522 2.522 0 0 0-2.237 2.486v1.702a16.148 16.148 0 0 0-.848-.024C7.217 15.108 0 22.246 0 31.05c0 8.805 7.217 15.942 16.118 15.942.77 0 1.54-.057 2.3-.173.372.11.757.168 1.144.173h24.505c2.151 0 3.961-1.593 4.213-3.705l2.595-21.815a4.164 4.164 0 0 0-1.043-3.278 4.261 4.261 0 0 0-3.17-1.408zm1.902 2.523a2.5 2.5 0 0 1 .626 1.967l-.065.545h-34.62l-.065-.546a2.498 2.498 0 0 1 .625-1.966 2.557 2.557 0 0 1 1.902-.844h29.695c.727 0 1.42.307 1.902.844zM46.93 40.28H16.7L14.705 23.5h34.22l-1.996 16.78zM12.755 21.473l2.431 20.44c-5.235-.436-9.43-4.465-10.025-9.627-.595-5.162 2.578-10.021 7.58-11.61-.02.266-.016.533.014.797zm9.81-14.922a9.734 9.734 0 0 0 3.265-3.865c1.414 1.604 4.079 4.033 7.255 4.033 5.023 0 9.562.338 10.121 4.195H20.95a3.855 3.855 0 0 1 1.617-4.363zm-3.901 6.88c0-.463.38-.838.848-.839h24.602c.468 0 .848.376.848.84v3.355H18.664V13.43zM1.697 31.05c.009-7.874 6.46-14.255 14.422-14.264.183 0 .37.008.557.016-1.364.08-2.6.817-3.309 1.972-6.207 1.353-10.449 7.033-9.931 13.299.517 6.265 5.635 11.189 11.981 11.528.119.62.378 1.205.758 1.711l-.057.002c-7.96-.009-14.412-6.39-14.421-14.264zm42.37 14.264H19.562a2.535 2.535 0 0 1-2.527-2.223l-.135-1.133h29.83l-.135 1.133a2.536 2.536 0 0 1-2.528 2.223z"/>
            <path d="M24.602 13.43h-3.393a.844.844 0 0 0-.849.84c0 .463.38.838.849.838h3.393a.844.844 0 0 0 .848-.839.844.844 0 0 0-.848-.839zM42.417 13.43H27.995a.844.844 0 0 0-.848.84c0 .463.38.838.848.838h14.422a.844.844 0 0 0 .848-.839.844.844 0 0 0-.848-.839z"/>
        </g>
    </g>
</svg>
