<svg xmlns="http://www.w3.org/2000/svg" xmlns:xlink="http://www.w3.org/1999/xlink" viewBox="0 0 151.83 68.36"><defs><style>.cls-1{isolation:isolate;}.cls-2,.cls-32,.cls-33,.cls-36,.cls-42,.cls-59,.cls-60{fill:#b94e48;}.cls-3{fill:url(#linear-gradient);}.cls-4,.cls-8{fill:#da8065;}.cls-10,.cls-23,.cls-36,.cls-39,.cls-4,.cls-41,.cls-44,.cls-53,.cls-55,.cls-59,.cls-69,.cls-70,.cls-9{opacity:0.3;}.cls-14,.cls-17,.cls-19,.cls-21,.cls-23,.cls-25,.cls-29,.cls-31,.cls-32,.cls-33,.cls-36,.cls-39,.cls-4,.cls-41,.cls-42,.cls-43,.cls-46,.cls-53,.cls-55,.cls-58,.cls-60,.cls-61,.cls-63,.cls-67,.cls-69,.cls-70,.cls-8,.cls-9{mix-blend-mode:multiply;}.cls-5{fill:url(#linear-gradient-2);}.cls-6{fill:url(#linear-gradient-3);}.cls-10,.cls-7,.cls-9{fill:#5b3610;}.cls-8{opacity:0.2;}.cls-10,.cls-35,.cls-44,.cls-52,.cls-56,.cls-59,.cls-62{mix-blend-mode:screen;}.cls-11{fill:#fff;}.cls-12{fill:#493426;}.cls-13{fill:#806249;}.cls-14{fill:#a0a0a0;}.cls-14,.cls-19,.cls-21,.cls-25,.cls-34,.cls-42,.cls-43,.cls-46,.cls-52,.cls-61,.cls-62{opacity:0.4;}.cls-15{fill:url(#linear-gradient-4);}.cls-16,.cls-25,.cls-27,.cls-29{fill:#002440;}.cls-17,.cls-29,.cls-31,.cls-58,.cls-60{opacity:0.5;}.cls-17{fill:url(#linear-gradient-5);}.cls-18{fill:url(#linear-gradient-6);}.cls-19{fill:url(#linear-gradient-7);}.cls-20{fill:url(#linear-gradient-8);}.cls-21{fill:url(#linear-gradient-9);}.cls-22,.cls-23,.cls-46,.cls-62{fill:#46676c;}.cls-24{fill:url(#linear-gradient-10);}.cls-26{fill:url(#linear-gradient-11);}.cls-27{opacity:0.8;}.cls-28{fill:url(#linear-gradient-12);}.cls-30,.cls-31{fill:#11473b;}.cls-32{opacity:0.23;}.cls-33{opacity:0.26;}.cls-37{fill:#71675f;}.cls-38{fill:#1e232b;}.cls-40,.cls-41{fill:#111919;}.cls-43{fill:url(#linear-gradient-13);}.cls-44,.cls-56{fill:#fca250;}.cls-45{fill:url(#linear-gradient-14);}.cls-47,.cls-48{fill:#ffd49f;}.cls-48,.cls-67{opacity:0.7;}.cls-49{fill:#282f39;}.cls-50,.cls-61{fill:#263a3a;}.cls-51{fill:url(#linear-gradient-15);}.cls-52,.cls-53{fill:#8da5b0;}.cls-54{fill:url(#linear-gradient-16);}.cls-55{fill:url(#linear-gradient-17);}.cls-56{opacity:0.16;}.cls-57{fill:url(#linear-gradient-18);}.cls-58{fill:#c7afa5;}.cls-63{opacity:0.6;}.cls-64{fill:#9a4730;}.cls-65{fill:url(#linear-gradient-19);}.cls-66,.cls-67{fill:#4e555e;}.cls-68{fill:url(#linear-gradient-20);}.cls-69{fill:url(#linear-gradient-21);}.cls-70,.cls-71{fill:#635a53;}.cls-72{fill:url(#linear-gradient-22);}.cls-73{fill:#353331;}</style><linearGradient id="linear-gradient" x1="649.3" y1="-34.91" x2="652.21" y2="-34.91" gradientTransform="matrix(-0.96, 0.27, 0.27, 0.96, 771.03, -106.99)" gradientUnits="userSpaceOnUse"><stop offset="0" stop-color="#e7bd9a"/><stop offset="1" stop-color="#e6a081"/></linearGradient><linearGradient id="linear-gradient-2" x1="649.3" y1="-35.93" x2="652.22" y2="-35.93" xlink:href="#linear-gradient"/><linearGradient id="linear-gradient-3" x1="653.75" y1="-33.59" x2="652.44" y2="-40.1" xlink:href="#linear-gradient"/><linearGradient id="linear-gradient-4" x1="142.65" y1="51.29" x2="136.18" y2="36.98" gradientUnits="userSpaceOnUse"><stop offset="0" stop-color="#007775"/><stop offset="1" stop-color="#008575"/></linearGradient><linearGradient id="linear-gradient-5" x1="139.16" y1="51.08" x2="135.03" y2="41.93" xlink:href="#linear-gradient-4"/><linearGradient id="linear-gradient-6" x1="140.9" y1="57.46" x2="137.64" y2="66.7" gradientUnits="userSpaceOnUse"><stop offset="0.01" stop-color="#135da4"/><stop offset="1" stop-color="#084d98"/></linearGradient><linearGradient id="linear-gradient-7" x1="140.82" y1="58.35" x2="141.44" y2="62.18" xlink:href="#linear-gradient-6"/><linearGradient id="linear-gradient-8" x1="137.67" y1="48.93" x2="139.34" y2="59.22" xlink:href="#linear-gradient-6"/><linearGradient id="linear-gradient-9" x1="139.64" y1="52.04" x2="140.9" y2="59.79" xlink:href="#linear-gradient-6"/><linearGradient id="linear-gradient-10" x1="119.99" y1="44.07" x2="133.99" y2="44.07" gradientUnits="userSpaceOnUse"><stop offset="0" stop-color="#eec4a0"/><stop offset="1" stop-color="#eda688"/></linearGradient><linearGradient id="linear-gradient-11" x1="138.41" y1="50.69" x2="147.56" y2="50.69" gradientUnits="userSpaceOnUse"><stop offset="0" stop-color="#034980"/><stop offset="1" stop-color="#084d98"/></linearGradient><linearGradient id="linear-gradient-12" x1="142.08" y1="50.93" x2="139.44" y2="49.01" xlink:href="#linear-gradient-6"/><linearGradient id="linear-gradient-13" x1="76.55" y1="34.59" x2="107.57" y2="61.43" gradientUnits="userSpaceOnUse"><stop offset="0" stop-color="#ff6531"/><stop offset="1" stop-color="#ff591f"/></linearGradient><linearGradient id="linear-gradient-14" x1="85.26" y1="18.76" x2="68.37" y2="-3.28" gradientUnits="userSpaceOnUse"><stop offset="0.01" stop-color="#46676c"/><stop offset="1" stop-color="#54797c"/></linearGradient><linearGradient id="linear-gradient-15" x1="108.16" y1="41.81" x2="126.63" y2="34.29" gradientUnits="userSpaceOnUse"><stop offset="0.01" stop-color="#8da5b0"/><stop offset="0.99" stop-color="#668da2"/></linearGradient><linearGradient id="linear-gradient-16" x1="51.08" y1="34.99" x2="60.05" y2="44.1" xlink:href="#linear-gradient-15"/><linearGradient id="linear-gradient-17" x1="83.92" y1="19.57" x2="85.33" y2="35.49" xlink:href="#linear-gradient-13"/><linearGradient id="linear-gradient-18" x1="81.96" y1="50.27" x2="85.92" y2="56.6" gradientUnits="userSpaceOnUse"><stop offset="0.01" stop-color="#c7afa5"/><stop offset="1" stop-color="#bea693"/></linearGradient><linearGradient id="linear-gradient-19" x1="22.05" y1="63.41" x2="27.85" y2="48.19" gradientUnits="userSpaceOnUse"><stop offset="0.01" stop-color="#002440"/><stop offset="1" stop-color="#002d4e"/></linearGradient><linearGradient id="linear-gradient-20" x1="28.66" y1="59.46" x2="31.57" y2="52.29" xlink:href="#linear-gradient-11"/><linearGradient id="linear-gradient-21" x1="18.04" y1="62.36" x2="22.35" y2="51.06" xlink:href="#linear-gradient-19"/><linearGradient id="linear-gradient-22" x1="46" y1="56.73" x2="44.44" y2="49.02" gradientTransform="matrix(1, 0, 0, 1, 0, 0)" xlink:href="#linear-gradient"/></defs><g class="cls-1"><g id="Layer_2" data-name="Layer 2"><g id="Layer_2-2" data-name="Layer 2"><path class="cls-2" d="M.7,64.13S29.91,66.94,54.19,68s69.49-.53,69.49-.53L151.83,64,136,61.67,26.39,60.08,0,62.55Z"/><path class="cls-3" d="M134.08,37.07s.21.1.81-.25a6.35,6.35,0,0,0,1.42-1l0,.11-.1-.39a.83.83,0,0,1,0-.15,23.11,23.11,0,0,1-.3-2.56s-.11,0-.41-.21a2.46,2.46,0,0,1-.52-.85s0,.26,0,.57a.71.71,0,0,0,.1.14,1.8,1.8,0,0,1-.15,1,7.23,7.23,0,0,1-.58.86c0,.09,0,.27,0,.48,0,.37,0,.82,0,1A8.78,8.78,0,0,1,134.08,37.07Z"/><path class="cls-4" d="M134.38,34.86a1.58,1.58,0,0,1,.76-.12l1.07.66a23.11,23.11,0,0,1-.3-2.56s-.11,0-.41-.21a2.46,2.46,0,0,1-.52-.85s0,.26,0,.57a.71.71,0,0,0,.1.14,1.8,1.8,0,0,1-.15,1,7.23,7.23,0,0,1-.58.86C134.35,34.47,134.37,34.65,134.38,34.86Z"/><path class="cls-5" d="M134.93,33.21a6.75,6.75,0,0,0,0-.86.71.71,0,0,0,.1.14,1.8,1.8,0,0,1-.15,1,7.23,7.23,0,0,1-.58.86.6.6,0,0,1,0-.08A3.47,3.47,0,0,0,134.93,33.21Z"/><path class="cls-6" d="M128.61,34a1.13,1.13,0,0,0,.62.22,1.28,1.28,0,0,0,.79-.29,2.3,2.3,0,0,0,.34.81,5,5,0,0,0,.42.55c.26.3.51.52.59.6s.19.26.41.28a1.67,1.67,0,0,0,.65-.13,5.65,5.65,0,0,0,1.92-1.65,7.23,7.23,0,0,0,.58-.86,1.8,1.8,0,0,0,.15-1,.71.71,0,0,1-.1-.14,1.65,1.65,0,0,1-.3-.74,2.1,2.1,0,0,0,.59-.9c.18-.54.07-1.78-.55-1.8s-.85.57-.68,1.09a5.62,5.62,0,0,1,.21,1.19l-.17.23a3.43,3.43,0,0,0-.51-1.08,9.33,9.33,0,0,1-.77-1.24,4.07,4.07,0,0,1-2.46.21,8.79,8.79,0,0,1-2-.44c0,.09,0,.21,0,.34a5,5,0,0,0,.22.92,4,4,0,0,0,1,1.44,3.35,3.35,0,0,1-.29,1.4A2.6,2.6,0,0,1,128.61,34Z"/><path class="cls-7" d="M127,27.48a1.4,1.4,0,0,0,.09.29,2.25,2.25,0,0,0,.43.65,1.43,1.43,0,0,0,.38.28l.25.12.15.05a8.79,8.79,0,0,0,2,.44,4.07,4.07,0,0,0,2.46-.21,9.33,9.33,0,0,0,.77,1.24,3.43,3.43,0,0,1,.51,1.08l.17-.23A5.62,5.62,0,0,0,134,30c-.17-.52.07-1.1.68-1.09s.73,1.26.55,1.8a2.1,2.1,0,0,1-.59.9,1.85,1.85,0,0,0,.4.88.9.9,0,0,0,.26.23c.3.15.75.33.75.26a6.91,6.91,0,0,0,.11-1.58c0-.52-.07-1.17-.13-1.83l0-.31c0-.23,0-.47-.07-.69s0-.3,0-.43,0-.24,0-.36a3.25,3.25,0,0,0-.07-.45,3.81,3.81,0,0,0-.17-.51h0a2.71,2.71,0,0,0-.23-.41,2.67,2.67,0,0,0-1.06-.93,5.5,5.5,0,0,0-4-.54,5.59,5.59,0,0,0-1.83.56,3.14,3.14,0,0,0-1,.74,1.25,1.25,0,0,0-.58.65,1,1,0,0,0,0,.46Z"/><path class="cls-8" d="M133.71,31.1a4.84,4.84,0,0,1,.66,2.06c0,.65-.11.9-.7,1.65a4.45,4.45,0,0,1-1.8,1.32l-.09,0a1.67,1.67,0,0,0,.65-.13,5.75,5.75,0,0,0,1.92-1.65,7.23,7.23,0,0,0,.58-.86,1.8,1.8,0,0,0,.15-1,.71.71,0,0,1-.1-.14,1.65,1.65,0,0,1-.3-.74,2.1,2.1,0,0,0,.59-.9c.18-.54.07-1.78-.55-1.8s-.85.57-.68,1.09a5.62,5.62,0,0,1,.21,1.19l-.17.23a3.43,3.43,0,0,0-.51-1.08,9.33,9.33,0,0,1-.77-1.24,4.07,4.07,0,0,1-2.46.21,8.79,8.79,0,0,1-2-.44c0,.09,0,.21,0,.34a4.74,4.74,0,0,0,2.13.69,7.76,7.76,0,0,0,2.16-.49Z"/><path class="cls-7" d="M131.66,30a1.82,1.82,0,0,0-1.36-.54c-.73,0-.82.51-.62.68s.4-.11.91-.11A5.62,5.62,0,0,0,131.66,30Z"/><path class="cls-8" d="M134.57,29.33a1.82,1.82,0,0,0,.07,1.72s.32-.11.36-.33-.39-.3-.39-.3Z"/><path class="cls-8" d="M128.61,34a1,1,0,0,0,.62.22,1.28,1.28,0,0,0,.79-.29c0-.07-.32.09-.77.09S128.61,34,128.61,34Z"/><path class="cls-9" d="M127.55,28.42a2,2,0,0,0,.78.45,8.79,8.79,0,0,0,2,.44,4.07,4.07,0,0,0,2.46-.21,9.33,9.33,0,0,0,.77,1.24,3.43,3.43,0,0,1,.51,1.08l.17-.23A5.62,5.62,0,0,0,134,30c-.17-.52.07-1.1.68-1.09s.73,1.26.55,1.8a2.1,2.1,0,0,1-.59.9,1.85,1.85,0,0,0,.4.88.9.9,0,0,0,.26.23c.3.15.75.33.75.26a6.91,6.91,0,0,0,.11-1.58c0-1-.2-2.54-.31-3.62a3.25,3.25,0,0,0-.07-.45c-.44.28-1.28.89-1.86,1.26-.78.5-1.12.39-2.12.27s-2.27-.72-3.25-.52-1.21-.4-1.59-1A2.09,2.09,0,0,0,127.55,28.42Z"/><path class="cls-10" d="M127,27.48a1.4,1.4,0,0,0,.09.29,7,7,0,0,1,3.77-1.32,8.67,8.67,0,0,1,4,.8A13.71,13.71,0,0,1,136,28.57c0-.15,0-.3,0-.43l-.5-.59a5.82,5.82,0,0,0-3-1.25,10.69,10.69,0,0,0-3.56.36A8.79,8.79,0,0,0,127,27.48Z"/><path class="cls-10" d="M127,26.89a3.67,3.67,0,0,1,2-1.1,8.5,8.5,0,0,1,4-.27,9.42,9.42,0,0,1,2.64,1.3,2.71,2.71,0,0,0-.23-.41l-.45-.27a7.51,7.51,0,0,0-3.31-1,11.4,11.4,0,0,0-3.08.38,3.14,3.14,0,0,0-1,.74A1.25,1.25,0,0,0,127,26.89Z"/><path class="cls-10" d="M127.93,28.7l.25.12a4.08,4.08,0,0,1,.93-.69,3.76,3.76,0,0,1,2.6-.25,13.66,13.66,0,0,1,3.53,1.06,5,5,0,0,1,.83.63l0-.31a3.63,3.63,0,0,0-.67-.46c-.39-.2-2.1-.77-2.81-1.05a5,5,0,0,0-2.93-.12A5.81,5.81,0,0,0,127.93,28.7Z"/><path class="cls-11" d="M130.36,34.73a5,5,0,0,0,.42.55,6.08,6.08,0,0,0,1-.6,3,3,0,0,0,.54-.85,7.23,7.23,0,0,0-.84.44A6.47,6.47,0,0,1,130.36,34.73Z"/><path class="cls-11" d="M130.07,31.06a6.15,6.15,0,0,0,.45.75.74.74,0,0,0,.36-.08,1.62,1.62,0,0,0,.27-.13,2.83,2.83,0,0,0,.63-.53,2,2,0,0,0-1.18-.39l-.1,0A.53.53,0,0,0,130.07,31.06Z"/><path class="cls-12" d="M130.07,31.06a6.15,6.15,0,0,0,.45.75.74.74,0,0,0,.36-.08.83.83,0,0,0,0-.63.89.89,0,0,0-.33-.4A.53.53,0,0,0,130.07,31.06Z"/><path class="cls-13" d="M131.78,31.07a3,3,0,0,0-1-.54A.57.57,0,0,0,130,31l.09.11s0-.23.35-.33a1,1,0,0,1,.84.1Z"/><path class="cls-14" d="M131.78,31.07s-.38-.14-.69-.22a1.08,1.08,0,0,0-.76.09.4.4,0,0,0-.19.25l-.07-.13,0,0a.6.6,0,0,1,.41-.39c.25-.09.69.12.91.21S131.78,31.07,131.78,31.07Z"/><path class="cls-15" d="M147.56,50.8l-.26.09-.52.14h-.06l-.69.15-.24,0c-.26.05-.54.09-.85.12l-.52,0-.41,0h-.52a12.6,12.6,0,0,1-2.23-.19,11,11,0,0,1-2.58-.79s-1.92-5-2.45-5.94-1-1.84-1-1.84l-1.32,1.25a5.5,5.5,0,0,0-.42-.89,4.5,4.5,0,0,0-.83-1.09c-.79-.72-1.65-1.45-1.65-1.45a40,40,0,0,1,2.44-4.29c.12-.15.26-.31.41-.47a5.59,5.59,0,0,1,.68-.58,3.89,3.89,0,0,1,4.19-.27,14,14,0,0,1,4.89,4.65c.21.3.41.61.61.93s.6,1,.87,1.48h0l.21.38C147.1,45.68,147.56,50.8,147.56,50.8Z"/><path class="cls-16" d="M147.32,50.91l-.54.12h-.06l-.69.15-.23.05h0c0-.09-.3-.66-.75-1.52-.21-.4-.46-.86-.74-1.37l-.48-.83c-.34-.58-.73-1.2-1.15-1.83s-1-1.53-1.62-2.29a57.46,57.46,0,0,0-7.18-7.66,5.59,5.59,0,0,1,.68-.58c1.56,1.46,5.81,5.51,7.2,7.65.44.67,1.07,1.6,1.75,2.6.12.16.23.33.35.51l.51.74.77,1.12,2.17,3.12Z"/><path class="cls-16" d="M145.23,44.77c0,.92,0,2-.1,3,0,.7-.06,1.37-.09,1.94,0,.88-.09,1.52-.1,1.64v0l-.94.13s0-.06,0-.09c.14-.89.23-2,.29-3.08,0-.55,0-1.12.06-1.69s0-1,0-1.57c0-1.73-.05-3.38-.13-4.62.31.47.6,1,.87,1.48h0c0,.35.07.73.1,1.12S145.24,44.09,145.23,44.77Z"/><path class="cls-17" d="M141.26,51.24a11,11,0,0,1-2.58-.79s-1.92-5-2.45-5.94-1-1.84-1-1.84l-1.32,1.25a5.5,5.5,0,0,0-.42-.89,5,5,0,0,0,.82-1.22,13.28,13.28,0,0,1,.73-1.59s2.24,4,3.69,6.67C139.64,48.52,140.63,50.19,141.26,51.24Z"/><path class="cls-18" d="M145.31,62.88l.88,1.29a39.2,39.2,0,0,1-4.48.66c-2.37.2-9,1.06-9.83.4s-1-2.51.46-4.16,5.61-4.68,6.14-5.21a9.92,9.92,0,0,0,3.79,1h0a16.11,16.11,0,0,0,4.89-1.06,7.54,7.54,0,0,1-1.85,2.44,54.64,54.64,0,0,1-5.78,3c2.89-1.22,5.38,1,5.38,1Z"/><path class="cls-19" d="M147.19,55.86a7.54,7.54,0,0,1-1.85,2.44,54.64,54.64,0,0,1-5.78,3c2.89-1.22,5.38,1,5.38,1l.37.55c-1.69-.58-5.38-1.74-7-1.54a8.34,8.34,0,0,0-3.55,1.24c.39-.29,6.54-4.83,7.18-5.47l.36-.2h0A16.11,16.11,0,0,0,147.19,55.86Z"/><path class="cls-20" d="M147.5,55.14a2,2,0,0,1-.31.72c-.66.79-3.17,2.77-6,1.58a34.57,34.57,0,0,1-6.2-3.76c1.58,2.91,1.65,9.44,1.65,9.44l-1,.21-1.14.25s-5.08-9-6.07-12.47.2-5.28,2.31-4.75,7.92,4.09,7.92,4.09a19.26,19.26,0,0,0,4.81,1,14.23,14.23,0,0,0,4.09-.79A12.64,12.64,0,0,1,147.5,55.14Z"/><path class="cls-21" d="M147.5,55.14a2,2,0,0,1-.31.72c-.66.79-3.17,2.77-6,1.58a34.57,34.57,0,0,1-6.2-3.76c1.58,2.91,1.65,9.44,1.65,9.44l-1,.21a27.91,27.91,0,0,0-1.08-7.4A29.71,29.71,0,0,0,132,50.32s7.46,4.48,10.62,5.15A10,10,0,0,0,147.5,55.14Z"/><path class="cls-22" d="M137.88,65.49s-.58.1-1.46.16a15,15,0,0,1-4.87-.35s2.51-1.52,3-1.72l1.2-.26.91-.2A13.06,13.06,0,0,1,137.88,65.49Z"/><path class="cls-23" d="M137.88,65.49s-.58.1-1.46.16c-.2-.75-.46-1.66-.7-2.33l.91-.2A13.06,13.06,0,0,1,137.88,65.49Z"/><path class="cls-22" d="M150.22,64.7a30.23,30.23,0,0,1-4-.53l-1-1.44-.28-.4c-.39-.73.27-2,.27-2A15.5,15.5,0,0,1,147.29,62C148.69,63.22,150.22,64.7,150.22,64.7Z"/><path class="cls-23" d="M147.29,62a2.37,2.37,0,0,0-2.07.76l-.28-.4c-.39-.73.27-2,.27-2A15.5,15.5,0,0,1,147.29,62Z"/><path class="cls-24" d="M134,43.85s-.83,1-2.24,2.64c-.95,1.1-2.16,1.48-4.73.88A32.58,32.58,0,0,1,121,45a2.54,2.54,0,0,1-1,0,3.63,3.63,0,0,1-.06-1.33c0-.78.11-1.62.11-1.62l.61.29S120.4,41,120.66,41s.73,1.58.73,1.58a21.31,21.31,0,0,0,3,.59c2.25.33,4.75.49,4.75.49s1.52-2.6,1.85-3.19A7,7,0,0,1,132.74,42c.21.25.4.48.55.7A5.88,5.88,0,0,1,134,43.85Z"/><path class="cls-4" d="M134,43.85s-.83,1-2.24,2.64c-.95,1.1-2.16,1.48-4.73.88A32.58,32.58,0,0,1,121,45a2.54,2.54,0,0,1-1,0,3.63,3.63,0,0,1-.06-1.33,22.47,22.47,0,0,0,5.6,2.36,12.48,12.48,0,0,0,4.56.46,18.79,18.79,0,0,0,3.12-3.83A5.88,5.88,0,0,1,134,43.85Z"/><path class="cls-25" d="M147.32,50.91l-.54.12h-.06l-.69.15-.23.05h0c0-.09-.3-.66-.75-1.52,0,.88-.09,1.52-.1,1.64v0l-.94.13s0-.06,0-.09c.14-.89.23-2,.29-3.08l-.48-.83c-.34-.58-.73-1.2-1.15-1.83l.83-.28c.12.16.23.33.35.51l.51.74c0-.52,0-1,0-1.57l.86-.31c0,.92,0,2-.1,3l2.17,3.12Z"/><path class="cls-26" d="M138.41,49.79a19.93,19.93,0,0,0,4.75.86,8.47,8.47,0,0,0,4.36-.92l0,1.07a13.3,13.3,0,0,1-4.6.84,13.94,13.94,0,0,1-4.28-1.19Z"/><path class="cls-27" d="M138.68,50.45c.06.4.39,2.51.39,2.51l-5.15-2.57a6.14,6.14,0,0,0-.06-2.71s1.32.86,2.84,1.65A21.17,21.17,0,0,1,138.68,50.45Z"/><path class="cls-28" d="M136.7,45.5l3.75,4.82-2-.53A31.86,31.86,0,0,1,136.7,45.5Z"/><path class="cls-27" d="M9.94,62.24a14.71,14.71,0,0,1-3.34.26,26.93,26.93,0,0,1-4-.26c.44-.27,4.75-2.64,4.93-2.9l1.22.58.71.34Z"/><path class="cls-29" d="M9.94,62.24a14.71,14.71,0,0,1-3.34.26,26.93,26.93,0,0,1-4-.26s.84,0,2.33-.05a22.38,22.38,0,0,0,3.69-.57A8.7,8.7,0,0,0,8.71,60l.08,0,.71.34Z"/><path class="cls-30" d="M60.69,60.19c0,.59-.69,1.06-1.55,1.06H26.19c-.86,0-1.56-.47-1.56-1.06a.89.89,0,0,1,.42-.71l0,0a2,2,0,0,1,1.11-.31h33C60,59.14,60.69,59.61,60.69,60.19Z"/><path class="cls-31" d="M60.69,60.19c0,.59-.69,1.06-1.55,1.06H57c-1.36-.33-2.55-.61-2.63-.59s-11,.39-14.64.3c-3.39-.08-11.37-.59-14.67-1.48l0,0a2,2,0,0,1,1.11-.31h33C60,59.14,60.69,59.61,60.69,60.19Z"/><path class="cls-2" d="M54,57.12l-.53-.63-.13-.14a8.15,8.15,0,0,0-1.62-1.12,4.92,4.92,0,0,0,1.39-.8,1.79,1.79,0,0,0,.29-.24,3.31,3.31,0,0,0,.49,1.61,3.46,3.46,0,0,0,1.24.44.72.72,0,0,0-.08.43s0,0,0,.06h0Z"/><path class="cls-32" d="M54,57.12l-.53-.63-.13-.14.07-.11s-.11-.57-.15-.9a7,7,0,0,0-.15-.91,1.79,1.79,0,0,0,.29-.24,3.31,3.31,0,0,0,.49,1.61,3.46,3.46,0,0,0,1.24.44.72.72,0,0,0-.08.43s0,0,0,.06h0Z"/><path class="cls-2" d="M53.79,58.8s-.75,0-.94-.4-.09-.38-.09-.38.43-.5.8-.86A3.76,3.76,0,0,1,55,56.67a.93.93,0,0,0,.27.56c.49.53,1.22.65,1.35.24a.76.76,0,0,0-.22-.59,2,2,0,0,0-.32-.34,3.14,3.14,0,0,0-.57-.32c-.07,0-.17-.43-.17-.43a7.36,7.36,0,0,0,1.35.13,5.65,5.65,0,0,1,1.53.23,1.51,1.51,0,0,0,.6-.37h0l.11-.1.19-.2.08-.07s.1-.09.15-.14a9.07,9.07,0,0,1,1.32-.77c.33-.14.52-.23.46-.34a1.38,1.38,0,0,0-.43-.28,3.12,3.12,0,0,0-.31-.16l.21-.18.06-.06h0a2.16,2.16,0,0,1,.29-.21.68.68,0,0,1,.58-.14c.43.13.67.43.9,1.09a2,2,0,0,1,.06.87,8.63,8.63,0,0,1-.23,1.06h0a.74.74,0,0,0,0,.14c-.09.26-.19.55-.32.84l-.06.13c-.1.2-.21.4-.33.59-.8,1.21-1.62,1.16-1.62,1.16a2.25,2.25,0,0,1-1.77.76,5,5,0,0,1-.86-.06A9.86,9.86,0,0,1,55,59s-1.44.14-1.79.52C53.23,59.56,53.43,59,53.79,58.8Z"/><path class="cls-32" d="M59.22,55.41s.1-.09.15-.14a9.07,9.07,0,0,1,1.32-.77c.33-.14.52-.23.46-.34a1.38,1.38,0,0,0-.43-.28,3.12,3.12,0,0,0-.31-.16,4.4,4.4,0,0,1,.56-.45.87.87,0,0,1,.5.47s.28.3.24.49-.49.28-.49.28S60,55,60,55,59.45,55.31,59.22,55.41Z"/><path class="cls-32" d="M53.79,58.8s-.75,0-.94-.4-.09-.38-.09-.38.43-.5.8-.86A3.76,3.76,0,0,1,55,56.67a.93.93,0,0,0,.27.56c.49.53,1.22.65,1.35.24a.76.76,0,0,0-.22-.59,2,2,0,0,0-.32-.34,3.14,3.14,0,0,0-.57-.32c-.07,0-.17-.43-.17-.43a7.36,7.36,0,0,0,1.35.13,5.65,5.65,0,0,1,1.53.23,1.51,1.51,0,0,0,.6-.37c-.21.27-.48.63-.6.75A9.12,9.12,0,0,0,57,57.73l0,0c-.13.3.32,0,.44.1s-.49.37-.54.55c0,0,.34-.1.43,0s-.36.68-.33.75.18.38.28.59A9.86,9.86,0,0,1,55,59s-1.44.14-1.79.52C53.23,59.56,53.43,59,53.79,58.8Z"/><path class="cls-2" d="M55,56.67s0,0,0,.06l.07-.49A.72.72,0,0,0,55,56.67Z"/><path class="cls-2" d="M55.28,57.23a1,1,0,0,1-.26-.5h0a.13.13,0,0,1,0-.06.72.72,0,0,1,.08-.43,3.46,3.46,0,0,1-1.24-.44,3.31,3.31,0,0,1-.49-1.61c0-.18,0-.36-.06-.52a2.65,2.65,0,0,1,.15-1.53h0c.16,0,.51,0,1.14-.12l.28,0H55a4.86,4.86,0,0,1,.81,0,1.17,1.17,0,0,1,.55-.85h0A2.9,2.9,0,0,0,58,53.07c.07.06.16-.06.54-.15s.39,0,.93.33a8.76,8.76,0,0,0,.93.47l.31.16a2.28,2.28,0,0,1,.4.24l0,0c.06.11-.13.2-.46.34s-.42.23-.7.37a3.09,3.09,0,0,0-.62.4,2.23,2.23,0,0,0-.22.21h0l-.19.2a1.87,1.87,0,0,1-.72.47,5.65,5.65,0,0,0-1.53-.23,7.36,7.36,0,0,1-1.35-.13s.1.4.17.43a3.14,3.14,0,0,1,.57.32c.11.11.7.58.56.92S55.77,57.76,55.28,57.23Z"/><path class="cls-2" d="M59.14,55.48l.23-.21a2.23,2.23,0,0,0-.22.21Z"/><path class="cls-2" d="M59.14,55.48l.23-.21a2.23,2.23,0,0,0-.22.21Z"/><path class="cls-32" d="M55.28,57.23a1,1,0,0,1-.26-.5h0a.13.13,0,0,1,0-.06.72.72,0,0,1,.08-.43,3.46,3.46,0,0,1-1.24-.44,3.31,3.31,0,0,1-.49-1.61c0-.18,0-.36-.06-.52a2.65,2.65,0,0,1,.15-1.53c-.19,1.3.49,2.92,1,3.15a5.75,5.75,0,0,0,2.39.31c1.21,0,1.71-.05,1.71-.05L60,54.64a6.63,6.63,0,0,1,1.12-.52l0,0c.06.11-.13.2-.46.34s-.42.23-.7.37a3.09,3.09,0,0,0-.62.4,2.23,2.23,0,0,0-.22.21h0l-.19.2a1.87,1.87,0,0,1-.72.47,5.65,5.65,0,0,0-1.53-.23,7.36,7.36,0,0,1-1.35-.13s.1.4.17.43a3.14,3.14,0,0,1,.57.32c.11.11.7.58.56.92S55.77,57.76,55.28,57.23Z"/><path class="cls-2" d="M56.37,57.35c0-.29-.36-.72-1-1,0,0-.17.32,0,.46s.34-.19.34-.19Z"/><path class="cls-32" d="M55.81,52a1.17,1.17,0,0,1,.55-.85h0S56,52.09,55.81,52Z"/><path class="cls-2" d="M58.46,52.94a.59.59,0,0,1,.39-.06c.2,0,.35.42.28.94a1.43,1.43,0,0,1-.59,1,4.23,4.23,0,0,0,.17-1.12A1,1,0,0,0,58.46,52.94Z"/><path class="cls-33" d="M58.27,56.66c0-.17.07-.34.12-.51l.57-.38a3.87,3.87,0,0,1,.83-.38l-.13.27Z"/><g class="cls-34"><g class="cls-35"><path class="cls-2" d="M57.28,57.7v0h0A23.06,23.06,0,0,1,60,56.17l1.24-.65c.54-.29.84-.58.91-.89A.71.71,0,0,0,62,54a1.62,1.62,0,0,0-1.38-.47l.06-.06h0a1.65,1.65,0,0,1,1.37.5.85.85,0,0,1,.15.67c-.08.31-.39.62-.94.92L60,56.22a25.61,25.61,0,0,0-2.69,1.48S57.29,57.71,57.28,57.7Z"/></g><g class="cls-35"><path class="cls-2" d="M57.19,58.23a0,0,0,0,1,0,0v0a8.72,8.72,0,0,1,4-1.47,1.43,1.43,0,0,0,1.05-.56.74.74,0,0,0,0,.14,1.55,1.55,0,0,1-1,.47,8.64,8.64,0,0,0-4,1.47S57.2,58.24,57.19,58.23Z"/></g><g class="cls-35"><path class="cls-2" d="M59.12,57.91a0,0,0,0,1,0,0h0s0,0,0,0a3.69,3.69,0,0,0,2.59-.56,1.54,1.54,0,0,0,.19-.17l-.06.13-.1.08A3.73,3.73,0,0,1,59.12,57.91Z"/></g></g><path class="cls-2" d="M58,54.74a4.26,4.26,0,0,0-.13-.72,2.67,2.67,0,0,0-.14-.34c-.08-.18-.17-.32-.18-.35h0c.18-.06.88.15.92.37h0A1.47,1.47,0,0,1,58,54.74Z"/><path class="cls-2" d="M57.9,53.77l-.21-.09c-.08-.18-.17-.32-.18-.35h0c.18-.06.88.15.92.37h0A.59.59,0,0,1,57.9,53.77Z"/><path class="cls-2" d="M58.22,53.5c.05,0,.19.22,0,.67a1.57,1.57,0,0,1-.3.57s.19,0,.38-.33a.84.84,0,0,0,.13-.74A.25.25,0,0,0,58.22,53.5Z"/><path class="cls-36" d="M58.22,53.5a.41.41,0,0,1,.16.38,1.38,1.38,0,0,1-.42.86,3.08,3.08,0,0,0,.28-.75A.73.73,0,0,0,58.22,53.5Z"/><path class="cls-2" d="M58.05,53.88a.07.07,0,0,1,0-.09s.06-.07.1,0a.07.07,0,0,1,0,.1A.06.06,0,0,1,58.05,53.88Z"/><path class="cls-2" d="M54.92,53.13a.6.6,0,0,1,0-.49,1.63,1.63,0,0,0,0-.66H55a1.73,1.73,0,0,1,0,.68.56.56,0,0,0,0,.4.18.18,0,0,0,.08,0,.05.05,0,0,1,.05.06.06.06,0,0,1-.06,0A.21.21,0,0,1,54.92,53.13Z"/><path class="cls-37" d="M50.14,59.38s-3.43.44-7.57.79-12.75-.53-13.28-.53l.27-1,.44-.14c1.08-.32,3.9-1.17,6.64-2.11,3.51-1.2,9.1-3.56,9.54-3.47l3.43.7.26,2.84Z"/><path class="cls-16" d="M49.76,55.2a17.3,17.3,0,0,0-3.32-1.36l-.17-.05-.35-.74a23.7,23.7,0,0,1,3.76,1.22Z"/><path class="cls-38" d="M119.78,59.69c0,2.55-.16,5.11-.59,5.49a2.14,2.14,0,0,1-1,.38l-.54.1-.84.1-.52,0c-.51,0-1,0-1.55,0h-.53l-1.06-.07-.53-.08a2.64,2.64,0,0,1-.51-.13c-.56-.26-.88-2.75-1.05-5.05-.13-1.67-.18-3.23-.18-3.75l1.54-.43.52-.15.86-.24.52-.14,1.79-.5.53-.15,1.58-.45.54-.15.92-.25S119.81,57,119.78,59.69Z"/><g class="cls-39"><path class="cls-40" d="M113.19,65.75l-.53-.08c0-2.05-.15-6.67-.2-9.36l.52-.15C113,58.86,113.14,63.72,113.19,65.75Z"/></g><g class="cls-39"><path class="cls-40" d="M114.78,65.83h-.53c-.13-2.82-.31-7.18-.41-9.9l.52-.14C114.46,58.49,114.65,63,114.78,65.83Z"/></g><g class="cls-39"><path class="cls-40" d="M116.85,65.76l-.52,0c0-3-.13-7.61-.18-10.52l.53-.15C116.73,58,116.8,62.73,116.85,65.76Z"/></g><g class="cls-39"><path class="cls-40" d="M118.8,54.53c-.18,3.48-.42,8.1-.57,11l-.54.1c.17-3.17.43-8.3.57-11Z"/></g><path class="cls-41" d="M119.78,59.69a25.74,25.74,0,0,0-8.68.8c-.13-1.67-.18-3.23-.18-3.75l1.54-.43.52-.15.86-.24.52-.14,1.79-.5.53-.15,1.58-.45.54-.15.92-.25S119.81,57,119.78,59.69Z"/><path class="cls-38" d="M58.23,56.57s0,2-.09,4a12.56,12.56,0,0,1-.53,3.84,1.37,1.37,0,0,1-.79.42,3.77,3.77,0,0,1-.53.12,6,6,0,0,1-.63.08,4.58,4.58,0,0,1-.53,0A10.89,10.89,0,0,1,54,65l-.54,0c-.34,0-.68-.12-1-.2a4.27,4.27,0,0,1-.54-.18,2.44,2.44,0,0,1-1.16-.81,29.32,29.32,0,0,1-.83-5.22c-.23-2.14-.4-4.11-.4-4.11l1.52.37.55.14,1.26.3.54.13,1.71.42.53.12.92.23.52.12Z"/><g class="cls-39"><path class="cls-40" d="M52.45,64.77a4.27,4.27,0,0,1-.54-.18c-.25-2.67-.62-6.93-.87-9.77l.55.14C51.84,57.87,52.21,62.18,52.45,64.77Z"/></g><g class="cls-39"><path class="cls-40" d="M55.66,65a4.58,4.58,0,0,1-.53,0c0-2.88-.05-6.7,0-9.23l.53.12C55.61,58.27,55.63,61.79,55.66,65Z"/></g><g class="cls-39"><path class="cls-40" d="M54,65l-.54,0-.6-9.71.54.13Z"/></g><g class="cls-39"><path class="cls-40" d="M57.07,56.28c0,2.24-.15,6-.25,8.53a3.77,3.77,0,0,1-.53.12c.12-3.06.25-6.74.26-8.77Z"/></g><path class="cls-41" d="M58.23,56.57s0,2-.09,4a20.12,20.12,0,0,0-8.22-2c-.23-2.14-.4-4.11-.4-4.11l1.52.37.55.14,1.26.3.54.13,1.71.42.53.12.92.23.52.12Z"/><path class="cls-2" d="M121.92,17.33l-.53,3.83c-1.58,1.05-6.86-.4-6.86-.4s0-.68.13-1.49c.11-1.11.3-2.44.53-2.46a28,28,0,0,1,6.27.44Z"/><path class="cls-42" d="M121.92,17.33l-.53,3.83c-1.58,1.05-6.86-.4-6.86-.4s0-.68.13-1.49a10,10,0,0,0,4.49-.09,9.43,9.43,0,0,0,2.31-1.93Z"/><path class="cls-2" d="M53.7,20.24a13.52,13.52,0,0,1-7.78.79l-.38-1.69-.41-1.87c3-1.32,7.91-.93,7.91-.93l.07.35Z"/><path class="cls-42" d="M53.7,20.24a13.52,13.52,0,0,1-7.78.79l-.38-1.69c2.45.51,4.34.46,5.52-.29a8.26,8.26,0,0,0,2-2.16Z"/><path class="cls-2" d="M119.89,55.25S101.07,60.52,85,60.17A148.54,148.54,0,0,1,66.1,58.32c-9.36-1.47-16.67-3.25-16.67-3.25s0-.39,0-1.08c-.13-3.85-.49-17,.21-22.76a17.91,17.91,0,0,1,2.21-4.82c1.24-2.13,2.54-4.06,2.54-4.06,2.2-7,7.74-19.8,8.89-20.76A186.81,186.81,0,0,1,82.69,0C90.26-.07,104.63,1.32,106,2.55s7.79,18.21,7.79,18.21,1.21,2,2.58,4.29a49.13,49.13,0,0,1,3.75,7.24C120.69,34.57,119.89,55.25,119.89,55.25Z"/><path class="cls-43" d="M119.89,55.25S101.07,60.52,85,60.17s-35.54-5.1-35.54-5.1,0-.39,0-1.08l9.71,2.27a129,129,0,0,0,16.76,2.37,103.31,103.31,0,0,0,19.92-1.05c3.17-2.91,13-21,13-21a39,39,0,0,0,7.51-11.55,49.13,49.13,0,0,1,3.75,7.24C120.69,34.57,119.89,55.25,119.89,55.25Z"/><path class="cls-44" d="M66.1,58.32c-9.36-1.47-16.67-3.25-16.67-3.25s0-.39,0-1.08c-.13-3.85-.49-17,.21-22.76a17.91,17.91,0,0,1,2.21-4.82c.85,1.62,3.09,4,7.16,9.92C63.59,43,67.19,52.34,66.1,58.32Z"/><path class="cls-45" d="M110.57,22.35s-19-.27-29.82-.53-23.88.39-23.88.39l1.32-3.33,3.47-8.72,2.23-5.61.59-1.47L65.4,3c3.86-.38,19.16-1.71,31.45-.48a56,56,0,0,1,7.37,1.19l.68.17.43,1.42.63,2,.82,2.68,1.11,3.6Z"/><path class="cls-46" d="M110.57,22.35s-19-.27-29.82-.53-23.88.39-23.88.39l1.32-3.33c8,.48,21.3,1.5,30.74-1.81,6.92-2.43,14-5.41,17.85-7.06l1.11,3.6Z"/><path class="cls-47" d="M51.33,47.94s.66,5.41,2.9,5.94,3.43-4.75,3.43-4.75Z"/><path class="cls-48" d="M111.23,49s1.45,5.15,3.56,4.75,3-6.2,3-6.2Z"/><path class="cls-49" d="M114.79,19.27l-1.28,1.1.92,1.5s5.11.12,7-.71a30.32,30.32,0,0,1-4.13-.22A3.65,3.65,0,0,1,114.79,19.27Z"/><path class="cls-49" d="M45.92,21a28.65,28.65,0,0,0,4.92,0,3.87,3.87,0,0,0,2.64-1.5l1.67,1.67-.26,1.24s-2.9.08-4.57-.09A21.07,21.07,0,0,1,45.92,21Z"/><path class="cls-50" d="M110.57,22.35s-19-.27-29.82-.53-23.88.39-23.88.39L64.48,3.08,65.4,3c-1.9,4.77-6.11,16-7.08,18.43,0,0,12.8-.79,23.88-.52s26.79.52,26.79.52L104.22,3.7l.68.17L106,7.33l1.93,6.28Z"/><path class="cls-51" d="M116.47,42.75c-3.19,1.91-8.54,1.26-9.65,1.1l-.21,0c-.28-.62,4.86-9,11.58-10.26a.18.18,0,0,0,0,0h0C118.36,34.24,119.87,40.71,116.47,42.75Z"/><path class="cls-52" d="M109,40.82a3,3,0,1,1,3,3A3,3,0,0,1,109,40.82Z"/><path class="cls-53" d="M116.47,42.75c-3.19,1.91-8.54,1.26-9.65,1.1,1.54-.18,6.48-1,8.76-3.38a9.31,9.31,0,0,0,2.62-6.86C118.36,34.24,119.87,40.71,116.47,42.75Z"/><path class="cls-54" d="M63.2,43.17l-.71.09c-1.78.2-6.5.51-9.44-1.09-3.68-2-1.77-8.61-1.77-8.61h0C58.2,34.72,63.5,42.6,63.2,43.17Z"/><path class="cls-52" d="M54.49,40.36a3,3,0,1,1,3,3A3,3,0,0,1,54.49,40.36Z"/><path class="cls-53" d="M62.49,43.26c-1.78.2-6.5.51-9.44-1.09-3.68-2-1.77-8.61-1.77-8.61h0C51.86,36.43,54.57,41.91,62.49,43.26Z"/><path class="cls-55" d="M115,28.24c0,.7-2,3.34-6.16,8.36a106.25,106.25,0,0,1-16.39,1.69l-1.94.05c-1,0-2,0-3,0-4.24,0-8.36,0-12.08-.15l-1.52-.05c-6.44-.24-11.48-.83-13.57-2.44-3.44-2.64-6-7.3-6-8A23,23,0,0,1,57,21.82l8.2.05,3.93,0,27.61.18,4.4,0,9.34.06S115,27.54,115,28.24Z"/><path class="cls-56" d="M75.44,38.21l-1.52-.05c-2.08-4.39-6-12.36-8.72-16.29l3.93,0A103.09,103.09,0,0,1,75.44,38.21Z"/><path class="cls-56" d="M101.14,22.11C98.62,26,94.42,34.3,92.42,38.29l-1.94.05a141.65,141.65,0,0,1,6.26-16.26Z"/><path class="cls-57" d="M94.6,57.31l-20-.52s-.13-4.76-.13-5.28l20,.39Z"/><path class="cls-58" d="M94.47,51.9l.13,5.41L86,57.08c.73-1.57,1.6-3.7,2.21-5.3Z"/><path class="cls-2" d="M108,39.76s-.39.74-1,1.74c-.28.5-.61,1.06-1,1.62s-.7,1.13-1,1.64a12.06,12.06,0,0,1-1.23,1.61,2.18,2.18,0,0,1-.39.34c-1.81,1.16-11.53,2.94-16.17,3.39a13.15,13.15,0,0,1-2.17.09c-2.25-.27-17.16-3.57-18-4.09a1.24,1.24,0,0,1-.21-.2A18.27,18.27,0,0,1,65.66,44c-.43-.67-.88-1.43-1.31-2.15-.33-.55-.64-1.09-.9-1.54L62.68,39,93,39.5Z"/><path class="cls-59" d="M107.06,41.5c-.28.5-.61,1.06-1,1.62-5.19.12-16.2.37-19.29.47-3.43.11-17.87-1.26-22.47-1.71-.33-.55-.64-1.09-.9-1.54,4.67.35,15.36,1.1,23.77,1.4C95.08,42,103.08,41.71,107.06,41.5Z"/><path class="cls-59" d="M105.07,44.76a12.06,12.06,0,0,1-1.23,1.61c-4.88.35-17.26,1.23-18.73,1.44S71.29,46.46,67,45.9A18.27,18.27,0,0,1,65.66,44c5.33.66,17.08,2.07,19.45,2.07S100.54,45.11,105.07,44.76Z"/><path class="cls-60" d="M108,39.76s-3.24,6.1-4.57,7c-1.81,1.16-11.53,2.94-16.17,3.39.23-.3.43-.59.6-.84.75-1.13,3.41-6.3,5.14-9.76Z"/><path class="cls-50" d="M110.48,22.17s-16.56-.39-24.93-.47H83c-6.86,0-26.12.52-26.12.52a107.17,107.17,0,0,1,26.78-2.77l2.95.11A186.71,186.71,0,0,1,110.48,22.17Z"/><path class="cls-61" d="M110.58,22.35S93.82,22,85.44,21.9a18.29,18.29,0,0,0,1.16-2.35A170.59,170.59,0,0,1,110.58,22.35Z"/><path class="cls-62" d="M96.85,2.51C91.67,5,82.89,8.88,77.32,9.94c-7.35,1.4-10.47,1.57-15.66.22l2.23-5.61.59-1.47L65.4,3C69.26,2.61,84.56,1.28,96.85,2.51Z"/><g class="cls-63"><path class="cls-64" d="M86.55,39.17l-2.11,0a158.43,158.43,0,0,1-25.52-2.52h-.08l-.06-.06a15.79,15.79,0,0,1-4.72-8.8v-.09l0-.08,2.85-5.31.28,0-2.53,5.51a15.43,15.43,0,0,0,4.44,8.3,158.23,158.23,0,0,0,25.33,2.48,112.08,112.08,0,0,0,24.76-2.21c.54-.68,4.29-5.41,5.41-8l-4.38-5.93.48,0,4.6,5.88-.07.16c-1.14,2.87-5.45,8.21-5.63,8.44l-.06.08-.11,0A109.57,109.57,0,0,1,86.55,39.17Z"/></g><path class="cls-62" d="M107.89,13.61l-6.29,1.22C95.4,16,84.71,19.05,84.71,19.05L79.43,15C85.18,11.55,99.29,8.67,106,7.33Z"/><path class="cls-50" d="M105.33,5.29A100.83,100.83,0,0,0,85.11,3.48,166.38,166.38,0,0,0,63.89,4.55l.59-1.47L65.4,3c4.7-.46,26.26-2.33,38.82.71l.68.17Z"/><path class="cls-65" d="M41.69,54.85,29.8,58.51l-.1,0-.14.05-.27,1s-.37,0-.91-.08c-1.13-.14-3-.49-3.92-1.32C23.14,57,16.8,47.9,16.8,47.9a8.81,8.81,0,0,1-.62,4.18C15.31,54,9.45,60.3,9.45,60.3a2.56,2.56,0,0,1-.85-.14,3.34,3.34,0,0,1-1.12-.6S12.05,46,13.28,43.81s3-5.1,5.9-2.81c2.42,1.9,9.32,9.28,11.53,11.65l.69.75h.16l2.22-.15,6-.42.58,0A11.93,11.93,0,0,0,41.69,54.85Z"/><path class="cls-38" d="M27.27,62.24a1.06,1.06,0,0,1-.34.78,1.08,1.08,0,0,1-1.82-.78.94.94,0,0,1,.05-.3,1.08,1.08,0,0,1,2.11.3Z"/><path class="cls-66" d="M25.47,62.28a.7.7,0,1,1,1.4,0,.7.7,0,1,1-1.4,0Z"/><path class="cls-67" d="M27.27,62.24a1.06,1.06,0,0,1-.34.78c-.5-.33-1.19-.76-1.77-1.08a1.08,1.08,0,0,1,2.11.3Z"/><path class="cls-38" d="M39.94,62.33a1.08,1.08,0,0,1-.34.77,1,1,0,0,1-.74.3,1.07,1.07,0,0,1-1.08-1.07,1.55,1.55,0,0,1,0-.31,1.08,1.08,0,0,1,2.12.31Z"/><path class="cls-66" d="M38.13,62.37a.71.71,0,1,1,.71.7A.7.7,0,0,1,38.13,62.37Z"/><path class="cls-67" d="M39.94,62.33a1.08,1.08,0,0,1-.34.77c-.5-.32-1.2-.76-1.78-1.08a1.08,1.08,0,0,1,2.12.31Z"/><path class="cls-38" d="M51.28,62.19A1.08,1.08,0,0,1,51,63a1,1,0,0,1-.74.3,1.08,1.08,0,0,1-1.08-1.08,1,1,0,0,1,0-.3,1.08,1.08,0,0,1,2.11.3Z"/><path class="cls-66" d="M49.48,62.24a.71.71,0,1,1,.7.7A.7.7,0,0,1,49.48,62.24Z"/><path class="cls-67" d="M51.28,62.19A1.08,1.08,0,0,1,51,63c-.51-.32-1.2-.75-1.78-1.08a1.08,1.08,0,0,1,2.11.3Z"/><path class="cls-68" d="M31.56,53.39a12.26,12.26,0,0,0-1.48,3.66c-.13.54-.26,1.05-.38,1.49l-.14.05-.27,1s-.37,0-.91-.08c.27-.9.78-2.57,1.26-4s.85-2.35,1.07-3l.69.75Z"/><path class="cls-69" d="M29.8,58.51l-.24.08-.27,1s-3.52-.17-4.83-1.4S16.8,47.9,16.8,47.9a8.81,8.81,0,0,1-.62,4.18C15.31,54,9.45,60.3,9.45,60.3a2.56,2.56,0,0,1-.85-.14c.86-1,3.83-4.35,4.81-6.28a65.42,65.42,0,0,0,2.69-8.27s4,5.11,5.94,7.44C23.76,55.13,27.56,57.42,29.8,58.51Z"/><path class="cls-70" d="M50.14,59.38s-3.43.44-7.57.79-12.75-.53-13.28-.53l.27-1,.44-.14a88.86,88.86,0,0,0,9.41.14,24.55,24.55,0,0,0,4.44-.53s4.35-1,5.19-1.32l.83-.33Z"/><path class="cls-71" d="M48.22,59.17a2.52,2.52,0,0,1-.94.47c-1.28.36-3.69-1.45-4.71-3,0,0,.54,0,1.19,0a3.63,3.63,0,0,0,1.54-.35,8.18,8.18,0,0,0,1.9-1.81A8.79,8.79,0,0,1,49,57.23,2,2,0,0,1,48.22,59.17Z"/><path class="cls-70" d="M48.22,59.17a2.52,2.52,0,0,1-.94.47c-1.28.36-3.69-1.45-4.71-3,0,0,.54,0,1.19,0a6.92,6.92,0,0,0,2.68,2A14.66,14.66,0,0,0,48.22,59.17Z"/><path class="cls-72" d="M45.21,51.82l2,2.72,0,0A6.11,6.11,0,0,1,45.3,56.3a3.5,3.5,0,0,1-1.51.47,3.82,3.82,0,0,1-1.22-.12c-.26-.35-3.07-4.48-3.07-5.72,0,0,1.44-.86,3.12-1.75a26.35,26.35,0,0,1,3.87-1.76c2.28-.71,2.81-.84,2.81-.84v0L49.35,49Z"/><path class="cls-4" d="M43.79,56.77a3.82,3.82,0,0,1-1.22-.12c-.26-.35-3.07-4.48-3.07-5.72,0,0,1.44-.86,3.12-1.75a10.09,10.09,0,0,0-1.41,2A6.37,6.37,0,0,0,42,53.31C42.7,54.58,43.18,55.89,43.79,56.77Z"/><path class="cls-4" d="M45.21,51.82l2,2.72,0,0-.15,0c-.22-.39-2.64-3-2.64-3s1.5-1.54,2.77-2.73c.65-.6,1.47-1.46,2.11-2.17L49.35,49Z"/><path class="cls-73" d="M40,53.57l-1.45.18c-1.1.13-5,.44-5,.44l.22-.95,6-.42Z"/></g></g></g></svg>