<svg xmlns="http://www.w3.org/2000/svg" xmlns:xlink="http://www.w3.org/1999/xlink" viewBox="0 0 117.68 117.56"><defs><style>.cls-1{isolation:isolate;}.cls-2{fill:#e1894e;}.cls-105,.cls-15,.cls-19,.cls-2,.cls-21,.cls-39,.cls-42,.cls-43,.cls-86,.cls-88,.cls-90{opacity:0.4;}.cls-10,.cls-102,.cls-103,.cls-105,.cls-15,.cls-17,.cls-19,.cls-2,.cls-21,.cls-27,.cls-33,.cls-34,.cls-39,.cls-4,.cls-42,.cls-43,.cls-48,.cls-54,.cls-55,.cls-61,.cls-62,.cls-66,.cls-68,.cls-69,.cls-7,.cls-70,.cls-71,.cls-72,.cls-73,.cls-75,.cls-76,.cls-77,.cls-78,.cls-79,.cls-8,.cls-80,.cls-84,.cls-86,.cls-91,.cls-97,.cls-98{mix-blend-mode:multiply;}.cls-3{fill:url(#linear-gradient);}.cls-102,.cls-103,.cls-27,.cls-4,.cls-69,.cls-71,.cls-72,.cls-73,.cls-75,.cls-76,.cls-97{opacity:0.5;}.cls-4{fill:url(#linear-gradient-2);}.cls-5{fill:#ed6519;}.cls-6{fill:url(#linear-gradient-3);}.cls-10,.cls-33,.cls-34,.cls-54,.cls-68,.cls-7,.cls-70,.cls-77,.cls-78,.cls-79,.cls-8,.cls-80,.cls-84,.cls-91,.cls-92,.cls-98{opacity:0.3;}.cls-7{fill:url(#linear-gradient-4);}.cls-8{fill:url(#linear-gradient-5);}.cls-9{fill:url(#linear-gradient-6);}.cls-10{fill:#e69576;}.cls-11{fill:url(#linear-gradient-7);}.cls-12{fill:url(#linear-gradient-8);}.cls-13{fill:#301d12;}.cls-14,.cls-68{fill:#206145;}.cls-15{fill:#0e1d28;}.cls-16,.cls-17{fill:#dbbc85;}.cls-18{fill:url(#linear-gradient-9);}.cls-19{fill:url(#linear-gradient-10);}.cls-20{fill:url(#linear-gradient-11);}.cls-21{fill:url(#linear-gradient-12);}.cls-22{fill:#fff;}.cls-23,.cls-48,.cls-60{fill:#dd7553;}.cls-24{fill:#42552b;}.cls-25{fill:url(#linear-gradient-13);}.cls-26{fill:url(#linear-gradient-14);}.cls-27{fill:#919191;}.cls-28{fill:url(#linear-gradient-15);}.cls-29{fill:url(#linear-gradient-16);}.cls-30{fill:url(#linear-gradient-17);}.cls-31{fill:url(#linear-gradient-18);}.cls-32{fill:url(#linear-gradient-19);}.cls-33{fill:url(#linear-gradient-20);}.cls-34{fill:url(#linear-gradient-21);}.cls-35{fill:url(#linear-gradient-22);}.cls-36{fill:url(#linear-gradient-23);}.cls-37{fill:url(#linear-gradient-24);}.cls-38{fill:url(#linear-gradient-25);}.cls-39,.cls-51{fill:#103f3e;}.cls-40{fill:#b94e48;}.cls-41,.cls-42{fill:#666c80;}.cls-43{fill:#2d4549;}.cls-44{fill:#b6c0ca;}.cls-45{fill:url(#linear-gradient-26);}.cls-46{fill:url(#linear-gradient-27);}.cls-47{fill:url(#linear-gradient-28);}.cls-48{opacity:0.2;}.cls-49,.cls-54{fill:#8a523d;}.cls-50{fill:url(#linear-gradient-29);}.cls-52{fill:#7f4230;}.cls-53{fill:#6e4235;}.cls-55{fill:#bae0dc;opacity:0.39;}.cls-56{fill:#fab109;}.cls-57{fill:#f7993b;}.cls-58{fill:url(#linear-gradient-30);}.cls-59,.cls-61,.cls-62{fill:#592f13;}.cls-60{opacity:0.38;}.cls-61{opacity:0.22;}.cls-62{opacity:0.25;}.cls-63{fill:#3d261f;}.cls-64{fill:url(#linear-gradient-31);}.cls-65{fill:url(#linear-gradient-32);}.cls-66{fill:#979797;opacity:0.27;}.cls-67{fill:url(#linear-gradient-33);}.cls-69{fill:url(#linear-gradient-34);}.cls-70{fill:url(#linear-gradient-35);}.cls-71{fill:url(#linear-gradient-36);}.cls-72{fill:url(#linear-gradient-37);}.cls-73{fill:url(#linear-gradient-38);}.cls-74{fill:#1e614c;}.cls-75{fill:url(#linear-gradient-39);}.cls-76{fill:url(#linear-gradient-40);}.cls-77{fill:url(#linear-gradient-41);}.cls-78{fill:url(#linear-gradient-42);}.cls-79{fill:url(#linear-gradient-43);}.cls-80{fill:url(#linear-gradient-44);}.cls-81{fill:#1e232b;}.cls-82{fill:#111419;}.cls-83{fill:#464a51;}.cls-84{fill:#111919;}.cls-85,.cls-86{fill:#263a3a;}.cls-87,.cls-88{fill:#46676c;}.cls-88,.cls-90,.cls-92{mix-blend-mode:screen;}.cls-89{fill:url(#linear-gradient-45);}.cls-90,.cls-91{fill:#8da5b0;}.cls-92{fill:#7ab3b8;}.cls-93{fill:#2d4649;}.cls-94{fill:#ef1a21;}.cls-95{fill:#bf1623;}.cls-96{fill:#0b132b;}.cls-97{fill:#6ca5a6;}.cls-98{fill:#669b9c;}.cls-99{fill:#ff7f32;}.cls-100{fill:url(#linear-gradient-46);}.cls-101{fill:url(#linear-gradient-47);}.cls-102{fill:url(#linear-gradient-48);}.cls-103{fill:url(#linear-gradient-49);}.cls-104,.cls-105{fill:#78423c;}</style><linearGradient id="linear-gradient" x1="39.37" y1="58.43" x2="39.42" y2="82.24" gradientUnits="userSpaceOnUse"><stop offset="0.01" stop-color="#10534c"/><stop offset="0.98" stop-color="#104430"/></linearGradient><linearGradient id="linear-gradient-2" x1="38.48" y1="64.89" x2="43.17" y2="79.43" gradientUnits="userSpaceOnUse"><stop offset="0" stop-color="#1e614c"/><stop offset="0.98" stop-color="#104d30"/></linearGradient><linearGradient id="linear-gradient-3" x1="44.52" y1="80.21" x2="40.05" y2="102.42" gradientUnits="userSpaceOnUse"><stop offset="0.02" stop-color="#104d30"/><stop offset="1" stop-color="#103f3e"/></linearGradient><linearGradient id="linear-gradient-4" x1="39.93" y1="109.52" x2="40.17" y2="95.17" xlink:href="#linear-gradient-2"/><linearGradient id="linear-gradient-5" x1="43.99" y1="109.23" x2="44.19" y2="96.71" xlink:href="#linear-gradient-2"/><linearGradient id="linear-gradient-6" x1="39.86" y1="60.82" x2="40.14" y2="59.23" gradientUnits="userSpaceOnUse"><stop offset="0" stop-color="#f1c7a3"/><stop offset="1" stop-color="#f0a98b"/></linearGradient><linearGradient id="linear-gradient-7" x1="39.97" y1="60.66" x2="40.15" y2="53.7" xlink:href="#linear-gradient-6"/><linearGradient id="linear-gradient-8" x1="39.3" y1="58.95" x2="40.25" y2="53.44" xlink:href="#linear-gradient-6"/><linearGradient id="linear-gradient-9" x1="38.33" y1="113.28" x2="38.36" y2="111.53" gradientUnits="userSpaceOnUse"><stop offset="0" stop-color="#293232"/><stop offset="0.98" stop-color="#202329"/></linearGradient><linearGradient id="linear-gradient-10" x1="38.33" y1="113.31" x2="38.34" y2="112.43" xlink:href="#linear-gradient-9"/><linearGradient id="linear-gradient-11" x1="49.78" y1="112.59" x2="49.81" y2="111.11" xlink:href="#linear-gradient-9"/><linearGradient id="linear-gradient-12" x1="49.78" y1="112.62" x2="49.79" y2="112.07" xlink:href="#linear-gradient-9"/><linearGradient id="linear-gradient-13" x1="37.52" y1="54.78" x2="39.43" y2="54.78" gradientUnits="userSpaceOnUse"><stop offset="0.01" stop-color="#9f6e47"/><stop offset="1" stop-color="#3d2a18"/></linearGradient><linearGradient id="linear-gradient-14" x1="41.35" y1="54.6" x2="43.13" y2="54.6" xlink:href="#linear-gradient-13"/><linearGradient id="linear-gradient-15" x1="22.65" y1="54.03" x2="22.9" y2="52.56" xlink:href="#linear-gradient-6"/><linearGradient id="linear-gradient-16" x1="24.32" y1="54.05" x2="24.71" y2="51.8" xlink:href="#linear-gradient-6"/><linearGradient id="linear-gradient-17" x1="23.75" y1="53.89" x2="24.09" y2="51.95" xlink:href="#linear-gradient-6"/><linearGradient id="linear-gradient-18" x1="23.11" y1="53.97" x2="23.43" y2="52.12" xlink:href="#linear-gradient-6"/><linearGradient id="linear-gradient-19" x1="25.26" y1="54.07" x2="25.53" y2="52.53" xlink:href="#linear-gradient-6"/><linearGradient id="linear-gradient-20" x1="26.45" y1="54.87" x2="34.4" y2="79.5" xlink:href="#linear-gradient-2"/><linearGradient id="linear-gradient-21" x1="47.8" y1="50.69" x2="53.52" y2="68.41" xlink:href="#linear-gradient-2"/><linearGradient id="linear-gradient-22" x1="40.25" y1="63.24" x2="40.27" y2="61.67" gradientUnits="userSpaceOnUse"><stop offset="0.01" stop-color="#d8d3cb"/><stop offset="1" stop-color="#e3dcd0"/></linearGradient><linearGradient id="linear-gradient-23" x1="38.7" y1="60.05" x2="38.32" y2="61.96" xlink:href="#linear-gradient-3"/><linearGradient id="linear-gradient-24" x1="42.6" y1="60.02" x2="42.32" y2="61.42" xlink:href="#linear-gradient-3"/><linearGradient id="linear-gradient-25" x1="40.3" y1="49.57" x2="40.31" y2="53.01" xlink:href="#linear-gradient"/><linearGradient id="linear-gradient-26" x1="75.73" y1="78.13" x2="80.09" y2="104.5" xlink:href="#linear-gradient-3"/><linearGradient id="linear-gradient-27" x1="76.72" y1="51.6" x2="84.89" y2="76.93" xlink:href="#linear-gradient-2"/><linearGradient id="linear-gradient-28" x1="77.02" y1="60.57" x2="80.65" y2="60.57" xlink:href="#linear-gradient-6"/><linearGradient id="linear-gradient-29" x1="64.3" y1="50.28" x2="68.66" y2="50.28" xlink:href="#linear-gradient-6"/><linearGradient id="linear-gradient-30" x1="74.94" y1="58.39" x2="82.78" y2="52.75" xlink:href="#linear-gradient-6"/><linearGradient id="linear-gradient-31" x1="77.37" y1="55" x2="74.96" y2="53.83" gradientUnits="userSpaceOnUse"><stop offset="0.01" stop-color="#9d6e47"/><stop offset="1" stop-color="#3d2a18"/></linearGradient><linearGradient id="linear-gradient-32" x1="78.8" y1="55.41" x2="80.8" y2="55.41" xlink:href="#linear-gradient-31"/><linearGradient id="linear-gradient-33" x1="75.56" y1="51.85" x2="83.83" y2="51.85" xlink:href="#linear-gradient-3"/><linearGradient id="linear-gradient-34" x1="75.69" y1="65.68" x2="79.5" y2="77.47" xlink:href="#linear-gradient-2"/><linearGradient id="linear-gradient-35" x1="76.74" y1="76.87" x2="77.96" y2="80.65" xlink:href="#linear-gradient-2"/><linearGradient id="linear-gradient-36" x1="78.45" y1="66.14" x2="78.55" y2="66.46" xlink:href="#linear-gradient-2"/><linearGradient id="linear-gradient-37" x1="78.18" y1="71.19" x2="78.28" y2="71.52" xlink:href="#linear-gradient-2"/><linearGradient id="linear-gradient-38" x1="77.9" y1="76.29" x2="78.01" y2="76.62" xlink:href="#linear-gradient-2"/><linearGradient id="linear-gradient-39" x1="76.5" y1="61.21" x2="76.89" y2="62.4" xlink:href="#linear-gradient-2"/><linearGradient id="linear-gradient-40" x1="79.84" y1="61.07" x2="80.28" y2="62.43" xlink:href="#linear-gradient-2"/><linearGradient id="linear-gradient-41" x1="64.71" y1="55.23" x2="71.94" y2="77.66" xlink:href="#linear-gradient-2"/><linearGradient id="linear-gradient-42" x1="85.65" y1="55.77" x2="91.89" y2="75.09" xlink:href="#linear-gradient-2"/><linearGradient id="linear-gradient-43" x1="71.79" y1="84.74" x2="79.77" y2="109.47" xlink:href="#linear-gradient-2"/><linearGradient id="linear-gradient-44" x1="80.62" y1="81.88" x2="88.03" y2="104.87" xlink:href="#linear-gradient-2"/><linearGradient id="linear-gradient-45" x1="2.78" y1="29.37" x2="20.28" y2="22.25" gradientUnits="userSpaceOnUse"><stop offset="0" stop-color="#455c79"/><stop offset="0.99" stop-color="#668da2"/></linearGradient><linearGradient id="linear-gradient-46" x1="20.02" y1="32.19" x2="17.07" y2="106.57" gradientUnits="userSpaceOnUse"><stop offset="0.01" stop-color="#71675f"/><stop offset="1" stop-color="#665e54"/></linearGradient><linearGradient id="linear-gradient-47" x1="92.78" y1="71.99" x2="101.49" y2="71.99" xlink:href="#linear-gradient-46"/><linearGradient id="linear-gradient-48" x1="20.01" y1="32.47" x2="17.07" y2="106.59" xlink:href="#linear-gradient-46"/><linearGradient id="linear-gradient-49" x1="98.71" y1="32.28" x2="95.76" y2="106.58" xlink:href="#linear-gradient-46"/></defs><g class="cls-1"><g id="Layer_2" data-name="Layer 2"><g id="Layer_2-2" data-name="Layer 2"><path class="cls-2" d="M1.9,111.54l115.78.21s-17.23,5.65-47.31,5.81C31.15,117.77,1.9,111.54,1.9,111.54Z"/><path class="cls-3" d="M55.86,57.35c-.08.93-.78,2.14-3.5,4.86a21.87,21.87,0,0,1-6.62,4.05s0,1.24,0,3.58c0,.51,0,1.32.1,2.26v0c.22,3.33.71,8.35.71,8.35a51.12,51.12,0,0,1-5.49.63l-.52,0h-.24a39.25,39.25,0,0,1-4.55-.36c-.88-.11-1.47-.21-1.47-.21a43.92,43.92,0,0,1,.33-7.83c.35-2.39.54-6.49,0-6.38-3.57.7-9.41-.16-9.41-.16-1-1.17-2.64-9.73-2.33-12.29h.2l1.74.06c.86,2.57,2.88,8.1,2.88,8.1a39,39,0,0,0,6.57-.38,8.62,8.62,0,0,0,.9-.19l3.31-1.18s3.3-.2,3.61-.2a30.88,30.88,0,0,1,3.35,1.25c.19-.08.39-.18.6-.29a23.63,23.63,0,0,0,6.09-5.39,46.26,46.26,0,0,0,.7-7.86l2.25-1,.24-.1S55.93,56.42,55.86,57.35Z"/><path class="cls-4" d="M41.1,81.1l-.52,0c0-.89,0-2.61,0-5.21,0-4-.09-10.9.07-12.76l.35-.31S41,72,41,74.51C41.05,76.4,41.09,79.6,41.1,81.1Z"/><path class="cls-5" d="M46.07,61.07l-.83,4.41.08,1-3-.27-.13-1h-.49c-1,0-2.35,0-3.57,0l.14,1.13-3.21.18L35,65.25a11.76,11.76,0,0,0-.74-3.57,8.62,8.62,0,0,0,.9-.19l3.31-1.18s3.3-.2,3.61-.2a30.88,30.88,0,0,1,3.35,1.25C45.66,61.28,45.86,61.18,46.07,61.07Z"/><path class="cls-6" d="M48.83,102.21a61.5,61.5,0,0,0-.1,7.58s-.15,0-.34,0l-.24,0-.36-.08-.53-.13a36.33,36.33,0,0,1-2.7-8.53,11.39,11.39,0,0,1,.58-5.86A34.29,34.29,0,0,1,43.06,91C42,88.58,41,86,40.69,85.11c-.07-.18-.1-.28-.1-.28-.35,2-1.7,8.64-1.74,12.85s.36,12,.36,12a1.39,1.39,0,0,1-.55.13h-.24l-.69,0s-2.77-6.09-3.31-9.41A12.8,12.8,0,0,1,35,94.35a37.21,37.21,0,0,1-.78-6,68.89,68.89,0,0,1,.12-8,43,43,0,0,0,5.39.4,31.67,31.67,0,0,0,6.8-.51l.06.26c.12.54.41,1.91.71,3.9.38,2.62,1.89,10.44,1.89,10.44S49.14,96.93,48.83,102.21Z"/><path class="cls-7" d="M46.59,80.47a21.75,21.75,0,0,1-5.38.93,14.51,14.51,0,0,1-5.4-.38,25.26,25.26,0,0,0-.74,5.9c0,3.39.43,7.67.43,7.79a22.25,22.25,0,0,0,.42,7c.7,2.86,2.09,6.84,2.55,8.13-.37,0-.74,0-.74,0s-2.77-6.09-3.31-9.41A12.8,12.8,0,0,1,35,94.35a37.21,37.21,0,0,1-.78-6,68.89,68.89,0,0,1,.12-8,43,43,0,0,0,5.39.4,31.67,31.67,0,0,0,6.8-.51Z"/><path class="cls-8" d="M47.79,109.65l-.53-.13a36.33,36.33,0,0,1-2.7-8.53,11.39,11.39,0,0,1,.58-5.86A34.29,34.29,0,0,1,43.06,91c-1.09-2.43-2.16-5.45-2.47-6.29a3.73,3.73,0,0,1,.06-1.06c.19-.69.86.87,2.91,5.45a50.4,50.4,0,0,1,2.62,6.83c-.5,1.62-.31,6.36.08,8.68A22.87,22.87,0,0,0,47.79,109.65Z"/><path class="cls-9" d="M41.65,60.33a3.17,3.17,0,0,1-1.35.77,3.51,3.51,0,0,1-1.54-.66L38.63,60l-.2-.73h0a3,3,0,0,0,1.84.57,2.92,2.92,0,0,0,1.33-.35l0,.55Z"/><path class="cls-10" d="M41.63,60a5.15,5.15,0,0,1-3,0l-.2-.73h0a3,3,0,0,0,1.84.57,2.92,2.92,0,0,0,1.33-.35Z"/><path class="cls-11" d="M45.27,54.83a1.36,1.36,0,0,1-1.21,1.33,6.38,6.38,0,0,1-2.45,3.33,2.92,2.92,0,0,1-1.33.35,3,3,0,0,1-1.84-.57,5.74,5.74,0,0,1-1.82-2.67s-.41.47-1.12-.38c0,0,0,0,0,0a2,2,0,0,1-.31-2.2.52.52,0,0,1,.37-.21.86.86,0,0,1,.94.69,1.68,1.68,0,0,1,.16-1l.14.06a9.83,9.83,0,0,0,3.26.61,7.66,7.66,0,0,0,3.87-.92l.11.3h0a1.75,1.75,0,0,1,.4-.16C45.15,53.18,45.39,54,45.27,54.83Z"/><path class="cls-10" d="M45.27,54.83a1.36,1.36,0,0,1-1.21,1.33,6.38,6.38,0,0,1-2.45,3.33,2.92,2.92,0,0,1-1.33.35,3,3,0,0,1-1.84-.57,5.74,5.74,0,0,1-1.82-2.67s-.41.47-1.12-.38c0,0,0,0,0,0a4.61,4.61,0,0,0-.31-2.2.52.52,0,0,1,.37-.21.86.86,0,0,1,.94.69,1.68,1.68,0,0,1,.16-1l.14.06c-.11.82-.32,2.87.48,4.16a3.79,3.79,0,0,0,4.11,1.49A4.46,4.46,0,0,0,44,55.65a13.13,13.13,0,0,1,.43-2.31C45.15,53.18,45.39,54,45.27,54.83Z"/><path class="cls-12" d="M43.91,53.19l-.1-.27a11.32,11.32,0,0,1-4,.91c-2.32.11-3.15-.62-3.15-.62a1.55,1.55,0,0,1-.07.23,9.63,9.63,0,0,0,3.39.67A7.68,7.68,0,0,0,43.91,53.19Z"/><path class="cls-13" d="M36.13,52.89a7.46,7.46,0,0,0,.07,1.3,9.21,9.21,0,0,0,.31,1.23,5.18,5.18,0,0,1,.34-1.9Z"/><path class="cls-13" d="M43.66,53.29A6,6,0,0,1,44,55a3.53,3.53,0,0,0,.52-2.29A8.4,8.4,0,0,1,43.66,53.29Z"/><path class="cls-10" d="M35.46,54.24s1,.26.92,1.72a1,1,0,0,1-.59-.31c-.2-.25.18-.64.18-.64Z"/><path class="cls-10" d="M44.84,53.88a2.13,2.13,0,0,0-.64,1.41.28.28,0,0,0,.46,0c.26-.28-.1-.57-.1-.57Z"/><path class="cls-14" d="M44.56,52.75l-.26.2s-.14.1-.39.24a7.66,7.66,0,0,1-3.87.92A9.39,9.39,0,0,1,38.77,54h0a8.7,8.7,0,0,1-2.12-.56,4.13,4.13,0,0,1-.49-.23l0-.33a8.29,8.29,0,0,1,4.17-1.08,11.07,11.07,0,0,1,2.77.4A9.23,9.23,0,0,1,44.56,52.75Z"/><path class="cls-10" d="M44,53.49a8,8,0,0,1-3.6,1,5.9,5.9,0,0,1-3.64-1,9.83,9.83,0,0,0,3.26.61,7.66,7.66,0,0,0,3.87-.92Z"/><path class="cls-15" d="M44.56,52.75l-.26.2s-.14.1-.39.24a7.66,7.66,0,0,1-3.87.92A9.39,9.39,0,0,1,38.77,54c2.5,0,3.71-1,4.27-1.8A9.23,9.23,0,0,1,44.56,52.75Z"/><path class="cls-16" d="M44.28,52.7A11.44,11.44,0,0,0,41.15,52l-.86-.08a7.76,7.76,0,0,0-4.16,1s1.15-1.49,4.06-1.44a9.59,9.59,0,0,1,1.14.09A5.21,5.21,0,0,1,44.28,52.7Z"/><path class="cls-17" d="M44.28,52.7A11.44,11.44,0,0,0,41.15,52a2.21,2.21,0,0,0,.18-.45A5.21,5.21,0,0,1,44.28,52.7Z"/><path class="cls-18" d="M39.08,113.35a2.38,2.38,0,0,1-1.85-1.26,1.33,1.33,0,0,1-.06-.61,3.84,3.84,0,0,1,.56-1.58l1.48-.2s.16,1.8.26,2.67c0,.19,0,.34.05.46C39.56,113.29,39.48,113.36,39.08,113.35Z"/><path class="cls-19" d="M39.08,113.35a2.38,2.38,0,0,1-1.85-1.26,1.33,1.33,0,0,1-.06-.61,2.11,2.11,0,0,0,1.12,1.31,2.48,2.48,0,0,0,1.23,0C39.56,113.29,39.48,113.36,39.08,113.35Z"/><path class="cls-20" d="M52.76,112.52a8,8,0,0,1-2.23.11,2.89,2.89,0,0,1-1.78-.54s-.23.23-.41.2a14.26,14.26,0,0,1-1.52-.41,2.14,2.14,0,0,1,0-.43,5.64,5.64,0,0,1,.43-1.93l1.47.25a19.53,19.53,0,0,0,2.77,2c.17.09.48.27.75.44Z"/><path class="cls-21" d="M52.76,112.52a8,8,0,0,1-2.23.11,2.89,2.89,0,0,1-1.78-.54s-.23.23-.41.2a14.26,14.26,0,0,1-1.52-.41,2.14,2.14,0,0,1,0-.43,4.11,4.11,0,0,0,1.84.51c.23-.11,1.48.37,2.6.35a6.56,6.56,0,0,0,1-.09Z"/><path class="cls-22" d="M37.52,55.24s.23-.83,1-.74a1,1,0,0,1,.91.81A2.23,2.23,0,0,1,37.52,55.24Z"/><path class="cls-22" d="M41.34,55.12a1.12,1.12,0,0,1,1.06-.83c.83,0,.69.89.69.89A2.83,2.83,0,0,1,41.34,55.12Z"/><path class="cls-23" d="M39.82,54.35a2.07,2.07,0,0,1,.09,1.52,2.42,2.42,0,0,1-.36.86,1.13,1.13,0,0,0,.82.3c.49,0,.64-.27.58-.33s-.25.16-.59.19a1,1,0,0,1-.65-.18,3.39,3.39,0,0,0,.41-1.38C40.2,54.5,39.82,54.35,39.82,54.35Z"/><path class="cls-24" d="M39.11,54.93a.58.58,0,0,1-.57.57.57.57,0,0,1-.57-.57.56.56,0,0,1,.57-.57A.57.57,0,0,1,39.11,54.93Z"/><path class="cls-24" d="M42.9,54.73a.57.57,0,1,1-.57-.57A.57.57,0,0,1,42.9,54.73Z"/><path class="cls-25" d="M37.52,55.24s.34-.85,1-.74a1.28,1.28,0,0,1,.91.81,1,1,0,0,0-.92-1.06C37.54,54.16,37.52,55.24,37.52,55.24Z"/><path class="cls-26" d="M41.35,55.12s.36-.78,1-.79.74.85.74.85S43.35,54,42.37,54,41.35,55.12,41.35,55.12Z"/><path class="cls-22" d="M38.91,57.57a4.27,4.27,0,0,1,1.52,0,4.34,4.34,0,0,0,1.43,0,1.56,1.56,0,0,1-1.49,1A1.35,1.35,0,0,1,38.91,57.57Z"/><path class="cls-22" d="M38.22,55.1a.16.16,0,0,1-.16.15.16.16,0,0,1-.16-.15.16.16,0,0,1,.16-.16A.16.16,0,0,1,38.22,55.1Z"/><path class="cls-22" d="M43,55a.16.16,0,0,1-.16.16.16.16,0,0,1-.15-.16A.16.16,0,1,1,43,55Z"/><path class="cls-27" d="M37.52,55.24s.39-.6.89-.6,1,.67,1,.67-.16-1-1-.93A1,1,0,0,0,37.52,55.24Z"/><path class="cls-27" d="M41.35,55.12s.44-.66,1-.62.75.68.75.68,0-1-.7-1S41.35,55.12,41.35,55.12Z"/><path class="cls-28" d="M23.28,54.35c-.16.07-.88-.9-1-1.33s0-.9.27-.83.38.38.52.9S23.43,54.28,23.28,54.35Z"/><path class="cls-29" d="M24.54,54.4c.31-.1.44-1.35.42-2s-.11-1.15-.45-1-.38,1.11-.36,1.76S24.28,54.48,24.54,54.4Z"/><path class="cls-30" d="M24.12,54.23c-.31,0-.46-.41-.57-1.25s-.11-1.3.14-1.45.6.2.62,1.37S24.39,54.23,24.12,54.23Z"/><path class="cls-31" d="M23.68,54.32c-.26,0-.75-.8-.88-1.58s0-1,.24-1.06.41.33.57,1.24S23.81,54.3,23.68,54.32Z"/><path class="cls-32" d="M24.85,54.19c.21.2.7-.39.91-.83s.42-.85,0-1.09S24.51,53.88,24.85,54.19Z"/><polygon class="cls-5" points="34.68 76.27 34.63 75.39 37.69 74.97 37.64 75.85 34.68 76.27"/><polygon class="cls-5" points="43.55 74.77 43.55 75.34 46.04 76.27 45.78 75.23 43.55 74.77"/><path class="cls-33" d="M35.79,80.76c-.88-.11-1.47-.21-1.47-.21a43.92,43.92,0,0,1,.33-7.83c.35-2.39.54-6.49,0-6.38-3.57.7-9.41-.16-9.41-.16-1-1.17-2.64-9.73-2.33-12.29h.2c.13,1.07.38,2.89.89,5.36a29,29,0,0,0,1.45,5.49s.47.37,3.78.83a32.27,32.27,0,0,0,5.45.37l.62.72A63,63,0,0,1,35.72,74C35.72,77.77,35.72,79.65,35.79,80.76Z"/><path class="cls-34" d="M55.86,57.35c-.08.93-.78,2.14-3.5,4.86a21.87,21.87,0,0,1-6.62,4.05s0,1.24,0,3.58c0,.51,0,1.32.1,2.26-.43-2.39-.72-5.91-.72-6.1s2.33-1.56,5.34-3.84a15.9,15.9,0,0,0,4.41-5.24c.34-1.1.36-6.91.2-10.09l.24-.1S55.93,56.42,55.86,57.35Z"/><path class="cls-35" d="M38.76,60.44l.29,1.23,1.56,1.55a21.87,21.87,0,0,0,1.2-2.06A5.54,5.54,0,0,0,41.63,60a3,3,0,0,1-1.29.77A2.61,2.61,0,0,1,38.76,60.44Z"/><polygon class="cls-36" points="39.05 61.67 37.53 62.48 37.96 60.46 38.63 60.01 39.05 61.67"/><polygon class="cls-37" points="41.81 61.16 43.21 62.1 42.51 60.19 41.62 59.8 41.81 61.16"/><path class="cls-38" d="M44.5,52.77s-.43-.12-1.08-.26a15.68,15.68,0,0,0-3.29-.36,14,14,0,0,0-3.05.43c-.58.15-.95.27-.95.27a11.33,11.33,0,0,1,.39-3,2.1,2.1,0,0,1,.63-.86,4.39,4.39,0,0,1,.81-.55,5.17,5.17,0,0,1,2.77-.57,4.07,4.07,0,0,1,3.5,2.37A12.29,12.29,0,0,1,44.5,52.77Z"/><path class="cls-39" d="M44.5,52.77s-.43-.12-1.08-.26l0,0s.11-2.49-1-3.06A14.07,14.07,0,0,0,38,48.47a5.17,5.17,0,0,1,2.77-.57,4.07,4.07,0,0,1,3.5,2.37A12.29,12.29,0,0,1,44.5,52.77Z"/><path class="cls-39" d="M37,50.07a7.17,7.17,0,0,0,.11,2.51c-.58.15-.95.27-.95.27a11.33,11.33,0,0,1,.39-3,2.1,2.1,0,0,1,.63-.86C37.08,49.44,37,49.82,37,50.07Z"/><path class="cls-40" d="M114.71,42.59l-.35,1.83L1.9,42.76a14.14,14.14,0,0,1-.59-1.37A21.22,21.22,0,0,1,.22,37.1a18.87,18.87,0,0,1,0-5.86A16.13,16.13,0,0,1,4,25H4a7,7,0,0,1,1-.76C8.09,22,22,19.48,28.44,18.62l.22,0,1.73-1.23C34,14.82,42.13,9,45.88,6.55,50.76,3.34,60.41-.29,76.7,0A105.73,105.73,0,0,1,93.88,1.66a52.5,52.5,0,0,1,8,2s2.87,4.15,5.84,8.93a87.69,87.69,0,0,1,5.47,9.85c.12.28.24.55.35.82,1.18,2.73,1.88,4.51,2.3,5.74a10.74,10.74,0,0,1,.66,2.67C116.61,32.44,115.34,39.25,114.71,42.59Z"/><path class="cls-41" d="M115.39,46.08a8.87,8.87,0,0,1-.26.9c-.26.78-.72,1.8-1.29,1.8l-1.22-.21c-2.67-.47-9-1.62-11.34-2.6-3-1.24-4.25-.72-5,.11s-.41,2.28-1.55,2.59-18.57-.52-18.57-.52l-.59.2L71.2,49.82l-.42,0L40.92,47.91h-.19l-3.45-1.61-8.2-.21.66-.62.89-.83,6.65.62s1.62-1.16,3.28-2.08c.25-.15.51-.29.76-.41.56-.28,24.63.35,29.9.49l1,0,4.51,3.48,0,.05s15.88.1,17,0-.2-3.53,4-2.91c3.32.5,12.63,1.6,16.21,2Z"/><path class="cls-42" d="M76.75,46.76l-1.16,1.59L71.2,49.82l-.42,0a29.78,29.78,0,0,0,.44-6.54l1,0Z"/><path class="cls-42" d="M115.39,46.08s-.62,2.7-1.55,2.7l-1.22-.21.7-1.14a14.19,14.19,0,0,0,.65-1.51Z"/><path class="cls-42" d="M40.92,47.91h-.19l-3.45-1.61v-1s1.62-1.16,3.28-2.08A30.88,30.88,0,0,0,40.92,47.91Z"/><path class="cls-42" d="M115.39,46.08a8.87,8.87,0,0,1-.26.9l-4.2-.17-10.79-2.28-4.46.1L94.23,48l-18-.31s-4.67-2.7-5.18-2.91a136.3,136.3,0,0,0-13.7.42,89,89,0,0,1-16.91-.62l-3.21,1.76-7.54-.83.89-.83,6.65.62s1.62-1.16,3.28-2.08c.25-.15.51-.29.76-.41.56-.28,24.63.35,29.9.49l1,0,4.51,3.48,0,.05s15.88.1,17,0-.2-3.53,4-2.91c3.32.5,12.63,1.6,16.21,2Z"/><path class="cls-40" d="M114.71,42.59l-.35,1.83L1.9,42.76a14.14,14.14,0,0,1-.59-1.37c1.92.13,7.54-.19,7.54-.19s-.1-11.93,13.28-11.93S34.47,42.14,34.47,42.14s46.89-.11,47.31-.42S83,27.3,96.72,28.86c12,1.37,12,13.38,12,13.38Z"/><path class="cls-40" d="M93.4,31.14s-11.51,4-5.64,12.89L14.5,43v0c8.56-.78,38.19-3.47,57.74-8.1A144.57,144.57,0,0,1,93.4,31.14Z"/><path class="cls-43" d="M94.07,14.91l-.3.09c1,3.23,2.29,8.28,2.08,8.93s-2.48,2.22-4.72,3.88c-1.66,1.23-3.38,2.5-4.57,3.52-2.75,2.36-5,8-5.31,8.79-1,.1-9.68.91-14.36.93C66.61,34.68,68,20.61,68.23,20.1L68.09,20,67.94,20a159.49,159.49,0,0,0-1.36,21.07c-5.12,0-29.4.29-31.36.31-1.54-6.4-2.14-19.32-2-19.83l-.3-.08c-.12.49.51,13.75,2.08,20.1l0,.12h.12c.26,0,26.72-.31,31.64-.31s14.55-.93,14.64-.94h.1l0-.08c0-.07,2.41-6.32,5.25-8.76,1.18-1,2.9-2.29,4.56-3.51,2.86-2.13,4.63-3.46,4.82-4C96.46,23.08,94.31,15.75,94.07,14.91Z"/><path class="cls-44" d="M77.18,61.27v1.34a11,11,0,0,0,.45,2.25,37,37,0,0,0,2.22-3.58l.05-.11A3.28,3.28,0,0,1,77.18,61.27Z"/><path class="cls-45" d="M86.3,101.2a35.12,35.12,0,0,1-1.45,6.28c-.24.79-.45,1.47-.6,1.92L84,110l-.2,0-.26,0h-.07s0-.29-.1-.78c0-.29-.07-.66-.1-1.07a53.74,53.74,0,0,0-1.4-6.23c-.86-3.49-1.93-7.51-2.54-10-.32-1.32-2.15-8.07-2.15-8.07l-.84,13a11.82,11.82,0,0,1,1.18,5.62c-.08,2.5-3.32,7.91-3.32,7.91a.53.53,0,0,1-.14.12.54.54,0,0,1-.25.06.49.49,0,0,1-.17,0,1.19,1.19,0,0,1-.46-.17l0-.13c0-.47-.17-2.18-.27-4.5-.12-2.75-.53-5.21-.74-8-.18-2.47-.57-8.78-.66-10.87,0,0,0-.14,0-.31-.08-1.47-.41-7.42-.41-7.42s1.22-.13,2.83-.22c1.28-.08,2.8-.14,4.12-.09l2,.07,3.47.13h.17l.24,7.18v.27h0c.23,2.74.34,7.62.34,7.62C85.36,95.22,86.47,98.53,86.3,101.2Z"/><path class="cls-46" d="M94.3,61.55a9.91,9.91,0,0,1-4,4.52c-2.25,1.47-6.26,1.9-6.26,1.9s0,.93,0,2.76c0,1.52-.22,6.23-.28,7.81,0,.32,0,.52,0,.52h0c-.12,0-3.32-.12-6-.12h-.63c-1.84,0-4,.18-5.19.27l-.83.07S71,79,71,78.4s0-1.9,0-3.7a66.61,66.61,0,0,1,.82-7.47,8.79,8.79,0,0,1-4.09,0,5.53,5.53,0,0,1-4.28-3.85c-1.09-3.37-.19-8.4.11-9.73l0,0a3.41,3.41,0,0,0,1.13.34,1.8,1.8,0,0,0,1.5-.42,41.15,41.15,0,0,0,.21,5.34c.27,1.13,1.36,3.39,2.88,3.47a14.56,14.56,0,0,0,2.55-.2,15.85,15.85,0,0,0,2.5-.5A17.18,17.18,0,0,1,77,61.32l.72,3.07.33-.48,1.84-2.63,3,1a9.24,9.24,0,0,0,1.31,0,22.14,22.14,0,0,0,2.62-.32A9.13,9.13,0,0,0,90.91,60c.38-.91.63-5,.73-6.87,0-.62,0-1,0-1l2.44.57S94.68,60.34,94.3,61.55Z"/><path class="cls-14" d="M73.93,78.85l0,.27-.62,6.38-1.76,1c-.08-1.47-.41-7.42-.41-7.42S72.32,78.94,73.93,78.85Z"/><path class="cls-14" d="M83.94,86.15l-2.42-.8-1.46-6.52,3.47.13h.17Z"/><path class="cls-47" d="M80.46,59.62l-.34.93-.22.62,0,.1h0l.05-.11a3.3,3.3,0,0,1-2.72.11,3.48,3.48,0,0,0-.07-.89L77.05,60A5.46,5.46,0,0,0,80.46,59.62Z"/><path class="cls-48" d="M80.46,59.62l-.34.93a4.38,4.38,0,0,1-3-.16L77.05,60A5.46,5.46,0,0,0,80.46,59.62Z"/><path class="cls-49" d="M85.07,112a1.07,1.07,0,0,1-.54.75,2.24,2.24,0,0,1-1,.28c-1.22.1-1.51-.66-1.51-.66a.87.87,0,0,1,.08-.14.27.27,0,0,1,.06-.1,2.91,2.91,0,0,1,.18-.32l.13-.22a11.72,11.72,0,0,0,.92-2.38c0,.49.1.78.1.78L84,110h0a1.1,1.1,0,0,0,.06-.16c0-.11.09-.26.15-.46a9.58,9.58,0,0,1,.77,2.23A2.12,2.12,0,0,1,85.07,112Z"/><path class="cls-49" d="M74.78,112a4.58,4.58,0,0,1-1.11.35,7.79,7.79,0,0,1-1.52.14A10.5,10.5,0,0,1,69,112l.35-.3h0a9.91,9.91,0,0,1,1.3-.84l.34-.16a5,5,0,0,1,2.17-.59.6.6,0,0,0,0,.13,1.25,1.25,0,0,0,.64.18.53.53,0,0,0,.24-.06,3.43,3.43,0,0,1,.59,1.23C74.75,111.86,74.78,112,74.78,112Z"/><path class="cls-50" d="M68.63,48.8h0a1,1,0,0,1-.87-.05h0a1.09,1.09,0,0,1,.21.14h0c.17.13.34.29.3.4a.43.43,0,0,1,0,.07c-.15.15-.5.1-.83-.07h0l0,0,.09.08,0,0,0,0h0c.17.16.39.4.29.51s-.48.07-.87-.07c0,0,0,.72-.6.8,0,0-.08,2.06-.08,3a2.53,2.53,0,0,1-.7.2,1.59,1.59,0,0,1-.38,0,1.1,1.1,0,0,1-.89-.66S65,51.27,65,51.1a5.28,5.28,0,0,0,.2-1.34,4.08,4.08,0,0,1,.8-2.27c.6-.86,1-1,1.45-.5s1.28,1,1.16,1.17h0A1.11,1.11,0,0,1,68,48.1h0l0,0,0,0,.11.06C68.37,48.36,68.78,48.66,68.63,48.8Z"/><path class="cls-48" d="M67.82,49.93c-.11.12-.48.07-.87-.07,0,0,0,.72-.6.8,0,0-.08,2.06-.08,3a2.53,2.53,0,0,1-.7.2,21.52,21.52,0,0,1,.29-3.37s.85-.63.74-.77-.27-.66-.12-.47A3.25,3.25,0,0,0,67.82,49.93Z"/><path class="cls-48" d="M68.24,49.38c-.15.15-.5.1-.83-.07h0a4.78,4.78,0,0,1-.41-.48A3.29,3.29,0,0,0,68.24,49.38Z"/><path class="cls-48" d="M67.76,48.77a1.09,1.09,0,0,1,.21.14Z"/><path class="cls-48" d="M68.62,48.81a1,1,0,0,1-.87-.05h0a.93.93,0,0,1-.4-.49A3.46,3.46,0,0,0,68.62,48.81Z"/><path class="cls-48" d="M68.62,48.16h0A1.11,1.11,0,0,1,68,48.1h0a1.72,1.72,0,0,1-.41-.35A3.63,3.63,0,0,0,68.62,48.16Z"/><path class="cls-51" d="M66.27,53.62a2.35,2.35,0,0,1-2.16.39c-.27-.07-.5-.19-.52-.36a1.25,1.25,0,0,1,.69-.77h0l.11,0h0l-.11.32a.94.94,0,0,0,.78.58A2.25,2.25,0,0,0,66.27,53.62Z"/><path class="cls-52" d="M71.12,112a6.29,6.29,0,0,1-1.72-.24,9.91,9.91,0,0,1,1.3-.84A1.38,1.38,0,0,1,71.12,112Z"/><path class="cls-52" d="M84.83,111.88s-.27.58-1.48.59a2,2,0,0,1-1.23-.29.27.27,0,0,1,.06-.1,2.91,2.91,0,0,1,.18-.32,4.54,4.54,0,0,1,1.19-.15A2.51,2.51,0,0,1,84.83,111.88Z"/><path class="cls-53" d="M74.78,112a6,6,0,0,1-2.63.49A10.5,10.5,0,0,1,69,112l.35-.3a11.88,11.88,0,0,0,3.16.24,7.15,7.15,0,0,0,2.15-.36C74.75,111.86,74.78,112,74.78,112Z"/><path class="cls-53" d="M85.07,112c0,.28-.4,1-1.52,1s-1.51-.66-1.51-.66l.14-.24c.29.3.71.48,1.66.35a1.63,1.63,0,0,0,1.18-.8A2.12,2.12,0,0,1,85.07,112Z"/><path class="cls-54" d="M74.78,112a4.58,4.58,0,0,1-1.11.35,10.71,10.71,0,0,0,.19-1.94.53.53,0,0,0,.24-.06,3.43,3.43,0,0,1,.59,1.23C74.75,111.86,74.78,112,74.78,112Z"/><path class="cls-54" d="M85.07,112a1.07,1.07,0,0,1-.54.75A9.51,9.51,0,0,0,84,110h0a1.1,1.1,0,0,0,.06-.16c0-.11.09-.26.15-.46a9.58,9.58,0,0,1,.77,2.23A2.12,2.12,0,0,1,85.07,112Z"/><path class="cls-55" d="M77.16,62.8a8.23,8.23,0,0,1-2-.72,5.3,5.3,0,0,1-.47-.28l.55-.11.19,0c1-.2,1.65-.36,1.65-.36v0Z"/><path class="cls-5" d="M71.46,74.71a17.89,17.89,0,0,1,2.7-1.4L74,72.64a21.6,21.6,0,0,0-2.65,1.14Z"/><path class="cls-5" d="M80.74,72.79l.06.83a9.81,9.81,0,0,1,2.54,1.66v-.93A10.85,10.85,0,0,0,80.74,72.79Z"/><path class="cls-56" d="M84.13,62.26a19.19,19.19,0,0,0-.43,2.65,55.43,55.43,0,0,1-5.76-.36,51,51,0,0,0-5.5-.37l-.53-2a19.76,19.76,0,0,0,2.5-.58c.67-.16,2.59-.43,2.59-.43l.72,3,2.16-3,3,.95A3.72,3.72,0,0,0,84.13,62.26Z"/><path class="cls-57" d="M72.66,64.16l.28,1.67,2.84-.16,0-1.36A16.21,16.21,0,0,0,72.66,64.16Z"/><polygon class="cls-57" points="80.56 64.7 80.56 65.99 83.09 66.14 83.48 64.86 80.56 64.7"/><path class="cls-58" d="M83.62,57.84a1.34,1.34,0,0,1-1.54.5,4.32,4.32,0,0,1-1.46,1.22l-.29.14a4.8,4.8,0,0,1-3,.35,2.66,2.66,0,0,1-.68-.26C75.08,58.94,74.91,56.62,75,55a7,7,0,0,1,.43-2.05A3.55,3.55,0,0,1,76,51.82a.23.23,0,0,1,.22-.09,14.49,14.49,0,0,0,2.28,1.14,6,6,0,0,0,2.44.07c.32,0,.46,0,.7.61s0,1.06.17,1.76a12,12,0,0,0,.66,1.84,7.92,7.92,0,0,1,1-1.46.53.53,0,0,1,.46-.09C84.4,55.77,84.2,57,83.62,57.84Z"/><path class="cls-59" d="M83.7,54a6.74,6.74,0,0,1-.25,1.67,11.54,11.54,0,0,0-.83,1.18,1.61,1.61,0,0,0-.13.28,12,12,0,0,1-.66-1.84c-.14-.69.07-1.15-.16-1.74v0c-.24-.61-.38-.61-.7-.61a6,6,0,0,1-2.44-.07,14.49,14.49,0,0,1-2.28-1.14.23.23,0,0,0-.22.09,1.77,1.77,0,0,0-.26.35,4.66,4.66,0,0,0-.28.62,3,3,0,0,1,.15-1.25h0a2.4,2.4,0,0,1,1.11-1.41,5.17,5.17,0,0,1,4.82,0,4.34,4.34,0,0,1,1.28,1.28,5.35,5.35,0,0,1,.85,2.4Z"/><path class="cls-48" d="M83.62,57.84a1.34,1.34,0,0,1-1.54.5,4.32,4.32,0,0,1-1.46,1.22,3.49,3.49,0,0,0,1.09-2.41c0-1.11-.53-2.83-.48-3.26s-.73-.15-2.33-.41a3.56,3.56,0,0,1-2.46-1.31c-.36-.41-.84.33-1,.73A3.55,3.55,0,0,1,76,51.82a.23.23,0,0,1,.22-.09,14.49,14.49,0,0,0,2.28,1.14,6,6,0,0,0,2.44.07c.32,0,.46,0,.7.61s0,1.06.17,1.76a12,12,0,0,0,.66,1.84,7.92,7.92,0,0,1,1-1.46.53.53,0,0,1,.46-.09C84.4,55.77,84.2,57,83.62,57.84Z"/><path class="cls-60" d="M83.48,56.3a2.85,2.85,0,0,0-.9,1.42s.31.29.58.09-.13-.57-.13-.57Z"/><path class="cls-61" d="M83.7,54a6.74,6.74,0,0,1-.25,1.67,7.92,7.92,0,0,0-1,1.46,12,12,0,0,1-.66-1.84c-.14-.69.07-1.15-.16-1.74l.26-.23a2.73,2.73,0,0,0,.92-1.93,5.35,5.35,0,0,1,.85,2.4Z"/><path class="cls-62" d="M82.62,56.87a1.61,1.61,0,0,0-.13.28,12,12,0,0,1-.66-1.84c-.14-.69.07-1.15-.16-1.74v0c-.24-.61-.38-.61-.7-.61a6,6,0,0,1-2.44-.07,14.49,14.49,0,0,1-2.28-1.14.23.23,0,0,0-.22.09,1.77,1.77,0,0,0-.26.35,4.66,4.66,0,0,0-.28.62,3,3,0,0,1,.15-1.25h0c.17-.33.34-.35.8.1a4.08,4.08,0,0,0,2.88,1.08c1.11-.12,2.53-.09,2.61.62a11,11,0,0,0,.22,2.3A8.32,8.32,0,0,0,82.62,56.87Z"/><path class="cls-22" d="M80.62,56s-.14.12-.9,0-.92-.4-.92-.4a.24.24,0,0,1,0-.11A1.24,1.24,0,0,1,80.06,55h.06A.6.6,0,0,1,80.62,56Z"/><path class="cls-22" d="M77.05,55.26a2.6,2.6,0,0,1-1.25-.2h0c-.22-.1-.33-.24-.34-.37a.61.61,0,0,1,1-.49,1.93,1.93,0,0,1,.21.17h0A1.46,1.46,0,0,1,77.05,55.26Z"/><path class="cls-23" d="M77.27,54.61a2.47,2.47,0,0,1-.12,1.21,1.71,1.71,0,0,1-.71.84c-.23.07,0,.48.29.61s.75,0,.7-.12,0,.05-.49,0-.49-.35-.44-.37a1.49,1.49,0,0,0,.56-.53,1.65,1.65,0,0,0,.37-1.13A1.31,1.31,0,0,0,77.27,54.61Z"/><path class="cls-59" d="M79.22,54.37c-.19-.21.46-.75,1.28-.63a.89.89,0,0,1,.83.95,1.38,1.38,0,0,0-.83-.34C80,54.35,79.44,54.61,79.22,54.37Z"/><path class="cls-59" d="M77.22,54c.31-.15-.24-.93-.72-1.12a.64.64,0,0,0-.9.52s.52-.35.84,0S77,54.15,77.22,54Z"/><path class="cls-63" d="M80.11,55.29a.66.66,0,0,1-1.27.24A1.24,1.24,0,0,1,80.06,55,.7.7,0,0,1,80.11,55.29Z"/><path class="cls-63" d="M76.65,54.44a.65.65,0,0,1-.66.65.63.63,0,0,1-.19,0h0c-.22-.1-.33-.24-.34-.37a.61.61,0,0,1,1-.49,1.93,1.93,0,0,1,.21.17h0Z"/><path class="cls-64" d="M75.46,54.58c0,.13.15-.51.93-.25.52.18.66.93.66.93a1.23,1.23,0,0,0-.53-1.19A.69.69,0,0,0,75.46,54.58Z"/><path class="cls-65" d="M78.8,55.64a1.19,1.19,0,0,1,1.09-.56.73.73,0,0,1,.73,1,1,1,0,0,0,.1-.93c-.24-.41-.81-.39-1.28-.23A1.21,1.21,0,0,0,78.8,55.64Z"/><path class="cls-66" d="M78.8,55.64a1.65,1.65,0,0,1,1.25-.38.65.65,0,0,1,.57.78s.31-.9-.44-1.07A1.2,1.2,0,0,0,78.8,55.64Z"/><path class="cls-66" d="M77.05,55.26a1.13,1.13,0,0,0-.71-.8.87.87,0,0,0-.88.12.77.77,0,0,1,1.07-.38C77.05,54.44,77.05,55.26,77.05,55.26Z"/><path class="cls-67" d="M83.66,54.77a7.63,7.63,0,0,1-1.94-1.14c-.13-.1-.27-.22-.4-.34S81,52.67,78.94,52a8,8,0,0,0-3.31-.41l-.07,0a4,4,0,0,1,2.31-2.47,5.33,5.33,0,0,1,3.73.43,3,3,0,0,1,.44.33,6,6,0,0,1,1.79,3.27A6.65,6.65,0,0,1,83.66,54.77Z"/><path class="cls-22" d="M75.85,57.7a6.77,6.77,0,0,0,3,.73,2.69,2.69,0,0,1-1.69.62C76.25,59,75.85,57.7,75.85,57.7Z"/><path class="cls-39" d="M83.66,54.77a7.63,7.63,0,0,1-1.94-1.14c0-.34.09-.75.11-1.2a9.93,9.93,0,0,0-.23-2.91,3,3,0,0,1,.44.33,6,6,0,0,1,1.79,3.27A6.65,6.65,0,0,1,83.66,54.77Z"/><path class="cls-14" d="M81.32,53.29a18.19,18.19,0,0,1-1.83.58c-.66.17-.59.12-1.24-.45a7.08,7.08,0,0,0-.62-.51c-1.34-1-3.82-.82-3.82-.82l1.75-.53.07,0a8,8,0,0,1,3.31.41,7.46,7.46,0,0,1,2,1A1.63,1.63,0,0,1,81.32,53.29Z"/><path class="cls-68" d="M81.32,53.29a18.19,18.19,0,0,1-1.83.58c-.66.17-.59.12-1.24-.45A4.35,4.35,0,0,0,81,52.94,1.63,1.63,0,0,1,81.32,53.29Z"/><path class="cls-69" d="M78,63.91v.21s-.44,8.36-.55,10.93c-.06,1.26,0,2.73,0,3.89h-.35c0-2,.07-5,.13-6.86.07-2.49.38-7.08.46-7.7Z"/><path class="cls-70" d="M83.74,78.54c0,.32,0,.52,0,.52s-3.26-.12-6-.12-6.65.35-6.65.35S71,79,71,78.4a38.7,38.7,0,0,1,7.8-.47A45,45,0,0,1,83.74,78.54Z"/><path class="cls-71" d="M78.69,66.3a.19.19,0,1,1-.38,0,.19.19,0,1,1,.38,0Z"/><path class="cls-72" d="M78.42,71.36a.19.19,0,0,1-.19.19.2.2,0,1,1,0-.39A.19.19,0,0,1,78.42,71.36Z"/><path class="cls-73" d="M78.15,76.45a.2.2,0,1,1-.39,0,.19.19,0,0,1,.2-.19A.19.19,0,0,1,78.15,76.45Z"/><path class="cls-74" d="M77.29,62.62,75.74,63l.26-.78h0l.28-.85.94-.49a7.65,7.65,0,0,0,0,1.49C77.28,62.52,77.29,62.62,77.29,62.62Z"/><path class="cls-75" d="M77.27,62.36A7.24,7.24,0,0,0,76,62.21l.28-.85.94-.49A7.65,7.65,0,0,0,77.27,62.36Z"/><polygon class="cls-74" points="80.72 62.99 79.1 62.37 79.44 61.82 79.98 60.91 80.52 61.16 80.66 62.41 80.72 62.99"/><path class="cls-76" d="M80.66,62.41a9.16,9.16,0,0,0-1.23-.59l.55-.91.54.25Z"/><path class="cls-77" d="M71.93,73.26c-.09,2.31-.07,4.47,0,6l-.83.07S71,79,71,78.4s0-1.9,0-3.7a66.61,66.61,0,0,1,.82-7.47,8.79,8.79,0,0,1-4.09,0,5.53,5.53,0,0,1-4.28-3.85c-1.09-3.37-.19-8.4.11-9.73l0,0c-.15,2.07-.34,5.87.14,7.75a5.66,5.66,0,0,0,4.15,4.36,9.64,9.64,0,0,0,4.25.68S72.08,69,71.93,73.26Z"/><path class="cls-78" d="M94.3,61.55a9.91,9.91,0,0,1-4,4.52c-2.25,1.47-6.26,1.9-6.26,1.9s0,.93,0,2.76c0,1.52-.22,6.23-.28,7.81,0,.32,0,.52,0,.52h0A27.92,27.92,0,0,1,83,73.83a47.06,47.06,0,0,1,.31-7,28,28,0,0,0,5-1,8.51,8.51,0,0,0,5.13-4.56,10.8,10.8,0,0,0-.41-5,30.5,30.5,0,0,0-1.45-3.19c0-.62,0-1,0-1l2.44.57S94.68,60.34,94.3,61.55Z"/><path class="cls-79" d="M83.58,110h-.07s0-.29-.1-.78c0-.29-.07-.66-.1-1.07a53.74,53.74,0,0,0-1.4-6.23c-.86-3.49-1.93-7.51-2.54-10-.32-1.32-2.15-8.07-2.15-8.07l-.84,13a11.82,11.82,0,0,1,1.18,5.62c-.08,2.5-3.32,7.91-3.32,7.91a.53.53,0,0,1-.14.12.54.54,0,0,1-.25.06.49.49,0,0,1-.17,0A23.61,23.61,0,0,0,76,104.28,42.59,42.59,0,0,0,75.61,97a89.07,89.07,0,0,1,.57-9.5c.47-3.57.78-6.53.78-6.53s2.64,10.84,4.15,15.3A65.73,65.73,0,0,1,83.58,110Z"/><path class="cls-80" d="M86.3,101.2a35.12,35.12,0,0,1-1.45,6.28,31.08,31.08,0,0,0,.56-6.62,28.71,28.71,0,0,0-2-6.28s-.57-6.48-.57-10.37A19,19,0,0,1,83.53,79h.17L84,86.42h0c.23,2.74.34,7.62.34,7.62C85.36,95.22,86.47,98.53,86.3,101.2Z"/><path class="cls-81" d="M10,42.86S9.78,30.62,21.71,30.62,33.23,43.17,33.23,43.17Z"/><path class="cls-81" d="M83.44,44s-.21-12.86,11.1-13S107,40.58,106.89,44.42Z"/><path class="cls-82" d="M32,41.69A10.22,10.22,0,1,1,21.74,31.48,10.22,10.22,0,0,1,32,41.69Z"/><path class="cls-44" d="M28.64,41.69a6.89,6.89,0,0,1-6.41,6.88,3.93,3.93,0,0,1-.49,0A6.74,6.74,0,0,1,19,48a6.93,6.93,0,0,1-3.32-3.07,7.09,7.09,0,0,1-.58-1.49,6.79,6.79,0,0,1-.23-1.76,6.9,6.9,0,0,1,9.62-6.34,6.73,6.73,0,0,1,1.63,1A6.92,6.92,0,0,1,28.64,41.69Z"/><path class="cls-83" d="M24.3,36.36c-.49,1.22-1.95,4.24-2.75,4.15s-2.23-3-2.54-4.2a4.06,4.06,0,0,1,2.62-.91A4.58,4.58,0,0,1,24.3,36.36Z"/><path class="cls-83" d="M19.76,41c0,.62-2.29,1.26-3.94,1.92-.7-.85,0-3.88,1.25-5.13C18.07,38.85,19.76,40.27,19.76,41Z"/><path class="cls-83" d="M27.83,42.66c-1.83-.13-3.79-.4-3.94-1.29s1.27-2.92,2.12-4.1A5.22,5.22,0,0,1,27.83,42.66Z"/><path class="cls-83" d="M19.66,47.8a5.93,5.93,0,0,1-3.16-2.72C17.75,44,20.55,42.41,20.89,43S20.63,46,19.66,47.8Z"/><path class="cls-83" d="M27,45.62A5.59,5.59,0,0,1,22.75,48c-.36-1.7-.79-4.55-.08-5S25.53,44.32,27,45.62Z"/><path class="cls-83" d="M20.93,41.1a.25.25,0,0,1-.17.31.26.26,0,0,1-.32-.18.26.26,0,0,1,.18-.31A.24.24,0,0,1,20.93,41.1Z"/><path class="cls-83" d="M22.69,40.71a.26.26,0,0,1-.5.13.27.27,0,0,1,.18-.31A.26.26,0,0,1,22.69,40.71Z"/><path class="cls-83" d="M23.07,42.11a.24.24,0,0,1-.18.31.25.25,0,0,1-.31-.18.27.27,0,0,1,.18-.31A.24.24,0,0,1,23.07,42.11Z"/><path class="cls-83" d="M21.52,42.62a.27.27,0,0,1-.18.31.26.26,0,0,1-.31-.18.24.24,0,0,1,.18-.31A.25.25,0,0,1,21.52,42.62Z"/><path class="cls-84" d="M32,41.69a10.22,10.22,0,0,1-3.27,7.5c-.51-.91-1.07-1.94-1.65-3.08-1.85-3.63-7.64-9.51-11.33-12.66A10.22,10.22,0,0,1,32,41.69Z"/><path class="cls-82" d="M105.14,42.43A10.29,10.29,0,0,1,101.86,50a10.13,10.13,0,0,1-6.94,2.74,10.31,10.31,0,0,1-6-18.6,10.09,10.09,0,0,1,6-2A10.25,10.25,0,0,1,105.14,42.43Z"/><path class="cls-44" d="M101.82,42.43a7.08,7.08,0,0,1-.09,1.13,6.93,6.93,0,0,1-6.32,5.8l-.49,0a6.74,6.74,0,0,1-2.77-.59,6.94,6.94,0,0,1-3.32-3.1,6.58,6.58,0,0,1-.58-1.49,6.94,6.94,0,0,1,4.22-8.27,6.83,6.83,0,0,1,2.45-.45,6.72,6.72,0,0,1,2.72.56,6.46,6.46,0,0,1,1.63,1A7,7,0,0,1,101.82,42.43Z"/><path class="cls-83" d="M97.48,37.06c-.49,1.23-2,4.27-2.75,4.18s-2.23-3-2.54-4.23a4,4,0,0,1,2.62-.92A4.55,4.55,0,0,1,97.48,37.06Z"/><path class="cls-83" d="M92.94,41.68c0,.62-2.29,1.27-3.94,1.94-.7-.87,0-3.92,1.24-5.18C91.25,39.57,92.94,41,92.94,41.68Z"/><path class="cls-83" d="M101,43.41c-1.83-.13-3.79-.41-4-1.31s1.27-2.94,2.13-4.13A5.29,5.29,0,0,1,101,43.41Z"/><path class="cls-83" d="M92.84,48.58a6,6,0,0,1-3.17-2.74c1.26-1.07,4-2.69,4.4-2.08S93.81,46.75,92.84,48.58Z"/><path class="cls-83" d="M100.14,46.39a5.53,5.53,0,0,1-4.21,2.41c-.36-1.71-.79-4.58-.08-5.06S98.71,45.07,100.14,46.39Z"/><path class="cls-83" d="M94.11,41.83a.24.24,0,0,1-.18.31.25.25,0,0,1-.31-.18.26.26,0,0,1,.18-.31A.24.24,0,0,1,94.11,41.83Z"/><path class="cls-83" d="M95.86,41.44a.25.25,0,1,1-.49.13.26.26,0,0,1,.18-.31A.24.24,0,0,1,95.86,41.44Z"/><path class="cls-83" d="M96.25,42.85a.24.24,0,0,1-.18.31.25.25,0,0,1-.31-.18.25.25,0,0,1,.18-.31A.24.24,0,0,1,96.25,42.85Z"/><path class="cls-83" d="M94.7,43.36a.26.26,0,0,1-.18.31.26.26,0,0,1-.32-.18.26.26,0,0,1,.18-.31A.26.26,0,0,1,94.7,43.36Z"/><path class="cls-84" d="M105.14,42.43A10.29,10.29,0,0,1,101.86,50c-.51-.91-1.07-2-1.65-3.1-1.84-3.66-7.63-9.58-11.32-12.76a10.09,10.09,0,0,1,6-2A10.25,10.25,0,0,1,105.14,42.43Z"/><path class="cls-85" d="M99.83,7.69a13.18,13.18,0,0,1-5.1,7.45,12.23,12.23,0,0,1-1.49.95,15.07,15.07,0,0,1-2,.94c-4.13,1.57-12.9,2.62-21.15,3.31l-1.14.09-2.24.18c-5.19.38-9.86.63-12.61.78-7.57.41-23,.21-23,.21S46.3,9,53.56,5.93c3.4-1.45,9.69-2.3,16.25-2.6l1.92-.08c2.57-.08,5.13-.07,7.55,0a59.92,59.92,0,0,1,10.07,1l1.71.39L92.5,5h0C98.08,6.48,99.83,7.69,99.83,7.69Z"/><path class="cls-86" d="M99.83,7.69a13.18,13.18,0,0,1-5.1,7.45,12.23,12.23,0,0,1-1.49.95,15.07,15.07,0,0,1-2,.94c-4.13,1.57-12.9,2.62-21.15,3.31,1.77-2.14,4.07-4.95,6-7.38,3.13-4,3.53-6.74,3.23-9.7a59.92,59.92,0,0,1,10.07,1l1.71.39L92.5,5h0C98.08,6.48,99.83,7.69,99.83,7.69Z"/><path class="cls-87" d="M98.38,8.37a12.73,12.73,0,0,1-6.26,7.46h0a13.9,13.9,0,0,1-3.39,1.25,129.54,129.54,0,0,1-15.31,2.24h0c-5.92.59-11.68.95-14.87,1-6.22.16-25.21.47-25.21.47s6.72-5.4,14-10c1.62-1,3.26-2,4.86-2.91C57.74,4.83,71.31,3,84.47,4.8c1.63.23,3.25.5,4.85.84a54.65,54.65,0,0,1,7.79,2.24C97.54,8,98,8.2,98.38,8.37Z"/><path class="cls-88" d="M97.11,7.88a63.88,63.88,0,0,1-5,8h0a13.9,13.9,0,0,1-3.39,1.25,129.54,129.54,0,0,1-15.31,2.24c4.7-4.67,11.27-10.89,15.9-13.68A54.65,54.65,0,0,1,97.11,7.88Z"/><path class="cls-85" d="M94.73,15.14a12.23,12.23,0,0,1-1.49.95L91.06,4.66,92.5,5h0Z"/><path class="cls-89" d="M13.52,24.6a11.26,11.26,0,0,1-5.29,5.19,11.6,11.6,0,0,1-7,.68l-.22,0a8.71,8.71,0,0,1,2.11-3.21,7.52,7.52,0,0,1,2.15-1.46,10,10,0,0,1,1.89-.63A25.47,25.47,0,0,1,13.52,24.6Z"/><path class="cls-90" d="M8.64,27.61a2.8,2.8,0,1,1-5.6,0,2.69,2.69,0,0,1,0-.4,7.52,7.52,0,0,1,2.15-1.46,10,10,0,0,1,1.89-.63A2.78,2.78,0,0,1,8.64,27.61Z"/><path class="cls-91" d="M13.52,24.6a11.26,11.26,0,0,1-5.29,5.19,11.6,11.6,0,0,1-7,.68C6.55,29.28,12.9,25.65,13.52,24.6Z"/><path class="cls-92" d="M29.6,30.47s18.21-6.07,35.17-8.72,39.83-2.64,39.83-2.64-22.72,2.8-38.74,5.13S29.6,30.47,29.6,30.47Z"/><path class="cls-88" d="M84.47,4.8c-3.4,3.81-9.23,9.49-14.26,10.1-5.75.71-16.37-2.39-22.91-4.09,1.62-1,3.26-2,4.86-2.91C57.74,4.83,71.31,3,84.47,4.8Z"/><path class="cls-85" d="M71.73,3.25c-.71,4.16-2.36,14.42-2.8,17.18l-2.24.18c.37-3.06,2.38-13.85,3.12-17.28Z"/><path class="cls-93" d="M59.37,25.54l5-.94v.73a4,4,0,0,1-2.8,1.25C59.68,26.68,59.37,25.54,59.37,25.54Z"/><path class="cls-93" d="M88.06,21.59l.1.74a9,9,0,0,0,2.92.46c1.3-.09,2-2,2-2Z"/><path class="cls-94" d="M115.87,29l-6.6-3-3.21-9.44.1-.24c.35-.81,1.47-3.44,1.56-3.7h0a87.69,87.69,0,0,1,5.47,9.85c.12.28.24.55.35.82l.32.75C114.88,26.31,115.49,27.88,115.87,29Z"/><path class="cls-95" d="M115.87,29l-6.6-3-3.21-9.44.1-.24c.93,1.77,2.78,5.15,3.42,5.64A41.56,41.56,0,0,0,113.89,24C114.88,26.31,115.49,27.88,115.87,29Z"/><path class="cls-96" d="M40.85,21H35.72l-.1-.61-.16-1.05a1.59,1.59,0,0,1,.17-.25,6,6,0,0,1,4.24-2.4l.55,2.4Z"/><polygon class="cls-96" points="35.92 21.08 32.71 21.08 32.85 20.98 35.61 19 35.63 19.12 35.82 20.37 35.92 21.03 35.92 21.08"/><path class="cls-97" d="M35.92,21v0H32.71l.14-.1c.76-.14,1.75-.34,2.77-.56l.2-.05a39.12,39.12,0,0,0,4.6-1.25L40.85,21Z"/><path class="cls-92" d="M28.44,18.62c-2.12,1.49-8.86,4.44-15.86,5.47C9,24.61,6.09,24.85,4,25a7,7,0,0,1,1-.76C8.09,22,22,19.48,28.44,18.62Z"/><path class="cls-98" d="M106.47,23.57a2.39,2.39,0,1,1-2.38-2.39A2.39,2.39,0,0,1,106.47,23.57Z"/><path class="cls-99" d="M27.11,27.72l3.94-.42a1.78,1.78,0,0,0-1.24-.93,10.18,10.18,0,0,0-2.7.41Z"/><polygon class="cls-100" points="22.6 30.62 22.53 108.67 22.53 113.53 14.56 113.56 14.35 30.62 22.6 30.62"/><polygon class="cls-101" points="101.49 113.41 93.09 113.56 92.78 30.41 101.03 30.41 101.47 108.72 101.49 113.41"/><path class="cls-102" d="M22.53,108.68v4.85l-8,0-.21-82.94h1.06c0,10.68.51,53.9.65,54.31s.62,23.66.62,23.66Z"/><polygon class="cls-103" points="101.49 113.41 93.09 113.56 92.78 30.41 93.59 30.41 94.8 107.34 101.47 108.72 101.49 113.41"/><rect class="cls-104" x="10.51" y="110.19" width="17.63" height="4.05"/><polygon class="cls-105" points="28.14 112.22 28.14 114.24 10.51 114.24 10.51 110.19 11.61 110.19 13.1 111.39 28.14 112.22"/><rect class="cls-104" x="88.94" y="110.19" width="17.63" height="4.05"/><polygon class="cls-105" points="106.57 112.17 106.57 114.24 88.94 114.24 88.94 111.12 97.76 112.22 106.57 112.17"/></g></g></g></svg>