<svg xmlns="http://www.w3.org/2000/svg" xmlns:xlink="http://www.w3.org/1999/xlink" viewBox="0 0 98.37 121.71"><defs><style>.cls-1{isolation:isolate;}.cls-2,.cls-81,.cls-82,.cls-83,.cls-84{fill:#b94e48;}.cls-3{fill:#776a61;}.cls-22,.cls-23,.cls-27,.cls-28,.cls-4,.cls-59,.cls-6,.cls-60,.cls-7,.cls-70,.cls-82,.cls-83,.cls-87,.cls-9,.cls-90,.cls-91,.cls-93{opacity:0.4;}.cls-11,.cls-12,.cls-13,.cls-15,.cls-17,.cls-22,.cls-23,.cls-27,.cls-30,.cls-32,.cls-33,.cls-34,.cls-35,.cls-36,.cls-38,.cls-4,.cls-40,.cls-41,.cls-46,.cls-49,.cls-51,.cls-59,.cls-6,.cls-60,.cls-62,.cls-64,.cls-65,.cls-67,.cls-69,.cls-7,.cls-81,.cls-83,.cls-86,.cls-87,.cls-9,.cls-91,.cls-93{mix-blend-mode:multiply;}.cls-4{fill:url(#linear-gradient);}.cls-5,.cls-6{fill:url(#linear-gradient-2);}.cls-7{fill:url(#linear-gradient-4);}.cls-8,.cls-9{fill:url(#linear-gradient-5);}.cls-10{fill:url(#linear-gradient-7);}.cls-11,.cls-12,.cls-13,.cls-30,.cls-32,.cls-34,.cls-35,.cls-36,.cls-40,.cls-41,.cls-46,.cls-49,.cls-62,.cls-64,.cls-65,.cls-67,.cls-69,.cls-81,.cls-84,.cls-86{opacity:0.3;}.cls-11{fill:url(#linear-gradient-8);}.cls-12{fill:url(#linear-gradient-9);}.cls-13{fill:url(#linear-gradient-10);}.cls-14{fill:url(#linear-gradient-11);}.cls-15,.cls-17,.cls-33,.cls-38,.cls-51{opacity:0.2;}.cls-15{fill:url(#linear-gradient-12);}.cls-16{fill:url(#linear-gradient-13);}.cls-17,.cls-24,.cls-76{fill:#dd7553;}.cls-18{fill:#1a2333;}.cls-19{fill:url(#linear-gradient-14);}.cls-20{fill:url(#linear-gradient-15);}.cls-21{fill:#592f13;}.cls-22{fill:url(#linear-gradient-16);}.cls-23{fill:url(#linear-gradient-17);}.cls-24{opacity:0.38;}.cls-25{fill:url(#linear-gradient-18);}.cls-26{fill:url(#linear-gradient-19);}.cls-27{fill:url(#linear-gradient-20);}.cls-28,.cls-70,.cls-82,.cls-84,.cls-90{mix-blend-mode:screen;}.cls-28{fill:url(#linear-gradient-21);}.cls-29{fill:url(#linear-gradient-22);}.cls-30{fill:url(#linear-gradient-23);}.cls-31{fill:url(#linear-gradient-24);}.cls-32{fill:url(#linear-gradient-25);}.cls-33{fill:url(#linear-gradient-26);}.cls-34{fill:url(#linear-gradient-27);}.cls-35{fill:url(#linear-gradient-28);}.cls-36{fill:url(#linear-gradient-29);}.cls-37{fill:url(#linear-gradient-30);}.cls-38{fill:url(#linear-gradient-31);}.cls-39,.cls-40{fill:#8a523d;}.cls-42{fill:url(#linear-gradient-32);}.cls-43{fill:url(#linear-gradient-33);}.cls-44{opacity:0.5;}.cls-45{fill:#1f2122;}.cls-46{fill:url(#linear-gradient-34);}.cls-47{fill:url(#linear-gradient-35);}.cls-48{fill:#4d4d4d;}.cls-49{fill:url(#linear-gradient-36);}.cls-50{fill:url(#linear-gradient-37);}.cls-51,.cls-55,.cls-60{fill:#393939;}.cls-52{fill:url(#linear-gradient-38);}.cls-53,.cls-59{fill:#0c4c5d;}.cls-54{fill:url(#linear-gradient-39);}.cls-56{fill:#106371;}.cls-57{fill:url(#linear-gradient-40);}.cls-58,.cls-62{fill:#09343b;}.cls-61{fill:url(#linear-gradient-41);}.cls-63{fill:#212121;}.cls-64{fill:url(#linear-gradient-42);}.cls-65{fill:url(#linear-gradient-43);}.cls-66{fill:url(#linear-gradient-44);}.cls-67{fill:url(#linear-gradient-45);}.cls-68{fill:url(#linear-gradient-46);}.cls-69{fill:#964e0c;}.cls-70{fill:url(#linear-gradient-47);}.cls-71{fill:#262828;}.cls-72{fill:#555;opacity:0.7;}.cls-73{fill:url(#linear-gradient-48);}.cls-74{fill:url(#linear-gradient-49);}.cls-75{fill:url(#linear-gradient-50);}.cls-77{fill:#fff;}.cls-78{fill:#3d261f;}.cls-79{fill:url(#linear-gradient-51);}.cls-80{fill:url(#linear-gradient-52);}.cls-85{fill:#1e232b;}.cls-86{fill:#111919;}.cls-88{fill:#14181e;}.cls-89,.cls-90{fill:#46676c;}.cls-91{fill:#263a3a;}.cls-92,.cls-93{fill:#889eab;}.cls-94{fill:#ef1a21;}.cls-95{fill:#bf1623;}</style><linearGradient id="linear-gradient" x1="14.49" y1="76.37" x2="16.47" y2="76.37" gradientUnits="userSpaceOnUse"><stop offset="0.01" stop-color="#504133"/><stop offset="1" stop-color="#493233"/></linearGradient><linearGradient id="linear-gradient-2" x1="1.75" y1="116.17" x2="25.54" y2="116.17" xlink:href="#linear-gradient"/><linearGradient id="linear-gradient-4" x1="65.77" y1="76.37" x2="67.75" y2="76.37" gradientTransform="matrix(-1, 0, 0, 1, 147.25, 0)" xlink:href="#linear-gradient"/><linearGradient id="linear-gradient-5" x1="53.03" y1="116.17" x2="76.82" y2="116.17" gradientTransform="matrix(-1, 0, 0, 1, 147.25, 0)" xlink:href="#linear-gradient"/><linearGradient id="linear-gradient-7" x1="56.3" y1="112.01" x2="66.77" y2="84.55" gradientUnits="userSpaceOnUse"><stop offset="0.01" stop-color="#002440"/><stop offset="1" stop-color="#002d4e"/></linearGradient><linearGradient id="linear-gradient-8" x1="53.92" y1="79.62" x2="54.8" y2="77.3" xlink:href="#linear-gradient-7"/><linearGradient id="linear-gradient-9" x1="64.84" y1="81.3" x2="66.16" y2="77.83" xlink:href="#linear-gradient-7"/><linearGradient id="linear-gradient-10" x1="59.64" y1="113.46" x2="68.44" y2="90.37" xlink:href="#linear-gradient-7"/><linearGradient id="linear-gradient-11" x1="55.8" y1="75.23" x2="61.64" y2="59.93" xlink:href="#linear-gradient-7"/><linearGradient id="linear-gradient-12" x1="66.54" y1="60.78" x2="66.89" y2="59.85" xlink:href="#linear-gradient-7"/><linearGradient id="linear-gradient-13" x1="62.69" y1="59.75" x2="64.39" y2="57.06" gradientUnits="userSpaceOnUse"><stop offset="0" stop-color="#f1c7a3"/><stop offset="1" stop-color="#f0a98b"/></linearGradient><linearGradient id="linear-gradient-14" x1="61.33" y1="58.7" x2="64.87" y2="51.47" xlink:href="#linear-gradient-13"/><linearGradient id="linear-gradient-15" x1="64.98" y1="79.87" x2="66.06" y2="77.66" xlink:href="#linear-gradient-13"/><linearGradient id="linear-gradient-16" x1="58.03" y1="64.5" x2="58.6" y2="62.99" xlink:href="#linear-gradient-7"/><linearGradient id="linear-gradient-17" x1="65.24" y1="64.96" x2="65.71" y2="63.73" xlink:href="#linear-gradient-7"/><linearGradient id="linear-gradient-18" x1="60.98" y1="48.59" x2="63.08" y2="47.81" xlink:href="#linear-gradient-7"/><linearGradient id="linear-gradient-19" x1="65.09" y1="51.64" x2="66.52" y2="47.91" xlink:href="#linear-gradient-7"/><linearGradient id="linear-gradient-20" x1="67.15" y1="52.47" x2="68.45" y2="49.07" xlink:href="#linear-gradient-7"/><linearGradient id="linear-gradient-21" x1="65.34" y1="47.5" x2="65.63" y2="46.76" xlink:href="#linear-gradient-7"/><linearGradient id="linear-gradient-22" x1="47.96" y1="47.28" x2="49.29" y2="51.42" gradientUnits="userSpaceOnUse"><stop offset="0" stop-color="#1e614c"/><stop offset="0.98" stop-color="#104d30"/></linearGradient><linearGradient id="linear-gradient-23" x1="48.82" y1="47.06" x2="50.15" y2="51.15" xlink:href="#linear-gradient-22"/><linearGradient id="linear-gradient-24" x1="48.14" y1="45.27" x2="49.11" y2="48.29" xlink:href="#linear-gradient-22"/><linearGradient id="linear-gradient-25" x1="48.35" y1="45.63" x2="49.21" y2="48.29" xlink:href="#linear-gradient-22"/><linearGradient id="linear-gradient-26" x1="47.2" y1="56.97" x2="49" y2="52.25" xlink:href="#linear-gradient-7"/><linearGradient id="linear-gradient-27" x1="47.68" y1="72.85" x2="51.32" y2="63.33" xlink:href="#linear-gradient-7"/><linearGradient id="linear-gradient-28" x1="69.62" y1="80.18" x2="71.44" y2="75.41" xlink:href="#linear-gradient-7"/><linearGradient id="linear-gradient-29" x1="67" y1="75.08" x2="70.6" y2="65.65" xlink:href="#linear-gradient-7"/><linearGradient id="linear-gradient-30" x1="62.79" y1="59.95" x2="63.45" y2="58.24" xlink:href="#linear-gradient-7"/><linearGradient id="linear-gradient-31" x1="64.23" y1="59.83" x2="64.7" y2="58.59" xlink:href="#linear-gradient-7"/><linearGradient id="linear-gradient-32" x1="58.81" y1="77.25" x2="65.49" y2="59.74" xlink:href="#linear-gradient-7"/><linearGradient id="linear-gradient-33" x1="-92.47" y1="96.17" x2="-93.26" y2="97.21" gradientTransform="matrix(-0.97, 0.23, 0.23, 0.97, -53.59, 3.28)" gradientUnits="userSpaceOnUse"><stop offset="0" stop-color="#4d4d4d"/><stop offset="1" stop-color="#45434c"/></linearGradient><linearGradient id="linear-gradient-34" x1="-94.07" y1="97.62" x2="-92.07" y2="97.62" gradientTransform="matrix(-0.97, 0.23, 0.23, 0.97, -53.59, 3.28)" gradientUnits="userSpaceOnUse"><stop offset="0" stop-color="#343239"/><stop offset="1" stop-color="#393939"/></linearGradient><linearGradient id="linear-gradient-35" x1="-95.01" y1="97.18" x2="-94.04" y2="97.18" xlink:href="#linear-gradient-34"/><linearGradient id="linear-gradient-36" x1="-94.99" y1="97.57" x2="-94.04" y2="97.57" xlink:href="#linear-gradient-34"/><linearGradient id="linear-gradient-37" x1="-98.01" y1="102.07" x2="-96.75" y2="98.89" gradientTransform="matrix(-0.97, 0.23, 0.23, 0.97, -53.59, 3.28)" gradientUnits="userSpaceOnUse"><stop offset="0" stop-color="#393939"/><stop offset="1" stop-color="#2f3134"/></linearGradient><linearGradient id="linear-gradient-38" x1="-95.57" y1="99.68" x2="-94.76" y2="99.68" gradientTransform="matrix(-0.97, 0.23, 0.23, 0.97, -53.59, 3.28)" gradientUnits="userSpaceOnUse"><stop offset="0" stop-color="#fa6a1b"/><stop offset="1" stop-color="#fa7008"/></linearGradient><linearGradient id="linear-gradient-39" x1="-100.08" y1="97.9" x2="-94.57" y2="97.9" gradientTransform="matrix(-0.97, 0.23, 0.23, 0.97, -53.59, 3.28)" gradientUnits="userSpaceOnUse"><stop offset="0" stop-color="#106371"/><stop offset="1" stop-color="#0c4c5d"/></linearGradient><linearGradient id="linear-gradient-40" x1="-94.51" y1="103.3" x2="-94.1" y2="103.3" xlink:href="#linear-gradient-38"/><linearGradient id="linear-gradient-41" x1="-99.97" y1="98.46" x2="-99.64" y2="98.46" xlink:href="#linear-gradient-34"/><linearGradient id="linear-gradient-42" x1="-96.42" y1="98.89" x2="-94.57" y2="98.89" xlink:href="#linear-gradient-39"/><linearGradient id="linear-gradient-43" x1="-100.08" y1="97.52" x2="-97.75" y2="97.52" xlink:href="#linear-gradient-39"/><linearGradient id="linear-gradient-44" x1="-95.59" y1="99.14" x2="-94.72" y2="99.14" xlink:href="#linear-gradient-38"/><linearGradient id="linear-gradient-45" x1="-95.49" y1="99.14" x2="-94.74" y2="99.14" xlink:href="#linear-gradient-38"/><linearGradient id="linear-gradient-46" x1="-96.84" y1="96.29" x2="-96.01" y2="96.29" xlink:href="#linear-gradient-38"/><linearGradient id="linear-gradient-47" x1="-94.92" y1="99.32" x2="-94.72" y2="99.32" xlink:href="#linear-gradient-38"/><linearGradient id="linear-gradient-48" x1="95.74" y1="98.31" x2="96.37" y2="97.02" gradientTransform="translate(-49.24 2.9) rotate(-11.24)" xlink:href="#linear-gradient-13"/><linearGradient id="linear-gradient-49" x1="95.39" y1="97.57" x2="96.13" y2="96.08" gradientTransform="translate(-49.24 2.9) rotate(-11.24)" xlink:href="#linear-gradient-13"/><linearGradient id="linear-gradient-50" x1="95.5" y1="96.89" x2="96.24" y2="95.39" gradientTransform="translate(-49.24 2.9) rotate(-11.24)" xlink:href="#linear-gradient-13"/><linearGradient id="linear-gradient-51" x1="61.97" y1="53.59" x2="64.29" y2="53.59" gradientUnits="userSpaceOnUse"><stop offset="0.01" stop-color="#9d6e47"/><stop offset="1" stop-color="#3d2a18"/></linearGradient><linearGradient id="linear-gradient-52" x1="58.87" y1="52.07" x2="60.66" y2="52.07" xlink:href="#linear-gradient-51"/></defs><g class="cls-1"><g id="Layer_2" data-name="Layer 2"><g id="Layer_2-2" data-name="Layer 2"><path class="cls-2" d="M0,116.14l98.37.38s-.37,3.4-24.92,4.72-68.73-.57-68.73-.57Z"/><rect class="cls-3" x="10.95" y="34.95" width="5.52" height="82.85"/><path class="cls-4" d="M16.47,35v82.84h-2c0-6.74.28-51.57.28-58.77,0-7,.12-18.56-.27-24.07Z"/><rect class="cls-5" x="1.75" y="114.25" width="23.79" height="3.82"/><path class="cls-6" d="M25.54,114.25v3.83H1.75V117l11.18-.21s3-1.53,4.78-2.55Z"/><rect class="cls-3" x="79.49" y="34.95" width="5.52" height="82.85"/><path class="cls-7" d="M79.49,35v82.84h2c0-6.74-.28-51.57-.28-58.77,0-7-.11-18.56.28-24.07Z"/><rect class="cls-8" x="70.43" y="114.25" width="23.79" height="3.82"/><path class="cls-9" d="M70.43,114.25v3.83H94.22V117L83,116.8s-3-1.53-4.78-2.55Z"/><path class="cls-10" d="M70.33,115.1l-1.34.06h-.4a87.81,87.81,0,0,1-3.49-8.42c-1.35-4,.37-10.48.37-10.48L61.51,84l-3.4,11.82s.71,1,1.13,5.46c.48,5-2.74,12.32-3,12.88a1.5,1.5,0,0,1-1,.53,4.88,4.88,0,0,1-.75.09s-.75-16.83-.75-21.79c0-3.51.25-9.17.52-12.91.11-1.54.23-2.76.33-3.37l.58.15c1,.26,3.15.78,5.72,1.19.32,0,.64.09,1,.12a21.87,21.87,0,0,0,6.32-.47l.14,1.7.24,3.3c.22,3.23.55,8,.68,10.29C69.44,96.62,70.33,115.1,70.33,115.1Z"/><path class="cls-11" d="M55.15,76.81,54.24,80c.11-1.54.23-2.76.33-3.37Z"/><path class="cls-12" d="M68.54,82.65c-1.85.22-2.43-2.17-2.43-2.17l-.71.71c-1.2.63-1.89.16-2.48-.78a24.29,24.29,0,0,1-1.08-2.29,21.87,21.87,0,0,0,6.32-.47l.14,1.7Z"/><path class="cls-13" d="M69,115.16h-.4a87.81,87.81,0,0,1-3.49-8.42c-1.35-4,.37-10.48.37-10.48L61.51,84l-3.4,11.82s.71,1,1.13,5.46c.48,5-2.74,12.32-3,12.88a1.5,1.5,0,0,1-1,.53c.87-2.54,2.4-6.13,2.68-8.6s-1.07-9.91-1.07-9.91,2.06-7.08,3.26-10.06,1.77-4.46,1.77-4.46,3.82,12.54,4.32,14.59a39.61,39.61,0,0,0,.35,9.63A80.25,80.25,0,0,0,69,115.16Z"/><path class="cls-14" d="M74.18,75.16c-.32-1.93-.87-5-1.42-7.28-.84-3.47-1.48-6.38-2-6.59l-1.44-.61L65.26,59a.14.14,0,0,1-.07,0l-.28.73a6,6,0,0,1-.72.09h0a5.73,5.73,0,0,1-1,0,.76.76,0,0,1-.21,0,3.64,3.64,0,0,1-1.7-.63v-.36h-.06a34.26,34.26,0,0,1-5,.42,31.51,31.51,0,0,1-6-1.1c-.68-.19-1.3-.4-1.82-.6,0,0,1-4.75,1.55-6.16a9,9,0,0,1-2.12.21,7.23,7.23,0,0,1-1.63-.35,2.77,2.77,0,0,0-.21.29c-1,1.57-3,6.23-2.76,7.21a2.6,2.6,0,0,0,.51.94h0a13.76,13.76,0,0,0,5.51,3.73,12.48,12.48,0,0,0,5.52,1s-.28,10.83-.14,12.32l.64.19a40.43,40.43,0,0,0,5.93,1.29l.21,0,.37,0,2.48-.35,1.27-1.27a13.64,13.64,0,0,1,1.11,2.1,3.11,3.11,0,0,1,.24,1,15.28,15.28,0,0,0,7.64-2.76S74.36,76.23,74.18,75.16Zm-5.29-1.65h0c-.41.4-1,1-1,1h0a22.59,22.59,0,0,1,.66-3.72l.8,2.31A2.38,2.38,0,0,0,68.89,73.51Z"/><path class="cls-15" d="M69.34,60.68c-1.34.14-2.59.25-2.62.23a14.4,14.4,0,0,1-2.59-1l.06-.1h0a6,6,0,0,0,.72-.09l.28-.73Z"/><path class="cls-16" d="M66.46,55.82c-.28.52-1.16,3-1.41,3.71,0,.13-.07.2-.07.2a4.1,4.1,0,0,1-2.15.19,2.8,2.8,0,0,1-1.61-.82c-.23-.22,0-.36,0-.36l.1-.42a3.85,3.85,0,0,0,1.47,0,5.32,5.32,0,0,0,.84-.26A10.58,10.58,0,0,0,66.46,55.82Z"/><path class="cls-17" d="M66.46,55.82c-.28.52-1.16,3-1.41,3.71-.33-.11-.6-.22-.6-.22a3.4,3.4,0,0,0-1.66-1,5.32,5.32,0,0,0,.84-.26A10.58,10.58,0,0,0,66.46,55.82Z"/><path class="cls-18" d="M60.89,48s-1.27-1.66-.8-2.55,1-.57,1.23.28a15,15,0,0,0,.52,1.56,1.56,1.56,0,0,0-.62.38Z"/><path class="cls-19" d="M67.74,56.29l-.33.07c-1,.2-1-.46-1-.54a6,6,0,0,1-3,2.4,6.32,6.32,0,0,1-2.29.06,3.53,3.53,0,0,1-2-.77c-.56-.61-1.22-2.92-.42-5.61a8.56,8.56,0,0,1,2.88-4.58,13,13,0,0,0,1,1.74c0,.07.12.14.19.22a18.34,18.34,0,0,0,1.42,1.2l.7.85c.71.85,3.31,1.75,3.31,1.75l-.57,1c.06,0,.9-.29,1.23.12a.42.42,0,0,1,.09.16C69.25,55,69.2,55.86,67.74,56.29Z"/><path class="cls-20" d="M65.12,79.88l1.8-.36a5,5,0,0,0-.6-1.56l-.85-1.37L64.2,77.86l.32,1.38C64.66,79.88,65.12,79.88,65.12,79.88Z"/><path class="cls-21" d="M66.79,52.6a12.71,12.71,0,0,1-.33,2.7l-.18.61a10.27,10.27,0,0,0,1.36-1.51c.66-.9.62-1.32.62-1.32a3.39,3.39,0,0,1-.76-.1A1.92,1.92,0,0,1,66.79,52.6Z"/><path class="cls-21" d="M62.73,51.85c-.27-.14.18-.68.94-.4s1.33,1,1.28,1.3C65,52.75,63,52,62.73,51.85Z"/><path class="cls-21" d="M60.94,51.05A.83.83,0,0,0,60.51,50a1,1,0,0,0-.88-.18l-.14.27Z"/><polygon class="cls-22" points="56.5 63.08 56.17 63.98 60.23 64.12 60.19 63.18 56.5 63.08"/><path class="cls-23" d="M63.58,63.6c0,.15-.23.9,0,.85s3.82.66,3.82.66l.14-1Z"/><path class="cls-21" d="M60.51,48.4a5,5,0,0,1,1.14-1.08,8.38,8.38,0,0,0,.65,1.42S61.42,47.77,60.51,48.4Z"/><path class="cls-24" d="M68.37,54.56a2.24,2.24,0,0,0-1.31,1.21.44.44,0,0,0,.54.1c.35-.14,0-.53,0-.53Z"/><path class="cls-17" d="M68.92,54.19a4.55,4.55,0,0,0-1.51,2.17c-1,.2-1-.46-1-.54a6,6,0,0,1-3,2.4,6.32,6.32,0,0,1-2.29.06A4.83,4.83,0,0,0,66,53c-.6-.14-1.59-1.77-1.59-1.77a4.87,4.87,0,0,1-1.58-1.92,18.34,18.34,0,0,0,1.42,1.2l.7.85c.71.85,3.31,1.75,3.31,1.75l-.57,1C67.75,54.05,68.59,53.78,68.92,54.19Z"/><path class="cls-25" d="M60.66,44.93a4.36,4.36,0,0,1,2.5,1.92,13,13,0,0,0,.61,2.42A13.54,13.54,0,0,0,64.59,51a10.14,10.14,0,0,1-2.19-2.14,16.59,16.59,0,0,1-1.28-2.6A5.83,5.83,0,0,1,60.66,44.93Z"/><path class="cls-26" d="M68.26,53.08a3.62,3.62,0,0,1-1.59-.39A5.66,5.66,0,0,1,65,51.52c-1.55-1.53-1.85-4.67-1.85-4.67l.55-.2a3.49,3.49,0,0,1,3.57.89,3.38,3.38,0,0,1,.26.27l.1.12A4.58,4.58,0,0,1,68.26,53.08Z"/><path class="cls-27" d="M68.26,53.08a3.62,3.62,0,0,1-1.59-.39c0-.09.08-.2.12-.32a13.34,13.34,0,0,0,.75-4.56l.1.12A4.58,4.58,0,0,1,68.26,53.08Z"/><path class="cls-28" d="M67.28,47.54a3.86,3.86,0,0,1-3.57-.89A3.49,3.49,0,0,1,67.28,47.54Z"/><path class="cls-29" d="M50.79,48.55l-.42,2.78a4.8,4.8,0,0,1-2.22.42H48a3,3,0,0,1-2.1-.7C45.69,50.76,47,49,47.49,48.4c0,0,.42.29,1.56-.09a1.93,1.93,0,0,0,1.32-1.75c.07-.38.22-.58.39-.48a.58.58,0,0,1,.13.11A7.69,7.69,0,0,1,50.79,48.55Z"/><path class="cls-30" d="M50.79,48.55l-.42,2.78a4.8,4.8,0,0,1-2.22.42H48l1.6-2.43a8.29,8.29,0,0,0,1.18-3.24.58.58,0,0,1,.13.11A7.69,7.69,0,0,1,50.79,48.55Z"/><path class="cls-31" d="M50.27,47.22a2,2,0,0,1-1.65,1.42A1.56,1.56,0,0,1,47,48.12a3.12,3.12,0,0,1-.59-1.32c-.24-1,2.78-2.22,3.4-2.31.15,0,.27.1.34.31A5.91,5.91,0,0,1,50.27,47.22Z"/><path class="cls-32" d="M50.27,47.22a2,2,0,0,1-1.65,1.42A1.56,1.56,0,0,1,47,48.12a6.36,6.36,0,0,0,2-.82c.81-.6.78-1.53,1.09-2.37a.69.69,0,0,0,0-.13A5.91,5.91,0,0,1,50.27,47.22Z"/><path class="cls-33" d="M50.16,58.07l-.23.07c-1.24.28-2.37-.28-2.23-1.56a43.6,43.6,0,0,1,1-4.35l-.64,0a2.1,2.1,0,0,1-2.12-.8,2.77,2.77,0,0,1,.21-.29,7.23,7.23,0,0,0,1.63.35,9,9,0,0,0,2.12-.21c-.56,1.41-1.55,6.16-1.55,6.16C48.86,57.67,49.48,57.88,50.16,58.07Z"/><path class="cls-34" d="M55.47,69.08c-.28,3.39-.28,6.41-.26,7.77l-.64-.19c-.14-1.49.14-12.32.14-12.32a12.48,12.48,0,0,1-5.52-1,13.76,13.76,0,0,1-5.51-3.73A10,10,0,0,0,47,61.47a19,19,0,0,0,6.84,1.34,6.64,6.64,0,0,0,2.09-.32S55.84,64.45,55.47,69.08Z"/><path class="cls-35" d="M74.46,76.94a15.28,15.28,0,0,1-7.64,2.76,3.11,3.11,0,0,0-.24-1,29.81,29.81,0,0,0,5.36-1.77,12.4,12.4,0,0,0,2.24-1.76C74.36,76.23,74.46,76.94,74.46,76.94Z"/><path class="cls-36" d="M69.15,68.14c.38,2,.71,4.81.71,4.81l-1,.56a2.38,2.38,0,0,1,.45-.37l-.8-2.31a22.59,22.59,0,0,0-.66,3.72l-1.75,1.37a36.54,36.54,0,0,1,1.28-4.1A16.59,16.59,0,0,0,68.3,68a12.92,12.92,0,0,1,.52-3.07A11.49,11.49,0,0,1,70,62.85S68.78,66.15,69.15,68.14Z"/><path class="cls-37" d="M65.44,58.53l-.18.45-.28.75a4.67,4.67,0,0,1-.78.25,4.9,4.9,0,0,1-1.08.1h-.21l-.15,0a1.89,1.89,0,0,1-1.66-1.15l.06-.16.16-.43a4.26,4.26,0,0,0,1.63.49l.21,0h0a4.35,4.35,0,0,0,.71,0A3.71,3.71,0,0,0,65.44,58.53Z"/><path class="cls-38" d="M65.44,58.53,65,59.73a4.67,4.67,0,0,1-.78.25c-.09-.32-.21-.74-.32-1.1A3.71,3.71,0,0,0,65.44,58.53Z"/><path class="cls-39" d="M56.83,116.9a10.58,10.58,0,0,1-1.09.23,16.32,16.32,0,0,1-4.43,0,27.31,27.31,0,0,1,3.12-2.48s0,.15,1-.14h0a2,2,0,0,0,.74-.32A4.55,4.55,0,0,1,56.83,116.9Z"/><path class="cls-40" d="M56.83,116.9a10.58,10.58,0,0,1-1.09.23,6.24,6.24,0,0,0-.31-2.6,2,2,0,0,0,.74-.32A4.55,4.55,0,0,1,56.83,116.9Z"/><g class="cls-41"><path class="cls-42" d="M63.16,58.85l0,.91v.35a55.84,55.84,0,0,0-1.74,10.16c-.19,3.68-.08,6.75,0,7.9l-.21,0c-.06-1.18-.16-4.24,0-7.89a56.78,56.78,0,0,1,1.75-10.17h0v-.35l0-.92Z"/></g><path class="cls-39" d="M74.49,118.17a16,16,0,0,1-4.57-.34c-.63-.13-1-.25-1-.25a3.78,3.78,0,0,1-.28-2.41l.4,0,1.3-.16C71.07,115.74,74.49,118.17,74.49,118.17Z"/><path class="cls-40" d="M69.92,117.83c-.63-.13-1-.25-1-.25a3.78,3.78,0,0,1-.28-2.41l.4,0A9.92,9.92,0,0,0,69.92,117.83Z"/><path class="cls-43" d="M58.56,76.49h0a1.42,1.42,0,0,0,.07.22l.06.11h0a.61.61,0,0,0,.43.16c.11,0,1.17-.23,1.5-.3l-.1-.55-.19-1L59,75.49a1.65,1.65,0,0,0-.17.18h0s-.09.1-.13.16a1,1,0,0,0-.14.25.31.31,0,0,0,0,.13h0a1,1,0,0,1,0,.15Z"/><g class="cls-44"><path class="cls-45" d="M59.82,75.47l0,.16.55-.14,0-.14Z"/><path class="cls-45" d="M59.9,75.8l0,.16.54-.13,0-.14Z"/><path class="cls-45" d="M60,76.13l0,.16.52-.13,0-.13Z"/><path class="cls-45" d="M60.05,76.47l0,.17.52-.14,0-.13Z"/></g><g class="cls-44"><path class="cls-45" d="M58.67,75.83l.79-.16,0-.11-.62.11h0S58.71,75.77,58.67,75.83Z"/><path class="cls-45" d="M58.5,76.22l1-.25,0-.11-.95.22a.31.31,0,0,0,0,.13Z"/><path class="cls-45" d="M58.57,76.5l1-.22v-.1l-1,.19A.65.65,0,0,0,58.57,76.5Z"/><path class="cls-45" d="M58.64,76.72l.06.11h0l.91-.23,0-.1Z"/></g><path class="cls-46" d="M58.56,76.49h0a1.42,1.42,0,0,0,.07.22l.06.11h0a.61.61,0,0,0,.43.16c.11,0,1.17-.23,1.5-.3l-.1-.55C60.14,76.23,59.16,76.44,58.56,76.49Z"/><path class="cls-47" d="M60.66,76.8l.83-.16a1.16,1.16,0,0,0,0-.13.78.78,0,0,0,0-.14c0-.08,0-.17,0-.28a.9.9,0,0,1,0-.18c0-.08,0-.18,0-.27v0l0-.13-.06-.29,0-.13a1.55,1.55,0,0,0,0-.15l-.87.13,0,.14.17.87.12.66Z"/><path class="cls-48" d="M60.71,75.26l.56-.08,0-.13-.56.08Z"/><path class="cls-48" d="M60.81,75.76l.55-.12,0-.17-.54.11Z"/><path class="cls-48" d="M60.89,76.17l.54-.08a.9.9,0,0,1,0-.18l-.54.12Z"/><path class="cls-48" d="M61,76.56l.51,0a.78.78,0,0,0,0-.14l-.51.07Z"/><path class="cls-49" d="M60.66,76.8l.83-.16a1.16,1.16,0,0,0,0-.13.78.78,0,0,0,0-.14c0-.08,0-.17,0-.28a.9.9,0,0,1,0-.18c0-.08,0-.18,0-.27v0l-.84.44.12.66Z"/><path class="cls-50" d="M62.75,78.22h.08v.08A4.85,4.85,0,0,0,63,79.43a4.39,4.39,0,0,0,.51,1.06s0,0,.13.06h0l.27.06a1.05,1.05,0,0,0,.84-.21.77.77,0,0,1,.22-.15V80.2a3.06,3.06,0,0,0-.12-1h0a4,4,0,0,0-.4-1,2,2,0,0,1-.4-1.15c0-.34.67-.52.92-.62a.45.45,0,0,0,.24-.36L63,76.41a1.45,1.45,0,0,1-.73,1.68A1.06,1.06,0,0,0,62.75,78.22Z"/><path class="cls-51" d="M62.25,78.09a1.06,1.06,0,0,0,.5.13,6.68,6.68,0,0,0,.55-.89l.48,0a.89.89,0,0,0,.29.76,6.14,6.14,0,0,1,.82,1h0a4,4,0,0,0-.4-1,2,2,0,0,1-.4-1.15c0-.34.67-.52.92-.62a.45.45,0,0,0,.24-.36L63,76.41A1.45,1.45,0,0,1,62.25,78.09Z"/><path class="cls-51" d="M63,79.43a4.39,4.39,0,0,0,.51,1.06s0,0,.13.06h0c.13,0,.24,0,.24-.07a2.54,2.54,0,0,1,.29-.65,4.44,4.44,0,0,1-.22-.92,1.43,1.43,0,0,0-.52-1c-.09.2-.43.31-.64.36A4.85,4.85,0,0,0,63,79.43Z"/><path class="cls-51" d="M65,80.2a3.06,3.06,0,0,0-.12-1c-.2.07-.52.22-.5.5S64.61,80.27,65,80.2Z"/><polygon class="cls-52" points="62.25 78.09 62.25 78.09 62.24 78.09 62.25 78.09 62.25 78.09"/><path class="cls-53" d="M62.16,78.12h0l.09,0Z"/><path class="cls-54" d="M61.3,77.17l.16,0a.89.89,0,0,1,.77.16.69.69,0,0,1,0,.68,1.09,1.09,0,0,1-.08.14l.09,0h0a1.32,1.32,0,0,0,.64-.61,1,1,0,0,0,.12-.33,1.67,1.67,0,0,0,0-.71h0l1.32-.21.89-.13.88-.14.06,0c.1-.06.31-.27.27-.83,0-.74-.47-1-.67-1s-.45,0-.8.1l-.65.08-.13-.3-.83.17,0,.31-1.91.27-.31.05.3,1.84h-.08l-.22,0v0C61.2,76.78,61.3,77.17,61.3,77.17Z"/><path class="cls-55" d="M62,83.22a.39.39,0,0,0,.13.14L66,82.67s-.06-.6-.1-1a4.13,4.13,0,0,0-.05-.46h0l-.38.18a1.34,1.34,0,0,1,0,.34l-2.16.38a6.5,6.5,0,0,1-.6-.59,3.6,3.6,0,0,1,0-.49h0l-.41.42c-.32.12-.59.32-.5,1A1.84,1.84,0,0,0,62,83.22Z"/><path class="cls-53" d="M62.68,81.47h0a6.5,6.5,0,0,0,.6.59l.21,0,1-.18.91-.16a1.34,1.34,0,0,0,0-.34l.17-.08.21-.1.1,0-.12-.37-.2,0-.25,0a.64.64,0,0,1,0-.07,1,1,0,0,0-.35-.33l-.19,0a.69.69,0,0,1-.34.26.5.5,0,0,1-.21,0,4.52,4.52,0,0,1-.65-.09v.12l-.83.29-.16,0v0A3.73,3.73,0,0,0,62.68,81.47Z"/><path class="cls-56" d="M65.28,74.76,65.46,76s.9-.14.75-.87S65.28,74.76,65.28,74.76Z"/><polygon class="cls-57" points="62.27 81.56 62.37 81.94 61.99 82.11 61.92 81.71 62.27 81.56"/><path class="cls-58" d="M66.11,74.69s-.06-.24-.83-.13l0,.27A2.69,2.69,0,0,1,66.11,74.69Z"/><path class="cls-58" d="M66.18,74.83a8.26,8.26,0,0,1-.85.11l0,.25a3.52,3.52,0,0,0,.85-.18Z"/><path class="cls-58" d="M66.24,75.12a3.54,3.54,0,0,1-.86.18l0,.26.57-.17C66.25,75.31,66.24,75.12,66.24,75.12Z"/><path class="cls-58" d="M66.16,75.45a1,1,0,0,1-.71.36v-.15A3,3,0,0,0,66.16,75.45Z"/><path class="cls-58" d="M62.58,75.35s.11.86.11.86l-.44.07-.13-.86Z"/><polygon class="cls-58" points="65.02 74.8 65.11 75.79 64.67 75.9 64.54 74.87 65.02 74.8"/><path class="cls-56" d="M61.49,76.63l.27-.06a2.65,2.65,0,0,0,0-.87,8.44,8.44,0,0,0-.25-1l-.31.05Z"/><path class="cls-56" d="M62.68,81.47h0a6.5,6.5,0,0,0,.6.59l.21,0-.67-.57,0-.56-.16,0v0A3.73,3.73,0,0,0,62.68,81.47Z"/><path class="cls-59" d="M62.68,81.47h0a6.5,6.5,0,0,0,.6.59l2.16-.38a1.34,1.34,0,0,0,0-.34l.38-.18.1,0-.12-.37-.45-.09a.64.64,0,0,1,0-.07v.31Z"/><path class="cls-60" d="M62,83.22a.39.39,0,0,0,.13.14L66,82.67a5.92,5.92,0,0,1-.26-.82c-.7.12-3.39.51-3.61.61S61.87,82.87,62,83.22Z"/><polygon class="cls-61" points="66.52 75.81 66.38 76 66.19 75.86 66.33 75.69 66.52 75.81"/><path class="cls-62" d="M62.16,78.12l.09,0h0A1.43,1.43,0,0,0,63,76.44l2.21-.34.88-.14.06,0L66,75.82l-3.12.48A1.59,1.59,0,0,1,62.24,78,1.09,1.09,0,0,1,62.16,78.12Z"/><path class="cls-62" d="M64.53,81.85l.91-.16a1.34,1.34,0,0,0,0-.34l.17-.08v-.56l-.25,0a.64.64,0,0,1,0-.07,1,1,0,0,0-.35-.33l-.19,0a.69.69,0,0,1-.34.26c.11.21.26.59.26.59Z"/><path class="cls-63" d="M65.59,81a.1.1,0,0,0,.12.07.1.1,0,0,0,.07-.12.1.1,0,1,0-.19,0Z"/><path class="cls-63" d="M64.32,78.86a.16.16,0,1,0,.12-.19A.16.16,0,0,0,64.32,78.86Z"/><path class="cls-63" d="M63.06,78.69a.12.12,0,0,0,.24-.06.12.12,0,0,0-.15-.09A.13.13,0,0,0,63.06,78.69Z"/><path class="cls-63" d="M63.92,80.86a.12.12,0,0,0,.14.09.13.13,0,0,0,.1-.15.12.12,0,0,0-.15-.09A.11.11,0,0,0,63.92,80.86Z"/><path class="cls-63" d="M65.72,74.36A.12.12,0,1,0,66,74.3a.12.12,0,0,0-.15-.09A.13.13,0,0,0,65.72,74.36Z"/><path class="cls-63" d="M63.8,74.44a.14.14,0,0,0,.15.09.12.12,0,0,0,.09-.15.12.12,0,0,0-.14-.09A.13.13,0,0,0,63.8,74.44Z"/><path class="cls-63" d="M61.68,74.92a.12.12,0,0,0,.15.09.11.11,0,0,0,.09-.15.13.13,0,0,0-.15-.09A.14.14,0,0,0,61.68,74.92Z"/><path class="cls-64" d="M61.3,77.17l.16,0a.89.89,0,0,1,.77.16.69.69,0,0,1,0,.68,1.09,1.09,0,0,1-.08.14l.09,0h0a1.32,1.32,0,0,0,.64-.61,2.67,2.67,0,0,0,.12-.33,1.67,1.67,0,0,0,0-.71h0l-.12-.13-1.41.32-.08,0-.22,0C61.2,76.78,61.3,77.17,61.3,77.17Z"/><path class="cls-65" d="M64.34,76.23l.89-.13.88-.14.06,0c.1-.06.31-.27.27-.83,0-.74-.47-1-.67-1s-.45,0-.8.1a3.86,3.86,0,0,1-.07.87A4.68,4.68,0,0,1,64.34,76.23Z"/><path class="cls-66" d="M61.69,78.16h.13a1.69,1.69,0,0,0,.3,0h0c0-.06.31-.53.07-.82a.89.89,0,0,0-.77-.16l.08.14q0,.1.09.24a1.26,1.26,0,0,1,.06.38Z"/><path class="cls-67" d="M61.46,77.14l.08.14c.22,0,.66.07.58.85h0c0-.06.31-.53.07-.82A.89.89,0,0,0,61.46,77.14Z"/><polygon class="cls-68" points="62.17 74.65 62.62 74.59 62.99 74.54 62.96 74.39 62.59 74.44 62.18 74.5 62.17 74.65"/><polygon class="cls-69" points="62.59 74.44 62.62 74.59 62.99 74.54 62.96 74.39 62.59 74.44"/><path class="cls-70" d="M61.69,78.16h.13c0-.18,0-.59-.19-.64a1.26,1.26,0,0,1,.06.38Z"/><polygon class="cls-55" points="65.87 81.89 66.85 81.77 66.86 81.58 66.86 81.49 65.82 81.32 65.85 81.61 65.87 81.89"/><polygon class="cls-60" points="65.87 81.89 66.85 81.77 66.86 81.58 65.83 81.61 65.87 81.89"/><polygon class="cls-71" points="62.69 81.48 62.31 82.28 63.28 82.06 62.69 81.48"/><polygon class="cls-72" points="64.4 81.26 63.69 81.44 63.86 81.9 64.45 81.78 64.4 81.26"/><path class="cls-73" d="M62.72,79.84c-.14.26.69,1.09,1.76.65s1-1,.93-1.19-.12-.32-.72.18S62.81,79.66,62.72,79.84Z"/><path class="cls-74" d="M62.12,79.23a1.43,1.43,0,0,0,1.86.61c1.06-.37,1.06-.65,1.09-1.16s-.15-.6-.36-.25a2.76,2.76,0,0,1-1.39.81C63.08,79.26,62.06,79.05,62.12,79.23Z"/><path class="cls-75" d="M62.24,78.7a1.28,1.28,0,0,0,1.71.39c.9-.4,1-.9,1-1.26s-.07-.52-.62-.1a2.93,2.93,0,0,1-1.4.69C62.59,78.41,62.13,78.44,62.24,78.7Z"/><path class="cls-76" d="M60.92,52.19a1.63,1.63,0,0,1-.62,1.19c-.51.44-.92.67-.95.9s.33.67.78.64.33-.25.14-.2-.29.06-.57-.12-.18-.43,0-.51A4.55,4.55,0,0,0,60.89,53C61.15,52.53,61,52,60.92,52.19Z"/><path class="cls-77" d="M62,53.43c-.16-.19,1.08-.83,1.73-.35a1.48,1.48,0,0,1,.47,1.41A3.64,3.64,0,0,1,62,53.43Z"/><path class="cls-77" d="M58.89,52A.74.74,0,0,1,60,51.47a1.57,1.57,0,0,1,.65,1.45,10.55,10.55,0,0,1-1.27-.41A.75.75,0,0,1,58.89,52Z"/><path class="cls-77" d="M59.36,55.22c.14.15,1.82.64,2.57,1.09a1.6,1.6,0,0,1-1.65.43A1.45,1.45,0,0,1,59.36,55.22Z"/><path class="cls-78" d="M60.23,51.93a.58.58,0,0,1-.58.58.59.59,0,1,1,0-1.17A.58.58,0,0,1,60.23,51.93Z"/><path class="cls-78" d="M63.63,53.43a.65.65,0,1,1-.65-.65A.65.65,0,0,1,63.63,53.43Z"/><path class="cls-79" d="M62,53.43s.81-.8,1.56-.33a1.71,1.71,0,0,1,.73,1.37,2.1,2.1,0,0,0-.19-1.32,1.27,1.27,0,0,0-1.41-.38C62.36,52.88,62,53.43,62,53.43Z"/><path class="cls-80" d="M60.65,52.92s-.12-1-.57-1.28a.81.81,0,0,0-1.21.29s.19-.84.93-.71S60.7,52.42,60.65,52.92Z"/><path class="cls-2" d="M79.82,40.45s-4.89,1-11.44,2A169.47,169.47,0,0,1,47,44.53a102.62,102.62,0,0,1-19.69-2.12h0c-6.45-1.25-11.24-2.57-11.24-2.57s0-1,0-2.65c0-3.21-.09-9,0-15.33A32.14,32.14,0,0,1,18.18,11.4a29.82,29.82,0,0,1,5.07-9S36.53-.19,46.53,0H47C54.67.2,67.53,1,68.28,1.75a63.78,63.78,0,0,1,8,12.12,17.5,17.5,0,0,1,1.26,3.5C79,23.6,79.82,40.45,79.82,40.45Z"/><path class="cls-81" d="M79.82,40.45s-4.89,1-11.44,2A169.47,169.47,0,0,1,47,44.53a102.62,102.62,0,0,1-19.69-2.12h0c-6.45-1.25-11.24-2.57-11.24-2.57s0-1,0-2.65c8.38.07,18.68-.88,36.45-6.9a52.86,52.86,0,0,0,23.8-16.42,17.5,17.5,0,0,1,1.26,3.5C79,23.6,79.82,40.45,79.82,40.45Z"/><path class="cls-82" d="M47,0C39.88,4.84,25.43,9.54,18.18,11.4a29.82,29.82,0,0,1,5.07-9S36.53-.19,46.53,0Z"/><path class="cls-83" d="M72.67,18.7l-4.38,7.58-2.46,4.26-38.14.21-2.88-5L21,19.11l.6-2.64.94-4.1a76.52,76.52,0,0,0,23.58,3.06,144.21,144.21,0,0,0,24.66-2.76l1.1,3.41Z"/><path class="cls-84" d="M71.83,16.08A153,153,0,0,1,52.35,19a85.18,85.18,0,0,1-30.8-2.48l.94-4.1a76.52,76.52,0,0,0,23.58,3.06,144.21,144.21,0,0,0,24.66-2.76Z"/><path class="cls-2" d="M70.73,12.67c-.92,1.38-13.32,3.22-24.5,3.37s-22.52-.61-23.74-3.67c-.68-1.7.05-4.3.84-6.28a24.83,24.83,0,0,1,1.3-2.76A158.21,158.21,0,0,1,45.46,1.64c5.81,0,12.09.42,16.31.77,3,.25,5,.46,5,.46C68.9,4.71,71.65,11.29,70.73,12.67Z"/><path class="cls-84" d="M27.23,31.36s21.55,3.62,38.4-.51C65.63,30.85,35,30.29,27.23,31.36Z"/><path class="cls-2" d="M68.38,42.41A169.47,169.47,0,0,1,47,44.53a102.62,102.62,0,0,1-19.69-2.12l1.11-1.86s6.53,2.35,18,2.14a135.55,135.55,0,0,0,20.94-2Z"/><path class="cls-2" d="M16.51,37.18a12.39,12.39,0,0,1,8.48,0l.15,1.38Z"/><path class="cls-2" d="M69.92,38l9.39-1.84s-3.06-.82-9.29.3Z"/><path class="cls-81" d="M68.29,26.28l-2.46,4.26-38.14.21-2.88-5C32.4,27.63,57.76,28.55,68.29,26.28Z"/><path class="cls-85" d="M26.47,42v5.67a5.13,5.13,0,1,1-10.26,0v-8c0-2.83,2.29-2.76,5.13-2.76h.16l3.64,1.68A5.14,5.14,0,0,1,26.47,42Z"/><path class="cls-86" d="M26.47,42v4a107.56,107.56,0,0,0-10.26-4.54V39.63c0-2.83,2.29-2.76,5.13-2.76h.16l3.64,1.68A5.14,5.14,0,0,1,26.47,42Z"/><g class="cls-87"><polygon class="cls-88" points="16.82 40.4 20.88 42.77 20.65 44.84 16.82 42.31 16.82 40.4"/><polygon class="cls-88" points="16.97 44.61 20.72 46.75 20.65 48.51 16.97 46.52 16.97 44.61"/><path class="cls-88" d="M21.41,44.38c0,.23.08,2.3.08,2.3l4.36-1.23-.15-1.84Z"/><polygon class="cls-88" points="21.57 48.44 21.57 50.43 25.4 49.74 25.63 47.83 21.57 48.44"/><polygon class="cls-88" points="17.12 48.05 20.57 49.82 20.65 51.73 17.2 49.74 17.12 48.05"/></g><path class="cls-85" d="M69.43,42v5.67a5.13,5.13,0,1,0,10.26,0v-8c0-2.83-2.29-2.76-5.13-2.76H74.4l-3.64,1.68A5.14,5.14,0,0,0,69.43,42Z"/><path class="cls-86" d="M69.43,42v4a106.44,106.44,0,0,1,10.26-4.54V39.63c0-2.83-2.29-2.76-5.13-2.76H74.4l-3.64,1.68A5.14,5.14,0,0,0,69.43,42Z"/><g class="cls-87"><polygon class="cls-88" points="79.08 40.4 75.02 42.77 75.25 44.84 79.08 42.31 79.08 40.4"/><polygon class="cls-88" points="78.93 44.61 75.18 46.75 75.25 48.51 78.93 46.52 78.93 44.61"/><path class="cls-88" d="M74.49,44.38c0,.23-.08,2.3-.08,2.3L70,45.45l.16-1.84Z"/><polygon class="cls-88" points="74.33 48.44 74.33 50.43 70.5 49.74 70.27 47.83 74.33 48.44"/><polygon class="cls-88" points="78.78 48.05 75.33 49.82 75.25 51.73 78.7 49.74 78.78 48.05"/></g><path class="cls-89" d="M68.38,11.24c-.8.91-7.25,2.7-16.33,3l-.41,0c-9.29.3-22.67.1-26-2.15s-.1-8-.1-8S35.4,3,45.41,2.87a195.3,195.3,0,0,1,20.22,1,9.67,9.67,0,0,1,1.08,1.47C68,7.5,69,10.52,68.38,11.24Z"/><path class="cls-90" d="M68.38,11.24c-.8.91-7.25,2.7-16.33,3A47.63,47.63,0,0,1,66.71,5.36C68,7.5,69,10.52,68.38,11.24Z"/><path class="cls-85" d="M38.77,16S41,14.31,47.86,14.1,56,15.53,56,15.53,44.7,16.14,38.77,16Z"/><path class="cls-91" d="M61.77,2.41C58.28,3.29,54,4.31,50,5,42.14,6.42,30.42,6.62,23.33,6.09a24.83,24.83,0,0,1,1.3-2.76A158.21,158.21,0,0,1,45.46,1.64C51.27,1.64,57.55,2.06,61.77,2.41Z"/><polygon class="cls-92" points="56.95 34.22 56.54 38.92 45.92 38.69 37.04 38.51 36.94 34.12 52.27 34.19 56.95 34.22"/><path class="cls-93" d="M57,34.22l-.41,4.7-10.62-.23a45.49,45.49,0,0,0,6.34-4.5Z"/><path class="cls-94" d="M24.88,25.44A38.3,38.3,0,0,1,16,25.33V20l.41-2.34,4.9,1.43Z"/><path class="cls-95" d="M24.88,25.44A38.3,38.3,0,0,1,16,25.33V20.27C19.37,21.29,23.33,23.69,24.88,25.44Z"/><path class="cls-94" d="M69.2,24.83a48.25,48.25,0,0,0,9.29-.21l-.41-5.21-.41-2.35-4.9,1.43Z"/><path class="cls-95" d="M69.2,24.83a55.74,55.74,0,0,0,9.4-.31l-.52-4.86C74.71,20.68,70.75,23.08,69.2,24.83Z"/></g></g></g></svg>