<?xml version="1.0" encoding="utf-8"?>
<!-- Generator: Adobe Illustrator 26.0.0, SVG Export Plug-In . SVG Version: 6.00 Build 0)  -->
<svg version="1.1" id="Group_1" xmlns="http://www.w3.org/2000/svg" xmlns:xlink="http://www.w3.org/1999/xlink" x="0px" y="0px"
	 viewBox="0 0 352.4 170.1" style="enable-background:new 0 0 352.4 170.1;" xml:space="preserve">
<style type="text/css">
	.st0{fill:#FFFFFF;}
</style>
<g id="Shape_3">
	<path class="st0" d="M342.8,40.9c-5.2-2.9-10.8-5.1-16.6-6.5c-24.9-6.3-54-5.6-54-5.6c-13.5,0.3-23.6,1.2-43.6,4l-39.2,5.5
		c-14.9,2.4-38.9,4-65.1-5.5c-6.8-2.4-13.3-5.4-19.5-9c4.6,5.4,10.2,9.9,16.3,13.4c5.9,3.2,12.3,5.5,18.9,6.9
		c17.8,3.9,34.7,2.3,45.9,0.4c20.5-2.9,38.1-4.9,51.7-6.3c17.5-1.8,41.1-3.7,66-2.3c6.5,0.3,13,1.1,19.4,2.4
		c17.2,3.7,28.8,10.6,29.4,9.6C352.8,47.1,347.4,43.5,342.8,40.9z"/>
</g>
<path class="st0" d="M105.9,64.8c-1.1,1-2.3,1.8-3.5,2.7c-14.5-14.4-38-14.4-52.5,0c-1.2-0.8-2.4-1.7-3.5-2.7
	c13.1-16.4,37-19.1,53.4-6C102.1,60.6,104.1,62.6,105.9,64.8L105.9,64.8z"/>
<path class="st0" d="M317.7,67.8c-1.1,1-2.3,1.8-3.5,2.7c-14.5-14.4-38-14.4-52.5,0c-1.2-0.8-2.4-1.7-3.5-2.7
	c13.1-16.4,37-19.1,53.4-6C313.9,63.6,315.9,65.6,317.7,67.8z"/>
<g id="gray">
	<g id="Shape_2">
		<path class="st0" d="M208.4,18.7c-46.3-7.4-86.8,5.1-86.6,6.1c0.1,0.5,10.6-3.2,27.8-1.9c23,1.8,29.3,10.3,50.2,8.9
			c4.9-0.3,6.5-0.9,17.6-1.9c15.7-1.3,22.2-0.9,22.4-2.1C240.1,25.9,224.3,21.2,208.4,18.7z"/>
	</g>
	<g id="Shape_4">
		<path class="st0" d="M284.2,42.5c-4.2,0-10.3,0.2-17.7,0.7c-5.1,0.4-8.8,0.8-13.9,1.3c-23.5,2.5-19.7,2-25.5,2.6
			c-28.6,3.2-46,6.2-66.1,6.2l0,0c-11.1-0.5-22.2-2.1-33-4.5L93,38.5l-12.6-3.2c10.1,5.1,20.6,9.5,31.4,13
			c14.9,5.1,30.5,8.4,46.2,9.7c14.3,1.1,24.7,0,45.5-2c16.6-1.7,30.4-3.8,40.1-5.6c12.7-2,23.1-3.2,30-4c10.6-1.1,19.3-1.7,19.3-2.6
			C292.8,43.3,288.1,42.8,284.2,42.5z"/>
		<path class="st0" d="M284.2,42.5c-4.2,0-10.3,0.2-17.7,0.7c-5.1,0.4-8.8,0.8-13.9,1.3c-23.5,2.5-19.7,2-25.5,2.6
			c-28.6,3.2-46,6.2-66.1,6.2l0,0c-11.1-0.5-22.2-2.1-33-4.5L93,38.5l-12.6-3.2c10.1,5.1,20.6,9.5,31.4,13
			c14.9,5.1,30.5,8.4,46.2,9.7c14.3,1.1,24.7,0,45.5-2c16.6-1.7,30.4-3.8,40.1-5.6c12.7-2,23.1-3.2,30-4c10.6-1.1,19.3-1.7,19.3-2.6
			C292.8,43.3,288.1,42.8,284.2,42.5z"/>
	</g>
	<g id="Shape_6">
		<path class="st0" d="M352.3,68c-0.6-1.4-1.2-2.8-2-4.1c-2.8-4.9-7.3-8.7-12.6-10.5c-1-0.3-1.8,1-1.4,2.3c0.3,1.1,0.6,2.2,0.7,3.3
			c0.4,3.1,0,6.2-1.1,9.1c-0.4,1.1,0.2,2.4,1.1,2.4h14.2C352.1,70.4,352.7,69.1,352.3,68z"/>
	</g>
	<path class="st0" d="M337.6,54.3"/>
	<path class="st0" d="M256.8,45.1"/>
	<path class="st0" d="M240.9,58.5"/>
</g>
<g id="CAR_CARE">
	<path class="st0" d="M36,75.7c8.1,0,14.6,6.6,14.6,14.7c0,0,0,0,0,0.1v4.1H39v-4.1c0-1.7-1.4-3.1-3.1-3.1H25.5
		c-1.8,0-3.2,1.4-3.2,3.1c0,0,0,0,0,0v26.3c0,1.8,1.4,3.2,3.1,3.2c0,0,0.1,0,0.1,0H36c1.7,0,3.1-1.5,3.1-3.2v-5.7h11.6v5.7
		c0.1,8.1-6.4,14.8-14.5,14.8c0,0-0.1,0-0.1,0H25.5c-8.2,0-14.8-6.6-14.9-14.7c0,0,0-0.1,0-0.1V90.5c0-8.2,6.6-14.8,14.8-14.8
		c0,0,0.1,0,0.1,0H36z"/>
	<path class="st0" d="M84.3,75.7c8.2,0,14.8,6.6,14.9,14.8v41.2H87.4v-20.8l-16.7,4.6v16.2H58.9V90.5c0-8.2,6.6-14.8,14.8-14.8
		c0,0,0.1,0,0.1,0H84.3z M73.8,87.4c-1.7,0-3,1.4-3.1,3.1v13L87.4,99v-8.5c0-1.7-1.4-3-3.1-3.1L73.8,87.4z"/>
	<path class="st0" d="M133.4,75.7c8.2,0,14.8,6.6,14.8,14.8v5.3c0,5.7-3.3,10.8-8.4,13.2l6.1,22.6h-12.1l-5.2-19.5l-9.8,2.6v16.9
		h-11.6v-56L133.4,75.7z M118.8,102.7l16.1-4.2c0.9-0.6,1.5-1.6,1.6-2.7v-5.3c0-1.7-1.4-3.1-3.1-3.1h-14.6L118.8,102.7z"/>
	<path class="st0" d="M198.6,75.7c8.1,0,14.6,6.6,14.6,14.7c0,0,0,0,0,0.1v4.1h-11.6v-4.1c0-1.7-1.4-3.1-3.1-3.1h-10.4
		c-1.8,0-3.2,1.4-3.2,3.1c0,0,0,0,0,0v26.3c0,1.8,1.4,3.2,3.2,3.2c0,0,0,0,0.1,0h10.5c1.7,0,3.1-1.5,3.1-3.2v-5.7h11.5v5.7
		c0.1,8.1-6.4,14.8-14.5,14.8c0,0-0.1,0-0.1,0h-10.5c-8.2,0-14.8-6.6-14.9-14.7c0,0,0-0.1,0-0.1V90.5c0-8.2,6.6-14.8,14.8-14.8
		c0,0,0.1,0,0.1,0H198.6z"/>
	<path class="st0" d="M246.9,75.7c8.2,0,14.9,6.6,14.9,14.8c0,0,0,0,0,0v41.2H250v-20.8l-16.7,4.6v16.2h-11.8V90.5
		c0-8.2,6.6-14.8,14.8-14.8c0,0,0.1,0,0.1,0H246.9z M236.4,87.4c-1.7,0-3,1.4-3.1,3.1v13L250,99v-8.5c0-1.7-1.4-3-3.1-3.1
		L236.4,87.4z"/>
	<path class="st0" d="M296.1,75.7c8.2,0,14.8,6.6,14.8,14.8v5.3c0,5.7-3.3,10.8-8.4,13.2l6.1,22.6h-12.1l-5.2-19.5l-9.8,2.6v16.9
		h-11.6v-56L296.1,75.7z M281.4,102.7l16.1-4.2c0.9-0.6,1.5-1.6,1.6-2.7v-5.3c0-1.7-1.4-3.1-3.1-3.1h-14.6V102.7z"/>
	<path class="st0" d="M333,87.3c-1.7,0-3.1,1.4-3.1,3.1v12l17.1-4.5v12l-17.2,4.5v2.4c0,1.7,1.4,3.1,3.1,3.1h19.4v11.7H333
		c-8.2,0-14.8-6.6-14.8-14.7c0,0,0-0.1,0-0.1V90.4c0-8.1,6.6-14.7,14.7-14.7c0,0,0.1,0,0.1,0h19.3v11.5L333,87.3z"/>
</g>
<g id="Layer_7">
	<path class="st0" d="M6.7,86.2c-2.8-5.4-4.5-11.3-4.9-17.4C1.1,57.7,5.5,54.6,5.1,43.6C4.6,30-2.3,24.8,0.8,20.8s11,0.4,27,0.2
		c6.6-0.1,9.2-0.9,26-4.2c12.3-2.4,24.8-4.5,37.1-6.8c35.2-6.6,52.8-9.9,66.5-10c17.1-0.2,34.1,2,50.5,6.6
		c7.9,2.2,15.7,5.1,23.2,8.4c-19.2-4.4-38.8-6.5-58.5-6.3c-15.6,0.2-32.6,2.9-66.7,8.4C47.7,26.5,57.4,29.5,43,29
		c-5.2-0.2-14.1-0.8-21.1,4.8c-1.7,1.4-6,5.3-10.6,24C9,67.1,7.4,76.6,6.7,86.2z"/>
</g>
<path class="st0" d="M52.9,159h-12l-2,4.4h-4.7l10.3-23.1h4.7l10.3,23.1h-4.7L52.9,159z M46.9,145.1l-4.3,9.8h8.5L46.9,145.1z"/>
<path class="st0" d="M64.8,140.3v23h-4v-23H64.8z"/>
<path class="st0" d="M83.1,147.1l3.5,12.2l3.7-12.2h4.5l-5.6,16.3h-4.6l-1.7-4.8l-1.4-5.4l-1.4,5.4l-1.7,4.8h-4.6L68,147.1h4.5
	l3.7,12.2l3.5-12.2H83.1z"/>
<path class="st0" d="M111,147.1h3.9v16.2h-3.8l-0.2-2.4c-0.9,1.9-3.4,2.8-5.2,2.9c-4.8,0-8.3-2.9-8.3-8.6s3.7-8.5,8.4-8.5
	c2.1-0.1,4,0.9,5.1,2.6L111,147.1z M101.3,155.2c-0.2,2.6,1.8,4.8,4.3,4.9c0.2,0,0.3,0,0.5,0c6.3,0,6.3-9.9,0-9.9
	c-2.5-0.1-4.7,1.9-4.8,4.4C101.3,154.9,101.3,155,101.3,155.2L101.3,155.2z"/>
<path class="st0" d="M133.8,147.1l-9.9,23h-4.4l3-7.1l-6.4-16h4.6l2.5,7l1.5,4.6l1.7-4.5l3-7.1L133.8,147.1z"/>
<path class="st0" d="M146.4,151.4c-1.1-1-2.5-1.5-4-1.5c-1.9,0-2.9,0.6-2.9,1.6s1,1.6,3,1.8c3,0.2,6.9,0.9,6.9,5.2
	c0,2.9-2.3,5.3-6.9,5.3c-2.8,0.2-5.5-0.9-7.5-2.9l2-2.9c1.5,1.4,3.5,2.2,5.6,2.3c1.5,0,2.9-0.8,2.9-1.9s-0.9-1.6-3.2-1.7
	c-3-0.2-6.7-1.4-6.7-5s3.9-5.1,6.8-5.1c2.3-0.2,4.6,0.6,6.3,2.1L146.4,151.4z"/>
<path class="st0" d="M172.4,161.3c-1.6,1.7-3.9,2.6-6.2,2.6c-4.7,0-8.6-2.8-8.6-8.6s3.9-8.6,8.6-8.6c2.2-0.1,4.3,0.8,5.8,2.4
	l-2.5,2.7c-0.9-0.8-2-1.3-3.2-1.3c-2.5-0.1-4.6,1.9-4.7,4.4c0,0.1,0,0.2,0,0.4c-0.2,2.4,1.6,4.6,4.1,4.7c0.2,0,0.4,0,0.5,0
	c1.3,0,2.6-0.4,3.5-1.4L172.4,161.3z"/>
<path class="st0" d="M178.2,140.3v23h-4v-23H178.2z"/>
<path class="st0" d="M197.7,155.2c0.2,4.5-3.2,8.3-7.7,8.5c-0.2,0-0.5,0-0.7,0c-5.2,0-8.4-3.8-8.4-8.5c-0.2-4.5,3.3-8.3,7.7-8.5
	c0.2,0,0.4,0,0.6,0c4.5-0.1,8.3,3.4,8.5,7.9C197.7,154.9,197.7,155,197.7,155.2z M184.9,155.2c0,2.5,1.5,4.8,4.4,4.8
	s4.4-2.3,4.4-4.8c0.1-2.5-1.8-4.7-4.3-4.8c0,0,0,0,0,0C186.4,150.4,184.9,152.8,184.9,155.2z"/>
<path class="st0" d="M211,151.4c-1.1-1-2.5-1.5-4-1.5c-1.9,0-3,0.6-3,1.6s1,1.6,3,1.8c3,0.2,6.9,0.9,6.9,5.2c0,2.9-2.3,5.3-6.9,5.3
	c-2.8,0.2-5.5-0.9-7.5-2.9l2-2.9c1.5,1.4,3.5,2.2,5.6,2.3c1.5,0,2.9-0.8,2.9-1.9s-0.9-1.6-3.2-1.7c-3-0.2-6.7-1.4-6.7-5
	s3.9-5.1,6.8-5.1c2.3-0.1,4.6,0.6,6.3,2.2L211,151.4z"/>
<path class="st0" d="M219.9,156.6c0.3,2,2,3.5,4.8,3.5c1.6,0,3.1-0.5,4.3-1.5l2.5,2.5c-1.9,1.8-4.4,2.7-6.9,2.6
	c-5.6,0-8.9-3.5-8.9-8.7c0-5,3.3-8.5,8.6-8.5c5.4,0,8.8,3.4,8.1,10.1H219.9z M228.7,153.3c-0.3-2.1-1.9-3.2-4.2-3.2
	c-2.1-0.2-4,1.2-4.5,3.2H228.7z"/>
<path class="st0" d="M247.9,142.5v4.6h4.5v3.5h-4.5v7c0,1.5,0.9,2.3,2.1,2.3c0.7,0,1.3-0.2,1.9-0.5l1.1,3.4c-1,0.4-2.2,0.7-3.3,0.7
	c-3.5,0.1-5.8-1.9-5.8-5.9v-7h-3v-3.5h3v-4.2L247.9,142.5z"/>
<path class="st0" d="M271.4,155.2c0,4.7-3.2,8.5-8.4,8.5s-8.4-3.8-8.4-8.5c-0.2-4.5,3.3-8.3,7.7-8.5c0.2,0,0.4,0,0.6,0
	c4.5-0.1,8.3,3.4,8.5,7.9C271.4,154.9,271.4,155,271.4,155.2z M258.6,155.2c0,2.5,1.5,4.8,4.4,4.8c2.9,0,4.4-2.3,4.4-4.8
	c0.1-2.5-1.8-4.7-4.3-4.8c0,0,0,0-0.1,0C260.1,150.4,258.6,152.8,258.6,155.2z"/>
<path class="st0" d="M297,147.1l-9.8,23h-4.4l3-7.1l-6.5-16h4.6l2.5,7l1.5,4.6l1.7-4.5l2.9-7.1L297,147.1z"/>
<path class="st0" d="M315.2,155.2c0.2,4.5-3.2,8.3-7.7,8.5c-0.2,0-0.5,0-0.7,0c-5.2,0-8.4-3.8-8.4-8.5c-0.2-4.5,3.3-8.3,7.7-8.5
	c0.2,0,0.4,0,0.6,0c4.5-0.1,8.3,3.4,8.5,7.9C315.2,154.9,315.2,155,315.2,155.2z M302.3,155.2c0,2.5,1.5,4.8,4.4,4.8
	c2.9,0,4.4-2.3,4.4-4.8c0.1-2.5-1.8-4.7-4.3-4.8c0,0,0,0-0.1,0C303.8,150.4,302.3,152.8,302.3,155.2z"/>
<path class="st0" d="M322,147.1v8.5c0,2.5,1.3,4.4,3.9,4.4c2.4-0.1,4.2-2,4.1-4.4c0-0.1,0-0.1,0-0.2v-8.3h4v16.3h-3.6l-0.3-2.2
	c-1.4,1.6-3.4,2.5-5.5,2.4c-3.9,0-6.7-2.9-6.7-8v-8.5L322,147.1z"/>
</svg>
