<?xml version="1.0" standalone="no"?>
<!DOCTYPE svg PUBLIC "-//W3C//DTD SVG 20010904//EN"
 "http://www.w3.org/TR/2001/REC-SVG-20010904/DTD/svg10.dtd">
<svg version="1.0" xmlns="http://www.w3.org/2000/svg"
 width="1000.000000pt" height="1000.000000pt" viewBox="0 0 1000.000000 1000.000000"
 preserveAspectRatio="xMidYMid meet">

<g transform="translate(0.000000,1000.000000) scale(0.100000,-0.100000)"
fill="#000000" stroke="none">
<path d="M4300 7053 c-204 -15 -706 -97 -1740 -284 -404 -73 -582 -110 -655
-134 -195 -66 -453 -91 -865 -82 -152 3 -284 9 -294 13 -16 6 -18 4 -13 -12
71 -219 87 -319 87 -536 0 -175 -17 -337 -51 -497 l-21 -95 54 -183 c50 -174
68 -215 68 -158 0 14 8 67 19 118 10 50 24 139 31 197 24 213 104 468 227 723
49 101 72 139 87 142 12 3 152 28 311 55 409 72 980 178 1045 195 205 53 683
144 1200 230 589 98 864 121 1349 112 389 -7 623 -34 881 -101 52 -13 96 -23
98 -22 1 2 -63 29 -144 60 -356 138 -752 226 -1154 256 -125 9 -414 11 -520 3z"/>
<path d="M4625 6749 c-269 -22 -664 -87 -850 -139 l-70 -20 55 5 c652 56 1205
5 1586 -146 l101 -41 399 41 c219 23 428 44 464 48 l65 6 -45 19 c-220 94
-540 173 -860 213 -149 19 -681 28 -845 14z"/>
<path d="M3220 6462 c0 -17 134 -135 211 -187 346 -232 879 -350 1499 -331
167 4 301 18 720 70 960 121 1578 184 2023 206 159 8 233 7 375 -6 462 -40
835 -118 1050 -219 50 -24 92 -42 92 -40 0 2 -38 29 -84 59 -191 128 -475 229
-894 318 l-197 41 -325 5 c-518 6 -1086 -23 -1343 -69 -509 -91 -1098 -142
-1642 -143 -418 0 -653 19 -894 75 -190 44 -482 152 -561 209 -17 12 -30 17
-30 12z"/>
<path d="M2845 6177 c344 -174 833 -363 1131 -436 271 -66 274 -66 794 -66
488 1 627 9 875 51 98 16 279 61 308 76 10 5 163 34 340 64 362 61 663 116
782 144 98 22 281 40 435 41 126 2 118 10 -28 28 -112 14 -431 14 -620 0 -128
-9 -1378 -204 -1537 -239 -76 -17 -761 -25 -962 -11 -414 29 -674 84 -888 186
-102 49 -356 143 -466 173 -41 11 -112 22 -159 25 l-85 5 80 -41z"/>
<path d="M8650 5946 c0 -2 11 -29 25 -61 38 -85 67 -199 65 -258 -1 -29 -1
-67 -1 -84 l1 -33 225 0 225 0 -15 38 c-26 61 -104 170 -159 218 -60 53 -163
117 -225 139 -62 21 -141 44 -141 41z"/>
<path d="M2265 5819 c-81 -11 -162 -53 -300 -157 -77 -57 -145 -130 -145 -154
0 -4 18 -8 40 -8 29 0 56 10 97 37 76 48 188 96 293 125 73 20 108 23 250 23
127 -1 180 -5 230 -19 102 -28 208 -72 294 -121 56 -32 91 -45 118 -45 43 0
45 4 20 45 -54 89 -188 184 -322 230 -145 50 -385 68 -575 44z"/>
<path d="M7274 5817 c-70 -10 -95 -20 -171 -66 -112 -66 -207 -143 -252 -201
l-34 -45 42 -3 c33 -3 52 3 89 27 74 47 189 98 287 127 121 36 331 45 454 20
114 -23 233 -68 335 -127 64 -36 97 -49 126 -49 22 0 40 3 40 6 0 3 -13 25
-30 49 -73 106 -222 199 -388 241 -79 21 -127 26 -257 29 -93 2 -194 -1 -241
-8z"/>
<path d="M1212 5304 c-29 -7 -67 -21 -84 -30 -53 -28 -125 -109 -150 -171 -23
-57 -23 -63 -23 -443 0 -429 2 -444 70 -533 79 -103 177 -137 397 -137 221 0
291 20 379 111 66 68 90 136 97 272 l5 107 -136 0 -135 0 -3 -85 c-3 -72 -7
-88 -27 -107 -22 -22 -30 -23 -177 -23 -147 0 -155 1 -177 23 l-23 23 0 344 0
344 23 23 c22 22 30 23 178 23 l156 0 24 -28 c20 -23 24 -39 24 -88 l0 -59
136 0 137 0 -5 88 c-7 115 -35 188 -97 251 -55 56 -104 84 -179 100 -76 16
-345 13 -410 -5z"/>
<path d="M2362 5304 c-29 -7 -67 -21 -84 -30 -53 -28 -125 -109 -150 -171 -23
-58 -23 -60 -26 -585 l-3 -528 141 0 140 0 0 193 0 194 188 52 c103 28 190 51
195 51 4 0 7 -110 7 -245 l0 -245 140 0 140 0 0 503 c0 560 -2 578 -65 674
-43 64 -119 117 -200 138 -78 20 -347 20 -423 -1z m388 -286 c18 -19 20 -35
20 -137 l0 -116 -183 -49 c-100 -27 -188 -51 -194 -54 -10 -3 -13 34 -13 165
0 225 -11 213 195 213 146 0 155 -1 175 -22z"/>
<path d="M3250 4655 l0 -665 135 0 135 0 2 202 3 203 100 27 c55 15 107 27
116 28 12 0 29 -51 76 -227 l59 -228 142 -3 c78 -1 142 -1 142 2 0 2 -32 123
-71 267 l-71 263 23 16 c148 95 205 257 169 479 -25 148 -126 257 -272 291
-24 5 -188 10 -365 10 l-323 0 0 -665z m670 365 c17 -17 20 -33 20 -113 0 -81
-3 -96 -20 -112 -14 -13 -366 -115 -396 -115 -2 0 -4 81 -4 180 l0 180 190 0
c177 0 191 -1 210 -20z"/>
<path d="M5102 5310 c-113 -21 -208 -96 -259 -205 l-28 -60 -3 -344 c-5 -445
4 -498 102 -599 87 -92 189 -118 428 -109 131 4 152 7 205 31 145 67 213 192
213 394 l0 62 -135 0 -135 0 0 -75 c0 -84 -12 -118 -47 -134 -14 -6 -81 -11
-158 -11 -144 0 -176 8 -194 47 -7 16 -11 132 -11 348 0 216 4 332 11 348 18
39 50 47 194 47 77 0 144 -5 158 -11 32 -15 47 -49 47 -109 l0 -50 135 0 135
0 0 38 c0 68 -20 164 -45 211 -32 63 -98 125 -169 157 -56 25 -70 27 -225 30
-91 2 -190 -1 -219 -6z"/>
<path d="M6242 5309 c-111 -19 -208 -95 -259 -204 l-28 -60 -3 -527 -3 -528
140 0 141 0 0 195 0 194 38 11 c20 5 107 29 192 53 l155 44 3 -249 2 -248 140
0 140 0 0 488 c0 310 -4 510 -11 547 -15 80 -48 142 -102 192 -59 55 -111 80
-188 93 -76 12 -282 11 -357 -1z m359 -288 c16 -20 19 -40 19 -140 l0 -117
-175 -48 c-97 -26 -184 -50 -195 -53 -19 -5 -20 0 -20 161 0 99 4 175 11 187
17 33 47 39 197 36 138 -2 145 -3 163 -26z"/>
<path d="M7100 4656 l0 -666 135 0 135 0 0 204 0 204 103 25 c57 15 110 29
118 32 11 4 26 -37 68 -197 30 -112 58 -218 63 -235 l9 -33 141 0 c112 0 139
3 135 13 -12 31 -137 505 -137 518 1 8 21 27 47 43 25 16 60 49 77 73 54 76
65 123 66 270 0 112 -3 141 -22 190 -29 79 -112 161 -193 193 -58 24 -70 24
-402 28 l-343 4 0 -666z m671 365 c16 -19 19 -40 19 -115 0 -61 -5 -98 -13
-110 -9 -13 -73 -34 -203 -67 -104 -27 -192 -49 -196 -49 -5 0 -8 84 -8 186
l0 185 191 -3 c187 -3 191 -4 210 -27z"/>
<path d="M8529 5310 c-106 -18 -206 -98 -256 -205 l-28 -60 -3 -344 c-4 -363
2 -440 40 -515 28 -56 94 -123 149 -151 69 -36 150 -45 397 -45 l222 0 0 135
0 134 -245 3 c-237 3 -245 4 -267 25 -16 16 -22 35 -22 69 l-1 47 198 53 c110
29 201 54 203 57 3 2 3 65 2 139 l-3 135 -175 -47 c-96 -26 -187 -50 -202 -54
l-28 -6 0 156 0 156 29 29 29 29 241 0 241 0 0 135 0 135 -237 -1 c-131 -1
-259 -5 -284 -9z"/>
<path d="M1617 3578 c-13 -29 -67 -150 -120 -269 -54 -119 -97 -219 -97 -223
0 -3 22 -6 50 -6 50 0 50 0 75 50 l25 50 146 0 146 0 21 -50 21 -50 53 0 c29
0 53 2 53 5 0 3 -54 125 -120 272 l-119 268 -55 3 -56 3 -23 -53z m133 -187
l49 -111 -104 0 -104 0 36 83 c19 45 42 97 50 116 8 18 16 31 19 28 2 -2 27
-54 54 -116z"/>
<path d="M2030 3355 l0 -275 45 0 45 0 0 275 0 275 -45 0 -45 0 0 -275z"/>
<path d="M4730 3355 l0 -275 45 0 45 0 0 275 0 275 -45 0 -45 0 0 -275z"/>
<path d="M6428 3563 l-38 -4 0 -50 0 -49 -35 0 c-34 0 -35 -1 -35 -40 0 -39 1
-40 35 -40 l35 0 0 -97 c0 -115 16 -158 70 -186 26 -13 48 -17 84 -13 27 3 51
8 54 11 3 2 1 19 -4 37 -9 30 -13 33 -48 33 -55 0 -66 21 -66 127 l0 88 55 0
55 0 0 40 0 40 -55 0 -55 0 0 55 c0 30 -3 54 -7 53 -5 -1 -25 -3 -45 -5z"/>
<path d="M3905 3465 c-56 -20 -85 -56 -85 -106 0 -58 38 -93 116 -108 92 -19
109 -25 112 -44 2 -10 -4 -27 -14 -38 -24 -27 -80 -24 -139 6 -51 25 -51 26
-77 -19 -21 -38 65 -86 156 -86 102 0 166 48 166 126 0 70 -35 102 -131 118
-42 7 -82 16 -88 20 -15 9 -14 39 1 54 17 17 93 15 128 -3 28 -14 29 -14 50
16 22 29 22 31 4 44 -23 17 -93 35 -131 35 -15 -1 -46 -7 -68 -15z"/>
<path d="M4471 3466 c-59 -20 -99 -60 -116 -120 -26 -86 -14 -154 36 -211 60
-68 184 -84 265 -34 l35 22 -32 33 c-29 30 -34 32 -53 19 -30 -22 -98 -19
-129 5 -58 46 -57 147 2 189 34 25 92 27 125 6 22 -15 25 -14 50 19 l26 34
-34 22 c-45 27 -119 34 -175 16z"/>
<path d="M5037 3466 c-57 -16 -93 -46 -118 -101 -22 -47 -25 -132 -5 -178 18
-44 77 -94 128 -108 79 -21 179 13 216 73 104 169 -34 365 -221 314z m129
-110 c28 -28 34 -42 34 -75 0 -48 -21 -96 -49 -111 -11 -5 -36 -10 -56 -10
-47 0 -71 13 -90 50 -63 121 67 240 161 146z"/>
<path d="M5445 3465 c-56 -20 -85 -56 -85 -106 0 -58 38 -93 116 -108 92 -19
109 -25 112 -44 2 -10 -4 -27 -14 -38 -24 -27 -80 -24 -139 6 -51 25 -51 26
-77 -19 -21 -38 65 -86 156 -86 102 0 166 48 166 126 0 70 -35 102 -131 118
-42 7 -82 16 -88 20 -15 9 -14 39 1 54 17 17 93 15 128 -3 28 -14 29 -14 50
16 22 29 22 31 4 44 -23 17 -93 35 -131 35 -15 -1 -46 -7 -68 -15z"/>
<path d="M5868 3470 c-105 -32 -157 -130 -134 -255 8 -41 55 -99 100 -122 47
-25 160 -23 213 5 23 12 44 26 47 30 3 5 -8 21 -24 37 -27 26 -30 26 -51 11
-15 -10 -44 -16 -82 -16 -51 0 -62 4 -88 29 -16 16 -29 34 -29 40 0 7 50 11
150 11 l150 0 0 50 c0 28 -6 65 -14 83 -33 80 -144 126 -238 97z m105 -79 c30
-12 57 -38 57 -57 0 -11 -21 -14 -106 -14 l-106 0 14 23 c16 24 73 57 100 57
9 0 28 -4 41 -9z"/>
<path d="M6797 3466 c-57 -16 -93 -46 -118 -101 -22 -47 -25 -132 -5 -178 18
-44 77 -94 128 -108 79 -21 179 13 216 73 104 169 -34 365 -221 314z m129
-110 c28 -28 34 -42 34 -75 0 -48 -21 -96 -49 -111 -11 -5 -36 -10 -56 -10
-47 0 -71 13 -90 50 -63 121 67 240 161 146z"/>
<path d="M3004 3451 c-128 -60 -138 -265 -16 -348 65 -43 155 -40 216 8 l26
20 0 -25 c0 -24 3 -26 45 -26 l45 0 0 190 0 190 -45 0 c-39 0 -45 -3 -45 -21
0 -20 0 -20 -32 2 -44 32 -138 37 -194 10z m176 -90 c14 -10 30 -34 37 -54 32
-95 -58 -182 -150 -143 -47 19 -72 59 -71 113 2 93 107 141 184 84z"/>
<path d="M7797 3449 c-76 -40 -117 -153 -87 -244 31 -95 131 -149 232 -125 58
14 115 59 134 107 30 70 8 190 -42 235 -56 50 -170 63 -237 27z m159 -77 c32
-25 44 -55 44 -106 0 -36 -6 -52 -28 -78 -25 -27 -36 -31 -77 -31 -41 0 -52 4
-77 31 -22 26 -28 42 -28 78 0 49 20 97 47 113 28 16 96 12 119 -7z"/>
<path d="M2200 3454 c0 -5 106 -304 127 -361 3 -8 25 -13 58 -13 l52 0 21 58
c11 31 27 83 36 115 9 31 19 57 21 57 2 0 9 -19 15 -42 6 -24 22 -76 36 -115
l26 -73 53 0 52 0 63 178 c35 97 65 183 68 190 3 8 -10 12 -46 12 l-51 0 -35
-112 c-19 -62 -38 -125 -41 -140 -4 -16 -10 -26 -15 -23 -4 2 -24 65 -46 140
l-39 135 -41 0 -40 0 -38 -132 c-21 -73 -41 -137 -45 -141 -4 -4 -13 12 -20
35 -7 24 -26 87 -43 141 l-31 97 -48 0 c-27 0 -49 -3 -49 -6z"/>
<path d="M3369 3413 c11 -27 44 -109 75 -182 31 -74 56 -140 56 -147 0 -6 -16
-46 -35 -88 l-35 -77 52 3 53 3 43 100 c24 55 77 175 117 268 l74 167 -52 0
-52 0 -54 -135 c-30 -74 -56 -135 -57 -135 -1 0 -23 61 -49 135 l-48 135 -53
0 -54 0 19 -47z"/>
<path d="M7297 3328 c30 -73 65 -158 76 -190 l21 -56 -32 -74 c-18 -40 -32
-77 -32 -81 0 -4 21 -7 46 -5 l46 3 114 260 c63 143 114 264 114 268 0 4 -21
7 -47 5 l-48 -3 -52 -130 c-29 -71 -56 -128 -60 -126 -5 1 -28 61 -53 132
l-45 129 -52 0 -51 0 55 -132z"/>
<path d="M8170 3332 c0 -159 17 -203 92 -241 44 -21 52 -22 97 -11 27 6 57 20
67 31 23 26 34 24 34 -6 0 -22 4 -25 40 -25 l40 0 0 190 0 190 -45 0 -45 0 0
-120 c0 -118 0 -120 -29 -152 -24 -27 -36 -33 -71 -33 -34 0 -47 6 -66 28 -23
26 -24 36 -24 153 l0 124 -45 0 -45 0 0 -128z"/>
</g>
</svg>
